<svg width="130" height="130" viewBox="0 0 130 130" fill="none" xmlns="http://www.w3.org/2000/svg">
<path d="M63.1068 31.5534C63.1068 48.9799 48.9799 63.1068 31.5534 63.1068C14.1269 63.1068 0 48.9799 0 31.5534C0 14.1269 14.1269 0 31.5534 0C48.9799 0 63.1068 14.1269 63.1068 31.5534Z" fill="#942629"/>
<path d="M130 31.5534C130 48.9799 115.873 63.1068 98.4466 63.1068C81.0201 63.1068 66.8932 48.9799 66.8932 31.5534C66.8932 14.1269 81.0201 0 98.4466 0C115.873 0 130 14.1269 130 31.5534Z" fill="#942629"/>
<path d="M63.1068 98.4466C63.1068 115.873 48.9799 130 31.5534 130C14.1269 130 0 115.873 0 98.4466C0 81.0201 14.1269 66.8932 31.5534 66.8932C48.9799 66.8932 63.1068 81.0201 63.1068 98.4466Z" fill="#942629"/>
<path d="M130 98.4466C130 115.873 115.873 130 98.4466 130C81.0201 130 66.8932 115.873 66.8932 98.4466C66.8932 81.0201 81.0201 66.8932 98.4466 66.8932C115.873 66.8932 130 81.0201 130 98.4466Z" fill="#942629"/>
</svg>
