<svg width="130" height="116" viewBox="0 0 130 116" fill="none" xmlns="http://www.w3.org/2000/svg">
<path d="M24.0122 63.2727C27.3933 57.4141 35.846 57.4141 39.2271 63.2727L62.0494 102.818C65.4304 108.677 61.2041 116 54.4419 116H8.79741C2.03525 116 -2.1911 108.677 1.18998 102.818L24.0122 63.2727Z" fill="#942629"/>
<path d="M90.7729 63.2727C94.154 57.4141 102.607 57.4141 105.988 63.2727L128.81 102.818C132.191 108.677 127.965 116 121.203 116H75.5581C68.7959 116 64.5696 108.677 67.9506 102.818L90.7729 63.2727Z" fill="#942629"/>
<path d="M56.5141 4.39394C59.8952 -1.46464 68.3479 -1.46465 71.729 4.39394L94.5513 43.9394C97.9323 49.798 93.706 57.1212 86.9438 57.1212H41.2993C34.5371 57.1212 30.3108 49.798 33.6919 43.9394L56.5141 4.39394Z" fill="#942629"/>
</svg>
