<svg width="130" height="130" viewBox="0 0 130 130" fill="none" xmlns="http://www.w3.org/2000/svg">
<path d="M0 12.6214C0 5.65077 5.65078 0 12.6214 0H50.4854C57.456 0 63.1068 5.65078 63.1068 12.6214V50.4854C63.1068 57.456 57.456 63.1068 50.4854 63.1068H12.6214C5.65077 63.1068 0 57.456 0 50.4854V12.6214Z" fill="#942629"/>
<path d="M66.8932 12.6214C66.8932 5.65077 72.544 0 79.5146 0H117.379C124.349 0 130 5.65078 130 12.6214V50.4854C130 57.456 124.349 63.1068 117.379 63.1068H79.5146C72.544 63.1068 66.8932 57.456 66.8932 50.4854V12.6214Z" fill="#942629"/>
<path d="M0 79.5146C0 72.544 5.65078 66.8932 12.6214 66.8932H50.4854C57.456 66.8932 63.1068 72.544 63.1068 79.5146V117.379C63.1068 124.349 57.456 130 50.4854 130H12.6214C5.65077 130 0 124.349 0 117.379V79.5146Z" fill="#942629"/>
<path d="M66.8932 79.5146C66.8932 72.544 72.544 66.8932 79.5146 66.8932H117.379C124.349 66.8932 130 72.544 130 79.5146V117.379C130 124.349 124.349 130 117.379 130H79.5146C72.544 130 66.8932 124.349 66.8932 117.379V79.5146Z" fill="#942629"/>
</svg>
