<?xml version="1.0" encoding="UTF-8"?>
<svg id="Layer_2" data-name="Layer 2" xmlns="http://www.w3.org/2000/svg" viewBox="0 0 165.45 299.68">
  <g id="Layer_1-2" data-name="Layer 1">
    <g>
      <path d="M97.09,246.93c-2.59-.39-9.09-1.01-9.84-3.68-.46-1.63,1.69-4.14-2.15-5.31.7,4.31-1.9,11.51,1.98,14l-.99-4.99,3.49-.05.67,2.87,2.84.18-2.09,7.39,2.08,1.59-3.98-1c-1.75,4.88-1.64,7.02-.94,11.94l4.93.06-2.99-3.98,4.99-.02-1.02-2.47,3.02.47-4-2,.48-1.97,3.53.48-1.87-.66.45-2.88-3.6-.96,1.02-3.98,3,2.99-.5-1.99c3.4.88,2.7-.72,4.48-1.99,2.11,7.1,5.44,14.84,2.77,22.25-1.99,5.54-5.44,1.57-7.75-1.26l-5.02,18.99-2-5-1.98,1.01.98-4-2.53,3.04-7.45-4.56c-.5-3,1.92-.27,3.04-.96.92-.58,1.62-3.25,2.93-4.02l-4.98-1.51,1.99-3.98h-8.99s5,18.99,5,18.99l1.49-6,1,3.01,2.01-1.99,2.47,2.02-.5,2-3.48-1.01,1.01,2.99,4.89-.92c1.79,3.69,1.18,6.76-1.88,9.48-5.39,2.62-14.42-23.67-13.04-28.56-1.52-.28-.98,1.68-2.04,2.45-2.29,1.67-5.67,1.72-6.51-1.37-2.87-10.55,7.99-33.54,11.27-44.87,4.26-14.7,8.21-29.81,8.29-45.21l3.05.44.79,1.21c-.69,22.02,9.34,42.11,12.15,63.34ZM84.1,185.94c-4.27-.55.07,7.26-1,9l-1.98-1.01-1,11,.98-3.49,2,.5-.99-3,2.99,1.99-.99-14.99ZM83.1,225.93c2.3,1.33,1.39,3.34,2.01,4,2.6,2.76.19-4.07,2.98-1.99l-1.01,2.99,4,1c1.39-5.83-1.94-11.27-3.12-16.87l-4.87-.12c-.2,1.44,7.08,2.8,4.99,4.99-1.72,1.8-2.05-1.86-2.64-2-1.13-.26-3.94-.7-3.34,1.49l6,2.03-3,.5.99,2.98-2.99-1.98c0,.99-.05,2-.01,2.99-.37-.21-1.59.26-1.98-.02-.13-.09,1.49-2.7-1.01-2.98l-4.99,9.5,1.96,1.48.67-2.03,4.34.03c1.03,11.84-1.9,23.75-1.03,35.54.12,1.68.14,7.27,3.04,6.46v-36.5c0-.38-1.27-1.45-.97-2.91l3.96-2.09c-3.63-2.34-3.83-2.3-3.98-6.5ZM73.1,248.93c5.08.6,6.23,3.95,5.99,9l-4.99-2.99c.45,1.11.96,4.01-.99,3.98.69-3.24-5.68-5.03.99-5v-2.99s-1.99,1.99-1.99,1.99c-.54-1.55.84-3.02.99-3.99-1.36-.16-3.08.35-4.33.02s-.01-2.44-1.66-2.02l-1,5.99,1.98-1.99v3.99s-2.98.49-2.98.49c1.7,2.62,4.06,2.79,6.99,2.52l-1.09,3.89-4.9-.9,1,6c3.53.9,1.17-2.78,2.1-3.88l4.32-1.01,1.28,1.88-.71,4h6s0-22.99,0-22.99l-1.49,2-6.5-2.99c1.85,2.57,1.34,2.71,1,4.99Z"/>
      <path d="M73.1,11.93c0-4.62,11.61-18.72,13.99-8l-4.98-2.99.1,5.89c3.6-.77,4.74,2.82,5.04,2.93.69.26,2.77-1.69,4.88-.38,2.94,1.82,7.08,18.13,7.02,22.01-.09,5.58-7.23,36.12-5.89,37.46.24.24,1.73-.15,2.54.4.71.48-.27,2.09,1.31,1.68v-5s-2,.5-2,.5c.4-2.71,1.13-5.43,1.98-8.02,1.86-5.71,7.09-17.45,13.61-18.42,11.77-1.76,11.09,14.1,5.92,20.95l2.49-12.99-2.66,2.98-5.32-1.98,1.02,6.43c-3.99,1.29-1.92,7.12,1.97,7.06-1.81,6.01-5.82,8.75-8.97,13.03-2.66,3.63-7.06,11.01-10.03,13.47-.02-1.94-3.66-3.7-2.01-8l-7.98-1,.9,3.56c-3.94,1.14-1.21,4.22-.91,6.44l-.94.55-1.06,4.95c.25-25.26,2.46-50.9.14-76.06,3.29-1.69,3.79-3.97,2.86-7.45-.8.27-1.64.85-2.5.82-5.42-.21-1.51-5.71-8.42-3.68l-.24,2.68c-.44.59-1.67.04-1.84.19ZM93.1,21.94c-3.15-.75-5.4.59-7.99-2.01v8s4.98-1.01,4.98-1.01l-2.99-2.98,5.99-1.99ZM91.1,27.94l-1.99,1.98-4.01-.98c1.03,3.94,1.49,9.26,0,12.98,2.58,1.05,1.63-1.78,2.64-2.01,1.33-.3,2.95.13,4.35.01.58-2.63-.71-1.47-2.07-2.6l1.09-5.39c1.66-.42.39,1.71,1.66,2.02,1.03.25,2.25-.09,3.32-.02l-2,3.99,2.99,1.01v-11c-2.33,2.75-4.79-.08-5.48,3l-.51-2.99ZM96.1,39.94c-3.7-.87-1.11,3.24-2.13,4.86l-3.86,1.15,3,.99c.32.28-1.79,5.15.49,4.98,1.73-.13,2.76-10.06,2.49-11.97ZM85.1,59.43v19.5l3.4-5.97,1.61-12.02,2.98,2,1.03-9.49c-3.99.78-2.53-3.8-6.01-3.51l.99,3.98-2.99-1.98-1.01,7.49ZM103.1,72.93l3.51-5.97c-.89,1.79-4.68,2.65-5.3,3.12-.16.12.36,2.83-1.21,3.85l3.54.77,1.46-1.27-1.99-.5ZM97.1,72.94c-.8-.67-3.33.41-4.13,1.45-1.29,1.68,1.14,3.41-2.88,5.53l6.01-1-.86-1.84,2.84-1.64c-1.08-.48-.88-2.42-.99-2.5Z"/>
      <path d="M63.1,72.93c.18-.27-.34-1.61.07-2.2.58-.85,1.9-.9,1.97-1.45.2-1.51-1.28-3.61-1.05-5.35l-1.98,1.02-1-3.01-.92,4.58,1.9,1.4-3.59-.89-1.57-4.98-2.84-.12.61-3.03-3.61-.98,1.01-2.99,2.42,1.04.59-2.02,1.98-.02c-.73,3.39,2.07,2.98,3.01,4.99l-3.99,2.01c2.78-1.34,5.2.58,6.99-2.5-4.44-1.06.91-3.14-1-6.49l3.88.13c1.93,5.4,3.49,12.48,7.13,16.86-.04.33.02.67,0,1-3.73.62-1.32,1.89-4,4l-4.4-3.05c-.33-.02-1.57,1.92-1.6,2.05Z"/>
      <path d="M73.1,11.93c0,.94,1.43,3.6,1,3.99-.29.26-2.36-.65-3.05.64-.82,1.54-2.68,12.3-1.94,13.37l1.99-1.02.13,2.84,4.87,1.17c1.34-4.16-2.02-2.99-1.98-6l2.99.99-2-2.98,2.99,1,1-2.99-4.01-1.03,1.06-4.93,4.8.08c2.54,4.21.2,8.2.1,12.31-.56,23.15.5,46.39.05,69.54,3.01-.7,3.56-2.62,6.99-1-3.45-2.35-2.43-3.68-3-7.99l4.44,1.06,1.55-2.06.52,2.01.98-.03c.67-.87,1.71-1.32,2.51-1.99.02,2.9-4.52,13.4-5.53,17.97-1.71,7.72-1.75,19.38-3.91,26.09-.4,1.25-3.91,5.44-4.54,4.94-3.73-14.68-2.96-30.3-9.03-44.48,2.34-1.96,1.5,1.35,3.91,2.05,1.35.4,2.7.54,4.1.44l.05-7.33-4.56-2.63-2.17,3c-6.87,1.76-8.47-8.88-10.31-13.04h4s-1.51-2.98-1.51-2.98c1.35,2.37,2.84.9,3.51.98.19.02.79.81,1.66.95,2.72.44,9.28-1.55,6.34,4.04l2.54-1c.32-2.3.99-4.79-1.45-5.45l.9-2.54c-2.6-1.22-2.28,2.9-3.49,2.98-1.41.09-2.61-1.39-2.51-2.98.92-.15,2.03.11,3-.01v-6.98s2.99,3.99,2.99,3.99c1.61-4.73-.63-8.18-1.99-12.58.11-2.46,5.19-2.37,2.31-5.4l-7.3-1.01c.66,2.23.7,4.83,1.48,7.01.66,1.87,3.55,3.65,2.02,4.98l-3.5-3.99c.06,3.43,1.75,7.42,1.95,10.69.09,1.53-.93,2.1-.96,2.3-2.91-15.92-8.57-31.79-4.51-48.01.89-3.54,1.71-6.64,4.51-8.99ZM73.1,44.94h-1.99v.98h1.99v-.98ZM82.94,100.12l-2.83-.18,1.99,1.48c-1.57,1.52-2.67,3.87-4.99,2.51v3.99s5.99-2.99,5.99-2.99v3.99s-1.98-1.99-1.98-1.99l-1.02,2.98c3.56.4,3.29,2.7,7.91.92l1.02-6.35c-.87-2.22-3.23-.45-4.49-1.45-.88-.7-1.19-2.68-1.59-2.92Z"/>
      <path d="M63.1,72.93c-.19.84.13,2.06,0,3-.1-.22-2.05-.46-2.03-2.5,0-.82,1.95-.39,2.03-.5Z"/>
      <path d="M137.1,157.93c-.34-.02-.72.07-1,0,.02-.33,0-.67,0-1,.49.16.74.86,1,1Z"/>
      <path d="M138.1,158.93c-.34-.31-.71-.84-1-1,.23.01.7.74,1,1Z"/>
      <path d="M55.1,144.93c1.64-2.08,1.24-2.64,4.45-3.05,9.33-1.19,36.55-1.03,46.07.02,11.17,1.24,10.49,13.45-.11,14.94-9.35,1.31-26.05-.19-36.04-.57-2.03-.08-4.25.88-6.83.68-7.48-.56-13.13-4.95-7.54-12.02.73,3.18-1.16,8.52,3.54,9.04,4.4.49,3.37-6.94,8.45-7.06-.1-4.18-4.59-4.48-7.93-3.87l-.07,2.89-3.99-1ZM91.92,143.2c-1.1-.65-2.58-.17-3.82-.25v3.47s2-.5,2-.5l.13,2.86,2.87.17-2.99,1,1.99,1.98h-6.99c-.44-1.63,1.74-.5,2.02-1.61.2-.78.58-3.72-1.01-3.37-.33,4.66-6.03,2-8.58,4.98l.59,2.99c3.05,1.4,5.08-2.35,6.42-2.57,1.74-.28,8.77,1.66,9.56,1.11,1.25-2.28-.33-4.22,2.01-7.01l-2-.99,3.99-2.5c-2.8.02-4.73-1.05-5.5,2-.92.15-.21-1.47-.68-1.75Z"/>
      <path d="M55.1,113.93s-.03-.68,0-1c.64.54.08.72,0,1Z"/>
      <path d="M52.1,109.93c-.21-.16-.83.17-1,0s.17-.86,0-1h1v1Z"/>
      <path d="M48.1,105.93c-9.91-2.43-15.89-10.36-25.99-6.49-7.82,3-7.9,9.54-5.01,16.48-14.73,1.58-21.36-12.04-14.21-24.7,6.25-11.08,20.84-11.01,31.48-7.06,2.91,1.08,4.87,3.13,7.72,3.77,1.62-1.59-8.69-9.2-3.52-10,5.29-.82,8.48,1.53,12.44,4.59,1.88,1.45,12.34,10.24,5.28,9.62l-.4,2.6-2.81.21,1.02,2.99c-5.54,1.23-10.75-.74-16.01-1.98,1.99,4.55,8.53,2.98,8.04,7.98,2.21-2.47,8.79,4.62,9.53,6.09.7,1.37-.46,1.52-.58,1.92l-1-1c-.35-.29-.63-.76-1-1-.33-.34-.65-.68-1-1s-.64-.7-1-1-.63-.76-1-1c-.2-.36-.67-.72-1-1-1.58-1.33-.82.04-1,0ZM49.22,86.11c.14-.23,2.24,1,2.86-.67l-4.49-3.49-.51,4.99c-1.61.44-.71-1.45-1.17-1.68-.42-.21-1.82.48-2.81-.31l.58,3.06-3.42,1.09-.15,3.86,7.99.99-2.99-3.48c4.64-1.44,3.09-2.71,4.11-4.34ZM30.78,84.29c-4.8-1.23-9.72-1.63-14.68-1.35.17,4.27,1.87,6.14,4.58,9.05,3.96.76,3.96-5.06,4.92-5.06,1.22,3.12,3.61,3.48,6.49,2l1,3.01c.06-1.09.03-2.94.93-3.57,1.34-.94,4.22.56,4.07-1.41-1.88-.93-4.61-.51-6.23-1.09-.8-.28-.83-1.5-1.07-1.57ZM8.42,92.66c-.6-1.62-.35-3.07-.33-4.72-4.19,1.8-3.28,4.37-3.99,7.99l2.99-1.98c2.77,6.64-8.28.59-5.98,9.99l1.45-1.83,6.53,1.42,3.02-5.58,1.98,2.99,1-4.99-3.39.97c-.29-1.22-3.19-4-3.28-4.25ZM27.1,89.94h-1.99s1.5,1.99,1.5,1.99l.49-1.99Z"/>
      <path d="M51.1,108.93c-.14-.17-.83.17-1,0s.16-.79,0-1h1v1Z"/>
      <path d="M50.1,106.93c.15.26-.16.79,0,1v1l1,1h1c.21.16.76-.15,1,0,.33.33.57.76,1,1l1,1c-.09.32.11.73,0,1-.09.24-.99.3-.99.5.37.1.71.52.99.5-.18.6.49,2.03-.5,2-1.48-2.14-9.33-7.02-6.5-10h1c.09.69.62.75,1,1Z"/>
      <path d="M67.1,208.93c1.34-10.04,6.04-20.97,3-30.99,2.18.58,6.03,1.82,6.6,3.93.43,1.58-.46,13.92-.73,16.43-1.27,11.81-4.94,26-12.87,35.17-1.45,1.67-3.76.75-2.99,3.46l3.48-2.01,6.5-7.99-4,13.99-1.48-4.97-8.49,4.96c2.87-.56,1.29,2.91,1.99,5.02l3.98-1c.83,4.41-2.94,6.17-5.5,8.99l-.48-3.47-1.99-.51c.17,2.65-3.56,2.58-5.78,3.67-1.14.56-1.24,2.01-1.45,2.11-.82.4-7.6-1.2-9.78,1.2l-2.01-2.5c2.69-.73,2.17-1.87,2.02-4.5l4,1.99-2.51-3.99c-.78-.19-7.77,6.13-6.49,8-1.57-1.22-3.05-.64-3.76-4.73-1.77-10.19,2.96-7.07,9.01-8.52,3.99-.96,7.59-3.05,11.74-2.76-1.32-5.18,2.79-4.03,4.69-6.31,2.03-2.42,1.4-7.17,7.83-3.69l-1.5-2.48,2.98-1.52c.4-.62-1.81-1.33-1.56-3,.36-2.44,3.93-12.84,5.56-13.98-.27,2.03,1.63,3.73-1,5.98,3.52-.32,1.93,3.39,3.99,4.01.79-4.7,5.11-13.98,4.05-18.35-.29-1.17-2.46,0-2.03-1.63l3.06-.56-.08-6.45-1,2.99-2.98-2.99c.77,5.53-3.11,10.73-1,15.99l1.98-1.99v3.99c-4.13.89-1.93-3.14-4.99-1ZM52.1,243.94h-2.99s-.51,2.99-.51,2.99l-.98-2.01-3.51,2.52c1.97.78,2.27,1.19,2.01,3.49,1.86-.12,1.68-4.68,3.99-2.5l-1.99,3.5c3.9-.83,3.86-4.48,3.98-8Z"/>
      <path d="M122.1,88.92c3.33.17,4.67-3.29,7.99-.98-1.15-4.04,6.5-5.52,9.62-5.9,5.05-.61,11.8-.26,16.12,2.65,2.44,1.64,8.47,8.15,9.04,10.97,2.68,13.3-4.09,25.26-18.77,20.26,8.75-6.53,2.75-17.68-7.49-17.79-4.53-.05-8.35,2.69-12.51,3.79,4.28-5.91,13.55-4.79,20-4-.81-3.19-10.56-1.58-10.96-1.99l-1.06-5c-3.22-.72-2.73,3.95-3.01,6.01-4.47-2.49-4.71,5.78-6.98.99l2-2c-4.26-1.27-3.76,1.72-5.6,2.85-2.27,1.41-5.1,1.91-6.92,4.13l-2.62-4.9-3.44.84c-.84-3.71-3.14-2.28-2.12.54.2.56,1.17.46,1.35.75.25.42-.59,1.36-.42,1.57.58.72,5,2.17,4.77,2.7-10.06,8.62-15.22,20.64-18.11,33.39l-3.88.12c.43-12.99,5.27-25.35,9.97-37.26,4.49-2.37,5.45-11.53,11.58-8.86,1.65.72,1.79-.15,1.44,2.61l-5,1.5,7.38.07,1.63-5.07,2.98,1.01c1.9-2.51-3.04-6.51-4.98-4.99-2.46-6.08,13.75-11.54,13.97-7.51l-5.98,9.5ZM153.1,85.92c-2.56-3.48-8.55-2.93-12.32-3.02l-1.68,4.03,2.98-.77.51-2.25,3.51.04-.85,1.83,3.35,2.15-.5-2.99,2.19,1.77,2.81-.79ZM155.1,94.91c-5.26-7.27-3.92.12-4.54,1.08-.67,1.04-3.44.36-2.45,3.43l5.99,1.5-1.71-4.53,2.71-1.48ZM163.08,93.94l-5.86,5.66c-.82,3.23,2.12,2.62,2.72,3.54.34.52-1.23,3.31,1.15,4.3l-3.99,1.01c-.37,1.21.4,3.18,1.5,3.48,4.5,1.23,6.03-9.23,5.48-11.99l-1.98,1.99-2-3.01c-.08-1.9,2.82-1.45,3.98-.98l-1.01-3.99ZM98.1,117.94l-3.99-1.02-.02,9.01-1.98-1.01-2.01,10c4.59.54,3.05-7.39,3.21-7.83.06-.15,2.06-.24,2.42-2.1.45-2.31-1.45-3.05-1.45-3.57.03-2.76,4.84-.38,3.82-3.48Z"/>
      <path d="M71.47,173.56c-4.69-2.44-4.58-9.07.61-11.15,6.6-2.64,31.1-3.15,25.28,9.28-2.3,4.9-21.71,4.05-25.9,1.86ZM76.1,173.93h17c-.28-2.95-6.73-.74-6.99-1l1.98-5c-1.76-.1-2.73,2.35-3.24,2.68-.17.11-2.79,1.58-2.98,1.65-1.73.62-4.91-1.49-5.77,1.67Z"/>
      <path d="M138.11,243.93c2.47,15.48-16.48,20.68-26.96,12.46-1.64-1.29-4.15-4.76-.05-4.45-1.02,4.78,5.82,4.25,8.94,2.93-.54-3.92,1.47-5.36-.95-9.94l-4.5,3.01c-.83-1.87-1.25-2.37-3.5-2.01.98-3.13,1.62-3.47,5-3,.53-1.41-4.03-.87-1.99-2.99.58-.6,3.53,2.67,2.98-.48-2.38-3.08-5.76-9.55-9.98-7.51l3,1.5-3.02,6.98,4.02,2.04-2.99,4.47c.2-1.48-2.22-6.28-4-4.99l-2,3.99-6-16.99,9.98,9-3.98-5.51,1.98-.48c1.22-2.53-.16-4.15-1.04-6.5l2.06-.99-2.67-3.45-4.26.82-1.07-1.89,1.49,6.99c-7.98-13.18-9.85-29.79-10.5-44.99l5.98-1.02c2.56,26.13,12.13,62.16,44.02,63ZM92.96,183.08l-3.86-.14,3.01,22.98,1.97-1.98,3,2.99-1.1-9.88c-3.4,1.08-7.78-7.07-2.9-7.13l1.99,6-2.13-12.85ZM133.09,244.95l-6.99-1.01,1,3.99-3.99.5c2.16,4.39,4.91,3.57,7.98.51.37,14.53,8.12-1.95,6.01-4h-2.99s1.49,4.01,1.49,4.01c-.77-1.95-1.25-2.36-3.51-2.02l1-1.97Z"/>
      <path d="M63.08,48.9c-2.02,1.45-4.34.1-5.52.2-.67.06-.37,1.53-.94,1.7-.72.22-9.35-1.47-9.58-2.52-.76-12.98,15.41-9.78,16.04.62Z"/>
      <polygon points="72.11 137.93 67.11 119.93 69.59 123.93 72.14 122.23 73.09 118.94 76.13 135.45 75.14 137.48 72.11 137.93"/>
      <path d="M113.1,109.94c-1.29,2.65-1.69,5.64-3.34,8.15-1.4,2.12-3.49,2.87-4.43,4.57-1.97,3.58-3.6,11.46-5.23,15.62-7.45,3.23-.1-12.23,1.45-15.4,1.16-2.36,8.42-15.39,11.54-12.95Z"/>
      <path d="M67.11,138.93c-1.1-4.96-4.87-9.35-6.5-14-1.29-3.66.02-10.22-4.51-9l1.02-2.99c3.77,3.13,6.88,9.14,8.75,13.74,1.2,2.96,4.98,10.88,1.25,12.26Z"/>
      <path d="M62.54,97.5c2.56,3.14.9,2.39,1.53,5.79.19,1.04,3-.04,2.02,2.64l-3.98,2c6.52-4.86,5.53,3.8,4.98,8.01-1.93,1.89-10.56-10.08-10.82-11.72-.28-1.81.68-3.73,1.34-5.38l2.48.1-.99-3.99c2-.41,2.42,1.31,3.44,2.56ZM60.6,106.93v1c.65-.33.65-.67,0-1Z"/>
      <polygon points="117.11 108.93 117.6 105.94 119.08 107.43 117.11 108.93"/>
      <path d="M119.6,103.93c.65.33.65.67,0,1v-1Z"/>
      <rect x="87.11" y="224.94" width=".98" height="1.99"/>
      <path d="M85.6,225.93c.65.33.65.67,0,1v-1Z"/>
    </g>
  </g>
</svg>