<?xml version="1.0" encoding="UTF-8"?>
<svg id="Layer_2" data-name="Layer 2" xmlns="http://www.w3.org/2000/svg" viewBox="0 0 1022.79 941.69">
  <g id="Layer_1-2" data-name="Layer 1">
    <g>
      <path d="M85.86,568.71c-7.09-12.74-10.77-19.05-9.99-34.49,1.68-33.12,29.48-60.35,62.45-62.55,28.37-1.89,50.93,10.28,72.53,27.04.54-2.21-1.26-2.23-2.29-3.2-34.86-33.13-92.09-38.76-124.21,1.19-8.63,10.73-9.01,25.13-16.49,34.51-4.55,5.71-17.19,9.15-19.99.51,3.58.82,4.08,3.15,8.35,2.94,12.81-.64,14.24-15.87,18.17-24.93,21.62-49.9,84.95-54.79,125.4-24.43,14.78,11.09,23.14,21.92,33.63,36.37,4.39,6.04,8.86,12.16,13.45,18.04-.65-3.45-2.86-6.83-4.76-9.73-6.94-10.62-14.85-21.38-22.41-31.59-20.08-27.09-67.15-85.21-102.33-87.67-14.03-.98-30.82,5.23-26.49,21.98-13.07-2.21-12.04-20-3.89-27.4,10.56-9.58,29.27-7.76,41.57-2.77,22.77,9.23,34.15,30.01,52.32,45.17l-1.99-3.5c-14.37-13.36-26.31-30.23-42.68-41.32-15.13-10.26-42.54-18.24-60.53-13.88-18.45,4.46-40.94,26.36-34.28,46.7,3.11,9.49,16.21,14.78,21.36,5.39,1.34-2.45.11-6.04,3.11-5.38,2.69,7.75,4.42,13.06-3.94,17.55-15.72,8.46-29.47-4.56-30.95-20.17-1.39-14.64,12.53-33.71,23.99-41.79,18.17-12.81,34.72-11.52,55.13-5.31,1.93.59,6.62,4.32,7.77,1.74-4.74-1.58-9.83-4.6-14.55-5.96-5.45-1.57-18.57-4.07-23.94-4.05-24.51.12-51.53,34.73-74.33,3.32-10.91-15.02-3.45-39.88,16.24-37.23,9.87,1.33,14.91,15.42,2.59,16.9-.33-2,1.74-2.65,2.03-4.56,1.55-10.38-18.25-7.88-16.99,4.95,1.5,15.19,18.63,23.43,32.44,22.6,23.46-1.41,30.82-11.94,58.55-5.51,31.75,7.36,77.25,58.1,96.38,84.62,4.07,5.64,6.28,13.52,12.57,17.92l-11.16-18.33c-3.91-5.75-11.04-11.83-11.84-18.66-1.82-.4-.63,1.68-1,2-1.23,1.05-7.65-9.79-8.58-10.91-4.98-6.02-11.16-11.59-15.84-18.16-14.41-20.22-23.63-48.98-53.57-49.94,2.73-4.2,11.26-.92,14.99.52,22.93,8.86,31.62,38.67,47,55.49-2.66-7.26-6.54-14.11-9.04-21.45-9.02-26.49-12.85-54.96-35.94-74.06-7.09-5.87-13.37-10.3-22.5-6.45-3.7,1.56-2.31-2.29-1.4-4.43,6.61-15.42,28.11-2.93,35.88,5.39-9.95-25.09-33.45-50.82-63.19-43.7-12.24,2.93-22.58,15.26-21.85,28.23.5,8.76,11,16.39,18.39,11.56,1.22-.8,2.5-6.73,6.65-6.09,1,25.32-29.46,17.85-31.88-2.61-2.67-22.61,18.27-42.68,40.34-42.43,44.22.5,59.66,49.21,64.79,85.3l6.75,20.73c-.4-7.63-3.24-15.03-3.61-22.67-1.38-28.95.16-52.16-8.24-80.98-3.55-12.19-7.69-24.26-21.17-27.85.08-1.62-.77-2.76,1.49-2.49,2.95.36,12.87,3.23,15.05,4.96,2.34,1.85,5.1,6.87,6.33,9.67l4.13,12.35c-2.47-17.05-3.62-35.65-8.28-52.21-2.58-9.17-6.82-22.4-18.08-22.8-2.62-3.38,4.05-5.73,6.85-6.02,14.28-1.46,22.26,12.49,25.78,24.27,4.32,14.45,3.66,35.95,2.73,51.25-.66,10.71-3.46,21.14-2.99,32.02.05,1.22-.76,3.72.99,3.48,2.22-11.17,2.97-22.94,5.48-34.03,7.48-33.08,31.87-74.39,19.31-108.24-1.44-3.88-5.13-10.3-9.03-11.97-2.55-1.09-6.96.08-6.74-3.75,14.78-5.22,27.62-6.96,34.49,10,13.43,33.13-14.43,62.05-25.67,90.31-1.87,4.69-4.03,10.84-5.33,15.68-.27,1.01-1.43,3.18.5,3,3.88-9.74,7.93-19.39,12.84-28.66,20.18-38.08,47.2-73.87,65.36-113.64,2.69-6.26,4.03-17.38-4.18-19.71l.98-2.52c11.07-.08,19.86,13.99,20.91,24.14,3.06,29.72-36.8,49.17-50.49,71.3-.53.85-2.51,2.16-.91,3.09,10.88-12.76,24.09-24.85,38.58-33.42,20.2-11.94,36.65-13.48,56.39-29.61,3.21-2.62,16.56-14.43,17.78-17.24,2.12-4.88-1.28-5.62-2.25-9.73,5.21,1.35,8.69,9.7,9.03,14.45.67,9.38-2.6,10.17-8.04,16.53,16.04-2.17,31.93-14.87,33.89-31.6.4-3.4.61-11.54-.1-14.68-1.1-4.84-17.64-16.53-3.06-19.47,6.19-1.25,12.34,1.71,13.26,8.35.99,7.14-6.88,9.11-7.8,12.1-1.21,3.92.33,12.1-.18,16.82-1.38,12.72-14.35,23.9-25.48,28.52-23.83,9.88-51.88,12.68-75.52,23.99-.25,1.82,2.09.83,3.05.56,5.39-1.54,10.8-3.97,16.52-5.49,24.18-6.41,62.25-16.35,77.22,10.62,4.86,8.75,6.17,18.07,1.74,27.34-2.3,4.8-7.28,10.55-13.08,7.99,3.21-20.85-.57-34.02-21.19-41.78-52.68-19.83-108.65,30.28-136.68,69.84-17.09,24.12-32.91,96.72-32.38,126.42.43,24.55,6.39,48.94,16.04,71.76,1.61,3.81,3.89,7.37,6.27,10.73,1.19-1.1-.54-3.69-1.05-4.95-10.23-25.44-18.7-40.34-16.44-69.53,2.97-38.42,32.53-79.51,74.47-76.5,11.47.83,22.65,7.27,33.32,4.28,11.34-3.17,27.74-13.99,24.96-27.57-.93-4.56-5.8-9.85-10.51-6.47-5.16,7.01,8.57,5.17,1.26,10.48-14.21-7.82,2.3-21.78,10.34-8.09,9.29,15.82-15.2,34.14-29.84,34.36l20.49,7.8c1.94.12,6.22-2.76,5.51,1.18-10.4,3.48-19.17-3.74-28.48-7.02-13.7-4.81-29.04-8.48-43.52-5.96,1.24,2.7,6.26-.16,8.39.09,18.21.95,35.06,6.36,49.53,17.48,14.59,11.22,21.29,23.84,18.97,42.81-2.92,23.84-34.99,41.96-54.82,27.05-8.57-6.44-10.47-21.82,2.93-21.43.3,1.99-1.68,2.63-2.01,4.55-1.05,6.09,5.17,10.18,10.61,10.35,4.39.14,8.15-2.76,11.93-3.88,2.73-.82-.77,3.61,1.96,1.97,5.11-3.06,10.07-15.8,10.42-21.64,1.31-22.03-19.19-50.41-42.45-49.4-1.41.06-5.27.13-5.45,2.04,10.89-.85,29.27,7.9,30.9,19.59,1.76,12.61-5.73,18.16-15.9,9.91,11-1.85,5.78-12.14-.67-16.33-14.29-9.27-34.03-4.48-47.24,4.43-15.55,10.48-26.92,33.33-28.13,51.87-.08,1.16-.73,5.53,1.03,5.53,2.57-14.82,12.69-39.94,29.16-43.35,9.32-1.93,17.98-.75,21.83,8.86l-16.01,1.96c-45.33,24.73-30.78,71.81-10.49,108.56,2.01,3.64,4.29,8.59,7.51,10.98-3.41-7.76-7.4-15.37-10.01-23.48-5.22-16.23-9.55-39.42,2.49-53.54,6.54-7.68,26-16.62,31-3.94,2.06,5.21-2.6,2.96-4.52,3.42-11.29,2.69-15.09,12.83-17.89,23.13-9.54,35.16,8.97,62.85,25.1,91.75,4.43,7.94,7.13,17.28,13.82,23.67l-17.07-38.95-1.9.95c-5.31-16.72-5.25-32.68-4.03-49.99l-2.99,22.99v-23.5c0-9.43,12.24-26.89,20.68-31.32,16.99-8.92,43.24-2.48,28.3,19.38l-3.98-.57c5.38-10.02-3.71-14.13-12.84-11.33-18.87,5.78-24.61,45.3-23.14,61.82,1.51,16.95,24.33,59.23,33.79,75.21.86,1.45,2.27,3.33,3.36,4.64.74.88,1.97,3.24,1.82.19-5.28-10.49-11.95-21.88-14.69-33.31-1.89-7.89-2.73-15.3-.84-23.26,3.65-15.36,17.17-25.31,32.54-17.45-5.31,1.36-6.97,2.73-9.79,7.2-11.96,18.91-4.1,47.99,3.05,67.54,2.64,7.22,9.5,18.75,10.7,25.31.26,1.46.62,2.86-1.44,2.43-5.33-6.87-11.66-14.32-13.52-22.99-2.33.3-.21,5.08.24,6.26,1.4,3.67,26.16,39.57,27.76,37.73-2.93-6.94-8.45-12.55-10.51-19.98-1.8-6.49-2.37-17.29-.8-23.83,3.5-14.53,25.08-20.89,32.31-6.2-21.53-1.19-21.99,26.66-16.76,41.27l13.75,27.74c-3.95-2.75-6.42-8.61-10.31-11.19-1.36-.9-1.92-1.55-1.68.67,13.09,15.7,25.32,32.21,40.98,45.51l-24.41-31.08c-6.46-10.68-11.05-25.21,1.08-33.75,6.36-4.47,19.3-6.03,20.33,3.83-7.15-3.85-13.77,2.78-14.94,9.55-2.27,13.22,8.28,29.78,15.97,39.92,13.34,17.58,29.54,32.57,46.49,46.52l1.48-.49c-10.8-10.24-27.59-26.33-29.04-41.96-.87-9.45.85-18.05,10.82-21.26,5.59-1.8,15.71-2.73,16.22,4.71-24.2,2.62-10.32,32.86-1.82,45.32,17.01,24.96,42.66,40.24,62.33,62.67,1.86,2.13,3.13,4.78,5.48,6.52l-1.99.99c6.27,5.39,10.89,11.72,15.5,18.5l-1.5-4.99,3.5,2.99.49-1.48c-7.49-7.9-13.27-17.44-20.48-25.53-13.98-15.68-44.81-35.77-40.28-60.25,1.91-10.34,18.49-18,22.76-5.74-5.07-1.34-7.96,3.39-8.76,7.74-4.91,26.46,37.04,64.86,51.18,86.35,18.47,28.06,30.65,64.91,16.76,97.6-11.07,26.06-35.72,23.7-46.64,41.35-4.16,6.72-1.14,10.24.37,16.57.92,3.87-4.71-.26-6.11-2.91-4.79-9.13,0-17.05,7.2-22.69-29.25,3.61-57.73-26.2-43.03-54.54,11.07-21.34,48.88-21.2,48.12,2.04-.38,11.69-17.07,17.85-21.89,7.72-2.26-4.75,2.35-5.94.78-10.22,6.64-1.94,7.35.53,11.89,4.13-.77,5.61-3.38,5.58-6.87,8.85,21.49-.61,15.53-24.04-2.61-25.88-15.76-1.6-29.3,10.73-30.37,26.4-1.43,21.08,14.01,35.61,33.71,39.25,8.38,1.55,12.72,1.38,20.31-2.22,42.6-20.23,43.64-74.95,20.45-110.54-1.5.78.28,2.41.67,3.33,1.75,4.14,4.21,7.93,5.85,12.14,11.3,29.02,11.43,60.9-13.01,83.03-13.08,11.85-28.55,15.81-45.28,9.26-23.22-9.09-28.78-46.74-2.7-55.25,6.05-1.97,17.54-2.62,19.97,4.47-9.32-4.79-20.48-4.33-28.04,3.46-9.91,10.22-8.54,26.35.07,37.02.77.95,5.85,6.6,6.98,5.51-10.19-10.29-16.83-20.98-9.88-35.37,2.43-5.03,7.86-11.03,13.88-10.61-16.76,10.51-18.95,28.16-4.49,41.99l.99-1.99c2.05,2.81,6.47,1.88,5.51,6,4.73-2.77,7.67,1.78,12.45,2.09,4.87.32,9.68-2.05,14.53-2.11-1.2-2.34-6.11-.02-8.45.05-11.25.31-17.59-2.64-24.52-11.56-2.71-3.5-8.81-14.82-5.01-18.47,2.8-2.69,1,5.1,1.17,6.22,1.29,8.32,12.5,19.6,20.76,21.33,14.29,2.99,32.63-8.2,37.51-21.6,9.14-25.09-4.89-50.37-28.1-60.81-7.59-3.41-26.51-11.06-33.43-4.72-2.37,2.17-2,5.51-4.41,7.54-9.2-5.15,1.24-16.41,8.27-18.68,34.93-11.28,69.79,31.88,67.21,64.21-.26,3.23-2.38,6.41-1.49,9.52,9.94-26.71-5.95-59.53-22.52-80.49-15.89-20.11-36.07-34.14-62.49-35.5-5.62-.29-25.77,1.17-26.52,8.52-.16,1.47.51,2.6,1.16,3.83,2.07,3.87,9.45,3.99.76,8.02-12.3,5.7-17.07-10.08-9.89-19.88,11.27-15.37,32.78-8.63,47.94-4.95,1.01.24,3.27,1.31,3.04-.55-13.23-4.14-23.51-10.81-37.61-12.89-20.37-3-37.21-1.39-52.85,12.91-5.37,4.92-17.82,22-10.05,27.98l8.51,3.47c-6.22,5.26-17.41,6.87-20.33-2.65-4.7-15.34,11.7-36.09,25.33-41.85.28-1.58-1.36-1.14-2.28-.78-3.31,1.28-14,9.52-16.74,12.27-11.78,11.8-22.76,35.73-10.5,50.55,2.32,2.81,6.23,5.7,9.99,5.81,2.09.06,9.19-3.08,8.53,1.16-19.36,5.48-27.55-10.24-25.88-27.37,2.01-20.62,24.81-44.1,44.83-48.17,24.98-5.08,46.46,3.32,69.05,12.55-33.11-18.22-73.96-26.26-101.51,5.99-14.01,16.4-28.11,52.41-4.41,66.43,9.48,5.61,14.48,4.24,23.43-1.41,2.64,2.57-5.16,6.33-7.24,6.76-8.2,1.72-16.84-1.1-22.76-6.78-18.34-17.59-3.64-53.23,10.98-69,30.63-33.05,79.25-19.9,112.47,1.56,2.2,1.92.59,1.78-1.04,1.05-3.42-1.54-6.3-3.11-9.91-4.59,20.32,11.18,39.94,23.19,56.03,40.47,3.97,4.26,7.09,9.59,11.48,13.52,1.12-1.58-1.24-4.55-2.09-5.91-14.2-23.02-36.34-40.44-58.1-55.9-26.5-18.83-73.44-48.35-107.09-37.46-10.62,3.43-24.92,17.1-11.24,25.78-4.52,4.22-12.14-.9-14.82-5.16-8.57-13.64,3.62-27.8,16.61-32.06,22.09-7.25,47.74,2.43,66.9,13.55,9.66,5.61,17.75,13.29,28.33,17.16-13.79-9.55-27.56-20.14-42.33-28.16-18.38-9.98-36.66-13.69-57.67-12.82l33,4.48,10.26,2.74,8.72,4.76c-6.58-1.27-12.27-4.01-18.99-5.5-17.69-3.93-35.8-2.91-52.37,4.65-17,7.76-37.22,27.84-27.65,47.85-2.15.41-2.31-1.01-3.05-2.44-6.58-12.78,3.83-27.72,13.05-36.06-2.06-1.18-5.81,3.69-7.41,5.59-10.35,12.3-16.73,33.97,3.15,40.68,9,3.04,11.06-4.58,18.05.45,5.48,19.59-18.58,19.08-29.71,11.22-21.22-14.97-6.84-46.5,8.41-60.46,7.34-6.71,17.33-11.36,26.52-14.99-.78-2.16-6.79.65-8.25,1.25-8.44,3.46-30.98,19.15-35.08,26.76-10.81,20.08-20.72,43.86-11.14,66.98,5.14,12.41,17.74,23.37,30.99,16.02l1.48,1.99.02-8.99c1.7-.33,2.08.38,2.75,1.74,3.22,6.48.18,15.12-7.32,16.19-29.15,4.17-41.64-38.85-34.42-60.92l1.98,3.99c-.14-9.43,3.93-16.77,7.6-24.91.75-1.67.87-3.2-1.07-1.07-10.93,20.68-18.7,43.26-11.55,66.52,13.14,42.76,60.15,78.38,105.41,74.34l12.62-2.86c-8.48-.21-15.83,2.57-24.48,1.97-41.35-2.85-87.41-43.82-94.37-84.62-.77-4.49-2.52-11.64.36-15.35.78,23.12,13.67,48.83,29.98,65.01,6.35,6.3,26.19,12.03,34.81,8.77,3.97-1.5,4.91-4.93,8.71-5.78-3.52,8.84-11.9,10.28-20.34,8.85-3.46-.59-6.4-2.3-9.65-2.36,23.49,15.61,53.44,24.79,79.66,9.67,10.95-6.31,20.9-20.6,19.35-33.69-.73-6.18-3.54-8.8-9.88-7.32l-1.64,3.83c-7.28-5.8-2.32-16.59,6.06-17.91,17.53-2.76,25.63,13.11,24.42,28.42-2.64,33.51-41.95,47.75-70.98,46.52l13.33,5.15c8.48,5.45,6.21,22.2-5.33,21.83-.35-2.75,3.13-3.49,3.78-5.7,1.75-5.93-1.44-12.85-6.29-16.3-3.78-2.69-8.07-2-10.5-4.99l2.99-1c-41.36-6.08-81.07-37.82-91.26-79.25-12.35-50.24,36.09-110.2,87.8-108.8,10.86.29,22.96,2.49,33.66,4.33l19.79,7.21c-30.46-18.5-67.5-16.45-98.99-1.49l1.99,1c.83.98-9.98,7.21-11.32,8.18-22.83,16.56-34.55,39.81-38.44,67.57-.28,2,1.04,3.5.34,6.25-2.03,7.97-11.01,10.24-15.58,3,15.01,2,13.06-15.31,15.46-25.05,4.93-20.06,19.14-40.57,35.54-52.95-10.66,5.07-19.84,12.72-30.33,18.16-11.39,5.92-19.88,8.75-33.22,7.87-1.44-.09-5.25-.1-5.45-2.04h14.5c8.3,0,30.13-9.94,35.5-16-22.64,9.74-60.4,10.68-76.98-10.52-6.58-8.42-10.24-23.28-2.68-32.13,1.61-1.88,11.96-9.9,13.64-5.83.63,1.53-6.51,4.72-6.74,7.24-11.33,19.25,13.65,38.2,30.7,41.8,17.97,3.8,26.07,1.67,42.57-3.54.51-.16,1.63-.27,1.48.48-.9.63-1.32,1.74-1.99,2.5l18.99-10.99c-15.69,4.48-30.62,13.39-47.48,11.97-12.95-1.08-28.89-6.79-34.52-19.48-.41-.91-1.83-2.89-.5-3.5,12.71,21.43,38.46,24.2,60.5,16.98-.19-2.64-3.92.01-4.49.01h-20c-.81,0-8.09-2.04-9.48-2.52-5.29-1.87-13.11-6.06-13.02-12.47l7.06,6.43c38.97,21.71,77.11-14.05,115.39-16.48,19.42-1.24,37.38,2.92,54.57,11.53,8.11,4.06,15.69,9.72,23.98,13.51l-24.47-19.02c-22.35-17.38-63.35-54.78-93.75-45.69-5.18,1.55-6.85,3.45-9.77,7.72-.11-18.09,21.23-18.61,33.97-12.48l25.02,12.47c-22.2-18.59-57.8-37.51-86.88-26.38l-11.12,8.38c4.28-10.84,18.16-14.63,28.99-14,.23-1.75-2.27-.94-3.48-.99-10.61-.44-24.84,4.65-28.29,15.72-.71,2.28,1.15,6.06-2.22,5.27-1.2-7.41,2.91-11.99,7.99-16.5l-4.5,2.5c-1.58-1.37,2.2-4.42,3.57-5.43,9.64-7.11,20.72-5.88,31.93-4.57.29-1.01-4.25-1.99-4.5-1.99h-20c-4.78,0-18.64,11.24-21.01,15.99-2.98,5.98-7.21,22.67,1.45,25.58,4.22,1.42,4.34-.67,6.8-1.36,5.25-1.47,2.95,7.39-5.02,5.59-8.25-1.86-11.13-14.12-10.7-21.29,1.87-31.39,40.19-36.61,63.87-24.9,11.64,5.76,22.13,15.07,34.11,20.38-12.59-13.72-41.81-29.27-60.52-29.07-25.49.28-44.81,20.77-41.4,46.49,2.65,19.99,33.98,37.95,45.5,15.64l-.09-9.04c8.31,6.54-.17,18.64-8.43,20.55-18.76,4.34-39.2-10.98-39.87-30.07-1.33-38.07,32.64-52.68,65.31-41.52,34.34,11.73,49.05,33.86,74.47,56.53,3.46,3.09,7.4,6.01,11.01,8.99.79.65,1.99,2.64,3,1-4.68-5.8-11.45-10.38-16.52-15.48-36.43-36.58-80.3-110.47-136.1-115.9-13.83-1.35-15.45,1.88-26.31,7.46-1.13.58-1.29,2.23-2.59.44-1.73-7.46.07-11.04,5.99-15.04,19.21-12.97,45.36-2.75,62,10.05.93.72,10.75,10.85,11.51,9.98.43-1.87-1.04-2.38-1.99-3.5-25.66-30.31-82.27-48.87-114.04-18.04-8.05,7.81-16.7,24.34-3.99,31.65l-.96,2.88,7.99-.99c1.34,12.44-9.71,13.33-18.33,7.84-7.39-4.71-10.22-15.45-7.95-23.67.49-1.77-.31-2.6,2.28-2.16-3.91,13.54,5.11,31.66,21,24.49-18.66,1.91-23.99-15.57-17.5-30.5,3.38-7.77,16.47-20.82,23.81-25.19,19.12-11.4,47.02-6.4,66.69,1.18-8.13-6.37-24.18-10.31-34.51-10.97-37.95-2.45-71.8,26.92-71.57,65.48.16,26.83,27.03,50.13,52.78,36.7,6.21-3.24,15.86-15.05,8.85-21.25-4.58-4.05-12.74,1.57-13.51-1.54-.18-4.74,3.56-10.52,8.51-11.36,18.03-3.05,23.44,13.4,20.2,28.2-4.71,21.57-34.44,26.02-51.75,17.73-.25-1.77,2.25-.98,3.26-.76,13.82,3.03,28,4.46,38.26-8.21,6.12-7.57,7.65-29.05-4.07-30.96-3.47-.57-9.15-.17-11.44,2.93l10,1-1.02-1.98c7.73-.45,10.11,5.73,10.09,12.49-.05,21.49-22.7,27.61-40.33,24.24-4.42-.84-11.84-2.41-12.75-7.74,14.4,9.54,43.96,9.47,49.51-9.98.7-2.45,1.74-7,1.46-9.42-.22-1.91-2.85-8.01-4.98-6.1,6.9,6.96.96,17.39-5.68,22.33-15.79,11.77-36.33,5.93-49.33-6.83.93,1.66,1.31,3.41,3,4.99-2.98,2.31-12.51-12.14-13.83-14.66-4.9-9.37-8.43-25.14-.18-33.33.6,1.85-1.99,4.37-1.99,5.5v15c0,6.42,8.48,18.07,13,22.5ZM353.89,69.75c-1.21,1.74,4.89,10.78,6.43,12.02,2.49,2,5.4-1.81,6.11-4.01,2.42-7.51-6.56-10.93-12.54-8.01ZM234.87,162.71c17.94-15.42,40.36-41.37,19.49-63.99l5.58,13.51c-.4,12.77-4.11,23.16-11.85,33.2l-13.21,17.28ZM231.87,155.71c11.64-12.58,21.65-29.45,22.98-46.99l-6.11,18.37-16.87,28.62ZM327.51,126.37c2.87-3.08,5.01-8.4,4.34-12.65l-3.98,9.5-11,9c2.66.46,8.96-4.04,10.65-5.85ZM303.86,135.7c6.44-2.77,20.63-9.82,23.22-16.27.63-1.59,1-2.99.77-4.72l-23.99,20.99ZM237.87,139.71c4.85-5.8,9.18-13.68,10.98-20.99l-10.98,20.99ZM237.87,153.71c8.09-8.62,16.21-20.15,17.98-31.99l-5.82,12.67-12.16,19.33ZM184.85,213.7c11.24-22.01,25.8-52.28,6.51-73.99l5.23,12.77c3.1,13.58-.3,28.71-4.7,41.74-2.06,6.09-5.58,10.99-7.56,16.45-.34.94-1.32,3.25.53,3.03ZM194.86,174.71v-18.5c0-1.68-6.02-18.26-9-15.49.95,2.69,3.33,4.42,4.51,6.98.98,2.1,3.49,10.61,3.49,12.51v14.5h1ZM180.85,215.7c6.53-19.29,12.61-42.24,5.79-62.27-1.28-3.77-4.31-10.31-8.27-11.73l6.26,10.74c4.19,11.31,4,25.85,2.11,37.66-1.24,7.7-4.66,15.17-6.44,22.57-.24,1.01-1.31,3.27.55,3.04ZM323.36,147.71c-5.53-.58-11.87.43-17.5,0v1h14.5c19.48,0,38.09,18.27,32.24,38.23-.66,2.26-3.24,3.79-2.24,5.76,9.81-8.98,5.06-26.23-3.46-34.53-5.36-5.21-16.15-9.69-23.53-10.47ZM358.85,184.71c2.56-13.14-3.62-29.44-16.99-33.99,7.69,5.79,13.59,11.95,15.76,21.73l1.23,12.26ZM350.85,187.71c2.5-17.14-5.85-31.35-22.98-34.99l11.47,7.01c5.36,4.43,8.68,9.97,10.28,16.72l1.23,11.25ZM155.85,243.71c.05-15.38-3.17-32.87-11.57-45.91-3.22-5-6.79-9.59-13.41-9.07l6.02,3.47c8.88,7.3,11.94,18.26,15.11,28.89l3.86,22.62ZM153.85,303.71c-.73-30.01,3-61.73-6.95-90.53-1.75-5.05-4.3-11.69-8.03-15.46,5.22,11.65,7.88,24.04,9.86,36.63,2.38,15.15,2.8,28.86,3.33,43.87.06,1.61.81,3.2.84,4.96.1,5.67-.28,11.39-.04,17.05.05,1.22-.76,3.72.99,3.48ZM138.85,320.71c-7.11-28.7-28.59-55.2-61.23-50.74-18.41,2.52-37.72,24.79-29.96,43.44,4.71,11.32,21.48,17.35,26.19,3.3-12.73,10.58-26.44,2.21-25.03-14.55,3.39-40.21,62.54-31.94,77.26-3.18l12.77,21.72ZM236.85,287.72l-18.24,1.24-8.75,3.74,26.99-4.98ZM232.85,290.72c-13.78.84-28.89,5.16-37.99,15.98l15.33-8.16,22.67-7.82ZM285.87,361.71c12.72-16.61,9.73-37.34-5-51.51-9.96-9.59-24.79-18.6-39.01-18.48l11.27,3.22c14.92,5.73,31.1,17.49,35.77,33.23,3.5,11.8,1.82,22.48-3.04,33.55ZM237.87,355.72c-3.98,18.2,13.86,21.46,27.31,13.82,22.62-12.84,17.99-45.54,2.65-62.3-1.99-2.18-6.58-6.61-8.97-6.03,17.91,12.33,27.83,43.89,12.5,61.51-7.82,8.99-25.59,13.84-32.26,1.24l-1.24-8.24ZM256.85,324.7c3.38-8.63-3.51-19.53-11.99-21.98l9.56,9.93,2.43,12.05ZM156.85,328.71l.02-6.48,2.98-18.51c-3.62,3.41-3.78,12.46-4.04,17.45-.08,1.62-.73,6.85,1.04,7.54ZM125.86,319.7c-2.41-5.73-18.95-11.51-21.99-5.48-.21.41-.25,1.64.49,1.48,2.74-2.48,7.32-2.48,10.78-1.76,4.02.83,6.91,4.62,10.72,5.76ZM130.85,330.71c.44-1.88-1.04-2.38-1.99-3.5-5.44-6.47-12.34-11.13-21-11.49l10.93,4.56,12.06,10.43ZM283.85,348.71c.99-8.76.86-15.1-1.95-23.53-.48-1.44-1.47-5.02-3.03-5.46,3.32,9.17,3.62,15.97,3.99,25.5.05,1.21-.75,3.72.99,3.49ZM287.85,351.71c1.35-10.94,1.5-23.19-5.98-31.99,4.73,9.98,4.56,17.9,4.99,28.51.05,1.21-.76,3.72.99,3.49ZM166.85,348.71l5-18.99c-2.89,2.97-4.78,9.84-5.54,13.95-.21,1.13-1.52,5.03.54,5.05ZM206.85,334.72c-4.23-.47-8.76,1.99-12.32,4.17-1.52.93-13.26,10.15-11.67,11.82l12.86-10.63,11.12-5.36ZM20.85,345.72c-15.79.26-22.82,16.16-16.49,29.99,6.24,13.65,22.77,18.06,36.49,14.99l-18.22-2.26c-17.97-3.9-24.35-25.96-11.11-38.56l9.33-4.16ZM270.86,368.7c7.12-2.92,11.75-11.41,11.99-18.99l-5.16,11.33-6.83,7.66ZM167.85,398.71c-.37-5.91-2.36-11.64-2.98-17.51-.93-8.84-.64-16.25.03-24.95.08-1.07.63-3.8-1.03-3.53-1.98,14-1.04,27.62,2.15,41.33.3,1.3.21,4.65,1.83,4.66ZM49.86,385.71h-18.5c-1.08,0-8.01-2.71-9.54-3.46-7.76-3.85-14.09-11.75-14.46-20.55-2.71,11.59,4.82,21.16,15.68,24.33,5.26,1.54,16.93,2.54,22.35,2.21.81-.05,4.54-1.18,4.46-2.53ZM173.85,408.71c-1.87-9.71-3.76-19.5-2.97-29.48.43-5.51,3.08-11.07,2.48-16.53-1.23-.01-5.85,21.46-3.6,23.93l-1.91.58,1.8.63c-.33,4.68.65,10.32,1.68,14.91.35,1.57.76,5.51,2.53,5.96ZM217.85,377.72c-11.72,1.53-17.3,12.15-17.98,22.99l6.99-15.49,10.99-7.49ZM202.85,454.71c-6.31-17.69-14.95-36.04-8.7-55.21l7.21-17.79c-4.01,3.41-7.27,8.01-8.99,13.01-3.42,9.98-2.59,24.91-.03,34.99,2.01,7.91,5.62,18.6,10.5,24.99ZM114.85,389.72c-14.24-4.74-27.81-8.5-42.79-4.31-19.14,5.35-43.3,31.18-37.51,52.12,3.61,13.07,13.14,19.33,26.31,14.17l-12.26-1.22c-29.37-14.71-4.86-50.25,16.28-60.25,19.62-9.28,27.93-4.52,46.93.04,1.01.24,3.27,1.31,3.04-.55ZM196.86,428.71v-26.5c0-.67,2.78-5.06.01-5.49-1.71,7.23-2.39,14.07-2.06,21.54l2.05,10.45ZM263.85,402.71c.39-1.96-.87-2.42-2.29-3.21-6.8-3.8-18.24-2.51-24.7,1.71,3.37.55,6.3-2,9.58-2.41,6.35-.8,11.87,1.03,17.41,3.91ZM100.36,402.71c5.79-.35,12.13,0,18,0,1.02,0,16.3,7.3,18.52,8.48,3.64,1.94,6.7,4.85,10.47,6.53,1.32-.47-1.16-2.1-1.58-2.42-13.71-10.65-32.56-18.35-49.91-12.57.2,2.63,3.81.03,4.49-.01ZM237.86,404.72c-1.87-.44-2.38,1.04-3.5,1.99-7.9,6.64-14.65,18.51-14.49,29l5.82-15.66c2.79-6.17,7.96-10.22,12.17-15.32ZM105.36,408.71c4.51-.7,12.04,0,17,0,1.06,0,4.33,2.17,6.11,1.91,2.58.31,2.31-.38.15-1.15-14.87-5.26-42.28-4.89-41.25,16.25,1.21-8.32,9.95-15.76,18-17.01ZM239.86,407.72c-2.23-1.98-11.53,11.98-12.54,13.95-6.73,13.13-7.41,28.52-7.45,43.04l6.23-35.26c3.36-8.08,7.69-15.41,13.76-21.73ZM223.85,495.71c.38-.43-3.9-7.06-4.55-7.94-2.78-3.79-6.45-7.39-9.43-11.06-.49,2.78,13.19,19.89,13.98,19ZM260.86,476.72c-1.79-1.63-7.49,6.99-8.18,8.31-8.8,16.82-.62,33.53,5.19,49.67,1.82.25.83-2.09.56-3.05-5.46-19.17-15.55-38.1,2.43-54.93ZM257.86,510.71v-14.5c0-4.65,6.1-12.66,6.99-17.5-2.88,2.49-7.99,13.31-7.99,16.5v15.5h1ZM139.86,481.71h23.5c.82,0,5.76,2.88,6.49.01l-16.54-2.05-13.45,2.04ZM138.85,481.72c-6.13.42-14.52,2.45-18.99,6.98l18.99-6.98ZM259.85,528.71c-1.05-12.7-7.43-22.14-4.73-35.24.75-3.65,3.33-7.14,3.25-10.75-9.03,11.85-4.88,26.25-1.22,39.21.52,1.83,1.13,5.86,2.71,6.78ZM115.86,487.72c-1.21-1.12-4.65,3.17-5.42,4.07-7.52,8.82-17.9,25.66-11.08,36.91.17-4.17-.96-8.22-.51-12.5.95-9,7.33-16.53,14-22l-1.99-.99,5-5.5ZM261.86,517.21c-.72-7.47.53-15.92,0-23.5l-2.04,8.46c-.13,11.61,1.65,23.19,4.78,34.31l6.28,15.73c-2.29-11.48-7.88-23.29-9.01-34.99ZM199.85,503.72c-13.99-5.3-30.55-11.36-43.99-1.51,3.95-.13,7.63-2.71,11.75-3.24,9.96-1.29,20.03,2.25,29.23,5.26.98.32,3.22,1.37,3.01-.51ZM193.85,508.72c-11.22-4.51-22.09-7.08-33.99-3h18.48c4.35.25,8.43,2.58,12.46,3.55,1.01.24,3.27,1.31,3.04-.55ZM216.86,518.7c-7.54-7.05-18.77-13.12-28.99-14.98l28.99,14.98ZM110.85,535.72c-10.77.48-16.63-5.65-15.99-16.48l3.5-14.52c-7.11,7.66-7.8,29.09,4.2,31.79,1.52.34,7.56,1.09,8.29-.78ZM308.85,541.72c-25.63-2.33-25.2,27.18-16.98,43.98,1.86.23.79-2.04.55-3.04-3.2-13.15-8.34-27.25,4.49-37.4l11.95-3.54ZM151.85,571.71c3.32-13.15.15-30.49-16.98-27.98l10.37,3.12c6.93,6.33,5.47,13.33,5.61,21.37.02,1.18-.7,3.74,1.01,3.49ZM306.86,546.72c-18.77,5.77-14.37,30.72-8.99,44.98,1.77.25.98-2.25.76-3.26-3.55-16.24-6.08-29.63,8.23-41.72ZM298.86,547.72c-8.37,2.87-8.24,14.61-7.99,21.99l2.52-13.97,5.47-8.02ZM211.36,577.71c5.21-.74,13.36,0,19,0,1.05,0,5.11,3.22,4.5-.99-13.97-3.18-27.29-2.6-38.92,6.58-1.49,1.18-4.41,3.44-4.57,5.43,5.92-3.38,13.06-10.03,19.99-11.01ZM328.86,588.72c-9.16,3.43-8.51,10.78-6.99,18.99l2.94-13.54,4.05-5.44ZM318.85,613.71c-1.73-8.09-1.13-15.35,2-22.99-4.93,3.01-5.6,10-4.73,15.25l2.73,7.75ZM272.85,606.72c-8.8-2.19-20.15-6-26.99,1.98,7.85-3.61,15.57-2.01,23.79-1.28,1.11.1,3.4,1.19,3.2-.7ZM366.86,651.21c-.5-4.44,0-10.33,0-15,0-1.94,6.15-10.41,9.01-11-17.61,1.33-13.55,20.92-8,32.49,2.79-.68-.9-5.51-1.01-6.49ZM378.86,626.72c-3.26-.82-6.66,4.46-7.53,6.95-4.41,12.69,5.97,38.65,16.52,47.04-3.02-6.62-7.82-11.95-10.85-18.64-5.34-11.79-9.16-25.6,1.86-35.35ZM190.85,683.72c-11.18-.41-21.08-.94-30.91-6.59-13.79-7.92-27.39-23.49-18.07-39.91-.54-1.16-2.75,1.61-3.02,1.98-4.66,6.52-3.71,16.51-.4,23.41,7.8,16.23,29.57,21.01,45.91,22.09,1.37.09,6.18.86,6.49-.98ZM425.85,662.72c-21.84,1.27-15.66,25.11-5.49,36.99.04-4.69-4.41-8.45-5.97-13.02-2.46-7.2-1.23-18.95,6.51-22.43,1.84-.83,4.84.27,4.95-1.53ZM330.85,668.72c-19.67-5.05-52.57-2.71-51.98,23.98,1.71-.89.98-4.61,1.66-6.82,1.77-5.72,10.22-13,15.64-15.36,11.16-4.87,20.09-2.11,31.48-1.09,1.11.1,3.4,1.18,3.2-.7ZM259.86,668.72c-1.68-.34-2.64.86-3.9,1.59-1.54.89-13.89,9.51-12.09,11.4l15.99-12.99ZM389.86,693.7c-4.37-4.71-10.18-8.42-15.48-12.01-6.29-4.26-13.57-9.17-20.52-11.97l36,23.98ZM353.85,678.72c-18.36-4.82-40.36-14.07-57.99-2.51l8.59-2.43,1.9.93-1.98,1.01c16.64-5.16,30.64.49,46.44,3.54,1.03.2,3.28,1.31,3.04-.55ZM424.85,697.71c-3.66-7.69-3.69-14.29-3.99-22.51-.04-1.21.75-3.72-.99-3.48-1.7,8.48-1.44,19.51,4.98,25.99ZM297.86,678.72c-9.47,1.23-14.49,11.19-12.99,19.99l3.16-10.33,9.83-9.66ZM261.85,724.71c-9.97,5.82-22.27-1.22-26.52-10.97l-1.46-12.02c-3.31,11.19,4.82,23.48,15.44,27.04,4.42,1.48,11.01,1.43,12.54-4.05ZM448.86,739.7c1.09-1.01-19.24-17.13-20.52-18.97l-23.48-16.01,5.53,5.96,38.47,29.02ZM260.86,730.72c-9.9,3.38-19.73-1.88-25.83-9.68l-4.16-10.33c-1.39,13.24,18.63,29.28,29.99,20ZM350.36,714.71c5.94-.8,13.37.59,19.5,0l-10.67-1.62c-8.18.62-16.53,1.77-24,5.45-1.28.63-5,2.46-4.82,4.18,6.03-2.27,13.64-7.15,19.99-8.01ZM265.85,730.71c-9.55,9.36-22.1,4.59-30.98-3-1.49,1.61,6.25,6.42,7.46,7.03,7.6,3.84,20.17,6.01,23.52-4.03ZM421.85,736.72c-15.81-4.85-42.41-14.67-55.54-.06-4.49,4.99-5.59,17.22,2.55,18.04-6.6-20.39,18.38-22.03,32.54-21.03,6.08.43,11.64,2.52,17.41,3.6,1.04.19,3.27,1.32,3.04-.54ZM309.18,762.41c-2.76-4.51-3.18-10.63-1.85-15.73.85-3.25,5.35-6.43,2.03-9.98-4.56,8.36-10,22.26,1.02,28,3.67-.03-.9-1.8-1.2-2.29ZM310.85,759.71c-2.82-7.64.31-13.17,3-20-4.73,3.91-7.5,15.37-3,20ZM247.86,774.72c-10.01,2.88-20.35-2.08-26.44-10.07l-5.55-9.93c2.66,13.4,18.05,31.18,31.99,20ZM364.85,807.7c7.05-15.81.2-44.27-22-36.5-2.14,2.4-.47,1.3,1.11,1.12,8.2-.92,12.81-.37,17.73,7.06,5.74,8.65,4.39,15.93,2.61,25.28-.2,1.03-1.31,3.28.55,3.05ZM346.86,823.7c17.82-5.43,23.29-43.95,4.83-49.31-3.39-.99-12.69.87-9.83,3.31.57.48,3.91-2.12,6.44-2.06,15.5.38,14.03,26,8.96,35.96-2.48,4.87-7.4,7.69-10.4,12.09ZM323.86,832.7c19.43-1.2,43.28-31.07,31.83-49.32-2.4-3.82-8.15-8.34-11.83-3.67,10.36-1.41,13.59,7.69,13,16.49-.78,11.67-9.3,21.15-17.53,28.5l-15.47,8.01ZM482.85,844.71c3.37-29.16-26.4-69.27-57.39-65.88-7.37.81-16.89,5.27-16.59,13.88,1.62-.17,1.08-2.43,2.41-4.07,7.27-8.92,27.65-1.38,36.56,2.59,17.09,7.61,29.14,23.34,33.57,41.43l1.44,12.05ZM488.85,826.71c-.1-15.05-6.44-29.01-13.61-41.87-.6-1.07-2.17-3.77-3.37-4.12l9.75,20.73,7.23,25.26ZM342.87,817.71c9.76-7.05,12.13-19.61,10.98-30.99l-3.23,17.26-7.75,13.74ZM482.87,866.71c4.51-3.81,7.79-12.53,9.27-18.22,5.03-19.34,2.67-39.34-4.29-57.77-1.86-.23-.79,2.03-.55,3.04.69,2.92,2.39,5.96,3.07,8.94,3.26,14.32,4.34,34.57-.47,48.55-1.84,5.34-5.62,9.95-7.03,15.46ZM332.86,825.72c-16.65,7.01-31.5,8.96-49.21,4.7-5.93-1.43-11.89-5-17.8-5.21,16.72,7.64,36.67,14.17,55,9.49l-2.99-1c-2.32-1.73,15.3-5.37,15-7.98ZM436.85,837.72c-3.5.26-5.58,3.84-4.99,6.99,5.04.19,6.72-2.47,4.99-6.99ZM432.36,883.71c4.75.53,11.02,0,16,0,.57,0,10.2-3.29,9.99-5.01-9.91,4.06-19.92,4.88-30.49,3.02-.29,1.02,4.07,1.94,4.5,1.99Z"/>
      <path d="M766.36,299.71c-23.51,3.66-41.09,32.36-37.26,55.26,1.87,11.15,15.55,16.21,22.21,7.69,2.33-2.98,1.22-13.27,8.63-6.52,6.89,6.27-2.68,15.56-8.85,18.3-14.45,6.43-26.43,2.01-34.05-11.41-29.45-51.8,57.69-106.82,102.33-53.33,21.07,25.24,23.73,56.9,17.23,88.26-1.53,7.38-6.12,14.79-7.76,22.24.99,1.58,1.24-.73,1.56-1.43,2.97-6.59,5.62-13.65,7.34-20.68,7.4-30.28,7.68-73.98-3.4-103.35-4.82-12.8-26.77-35.86-40.42-38.58-13.19-2.63-35.32,3.65-18.08,17.06-5.35,5.33-14.9,1.27-15.88-6.09-2.02-15.17,15.92-25.47,29.29-25.29,22.39.29,44.58,26.65,45.06,47.9l6.53,20.98c0-11.39-4.38-22.29-5.95-33.55-.43-3.11,2.47,1.24,1.95-1.92-2.96-17.83-8.92-36.66-17.46-52.55-5.11-9.5-15.66-27.77-22.55-35.45-16.75-18.66-56.3-43.65-46.46-73.52,2.36-7.15,12.52-16.12,20.49-12.99.66,3.09-3.48,2.18-5.08,4.41-3.16,4.4.39,14.88,2.6,19.56,6.86,14.56,20.36,28.48,28.29,42.71l11.19,20.31v-23.5c0-1.56,3.76-11.2,4.82-13.18,5.11-9.58,14.98-16.93,26.21-14.84,2.17.4,7.55,1.86,3.57,3.62-6.75,2.99-8.54,3.95-11.79,11.21-8.22,18.31-5.72,46.69-1.5,65.88,2.39,10.87,11.69,34.18,11.69,43.31v16.5l2.08-9.5c-1.47-22.87-5.84-56.26,14.44-72.48,8.72-6.97,21.1-7.44,28.47,1.48-13.47,1.26-20.26,8.85-25.48,20.51-8.61,19.23-9.08,41.31-10.51,61.98l4.82-15.67c5.21-11.01,15.64-22.93,29.17-19.83-6.69,2.43-12.46,2.88-18.02,7.98-20.14,18.51-16.41,80.09-18.99,107.01-.66,6.86-2.55,13.62-2.98,20.5l4.7-19.79c1.19-41.09,34.97-107.45,84.52-94.94,26.66,6.73,40.94,42.62,17.8,60.25-10.03,7.64-28.75,1.62-26.03-12.04.58-2.93,3.48-2.84,6-3.5l-2.99-1.98,5.57.94,1.04,2.1c-.74,2.86-5.83,4.18-2.68,8.52,3.47,4.78,9.56-1.35,13.92.25,16.55-23.47-9.12-42.96-32.34-40.81-16.24,1.5-32.32,16.7-42.48,28.52-4.54,5.28-10.4,13.19-13.02,19.47,2.28-1.23,2.75-3.98,4.46-6.03,10.37-12.34,37.63-26.66,43.52-2.97-14.85-12.83-34.88,8.25-43.21,20.28-15.63,22.58-13.64,46.62-23.04,69.96-2.34,5.82-7.78,13.49-10.61,19.39-2.23,4.63-3.88,9.73-6.11,14.38,7.62-8.02,13.47-18.18,21.02-26.47,24.65-27.09,53.97-41.35,91.37-37.42,20.99,2.21,37.2,16.88,59.27,4.06,8.99-5.22,14.42-12.7,12.31-23.65-.49-2.54-3.67-3.4-2.97-6.51,7.88,5.06,6.62,13.23,4,20.99,2.29-1.59,3.89-8.09,3.9-10.62.03-7.46-7.18-16.52-15.2-14.16-5.02,1.47-5.88,11.45,1.3,9.79l-.05,2.94c-10.28,4.59-19.65-5.35-11.97-14.45,9.16-10.86,30.64-2.36,35.23,9.79,6.65,17.61-7.06,36.96-24.21,41.23-7.55,1.88-17.75,3.28-24.01-2.5,25.01,7.39,50.53-8.38,46.99-36.01l-1.23,10.26c-5.37,19.71-25.01,26.86-43.98,24.46-2.82-.36-7.48-.88-8.78-3.71,17.23,4.9,41.8,1.41,49.2-17.31,3.89-9.85.98-22.3-9.2-26.69,18.97,17.06.54,43.03-21.01,43.98l1.02-1.98c-19.5,5.49-36.78-6.5-55.52-7.99-32.42-2.59-58.6,10.68-80.48,33.49,1,1.63,2.21-.33,3-1,2.31-1.94,4.16-4.57,6.52-6.48,7.79-6.3,21.83-14.34,31.21-17.79,47.61-17.53,112.36,13.16,93.73,70.73-4.11,12.71-23.74,33.18-36.47,20.04,26.18,8.77,39.13-24.4,36.99-45.5l-1.99-7.51v15.5c0,1.64-5.17,10.58-6.59,12.41-14.99,19.32-47.51,10.57-46.35-13.27.57-11.61,12.65-17.32,20.81-8.99,1.37,4.96-9.28,1.81-6.13,9.08,3.85,8.88,18.6,4.1,20.17-7.31,5.6-40.67-46.74-49.73-76.17-40.17-17.58,5.71-34.92,19.22-46.74,33.26-.95,1.12-2.42,1.63-1.99,3.5,16.73-17.04,37.75-32.23,63.23-28.74,8.74,1.2,21.77,7.94,20.85,18.25-.46,5.11-10.37,10.13-14.07,4.99l3.49-4.5.51,3,1.81-2.3c-10.51-15.5-37.6-6.89-51.5.12-35.38,17.86-62.59,52.61-86.28,83.72-14.08,18.49-26.12,38.37-40.03,56.97l.48,1.48c30.17-34.98,53.91-79.41,101.51-93.49,35.25-10.43,76.71,6.26,91.48,40.52,2.65,6.15,4.38,18.3,10.01,21.99,3.82,2.5,16.85,4.72,19.98.97,2.62-3.14-1.06-5.2,6.52-4.97.07,13.98-18.55,16.89-27.5,9-1.38-1.92,1.8-.75,2.51-.51,3.67,1.27,5.09,2.52,9.5,2.58,1.64.03,6.06,0,6.49-2.07-9.55.02-19.64.62-24.18-9.32-9.57-20.94-8.34-30.74-29.9-45.1-37.1-24.73-72.98-14.87-104.91,12.4,5.87-2.56,10.76-7.05,16.33-10.16,32.17-17.99,68.56-18.6,96.22,8.12,13.99,13.52,26.74,43.02,11.45,59.54-6.89,7.44-13.59,4.76-20.99.01.65-1.49,4.6-1.67,6.37-2.63,8.23-4.5,12.17-21.51,10.4-30.14-.8-3.89-5.32-8.44-5.77-12.73,13.95,10.71,8.41,31.96-1.01,43.99,2.99,2.81,9.38-13.8,9.76-15.73.7-3.54-1.15-8.63,2.23-10.26l-1.98,17.99c1.81-.69,2.41-5.03,2.73-6.75.39-2.08.3-4.15.27-6.24l1.98,1.99c-.59-37-43.2-61.93-77.37-57.87l-10.62,2.87c20.83-3.33,47.66-2.4,61.97,15.53,7.04,8.82,13.04,27.01-2.97,28.48,3.84-17.28-15.38-31.3-29.79-35.72-41.15-12.61-79.49,18.39-104.22,47.71l29.27-23.22c11.84-7.62,29.1-13.2,43.21-11.76,4.38.45,9.34,1.73,11.51,5.98-33.21-13.86-65.05,14.14-87,36l35.29-28.2c3.5-1,7.09-3.56,10.23-4.78,2.88-1.12-.91,2.55,1.97,1.99,8.72-1.7,14.34-6.05,24.34-3.29,1.77.49,2.6-.31,2.16,2.28-8.34-2.69-16.78.66-24.99,2.01,1.2,2.9,7.19-1.01,8.49-1.01h17c1.13,0,7.23,2.23,7.5,4h-19.5c-5.66,0-19.2,4.79-24.86,7.14-49.87,20.74-70.17,65.08-104.13,102.87-3.92,4.36-8.55,8.16-12.51,12.49,1.01,1.64,2.21-.34,3-1,24.57-20.28,39.35-44.71,70.64-57.36,23.91-9.67,52.66-8.55,69.87,12.85,19.72,24.52.53,59.6-30.9,55.9-8.89-1.05-19.08-8.76-15.84-18.62,3-9.11,17.65-9.29,16.23-2.78l-2.01,1.03-1.65-2.58c-11.13,2.48-8.4,13.3,1.37,16.86,15.74,5.72,34.65-8.02,34.3-25.29-.02-1.19.72-3.74-1-3.49,2.02,18.66-14.74,30.1-32.01,27.99-1.57-1.2-.02-1.82,1.47-2,10.37-1.23,16.13-.28,23.5-9.52,9.28-11.64,8.35-26.35-1.94-37.01-1.71-1.77-7.5-6.63-10.03-5.97,4.48,3.5,7.06,7.87,10.34,12.17,1.4,1.84,3.32,1.67,4.87,5.62,6.41,16.24-6.47,32.88-23.72,32.8-1.73,0-6.32-.23-5.49-3.09,19.39,3.9,27.83-9.02,24.76-27.27-1.13-6.69-7.3-16.16-13.76-18.73,9.19,8.74,12.17,18.16,0,25.99,1.72-6.29,1.25-9.56-3.03-14.48-12.9-14.81-44.92-8.12-60.97-1.51-.22,1.88,2.02.77,3.04.54,5.27-1.2,14.69-6.34,18.95-1.56-11.17.23-24.2,5.39-34.36,10.15-10.2,4.78-17.09,10.2-25.16,17.89-.76.72-5.48,2.1-.99,2.96,13.78-11.04,34.3-23.87,52.78-20.75,9.96,1.68,14.71,11.17,7.24,18.74-2.68-1.82-.48-5.52-2.47-7.51-4.46-4.47-19.25-3.13-25.08-2.02-26.6,5.07-44.52,23.63-65.03,38.97-10.15,7.58-21.28,13.79-30.91,22.09,8.96-.17,16.95-8.78,24.97-13.03,37.55-19.84,78.17-15.76,110.54,11.53l.97-2.01c6.03,3.9,14.82,8.39,21.7,10.32,17.8,5.02,49.08,2.6,61.82-12.31l-12.74,7.75c-7.2,3.05-21.02,6.07-28.68,5.15-2.21-.27-16.93-4.51-13.58-7.91,13.32,2.2,35.99.31,40.56-14.95.74-2.48-.8-6.86,2.44-6.05.85,5.12-1.15,8.58-2.98,12.99,4.83-2.23,4.18-6.4,4-10.99,2.74-.45,1.79.51,2.15,2.37.69,3.54-.62,5.29-1.15,8.63l2.5-1.99c.74-.16.68,1.04.49,1.48-2.28,5.14-17.82,13.37-23.99,12.52-.16,1.91,3.16.9,4.23.73,2.45-.38,10.18-2.52,12.04-3.71,4.3-2.73,16.56-16.01,18.46-20.79,2.3-5.79,1-10.41.27-16.24,4.38,3.46,3.47,11.62,1.78,16.29-1.15,3.16-4.61,5.47-4.29,8.71,9.07-9.06,9.22-21.5,1.5-31.49l-5.99-5.5c25.02,2.21,21.18,28.69,7.52,43.02-14.37,15.07-37.73,18.07-57.52,15.99.54,1.5,3.82,2.49,5.33,3.16,5.11,2.28,12.28,3.73,16.72,6.28,1.49.86,3.34,1.33,2.95,3.54-5.66-2.86-12.26-4.08-17.98-6.51-6.98-2.96-13.6-7.95-21.01-9.48l31.01,24.48,2.98,4.51-45.99-33.99,17.47,27.02c3.67,8.89,4.13,18.57,5.53,27.99l1.98-1.01c-.23,8.67.73,19.16,11,20.63,2.2.32,1.88-.53,3.01-1.07,4.99-2.37-.53,4.93-4.69,5.28-3.97-1.99-7.4-5.32-9.37-9.28l-2.93-12.55c.88,13.85-4.87,30.07-11.13,42.37-8.97,17.64-34.97,43.26-52.5,52.5-3.33,1.75-21.28,8.52-22.17,9.33-.48.43-.14,2.33-1.2,3.26-2.26,2.01-10.24,3.6-13.91,7.12-3.94,3.77-6.78,11.72-3.92,16.76,1.08,1.9,3.5.87,2.82,3.63-12.76.94-12.64-15.69-4.2-21.69l19.2-8.29-21.5,1.99c-25.75-1.15-59.8-20-55.05-50.05,1.97-12.46,11.55-24.3,25.38-20.28,9.4,2.74,8.56,9.31,7.17,17.32-3.18.65-1.29-2.36-3.55-3.93-8.12-5.63-15.29,4.74-15.47,12.48-.38,16.19,20.04,35.46,35.53,35.46h19.5c.23-1.76-2.26-.96-3.49-1-14.01-.52-26.71-1.86-37.99-11.02-8.41-6.83-12.37-14.44-11.57-25.53.24-3.27.2-6.39,4.04-5.44-7.16,14.75,4.25,27.98,17.31,34.18,16.65,7.9,46.65,7.98,63.37,0,2.47-1.18,5.08-2.56,6.31-5.18-11.25,3.94-29.34,8.68-39.94,1.43-.88-.6-6.18-5.37-5.06-6.43l13.18,7.31c25.74,3.55,46.46-11.06,59.81-31.82l-3.99-.98c2.86-1.36,3.73-1.63,5.96-4.05,5.08-5.53,12.14-15.21,14.02-22.46l-5.01,7.47c-8.55,12.9-31.98,14.61-31.97-4.47,3.29.5,3.69,3.91,6.66,5.83,14.16,9.15,25.25-7.95,29.35-19.31,10.85-30.09-1.54-56.65-24.54-76.49-1.94-1.68-5.01-4.39-7.47-5.02,16.88,15.33,32.68,40.52,19.81,63.3-7.7,13.62-31.6,16.61-32.49,1.06-.15-2.59,1.52-10.01,5.21-7.39,5.78,4.1,9.82,5.98,16.01.06,13.1-12.53,1.25-39.62-10.62-49.45-20.98-17.38-44.51-15.93-69.91-11.59.42-1.72,4.43-2.23,5.94-2.54,2.85-.6,12.33-2.45,14.55-2.45h15.5c.22-1.76-2.26-.95-3.49-1-14.49-.6-29.3,1.99-42.78,7.23l-9.73,4.76c22.46-3.08,52.6-7.89,67.99,13.51,9.12,12.68-.54,32.09-15.98,25,5.69-1.86,9.79-6.15,8.58-12.53-2.69-14.11-28.05-19.47-40.15-19.02-42.92,1.61-97.16,36.21-127.93,65.07-6.92,6.5-11.15,13.87-16.13,21.87-.53.85-2.51,2.17-.91,3.09,15-17.52,34.7-35.51,56.99-43.01,12.65-4.26,25.59-6.8,37.01,2.02,13.83,10.68,10.71,37.95-9.48,27.5,6.51-2.53,10-4.65,7.53-12.56-2.39-7.65-16.13-10.27-23.03-9.93-49.46,2.48-84.19,58.39-87.55,103.45-.79,10.55,4.51,24.64,11.54,32.52.07-3.58-3.58-6.81-5.01-9.99-7.99-17.87-.94-43.84,11.56-58.2,11.11-12.76,34.23-23.09,50.63-15.98,12.81,5.55,13.14,23.38-1.68,24.18.96-5.88,5.22-6.57,1.44-12.95-8.62-14.56-33.31-2.6-41.95,6.95l-.99-1.99c-25.39,20.31-16.74,72.5,17.98,76,15.32,1.54,36.04-13.31,27.52-30,2.21-.37,2.77,1.39,3.48,3,4.35,9.77-2.99,18.15-10.58,23.4-19.48,13.49-36.8,2.62-49.9-13.41l7.99,12.5-1.51,1.5c1.53,1.62,14,6.99,16.01,6.99h15c1.39,0,5.47-3.1,7.51-1.5-1.48.63-6.55,3.5-7.51,3.5h-16.5c.1,1.42,4.52,1.77,5.62,1.87,18.21,1.66,36.33-11.3,39.13-29.61,2.26-14.77-12.62-30.52-27.3-25.31-2.42.86-4.57,3.51-5.97,4.04-1.6.6-2.09-.7-1-2.01,8.81-10.6,26.88-3.49,33.36,6.68,11.48,18.01-7.91,45.96-27.45,48.23-8.21.95-14.64-.9-22.39-2.88,1.86,3.33,6.96,3.4,9.69,4.79,3.87,1.97,11.1,6.1,13.17,9.83,3,5.41,4.35,17.24-4.86,15.36.97-3.82,2.56-4.72,1.58-9.05-.36-1.6-6.83-11.81-7.86-12.66-2.41-2-15.66-4.2-22.06-8.45-40.9-27.18-29.53-85.4-7.84-121.5,14.13-23.52,41.71-45.49,51.17-69.83,3.53-9.08,6.93-26.26-3.98-31-.12-3.67,17.18-1.14,18.92,10.06,1.68,10.85-3.05,22-9.11,30.76-1.04,1.51-7.32,9.17-8.32,9.79-1.81,1.11-3.04-.11-3.36.08-.41.25-5.08,6.64-5.77,7.69-.55.85-2.46,2.22-.89,3.11,9.55-12.13,25.81-20.35,36.04-30.96,11.84-12.27,30.33-44.38,16.86-59.94-2.26-2.61-10.61-6.35-.64-7.88,8.23-1.26,17.99,5.96,19.15,14.37.46,3.32.29,8.3-.17,11.65-2.23,16.26-24.77,36.65-36.76,47.24-1.43,1.27-4.25,3.59-4.48,5.52,22.76-18.03,51.26-40.74,65.66-66.34,6.55-11.65,17.8-41.57-2.14-44.71l.9-5.53c7.59-1.51,13.44-2.23,18.5,4.63,7.31,9.9,2.86,22.22-1.63,32.24-.34.75-2.05,3.24.2,2.21,11.66-18.31,27.34-39.57,18.19-62.2-3.35-8.28-7.56-12.89-17.19-11.31,4.48-13.37,23.6-13.76,30.38-1.87,11.58,20.32-3.51,46.53-16.41,62.35l-49.97,53.52c1.88.44,2.38-1.05,3.5-1.99,6.25-5.21,10.06-10.09,15.47-15.53,8.65-8.71,18.39-17.43,26.54-26.46,24.06-26.65,58.68-91.81,50.02-128.05-1.24-5.18-4.66-15.23-10.86-14.99-2.84-4,4.77-5.51,7.84-5.45,13.57.26,18.99,14.39,18.47,25.96-.8,17.99-8.53,29.58-14.75,45.25-.76,1.9-2.38,5.31-1.74,7.26,11.84-18.56,24.42-36.36,31.54-57.46,6.85-20.3,13.91-54.98-3.64-71.43-4.66-4.36-13.66-7.82-12.4,1.9-13.04-1.79-7.32-15.24,2.01-18.49,21.84-7.62,36.36,24.2,35.03,42.03l-3.03,13.46c.34-14.22,1.43-30.26-8-41.99,10,19.86,7.82,41.01,3,61.99l5.85-9.64c9.57-21.72,20.32-47.21,14.7-71.41-2.41-10.37-9.19-19.4-20.89-15.03l-1.67,6.08c-10.33-2.97-2.63-14.39,4.74-15.76,17.78-3.29,29.77,17.82,29.33,33.27-.43,15.26-18.62,54.19-26.55,68.51-3.38,6.1-8.8,11.06-10.51,17.98,15.25-21.74,32.37-42.49,43.98-66.52l-2.98,1.52-1-1.99c-2.32,8.19-7.49,16.2-12.52,22.99-.77.15-.6-.92-.51-1.5,1.01-6.05,6.88-16.52,9.03-22.98,6.74-20.26,9.04-43.56-2.22-62.82-5.64-9.66-12.74-16.52-24.36-17.74-2.26-.24-4.3,1.38-5.96.06-1.36-7.33,5.05-9.44,11.14-9.89,20.98-1.55,36.34,25.95,36.45,44.37.03,5.11-1.88,10.21-1.07,15.51.93.06,1.99-5.2,1.99-5.49v-21c0-32.4-29.89-61.56-63.01-54.01-10.78,2.46-20.75,20.32-5.98,22.51l-.45,3.05c-7.33,2.94-16.17.35-18.12-7.98-3.58-15.28,14.55-29.88,28.32-31.81l10.24-1.26c-5.42.59-12.31-.81-17.5,0ZM793.85,169.71l-27.53-42.96-5.45-17.04c-.9,8.27,2.82,16.61,6.82,23.66,6.99,12.33,18.28,24.35,26.16,36.33ZM767.85,154.71l-10.75-18.74c-.96-4.37-3.92-11.77-4.21-15.87-.16-2.23,2.26-6.3-.01-7.38-3.77,15.37,3.3,31.95,14.98,41.99ZM797.85,183.71c-8.21-20.16-25.5-34.3-34.85-53.64l-4.13-10.35c5.18,24.76,22.77,45.4,38.98,63.99ZM765.85,145.71l-9.98-24.99c1.47,8.72,4,18.33,9.98,24.99ZM822.86,187.71v-16.5c0-1.04,1.13-6.88,1.44-8.56.96-5.13,2.93-10.02,4.55-14.94-3.06,2.29-6.99,13.23-6.99,16.5v23.5h1ZM835.85,257.71c-4.4-33.44-27.49-62.33-21.73-97.24.43-2.61,1.66-4.56,2.25-6.75.28-1.01,1.43-3.18-.5-3-7.46,15.38-7.53,34.07-1.49,49.97,2.21,5.81,6.28,11.62,8.47,17.54,1.01,2.75-3.43-.78-1.97,1.96,1.42,2.67,4.6,5.22,5.17,8.84l9.81,28.67ZM816.86,185.71v-22.5c0-.88,1.92-3.54.99-5.5h-.98c.62,1.57-1.01,3.75-1.01,4.5v23.5h1ZM872.85,191.72c-12.04-.37-22.55,11.93-24.99,22.98l6.58-10.91,10.74-9.26,7.67-2.82ZM846.86,239.21c-.76,2.99,0,12.11,0,16,0,.17-1.35,1.57-1.99,1.5l.9-21.39c.06-1.39-1.06-3.13-.95-5.06.24-3.97,2.14-8.43,2.03-12.54-1.49-.25-1.24,1.87-1.49,2.98-.74,3.23-1.35,7.15-1.54,10.47-1.19,20.49,1.56,41.62,2.09,62.01.24,9.33-.42,18.73-.04,28.05.05,1.22-.76,3.72.99,3.48-1.04-8.74,1.07-18.09,1.07-26.49,0-14.36-.6-28.5.95-42.99,1.53-14.35,4.51-28.65,10-42l-7.05,12.95-1.97,14.53-1-2.99c-.63-.03-1.9,1.16-1.99,1.5ZM809.86,252.7c-12.44-11.48-35.97-10.77-45.45,4.06-3.54,5.53-3.86,13.84,3.45,15.94-7.54-7.43-3.63-15.25,3.53-20.97,11.69-9.33,26.3-4.75,38.47.97ZM817.85,264.71c1.17-1.33-5.48-6.95-6.66-7.83-3.61-2.66-8.88-5.58-13.32-6.16l9.91,5.58,10.08,8.41ZM804.86,257.7c-7.31-7.13-18.57-6.72-27.99-4.98-.23,1.79,2.25.97,3.37.87,10.17-.93,15.27-.56,24.63,4.11ZM932.87,323.7c9.93,2.89,16.43.95,21.81-7.67,10.05-16.09,4.82-34.99-11.12-44.51-33.11-19.77-63.89,8.36-78.68,36.71-.16,3.04,1.08.7,1.82-.19,11.18-13.5,22.53-26.93,40.39-31.61,16.9-4.43,36.4,1.93,44.67,17.89l3.1,13.38c7.2-26.83-19.72-41.37-43.03-36.53-5.56,1.16-10.37,4.06-15.96,4.53,15.23-12.29,43.71-10.05,56.42,5.09,10.36,12.33,6.68,34.69-8.39,41.45l-11.02,1.46ZM803.86,299.7c-37.14-28.46-104.76,10.43-86.99,58,1.88.21.76-2.01.54-3.04-.73-3.33-2.52-6.95-2.54-10.46-.18-21.74,18.25-41.44,37.75-48.24,18.62-6.49,33.71-4.98,51.24,3.74ZM792.85,296.72c-10.86-2.07-22.35-5.48-33-.51,7.06-.22,14.38-1.04,21.5-.49,2.81.22,5.37,1.48,8.12,1.89,1.05.15,3.64.84,3.38-.89ZM755.85,298.72c-24.2,5.61-40.62,28.13-37.98,52.99l2.46-17.03c2.97-12.28,11.84-21.03,21.64-28.36l13.88-7.6ZM806.86,314.7c-15.01-15.09-38.79-16.24-53.52-.01-5.7,6.28-10.73,18.78-.48,23.01-13.29-23.24,15.64-33.1,34.39-30.88,7.56.89,12.87,5.17,19.61,7.88ZM823.85,321.71c-3.51-8.09-10.27-18.63-19.99-18.99,2.27,4.01,8.16,5.02,11.07,7.42,3.28,2.71,5.29,8.94,8.92,11.57ZM895.85,306.72c-8.72-1.1-17.55,2.37-23.99,7.98l11.46-5.03,12.53-2.95ZM803.86,316.7c-7.18-6.75-18.45-8.28-27.99-7.98,1.33,2.22,5.95.5,8.29,1.02.7.16.67,1.63,2.07,2.14,2.41.88,5.24.57,7.67,1.3,3.4,1.02,6.54,2.65,9.97,3.52ZM774.85,309.72c-5,.08-14.46,2.88-17.39,6.98-.44.62.01,1.96-.42,2.69-3.39,5.75-6.04,9.03-3.17,16.31l.4-8.03c.88-4.31,6.03-11.08,9.88-13.17,3.64-1.98,8.39-1.42,10.7-4.78ZM754.87,356.72c1.05,5.83-3.96,11.04-9.57,11.93-14.95,2.37-23.35-12.12-22.47-25.47l5.54-20.46c-12.16,14.25-10.5,44.35,11.24,47.76,6.7,1.05,15.27-2.99,16.28-10.25.14-.98.64-3.8-1.01-3.51ZM725.85,349.71l6-25.99c-1.49.76-2.9,4.44-3.48,6.01-1.9,5.12-2.92,11.17-3.39,16.62-.1,1.13-.93,3.59.87,3.37ZM836.85,361.71l-.27-7.22-4.71-16.77,4.98,23.99ZM801.85,339.72c-4.35-1.21-11.15-2.6-13.99,1.98l13.99-1.98ZM825.86,404.21c.56-6.15,0-13.66,0-20,0-3.22-3.31-14.83-4.81-18.19-4.73-10.6-16.99-26.06-30.19-23.3l8.68,2.8c13.39,5.42,20.87,20.57,24.08,33.92l1.23,8.77v15c0,1.34-2.1,5.11-.99,7.5h.98c-.92-2.36.87-4.97,1.01-6.5ZM818.85,356.71c-1.34-4.45-5.99-9.06-9.49-12-1.12-.95-1.63-2.42-3.5-1.99l12.99,13.99ZM810.86,417.71v-16.5c0-1.72-5.94-19.54-9-16.49.92,2.7,3.36,4.42,4.52,6.97.53,1.18,3.48,10.92,3.48,11.52v14.5h1ZM901.86,386.71h24.5c1.27,0,7.88,1.77,9.71,2.29,7.78,2.22,15.88,6.68,21.29,12.71.27-4.24,5.45,1.38,6.84,3.27,7.98,10.92,11.42,32.47-1,41.57-11.72,8.58-31.35.53-22.34-14.83-1.75-.36-2.04.4-2.78,1.7-3.36,5.84.86,14.99,5.76,18.81l6.02,4.47c-11.63-.86-18.72-14.72-14-24.99-5.52,5.66-3.34,14.78,1.04,20.47,10.22,13.29,29.62,10.72,38.41-2.54,10.81-16.31,5.05-35.68-9.5-47.36-4.13-3.31-14.29-7.62-17.27-10.52-.93-.91-.29-2.54-1.32-3.08-6.86-3.6-27.84-4.46-35.83-3.96l-9.51,1.99ZM813.85,417.71c1.56-8.84,2.55-21.02-3.98-27.99,1.71,5.25,3.92,12.02,4.02,17.55.05,2.68-.82,4.58-1.03,6.96-.09,1.09-.73,3.73.98,3.48ZM915.86,408.7c-6.57-7.34-19.27-7.26-28.38-5.87-10.13,1.54-21.99,6.05-29.62,12.87,15.96-7.35,30.03-14.9,48.2-10.69,3.94.91,6.25,2.09,9.8,3.69ZM910.58,408.99c-.94-.69-6.71-2.13-8.21-2.28-23.09-2.3-47.22,10.63-63.51,26l22.98-14.51c12.73-6.29,25.05-10.76,39.55-9.51,4.19.36,6.74,1.5,10.47,3.02.11-.1-1.06-2.55-1.28-2.71ZM966.85,438.7c2.66-5.35,2.08-10.65,2.02-16.5l-4-10.49c2.82,9.36,3.25,14.46,1.43,23.94-.2,1.03-1.31,3.28.55,3.05ZM772.85,421.71c-3.22-8.36-15.29-13.51-19.98-3.49,2.69,1.6,1.93-2.1,4.93-3.07,8.13-2.64,14.46,7.2,15.05,6.57ZM787.86,457.71v-16.5c0-2.19-3.42-12.85-4.52-15.48-1.17-2.81-2.67-6.58-5.47-8.02,1.09,3.46,3.42,6.22,4.75,9.74,1.02,2.67,4.24,12.6,4.24,14.76v15.5h1ZM776.85,492.7c6.9-21.19,11.59-43.24,4-64.99-1.8-.24-.91,2.18-.74,3.24,1.52,9.44,3.26,16.3,2.75,26.24-.59,11.34-4.09,21.6-6.54,32.46-.23,1.02-1.34,3.26.54,3.04ZM943.86,432.72c-4.23.46-4.3,4.51-3.24,7.71,2.8,8.43,15.27,9.32,21.24,3.78-1.71-1.16-3.45,1.15-5.54,1.45-8.94,1.27-19.82-3.69-12.46-12.94ZM749.51,479.06c-1.04-.97-10.56-6.54-10.66-3.85,8.39,3.01,11.45,8.23,13.35,16.66,2.52,11.2-1.06,18.92-1.84,29.85,4.46-10.95,8.54-33.87-.85-42.66ZM870.87,476.72c-13.23-.38-24.93-.41-37.83,2.67-1.61.38-5.64.71-6.18,2.31,15.9-2.71,31.66-4.79,46.97,1.53,8.97,3.7,22.98,13.33,26.24,22.76.97,2.82-.3,7.46,2.77,6.72,1.17-17.5-18.86-28.5-32.96-34.06l.97-1.93ZM904.84,516.71c8.04-18.83-14.13-36.02-30.98-38.99l16.31,9.18c8.18,6.15,20.27,18.67,12.7,29.32l1.97.49ZM746.85,512.71c.5-10.8,1.66-23.29-5.98-31.99.97,4.62,4.02,9.07,4.75,13.74.73,4.71.04,9.95.24,14.77.05,1.21-.76,3.72.99,3.48ZM805.86,514.7c-.6-1.86-1.25-1.99-3.01-1.56-3.03.73-10.54,5.27-12.98,7.56l16-6ZM709.85,587.7c9.07-17.43,7.15-53.72-20.98-42.98-.23,1.78,2.25.98,3.36.88,6.28-.58,8.56-1.86,13.62,3.62,7.39,7.99,8.48,20.61,5.73,30.72-.54,1.97-4.36,6.57-1.74,7.77ZM710.85,576.71c.21-9.36-1.15-22.76-10.98-26.99l6.48,10.01,4.51,16.98ZM695.87,606.71c10.2-13.47,16.71-35.14,5.49-49.99-.34,4.22,2.87,8.45,3.42,12.58,1.9,14.38-3.08,24.92-8.91,37.41ZM830.85,620.71c4.57-17.53-4.74-33.22-19.68-41.8-29.43-16.91-67.02,1.41-89.3,22.31l20.97-12.03c26.59-17.07,73.13-23.3,85.28,13.76l2.73,17.75ZM801.86,582.7c-5.72-6.36-16.19-4.77-23.99-4.98l11.24,1.25,12.76,3.73ZM810.85,602.71c1.64-17.24-17.18-22.01-30.98-21.98,1.49,3.04,6.71,1.55,9.39,2.1,8.62,1.76,16.18,4.54,19.84,13.16l1.76,6.73ZM766.36,584.71c4.89-.29,10.07,0,15,0,1.57,0,9.23,2.05,11.28,2.72,6.76,2.21,12.99,7.13,14.72,14.29,1.14-.03.31-3.21.03-4.04-5.25-15.57-33.24-15.55-46.53-12.96.46,2.76,4.69.04,5.49-.01ZM671.87,629.71c2.11-1.58,3.48-5.56,4.47-8.02,3.18-7.89,6.43-25.15-.03-31.94-1.64-1.72-8.63-4.15-9.45-1.06,16.67,3.68,9.42,29.46,5.01,41.01ZM681.85,616.7c2.14-8.54,5.08-17.24-.15-25.33-.6-.92-3.64-4.79-4.84-3.65,8.05,7.59,6.29,16.23,4.44,25.94-.2,1.03-1.31,3.28.55,3.05ZM762.85,613.71c.43-2.41-1.18-4.3-3.07-5.42-9.3-5.5-22.47-.37-31.92,2.44-.22,1.88,2.02.77,3.04.54,9.19-2.09,21.01-7.26,29.5-.59,1.25.98.87,3.15,2.45,3.03ZM634.85,661.7c7.52-15.08,8.4-35.74-12.98-36.98l9.95,4.53c8.43,7.52,4.28,19.92,2.48,29.4-.2,1.03-1.31,3.28.55,3.05ZM626.85,665.7c3.87-11.13,11.6-27.04-.48-36,1.27,4.13,3.11,6.85,3.53,11.47.91,9.99-1.58,13.01-3.6,21.49-.24,1.01-1.32,3.27.54,3.04ZM861.87,665.71c10.14-7.73,14.74-26.14,3.49-34.99-.04,3.07,2.5,5.23,3.44,8.56,1.89,6.68,1.08,10.2-1.46,16.42-1.55,3.8-4.01,6.41-5.47,10.02ZM763.51,806.36c16.04-15.92,28.25-32.14,34.07-54.43,15.52-59.47-42.76-107.57-99.09-100.09-6.73.89-13.01,3.57-19.62,4.89-.24,1.8,2.17.91,3.24.74,6.25-.98,12.72-3.26,19.27-3.74,48.3-3.57,85.95,24.34,95,71.98,5.55,29.19-11.5,53.82-30,75.02-5.59,6.4-12.49,11.54-18.51,17.49,1.75.83,5.21-2.46,6.47-3.53,2.75-2.36,6.66-5.83,9.18-8.32ZM740.85,659.72c-17.51-5.53-35.06-4.71-52.99-2-.26,1.67,2.43,1.09,3.53,1.03,8.18-.45,15.33-2.62,24.01-2.08,7.25.45,14.9,3.23,22.09,3.91,1.12.11,3.59.92,3.36-.86ZM763.85,683.7c1.89-3.45-4.85-8.73-7.52-10.96-5.2-4.35-12.64-9.51-19.47-10.02l16.47,10.01,10.51,10.97ZM580.87,700.71c8.21-8.53,10.8-21.63,7.98-32.99-2.44,1.28.12,6.01.05,8.45-.27,9.4-4.2,16.32-8.03,24.55ZM819.86,676.7c4.53.38,9.04-.67,13.27-2.21.93-.34,9.59-3.88,7.72-5.77l-8.72,4.77-12.27,3.22ZM726.86,682.7c-17.83-19.65-49.14-12.18-71.99-6.98-.25,1.77,2.24.98,3.26.76,4.44-.96,8.76-2.76,13.51-3.5,12.22-1.88,31.83-2.7,43.23,2.22,2.01.87,11.28,8.13,12,7.49ZM721.86,686.7c-16.13-20.22-45.24-12.04-66.99-7.98-.23,1.83,2.13.87,3.22.72,17.87-2.36,32.81-7.3,50.76-.22l13.02,7.47ZM645.86,675.72l-15.04,10.45c-1.43.75-3.62.34-4.89,1.11-2.72,1.65-40.86,26.8-39.07,28.42l25.71-16.78c7.19-3.5,13.74-7.95,20.06-12.22,4.93-3.33,10.67-4.96,13.23-10.98ZM729.85,703.71c1.13-6.89,1.85-13.87-4.98-17.99l3.76,7.73,1.22,10.27ZM777.85,719.71c.18-5.47.16-10.89-1.28-16.2l-4.7-10.79,5.98,26.99ZM767.51,728.37c5.58-5.99,7.13-17.98,5.34-25.65l-1.67,15.81c-2.6,8.21-10.12,15.72-19.38,12.73-1.87-.6-2.77-2.84-4.94-2.54,4.24,17.28,25.69,6.89,26.98-7-1.98,1.32-2.32,4.35-3.99,6.49-4.37,5.57-12.95,11.07-19,4.51,6.43.95,11.9.74,16.65-4.36ZM536.87,761.71c4.99-6.24,8.94-13.28,14.02-19.47,4.28-5.21,9.93-9.53,13.98-15.02l5.98-11.51c-9.86,11.21-20.29,22.36-28.81,34.68-2.62,3.79-5.33,6.49-5.17,11.32ZM562.86,733.7l20.01-14.54-.03-3.45c-.93-.98-18.97,15.67-19.99,17.99ZM633.86,750.7l4.05.59c4.39-6.46-.28-18.69-6.11-23.02-14.79-10.99-40.24-1.11-53.94,7.95l27.74-9.26c13-3.36,36.67,3.85,31.79,20.84-.97,3.39-2.91.61-3.53,2.91ZM635.85,747.71c1.07-16.22-15.88-20.46-28.98-18.98l19.33,4.16c3.62,2.25,6.27,5.09,7.9,9.1.82,2.01.04,5.27,1.75,5.73ZM559.86,750.72c-1.87-.44-2.38,1.04-3.5,1.99-8.83,7.44-18.02,18.31-22.49,29,7.81-11.08,16.68-21.14,25.99-30.99ZM775.86,771.72c-7.32,2.83-12.9,4.47-19.51-1-2.43,1.52,4.74,4.46,6.23,4.77,4.16.86,10.7,0,13.28-3.77ZM666.86,775.7c-6.73-7.85-16.28-2.94-21.42,4.09-10.3,14.12-4.24,30.53,6.92,41.9l1.5-1.96c-13.25-7.88-16.65-33.52-2.69-42.21,5.36-3.34,9.83-4.34,15.69-1.82ZM666.86,780.7c-4.05-8.25-16.29-2.39-19.56,3.95-6.02,11.66-2.06,24.5,7.04,33.08,1.33,1.25,7.83,6.47,9.04,6.97.46.19,1.64.26,1.48-.48-12.44-10-21.66-29.01-9-42.5-4.87.71-7.59,8.54-7.92,12.63-.51,6.39,2.34,11.49,3.91,17.36-12.29-11.42-5.07-40.58,15.01-31.01ZM596.85,801.71c2.01-24.83-29.92-19.8-43.98-10.98-.23,1.85,2.09.87,3.03.53,3.29-1.2,6.2-3.15,9.93-4.07,13.59-3.36,31.01-.05,26.04,17.53,3.28-1.45,3.67-3.98,1.99-6.99l2.99,3.99ZM523.85,809.71c.73-8.5,5.34-16.04,8-23.99-3.91,4.41-7.15,13.15-8.54,18.95-.26,1.08-1.51,5.04.54,5.04ZM519.85,854.71c-3.3-11.54-4.97-23.46-4.03-35.53.7-9.04,4.53-17.57,5.54-26.47-8.1,16.34-8.17,35.58-5.2,53.21l3.69,8.79ZM528.85,834.71l3-17.99c-1.4-.24-1.35,1.68-1.74,2.73-.87,2.35-1.8,5.41-2.14,7.87-.2,1.46-.99,6.8.88,7.39ZM721.85,831.72c-10.77,1.13-21.58,2.87-32.48,1.97-8.82-.72-16.87-4.65-25.51-5.97l7.45,4.03c15.63,5.36,29.71,4.49,45.73,1.65,1.25-.22,4.84-.19,4.8-1.68ZM534.85,864.71l-7.98-18.99c-.08,6.61,3.76,14.17,7.98,18.99Z"/>
      <path d="M425.86,216.72c20.72,4.11,36.83-21.24,30.04-39.55-1.41-3.79-4.58-6.63-5.04-10.45h2.5c-3.11-3.99-7.66-6.39-12.82-4.8-1.81.56-2.84,3.69-5.69,2.79,1.63-18.27,22.24-14.13,28.19-.68,7.6,17.17.54,39.64-13.19,51.68,1.88.44,2.38-1.04,3.5-1.99,19.26-16.2,27.98-46.84,17.23-70.23-2.91-6.33-5.45-10.11-13.18-8.84l-.56,3.07c-6.74-2.91.01-13.44,4.56-14.03,1.49-.19,8.69,1.16,10.02,1.96,7.08,4.26,10.23,25.77,10.05,33.4-.36,14.95-6.47,27.71-10.61,41.67,9.42-11.31,15.73-28.1,17.87-42.62,4.42-29.97-10.68-76.65-47.88-73.39,2.77-5.49,7.81-2.37,11.95-1.43,1.02.23,3.26,1.33,3.04-.55-3.1-.27-6.69-2.79-9.61-2.98-2.59-.17-8.1,2.94-7.38-1.02,5.54-2,8.84-.43,13.95.55,1.03.2,3.28,1.31,3.05-.55-16.57-8.73-46.07,7.04-42.95,26.43.38,2.36,5.34,7.33,1.45,7.57-6.47-1-4.53-15.61-3.21-20.23,2.27-7.93,10.66-17.57,18.71-19.8-.8-2.67-5.66.89-6.91,1.6-8.9,5.05-16.96,14.12-17.11,24.97-.06,4.09,1.93,5.92,2.83,9.15.41,1.48.78,2.68-1.29,2.29-12.33-18.25,8.12-41.64,27-42.97,8.33-.59,23.33,1.34,29.49,6.97-12.96-3.87-28.36-6.72-39,4,3.22-.54,5.7-2.65,8.96-3.53,21.28-5.79,39.32,8.08,49.46,25.62,13.09,22.64,10.52,48.43,4.59,72.92l3.7-9.79c8.97-29.98,3.2-72.44-24.77-90.64-21.66-14.1-60.96-9.03-63.93,20.95-1.36,13.76,3.85,31.07,21.03,27,4.26-1.01,8.52-7.84,5.71-11.24-1.31-1.58-7.7-1.66-6.74-3.75,2.89-6.28,27.39-2.41,17.84,13.84-9.19,15.64-32.55,11.29-41.02-3.68-13.76-24.33,5.18-55.07,31.75-58.58,78.17-10.32,90.67,128.49,25.09,162.09-9.37,4.8-25.73,9.74-30.67-3.17ZM463.86,67.7c-26.28-19.89-69.73,1-65.89,35.4,1.72,15.39,15.88,28.72,31.58,22.79,12.75-4.82,15.61-20.87-.68-20.17.9,2.19,3.83-.06,6.06,2.43,6.51,7.28-3.17,17.98-11.72,18.22-11.9.33-21.53-10.12-23.08-21.42-5.07-36.94,34.92-50.32,63.74-37.25ZM487.85,119.71c-3.06-14.91-13.72-31.8-27.99-37.99,9.82,7.25,16.88,15.08,22.54,25.95l5.44,12.04ZM474.85,137.71c-.61-4.8-8-11.72-12.77-10.37-1.8.51-5.45,2.56-3.73,4.37,7.31-6.02,11.93.71,16.49,6ZM478.85,165.71c.33-6.93-1.04-14.48-3.52-20.96-.44-1.15-1.07-4.02-2.46-4.03,2.66,6.8,3.14,12.38,4.11,19.37.17,1.26.41,5.45,1.87,5.62ZM461.86,173.21c.52,5.25-.38,11.17,0,16.5l2.08-9.5-3.1-15.49c-2.82,1.31.86,6.89,1.01,8.49ZM462.85,212.72c-4.51-1.77-9.5,4.28-12.99,6.98,2.69-.47,5.63-2.15,8.02-3.47,1.47-.81,4.41-1.98,4.98-3.5Z"/>
      <path d="M609.51,69.06c20.01,18.68,17.11,55.13-11.71,62.26l-.02,61.92,4.77,5.97c-4.04,7.64-7.57,7.75-12.61.86l5.9-7.88.03-61.48c-12.84.5-25.27-7.73-21.53-22.02,1.36-5.19,8.24-9.51,13.29-7.22,1.12.07,1.71.62,1.23,1.73-1.74,4.05-8.73,4.47-6.34,12.34,2.95,9.7,18.81,3.77,23.35-2.33h-3c11.63-21.64-12.11-38.8-32.38-36.38-9.96,1.19-25.19,11.8-31.58,19.41-1.41,1.68-3.7,4.29-4.02,6.47,8.88-9.84,20.02-20.72,34.53-19.03,1.5.17,3.08.2,3.46,2.02-16.28-2.36-33.01,11.84-40.17,25.34-17.43,32.86-4.12,78.74,23.7,101.64,1.05.87,4.04,3.71,5.47,2.53-19.58-12.19-23.49-56.87,1.56-63.44,6.36-1.67,16.45-.29,17.27,7.69.74,7.1-5.89.38-7.35.23-12.1-1.29-16.1,22.81-15.35,31.4,1.05,12.08,12.74,31.25,26.87,26.62-.26,7.69-11.02,9.66-17.23,8.79-11.12-1.57-28.49-18.08-35.18-26.87-21.05-27.68-22.88-84.17-2.99-112.82,17.34-24.99,54.96-41.17,80.06-17.74ZM611.85,76.71c1.68-1.81-9.53-9.53-11.07-10.42-36.12-20.8-78.99,18.05-80.91,54.41l6.52-19.96c14.73-33.82,55.81-51.92,85.46-24.04ZM571.36,70.71c2.82-.72,11.33,0,15,0,3.91,0,14.89,6.06,18.03,8.97,15.37,14.27,9.94,43.5-13.52,43.04-.26,1.67,2.4,1.06,3.53,1.03,11.97-.31,19.02-9.28,20.36-20.65,1.93-16.37-3.96-28.25-19.63-34.15-33.08-12.46-61.54,13.62-70.25,43.75l5.56-10.93c10.61-10.29,20.23-22.82,35.39-26.61,15.99-4.01,35.32,3.58,41.74,19.35l2.3,11.19c3.58-24.99-18.47-34.76-39.99-33-.03-.63,1.16-1.9,1.5-1.99ZM583.86,103.72c-12.06,3.76-9.11,17.65,1.32,22.17,24.95,10.83,40.26-19.43,32.67-40.18-1.89-.2-.81,2.1-.7,3.2,1.08,11.7,1.09,27.15-10.58,34-15.7,9.21-35.57-2.52-22.71-19.2ZM521.86,152.21c-.75-8.13.55-17.25,0-25.5l-2,18.58c1.69,16.44,5.37,31.81,13.81,46.11.28.48,1.49,3.19,2.2,1.8-5.63-12.45-12.73-27.21-14.01-40.99ZM574.85,154.72c-29.53-6.88-32.13,33.78-18.5,51,1,1.26,9.3,9.66,10.03,9.98.44.2,1.64.25,1.48-.49-4.22-4.86-11.01-9.44-13.48-15.51-.67-1.65-3.22-8.03-3.43-8.76-3.26-11.65-.73-31,12.68-34.96l11.23-1.26ZM561.86,159.72c-9.93,3.94-9.93,17.97-9.99,26.99l2.94-15.54,7.05-11.44ZM554.86,179.21c-.53,4.53.39,9.86,0,14.5,1.76.23.96-2.26,1-3.49.29-7.48.77-13.75,3.01-21-1.02-1.59-1.25.77-1.5,1.48-.74,2.1-2.28,6.56-2.51,8.51ZM596.35,195.69l-3.51,3.54,3.54,3.51,3.51-3.54-3.54-3.51ZM568.86,223.7l-20-13.98c5.05,7.65,10.28,12.7,20,13.98Z"/>
      <path d="M648.86,132.71c19.42-10.57,40.56-4.77,60,1.99-7.54-6.69-18.31-10.75-20.55-21.93-1.48-7.36,1.67-8.3,2.49-13.62.41-2.67.55-11.14-.86-13.01-1.24-1.65-4.51-1.3-4.13-4.88.2-1.82,3.38-5.08,5.39-5.37,2.18-.05,4.83,4.41,5.72,6.33.03,2.45-3.52,2.05-4.08,4.98-.94,4.95-.53,15.21,2.58,19.44l53.43,45.06c-21.74-9.08-36.09-28.67-54.99-41.99-1.1,1.22,6.77,9.31,7.98,10.51,8.5,8.49,19.22,14.37,28.01,22.48-16.69-1.55-29.07-8.9-46.49-7.98-24.7,1.3-57.08,20.6-63.07,45.94-.24,1.01-1.32,3.27.54,3.04,8.93-29.97,41.01-45.95,70.51-48.08l10.5,2.08-14.99.02,4.99,2.98c-30.49,2.61-68.38,25.93-63,61h-3.99c-1.22-7.16,1.08-12.48,2.55-18.95.23-1.02,1.34-3.26-.54-3.04-1.41,6.61-7.49,17.91-1.63,22.99l.62,1.98-3.99,1.01c-2.04-8.03-.09-13.4,1.55-20.95.22-1.02,1.34-3.26-.54-3.04-2.68,7.5-3.48,15.04-3.02,22.99l-2.98-11.99c-1.61,12.02,3.49,31.39,14.06,38.43,3.09,2.06,7.68,3.66,11.33,2.43,1.59-.54,1.51-4.48,3.6-2.85,3.43,2.67-4.32,13.69-14.54,10.04-22.07-7.88-18.68-53.15-9.99-70.09,7.53-14.68,35.25-37.96,52.04-37.96h17.5l-9.51-2.99c-65.52-4.03-104.27,90.1-41.51,124.51,19.86,10.89,49.35,7.05,48.03-20.52,4.82,3.87.61,14.49-2.58,18.93-2.74,3.83-11.46,9.07-15.93,9.07h-14.5c.08,1.41,4.58,1.79,5.62,1.87,12.43.92,27.66-4.1,31.43-17.32,1.63-5.71-.72-11.83,2.95-15.55v14.5c0,.46-3.07,7.58-3.59,8.41-7.61,12.2-27.34,14.29-39.96,10.14-6.08-2-11.09-6.23-16.33-9.67-.85-.56-2.23-2.46-3.11-.89,15.71,14.64,37.17,22.44,55.91,7.92,15.39-11.93,15.1-45.51-8.43-44.48-5.6.24-15.55,4.5-14.33,11.32,1.17,6.57,11.87,7.3,10.84,3.26-.5-1.97-4.95-.32-3.99-3.5,9.41-2.96,9.64,8.84.27,10.76-18.6,3.81-19.23-23.62-3.27-29.26,18.49-6.53,40.08,10.24,38.9,29.85-2.07,34.21-51.35,48.5-72.9,23.66,8.29,3.92,14.92,9.01,24.51,9.98,30.14,3.05,61.62-29.56,38.03-54.03-6.05-6.27-23.14-11.51-30.53-5.46,2.03.93,4.24-1.11,6.58-1.42,11.69-1.53,26.16,9.51,27.42,21.4,1.44,13.48-4.49,27.04-16.68,33.33-38.91,20.09-77.31-29.06-79.36-64.29-1.67-28.75,19.85-56.37,44.03-69.54-2.24.36-1.99-.16-2.49-1.95-3.07-10.8,6.15-13.38,7.43-21.61.59-3.78.54-28.85-.48-31.4-.93-2.31-8.15-8.72-8.22-9.53l11.27-11.33,10.53,10.32-10.83,11.21c-1.52,10.05,1.35,23.09-.26,32.74-.75,4.5-6.71,9.18-7.56,14.53-.41,2.62.74,4.49.61,7.02ZM661.26,67.36c-1.81-2.38-3.58-4.7-5.9-6.63l-6.43,7.34,7.29,6.56,6.63-6.43c.34-.79-1.13-.24-1.59-.85ZM710.86,131.7l-15.52-13.97-4.47-7.02c.15,3.82,2.56,7.66,4.94,10.54l15.05,10.44ZM666.85,143.72c-14,3.91-29.09,14.41-34.98,27.99l13.51-14.98,21.47-13.01ZM662.87,220.71l-.5-3c-5.61,8.91-1.36,18.88,9.49,18.99l-7.7-4.27c-3.9-7.31.06-10.73,4.71-15.71l-5.99,3.99ZM625.21,229.36l-5.37-9.64c-1.89-.2-.83,2.03-.51,3.01,2.22,6.87,6.23,13.03,13.04,15.97l.47-1.98,5-.02-12.64-7.34Z"/>
      <path d="M823.85,238.71c-5.73-6.65-9.25-14.94-14.57-21.92-16.54-21.67-47.82-46.93-76.83-42.99-5.81.79-12.67,5.82-11.6,12.36.28,1.72,6.79,7.98-1.02,6.08-9.78-2.38-7.36-18.23.12-23.94,14.94-11.41,34.62-.24,48.91,6.4-2.63-3.08-6.86-5.07-10.32-7.17-2.02-1.23-6.3-1.63-4.16-3.84l3.48.52c-23.23-16.27-77.94-22.52-89.31,10.68-2.29,6.68-.85,17.93,6.31,20.84.33,1.94-.84,2.66-2.5,2.97-17.75,3.28-29.91-16.41-23.01-32,8.47-19.14,36.65-26.86,55.74-24.71,51.36,5.8,85.24,37.39,110.58,79.42,3.14,5.2,7.02,11.4,8.18,17.3ZM700.85,143.72c-21.86-2.45-61.22,16.97-47.87,43.37,1.45,2.88,7.63,8.32,5.87,4.13-.74-1.77-4.74-5.01-5.89-8.12-5.84-15.75,9.91-27.49,22.22-33.58l25.67-5.81ZM716.86,146.71h-20.5c-5.2,0-18.86,6.86-22.5,10.99,4.98-1.77,9.39-5.43,14.45-7.04,2.63-.84,11.77-2.95,14.05-2.95h14.5v-1ZM679.85,150.72c-14.88,3.84-35.32,21.92-20.49,36.99.18-4.17-1-8.11-.41-12.41.89-6.45,5.43-11.42,9.26-16.23l11.65-8.34ZM749.85,168.72c-9-2.55-20.51-5.24-27.99,1.98,9.03-4.41,15.75-2.9,24.96-1.44,1.05.17,3.26,1.34,3.03-.53ZM740.85,169.72c-8.21-.53-21.2.63-21.99,10.98,1.86-.76,1.62-3.28,3.46-5.02,1.34-1.27,3.57-1.86,5.16-2.84l13.36-3.12Z"/>
      <path d="M514.87,65.71l5.13-15.35c4.46-8.67,11.25-16.63,22.13-14.41,4.6.94,10.64,6.67,9.72,11.76-6.96-1.57-9.09-4.47-16.33-.83-17.28,8.7-22.84,50.83-24.65,68.35-.4,3.85.46,8.27-.01,12-.18,1.37-.75,3.14-2,1.49-.24-9.26-4.02-17.79-5.71-26.8-2.72-14.48-3.43-53.61-21.06-58.96-5.98-1.81-4.93,4.54-8.9,5.6-6.68,1.78-1.4-11.53,4.61-13.4,15.39-4.79,24.13,12.81,25.95,25.16l2.1,21.39c-.54-13.36.75-27.22.05-40.54-.29-5.52-2.01-23.87-4.18-27.82-4.42-8.07-8.92-1.62-9.86-2.64,1.17-14.6,19.72-12.96,26.43-2.93,9.36,14.01-5.16,41.6-3.42,57.93ZM507.85,110.71c2.02-22.04,3.03-44.34,6.26-66.24,1.77-12.01,10.47-29.66-1.75-38.76-4.14-3.09-12.32-5.08-15.51,0,3.44.81,7.7,5.79,8.53,8.98,5.62,21.55,2.54,63.42,1.42,86.49l1.04,9.54ZM502.85,75.71c-.36-12.32-3.72-37.92-19.61-38.97-3.18-.21-9.17,2.15-9.37,5.97,7.55-8.39,17.79-1.78,22.17,6.32l6.81,26.67Z"/>
      <path d="M351.87,228.71c1.76.23,1.11-3.52.92-4.43-2.64-12.78-19.93-15.06-29.41-7.54-12.01,9.53-12.89,27.26-4.35,39.3,11.7,16.49,35.95,20.4,54.1,13.45,3.52-1.35,6.71-4.8,9.72-4.28-17.54,16.81-54.14,11.57-66.82-9.17-9.31-15.23-6.01-38.94,12.55-45.1,22.65-7.51,38,20.2,18.24,27.25-10.04,3.58-16.64-6.33-10.98-9.03,2.58-1.23,3.53,3.94,5.51,3.54l3.31-5.34c-1.91-5.94-7.3-6.9-12.79-7.15,3.73-3.6,8.15-.5,11.99.49-9.44-11.42-23.91.72-25.05,12.46-3.4,35.18,38.9,44.86,62.52,26.53l6.52-6.97c-6.69,2.96-12.15,7.91-19.21,10.28-13.06,4.38-26.65,3.41-34.61-8.96-3.67-5.71-6.97-14.97-2.18-20.32-2.69,29.05,34.65,29.66,52.92,17.41,30.53-20.47,29.71-63.52,7.1-89.41.85,3.64,3.96,6.65,5.49,10,8.42,18.4,10.08,50.73-7.48,64.52-8.66,6.8-22.32,7.08-22.02-6.52,2.68-.96,1.59,1.77,2.64,2.01,11.28,2.5,20.31-13.55,21.91-22.96,2.75-16.16-3.56-35.15-15.55-46.05,1.88,4.55,5.6,8.16,7.87,12.62,6.19,12.19,8.64,25.54,2.58,38.38-.7,1.48.16,2.48-2.45,1.99,3.95-14.46,4.54-25.41-2.46-39.04-10.94-21.31-26.59-27.7-47.77-35.04-.69-.24-.74-1.71-1.48-1.89-4.42-1.05-9.69,1.78-14.29.95-.3-.22.51-1.22.99-1.5,9.88-5.68,42.63-.78,52.68,6.34l14.82,11.18c1.64-1.1-.68-2.77-1.47-3.52-13.52-12.88-28.46-17.1-47.01-17.49.27-1.33,5.49-1.79,6.5-1.79,65.8.31,90.19,96.83,32.17,130.97-24.03,14.14-61.07,4.18-61.75-27.68-.51-23.79,28.66-33.75,36.09-8.5ZM374.86,238.7c13.74.59,21.82-13.04,24.53-24.96,8.99-39.57-20.5-74.51-60.53-74.02l21.68,7.81c24.92,10.82,38.78,37.3,33.87,64.23-1.91,10.47-10.26,18.23-18.55,23.94,8.57-1.44,12.8-6.68,16.53-13.96.56-1.09,4.51-12.33,5.46-11.03-1.23,8.59-5.38,19.53-13.28,24.21l-9.7,3.78ZM348.54,233.39c4.28-3.8,1.12-8.03-2.68-10.68.8,3.65,2.05,6.59-.53,9.98-2.8,3.67-4.06.92-7.48,1.52,1.67,3.96,8.45,1.16,10.68-.81ZM366.86,260.71h-16.5c-2.2,0-7.65-3.08-9.99-4.01-1.02,1.12,2.08,2.82,2.78,3.22,5.44,3.09,11.05,3.25,17.19,2.78,1.34-.1,6.07-.48,6.51-1.99Z"/>
      <path d="M596.86,288.21l10.96,11-10.61,11.32c-1.54.32-10.24-7.43-10.89-8.85-2-4.35,6.46-8.73,7.34-11.68,1.5-5.06-.67-14.66.2-20.29-3.26,1.98-5.01.08-6.99-2.51-7.44-9.7-18.63-13.83-28.89-21.1-19.74-13.98-44.67-39.33-48.87-64.13-.29-1.71-1.2-7.42.75-8.25,6.73,40.68,40.64,66.23,73.99,85.61,1.78,1.16,4.9-2.41,4.02-3.61-10.77-4.19-28.69-13.64-36.54-21.97-.86-.91-3.33-3.73-1.96-5.04,8.14,7.67,19.51,15.32,29.49,20.51,6.74,3.5,14.22,7.17,21.93,5.51.96,4.5,3.37,7.01,6.76,9.8,13.89,11.4,37.01,18.43,51.32,30.68,2.81.59,5.6,1.3,8.47,1.53,3.87.31,18.88.7,21.83-.02,1.06-.26,4.55-8.05,7.73-6.64,9.03,5.65,8.37,8.35.34,14.55-1.93.34-6.04-5.93-6.86-5.93h-27.5c2.56,8.71-1.6,18.43,6.93,24.64l-6.43,7.35-7.46-6.59c-.43-2.04,5.33-4.72,5.94-7.92.77-4.05.49-14.35-2.45-17.5-4.03-4.31-24.43-15.4-30.85-19.15-8.74-5.1-18.74-8.65-26.18-15.82l-1.42,3.87c3.18,1.49,6.39,3.25,9.24,5.31,4.24,3.07,15.26,11.28,18.14,14.85,5.34,6.61-.16,13.49-3.9,7.9-1.62-2.42-1.92-6.64-4.12-9.88-2.45-3.6-21.58-19.54-24.43-17.06-.39,1.1,1,2.2,1,2.49v17ZM598.86,257.71c-8.05-1.87-15.92,4.43-6.94,9.57l6.84-1.66.1-7.91ZM596.36,291.73l-7.32,8.49,7.32,6.45,7.48-7.46-7.48-7.48ZM695.88,301.71c1.54,1.09,4.46-3.08,4.74-4.51l-5.12-4.41-3.62,3.43,4,5.49ZM663.26,319.63l-3.99,4.14,4.19,4.02,3.99-4.14-4.19-4.02Z"/>
      <path d="M331.36,296.71c-.53.06-5.03,1.11-5.26,1.24-1.31.74-1.99,6.24-6.22,4.29-.88-.41-5.13-4.84-4.95-5.9l5.57-5.56,6.88,4.93c2.03-.18,3.88-1.02,5.94-1.05,4.37-.08,16.18,1.37,18.75.85,6.02-1.23,39.29-22.02,46.31-26.78,2.82-1.91,6.49-3.92,8.97-6.03,1.59-1.35,5.14-6.64,6.52-7.48,1.81-1.11,5.39-.2,8.04-.96,1.79-.52,15.55-9.01,18.26-10.74,7.21-4.6,14.29-9.54,20.2-15.8,1.35,3.15-4.69,8.03-7.03,9.97-4.21,3.5-30.45,17.71-30.46,19.52,0,1.41,3.77,2.03,5.03,1.05,28.87-16.96,60.56-35.48,71.98-69.02l5.47-21.51c2.09,1.37,1.34,2.31,1.24,4.19-2.49,43.6-44.58,68.65-77.41,88.64-1.28.78-3.57.87-4.09,1.39-.59.59-2.53,8.08-3.38,8.62-9.1-2.09-13.27.86-19.87,6.64-8.71,7.63-16.32,18.43-12.99,30.51-5.47,1.02-6.56-3.97-5.95-8.41,1.28-9.41,18.77-27.87,27.95-31.6l-1.55-2.97c-11.83,7.03-23.25,14.88-35.14,21.79-6.05,3.52-27.41,13.03-30.33,16.67-7.16,8.93,1.32,20.57,7.87,27.17l-6.48,8.28-7.26-6.63,4.71-8.63c-6.41-10.78-5.45-19.63,5.18-26.67-5.3.41-11.3-.57-16.5,0ZM420.61,266.47c4.45-8.62-4.67-12.81-8.58-4.11-.37,3.82,6.09,6.7,8.58,4.11ZM343.88,335.71c6.21-2.46,5.69-6.37.48-9.99l-3.32,5.5,2.85,4.49Z"/>
      <path d="M895.85,589.7c.24-1.74-2.27-.95-3.48-.99-10.26-.4-22.65-2.68-28.94-12.07-4.52-6.73-3.86-24.83,1.43-31.43,10.84-13.52,28.66-8.26,27.99,9.5-4.51-1.76-4.34-4.05-10.02-2.52-8.91,2.41-8,14.61-3.41,20.46.98,1.25,8.25,4.72,10,5,12.39,1.94,24.98-2.33,32.85-12.03.9-1.11,4.94-9.53,6.59-7.9-5.43,21.9-40.23,30.18-54.65,13.65-9.37-10.74,1.37-32.69,15.16-21.66,1.7-1.19-1.42-3.68-2.76-4.24-9.21-3.8-17.4,2.46-18.65,11.83-1.87,14.01,10.99,26.6,24.91,25.43-2.5,4.49-7.61.69-10.74.22-1.27-.19-2.6.62-3.63.47-1.61-.23-3.28-2.67-4.62-1.21,5.64,4.82,14.35,5.09,21.48,4.49,22.12-1.87,37-18.37,40.39-39.6.4-2.51-1.3-8.22,2.12-7.37,4.26,34.52-40.2,64.06-70.35,48.85-23.13-11.67-13.21-36.36-16.66-54.34-.86-4.49-11.51-8.39-.3-14.42,3.75-2.02,7.52,2.39,9.15,5.58.39,2.6-6,6.91-6.63,9.02-3.02,10.2.7,34.49,6.77,43.82,8.25,12.67,22.34,13.04,36.02,11.47ZM853.84,530.7l2.95-5.35-4.29-3.57-4.62,4.43c1.09.85,4.49,5.53,5.96,4.49ZM885.86,542.7c-7-7.38-18.26.88-21.19,8.32-2.56,6.53-3.34,18.73.76,24.62.94,1.35,4.1,5.16,5.43,3.57-2.15-2.28-5.43-5.88-6.01-9-.48-2.61,1.23-.7,2-.5-4.65-14.15,2.01-30.65,19.01-27.02ZM884.85,548.72c-10.66-1.2-15.49,12.27-9.49,19.98.83-2.5-1.48-4.69-1.56-7.54-.08-3.09,2-7.67,4.53-9.48,2.23-1.59,5.36-1.03,6.52-2.97Z"/>
      <path d="M506.85,845.71c.08,3.83.53,8.34,1.47,12.03,1.69,6.65,6.46,21.8,9.36,27.64,2.14,4.32,10.38,17.49,13.68,8.34,3.76-.23,1.57,17.19-10.86,9.83-1.79-1.06-2.78-3.03-4.63-3.85,3.48,15.04-4.91,29.09-11.51,41.98-8.85-14.55-12.51-30.02-10.51-46.97l-5.97,7.51c-6.87,6.01-11.11.14-12.03-7,2.01-.97,3.33,1.24,5.98.01,1.06-.49,6.94-6.82,7.87-8.19,4.59-6.74,9.85-24.47,12.16-32.88.44-1.6-1.08-2.96,2-2.45l-4.89,35.39c1.86,15.67-.48,31.73,5.91,46.6,17.2-21.75,4.02-45.72,1.09-69.6-.67-5.51-.04-11.36-1.13-16.89l2.02-1.5ZM529.85,899.71c-4.23,4.3-7.44-1.04-10.42-4.07l-8.56-21.93c1,7.95,1.63,16.31,6.58,22.91,2.8,3.73,9.85,10.56,12.4,3.09ZM487.87,897.71c6.19-5.02,8.91-14.26,9.98-21.99l-9.98,21.99ZM495.86,896.21c-.54,5.46,0,12.33,0,18,0,.49,1.52,5.88,1.86,7.15.71,2.66,1.34,2.18,1.17-.17-.72-10.31-3.02-20.08-1.04-30.48-.95-.04-1.94,5-1.99,5.5Z"/>
      <path d="M222.21,199.06c-3.89,3.59-7.89,9.1-12.35,12.64,3.61-1.13,6.74-3.73,10.32-5.17,13.83-5.58,36.29-7.52,43.85,8.5,3.98,8.43-.86,17.29-10.17,17.67,7.39-8.03-2.63-15.91-10.59-16.9-25.57-3.16-55.73,24.52-67.92,44.9-1.28-.61-.11-2.76.29-3.71,4.34-10.48,13.52-23.42,20.7-32.3,5.01-6.18,6.32-7.91,10.65-14.35,15.79-23.47,48.71-52.61,79.28-48.55,9.26,1.23,20.48,9.85,18.36,20.18-2.01,9.79-20.79,12.88-20.75,9.23,8.98-6.39,4.99-17.56-5.47-18.55-20.72-1.95-41.72,13.04-56.2,26.4ZM297.87,186.71c6.02-4.92,4.81-12.08-.52-16.99-11.87-10.95-37.74-3.08-49.49,5.5l25.94-9.06c13.54-3.11,29.24,4.94,24.06,20.55ZM286.36,168.71c-4.46-.79-10.79.58-15.5,0l17.96,3.54c6.16,4.51,6.55,8.27,5.54,15.47,5.83-6.27-.93-17.75-8-19.01ZM262.85,218.71c-8.12-19.99-33.61-15.01-48.68-6.19-1.63.95-15.11,10.23-13.3,12.19,16.04-15.91,45.92-28.72,61.98-6ZM259.85,224.71c-1.01-17.4-23.1-18.19-35.98-12.98-.22,1.91,1.95.65,3.01.51,7.83-1,11.79-2.76,19.96,0,3.4,1.15,9.82,5.38,11.51,8.49.82,1.52-.3,4.09,1.51,3.97Z"/>
      <path d="M833.85,271.71c-2.85.54-1.61-.76-2.26-2.18-11.16-24.28-27.01-48.63-56.49-52.55-9.16-1.22-25.05,3.28-19.24,14.73-6.48-.71-8.77-7.06-7.55-13.05,2.47-12.16,16.1-16,27.04-14.93,9.35.91,29.25,10.8,34.94,18.06,11.28,14.37,18.63,32.42,23.56,49.93ZM797.86,216.7c-13.71-13.02-44.42-17.82-47.99,7l7.03-11.46c7.97-5.09,16.81-5.55,25.76-2.84,5.4,1.63,9.96,5.35,15.2,7.29ZM789.85,214.72c-9.85-3.99-22.16-8.19-30.99-.02,10.58-5.34,17.74-2.26,27.99.52,1.01.27,3.18,1.43,3-.5Z"/>
      <path d="M228.87,269.71c-2.01-2.17,6.34-5.49.94-10.44-10.05-9.21-31.04,1.01-40.27,7.62-5.47,3.92-15.98,14.12-19.07,19.93-1.69,3.19-1.55,7.86-4.59,9.9-.24-2.36.06-4.54.67-6.82.95-3.54,6.99-18.26,8.86-21.14,10.2-15.71,41.36-32.91,58.37-19.45,8.75,6.92,6.87,19.56-4.9,20.41ZM228.85,248.72c-14.98-5.55-31.23,2.08-42.47,12.02-1.19,1.05-8.6,7.74-7.52,8.97,7.82-6.57,15.28-14.74,25.01-18.48,8.71-3.35,12.74-2.64,21.78-1.8,1.1.1,3.4,1.18,3.2-.7Z"/>
      <path d="M689.87,790.71c6.78,3.12,12.65-2.63,18.01-6.37.46-.32,1.78.36,1.87.24,2.98-9.24,4.38-20.45,2.88-30.14-1.13-7.28-6.68-12.91-8.75-19.74,15.56,13.32,16.9,46.84.04,59.55l-9.05,1.43c19.31,5.32,24.34-23.69,22.87-37.36-2.57-23.79-27.54-43.22-48.89-50.11-13.65-4.4-29.73-3.12-43.43.54-7.13,1.9-14.32,6.17-21.55,6.45,32.06-16.9,66.62-17.03,95.01,6.98,20.03,16.94,29.74,43.82,14.81,67.83-6.03,9.7-20.71,13.9-23.81.69Z"/>
      <path d="M526.86,263.71h23c-.82,5.84-2.55,24.2-.05,28.55.82,1.42,7.04,6.18,7.04,6.95l-8.48,8.48-7.54-8.48c0-2.23,6.04-6,6.04-8v-25.5h-20c3.35,11.53-18.6,17.33-20.8,24.7-.56,1.88-.56,10.67-.16,12.75.91,4.81,7.05,7.56-3.03,11.54l-3.95-5.63c-.35-1.97,4.09-3.91,4.73-6.07.96-3.28-.24-8.22.18-11.82,1.14-9.73,18.89-13.67,20.81-22.19.69-3.04.82-21.71.23-24.82-.79-4.15-12.07-5.68-1.51-13.46,5.76-4.25,6.77,1.4,10.32,5.5-10.26,6.99-6.1,16.72-6.82,27.49ZM525.5,232.79l-3.56,3.56,3.41,4.16,4.51-3.34c.31-1.25-3.06-4.62-4.36-4.39ZM548.26,294.62l-4.99,5.13,5.19,5.04,4.99-5.13-5.19-5.04Z"/>
      <path d="M561.86,886.72c26.75,5.42,56-29.06,39.83-53.34-9-13.52-30.53-15.1-40.27-1.6-6.52,9.03-2.68,17.82,8.44,17.93-7.93-8.2,1.35-18.71,10-11.48-3.6,1.13-6.32-2.07-9.45,1.54-5.64,6.49,7.08,13.08,5.45,1.96l-4.98,2.99c-.75-4.71,1.82-6.12,6-4.52,5.71,10-7.74,16.15-15.99,9.99-9.1-6.79-4.88-19.02,3.06-24.89,15.08-11.14,38.23-3.98,43.43,14.39,5.32,18.77-6.02,36.98-22.46,45.57-5.79,3.02-17.78,6.58-23.06,1.45Z"/>
      <path d="M562.85,132.71c-6.04-1.63-9.58.42-13.5,5-7.45,8.69-9.14,30.14-9.49,41.51-.07,2.19,3.18,8.2-.99,7.5-.12-3.28-2.49-4.77-3.55-7.97-4.87-14.73-3.91-47.83,13.3-54.77,7.74-3.12,14.11.25,14.23,8.73ZM558.86,128.7c-4.69-6.96-14.99-.18-16.99,6.01,5.58-5.06,8.69-9.21,16.99-6.01ZM554.85,129.72c-9.16,1.22-14.71,12.41-14.98,20.99l4.75-10.73,10.23-10.25ZM537.85,177.71c-.89-3.55,1.01-7.46,1.04-10.54.03-3.3-.58-6.2-.58-9.91,0-5.51-.57-11.05.05-16.56-4.14,8.18-2.02,17.69-2.49,26.5l1.98,10.51Z"/>
      <path d="M676.91,746.76c.06-.09,1.52.07,1.96-.73,7.41-13.63-4.01-25.08-16.03-29.81-21.75-8.56-31.15-1.3-51.59,1.38-1.06.14-4.57.94-4.38-.88,20.6-6.45,45.38-11.16,65.97-2.49,10.61,4.46,21.23,15.43,15.75,27.71-2.97,6.67-14.64,9.43-11.68,4.82ZM683.85,743.71c2.42-8.98-.25-17.66-7.98-22.99l6.32,10.17,1.66,12.82Z"/>
      <path d="M44.86,398.72c-15.22,15.22-28.17,39.7-21.04,61.53,15.44,47.26,81.52,19.23,64.04-24.53,6.46,2.02,5.48,14.79,4.74,20.24-4.23,30.93-49.13,43.46-66.54,15.06-12.82-20.91-5-49.62,10.83-66.78,2.09-2.27,4.57-5.89,7.97-5.52Z"/>
      <path d="M505.86,799.71h-.99c.38-1.25-1.01-2.9-1.01-3.5v-88c-2.43-2.43-13.37-13.15-12.84-15.86l15.85-18.16,13.93,18.02c0,3.63-12.39,14.21-14.93,18v89.5ZM506.36,678.74l-12.24,14.46,11.24,13.49,13.48-14.48-12.48-13.47Z"/>
      <path d="M886.85,700.69l-9.49,7.05c-2.29,0-6.65-6.87-10.24-7.79-5.87-1.5-15.39.56-21.73-.22-4.74,3.59-13.03,11.02-13.58,17.48-1.28,15.02,15.66,23.11,26.41,13.57l4.48,4.57-3.9,6.32c-2.63-.31-4.74-4.19-6.64-4.76-5.49-1.64-8.81,1.28-15.63-3.37-8.08-5.51-5.44-13.09-6.79-14.72-1.06-1.28-13.18-2.82-14.87-5.63-1.44-3.02,6.77.9,7.94,1.07,2.08.3,4.73-.76,7.11-.03,1.34-4,9.48-14.43,12.96-16.01,4.78-2.17,19.17.59,25.43-.57,3.73-.69,6.64-5.76,9.1-6.01,2.78-.27,10.33,7.79,9.44,9.04ZM876.57,694.85c-1.07.28-4.91,4.07-4.66,5.26l6.31,4.5,5.62-5.39c-1.67-1.8-4.59-5.06-7.27-4.37Z"/>
      <path d="M509.86,822.21c-.11.84-1.35,2.18-1.01,3.49h-.99s0-20.49,0-20.49c0-8.77,11.39-39.31,16.19-47.81,4.62-8.17,16.64-21.27,18.36-29.64.85-4.11,1.18-20.58.42-24.54-.57-2.97-5.16-4.73-4.54-7.61,1.4-6.44,12.08-6.99,12.61.54-.23,2.44-4.11,4-4.84,7.26-.92,4.07.17,9.44-.22,13.78-2.09,23.16-13.6,28.39-22.87,47.13-3.5,7.09-13.12,36-13.12,42.88,0,4.57.56,10.72,0,15ZM544.6,692.85c-5.67,1.69-3.88,4.95.62,6.79,2.76-2.05,5.32-3.98,1.61-6.46l-2.23-.33Z"/>
      <path d="M498.86,806.21c-.83-8.99-6.16-23.59-10.14-31.86-6.31-13.09-25.42-34.41-26.86-47.14-.74-6.51,1.4-18.41-.2-23.8-.69-2.33-5.48-4.94-6.72-7.34,2.42-6.14,11.93-10.05,13.55-1.39.86,4.57-3.81,4.82-4.57,9.58-4.96,31.3,11.75,40.58,24.46,64.42,8.66,16.24,14.79,35.97,12.48,54.54-.23,1.83.32,1.61-2,1.48-.4-6,.55-12.59,0-18.5ZM462.55,691.85l-4.63,3.34,4.44,5.48,3.55-4.51c.29-1.75-1.51-4.6-3.36-4.31Z"/>
      <path d="M701.87,743.71l2.98-1.99c4.35,10.07.98,29.7-10.99,32.57-5.2,1.25-12.43-2.55-12-8.56,1.38-1.52,4.19,6.39,10.05.55,5.94-5.92,7.2-21.94,4.41-29.53-1.68-4.57-5.06-5.86-6.47-10.02,2.14-2.21,13.12,14,12.01,16.99ZM693.86,767.7c2.35,2.28,6.31-9.65,6.55-10.94.85-4.67.34-9.35.44-14.04l-2.28,14.2-4.71,10.78Z"/>
      <path d="M881.66,443.92c-20.45-1.06-38.77-1.53-55.72,11.38l-18.08,16.41c-.68-.72,4.62-7.03,5.48-8.01,19.07-21.75,40.18-23.52,67.85-22.15l10.13-9.84,9.42,10.64c.29,1.69-8.25,11.9-11.19,11.25l-7.9-9.69ZM890.5,435.78l-6.67,7.43,6.54,7.48,7.32-7.47c-1.25-1.59-5.06-7.81-7.18-7.44Z"/>
      <path d="M316.21,76.36c1.44,1.52,4.36,2.69,5.62,4.85l-9.77,11.2c-1.25,7.65,1.47,17.6-1.3,24.7-3.41,8.73-20.82,21.06-29.9,23.59,8.85-9.94,28.46-15.86,29.03-31.54.09-2.57-.65-12.47-1.08-14.9-.76-4.23-8.38-8.95-7.79-11.9l9.34-12.63c2.48,1.69,3.98,4.67,5.85,6.63ZM310.84,90.71l5.88-8.68-5.37-7.32c-7.77,6.01-9.74,9.99-.51,16Z"/>
      <path d="M189.07,546.49c1.83,1.06,19.96-.13,24.28.23,18.18,1.53,31.66,13.65,44.99,25.01,1.34,1.14,10.71,8.73,9.52,9.97l-30.68-23.81c-11.69-8.54-34.94-11.79-48.79-9.16-2.79.53-4.06,4.23-5.89,3.91l-5.48-5.57c.07-2.98,4.18-6.97,7.13-6.22,2.55.65,4.21,5.23,4.92,5.64Z"/>
      <path d="M733.61,212.01c.15.06,2.28,2.17,2.3,2.34.17,1.94-1.68,3.16-2.02,4.92-1.31,6.73,4.95,8.57,4.95,11.95,0,1.76-2.63,3.79-3.39,5.6-2.13,5.07-2.36,21.66-1.67,27.45.52,4.34,13.33,6.96-.42,16.27-14.01-8.88-4.81-8.68-2.03-14.84.86-1.91,1.01-23.52.47-26.44s-4.17-5.3-3.95-8.97c.25-4.15,6.26-5.55,3.47-11.56-.65-1.41-3.73-2.58-3.43-4.39.33-2,3.67-3.08,5.7-2.32ZM733.84,235.71c1.71-3.68,3.2-5.72-.48-8.98-4.55,3.14-4.07,6.09.48,8.98ZM731.88,267.72l-2.95,5.35c2.93,4.87,6.74,4.71,8.85-.72l-5.91-4.63Z"/>
      <path d="M924.57,336.99c3.5,4.3.13,12.06-3.75,15.18-9.68,7.8-20.81,4.18-31.37,5.63-8.34,1.14-20.31,11.05-25.57,17.43-5.7,6.92-9.11,16.1-15.01,22.48,5.26-14.03,14.59-28.97,27.69-36.8,11.85-7.09,15.45-4.01,27.68-5.32,12.85-1.38,26.71-10.33,12.63-21.86,1.99-.26,6.65,1.97,7.71,3.27Z"/>
      <path d="M902.85,658.69l-6.49,5-5.04-5.02c-1.65-3.73,3.93-4.56,4.33-6.57l-1.55-23.14c-9.8-12.39-25.55-20.71-32.23-35.26l34.86,34.63c3.01,5.85-.13,17.25,1.14,23.86.72,3.74,4.95,2.91,4.98,6.5Z"/>
      <path d="M613.86,806.72c.86-.79,5.09,2.71,6.01,3.48,11.59,9.57,21.98,23.51,33.47,33.53,1.73,7.34-.56,16.23.58,23.42.63,3.96,3.69,4.67,4.87,7.92l-5.57,5.56-6.35-5.43c8.18-6.59,4.68-20.86,4.23-30.24-9.29-10.01-18.96-19.73-28.72-29.28-2.94-2.87-6.85-4.55-8.53-8.96Z"/>
      <path d="M388.55,811.03c4.75,4.1-.07,5.17-.68,8.2-.76,3.8.73,8.32-.48,12.52-2.59,9-17.54,9.89-18.52,24.47-.42,6.24.23,7.05,3.83,11.81l-5.22,5.6-5.57-6.29c8.02-5.16,3.06-12.87,6.19-19.87,2.7-6.05,14.7-10.4,16.98-16.02,1.04-2.56,1.24-9.55.73-12.22-.77-4.09-7.86-4.7-.32-9.33,1-.21,2.27.47,3.04,1.13Z"/>
      <path d="M807.29,550.28c-2.22-1.65-4.08-4.51-6.09-6.41-12.45-1.8-20.48,1.73-30.47,8.21-2.69,1.74-23.68,18.77-24.86,17.63-.53-2.21,1.28-2.21,2.3-3.19,8.17-7.87,29.19-23.72,40.21-24.79,4.44-.43,11.95,1.25,14.74.77,1.77-.31,6.16-3.99,8.11-3.62,8.31,5.8,5.93,8.03-.84,13.62-1.14-.58-2.08-1.46-3.09-2.21ZM810.84,549.71l2.97-4.5-4.32-3.43-3.61,3.43,4.95,4.5Z"/>
      <path d="M201.86,709.72c-6.38,16.17-24.52,11.52-38.54,11.95-4.89.15-10.85-.09-15.03.12-3.64.18-3.1,6.28-9.24-1.56l5.31-5.46c2.03,1.5,3.32,4.41,6.02,4.93,5.23,1,29.13.69,34.89-.06,2.07-.27,7.18-1.98,8.94-3.06,3.36-2.05,3.8-6.44,7.64-6.85Z"/>
      <path d="M28.85,443.72c-4.04,24.63,18.84,42.49,42.3,32.79.88-.37,8.23-6.04,6.7-2.31-1.41,3.42-14.77,7.3-18.52,7.51-18.33,1.03-33.96-14.21-33.55-32.51.04-1.77.19-6.29,3.07-5.48Z"/>
      <path d="M183.85,464.71l-17.07-12.42c-5.32-3.02-11.24-5.96-17.43-6.57-11.37-1.13-31.1,4.69-32.48-12.01,2.47,1.13,2.51,4.18,4.47,6.02,6.83,6.43,22.27,2.93,30.94,4.06,6.93.91,16.49,6.76,22.04,10.96,1.3.98,11.01,8.42,9.54,9.95Z"/>
      <path d="M402.85,711.72c.18,1.99-2.88.59-3.81.3-12.48-3.86-21.72-11.49-35.98-14.02-13.86-2.46-19.75-.96-32.91,1.52-1.96.37-1.83-1.26-1.29-1.8.69-.68,12.45-2.89,14.46-3.05,22.09-1.76,40.69,6.95,59.53,17.05Z"/>
      <path d="M916.86,584.72c-1.95,4.33-5.58,7.72-7.28,12.21-6.15,16.17,6.01,33.59,23.27,23.78l-3.49,6-1.05-2.05c-17.4,5.42-26.93-12.69-21.86-27.86.6-1.8,8.26-14.22,10.42-12.07Z"/>
      <path d="M678.85,696.72c.23,1.79-2.24.96-3.36.86-3.5-.32-7.68-1.65-11.15-1.86-19.24-1.2-36.46,6.26-53.48,13.99-.45-2.08,1-2.32,2.29-3.2,3.06-2.06,10.06-4.93,13.71-6.29,16.74-6.24,34.68-9.46,51.98-3.5Z"/>
      <path d="M250.86,638.71h39v2h-38.5c-4.07,0-3.9,2.67-7.79,2.89l-5.63-5.53,6.43-6.4c1.83,0,6.42,4.89,6.5,7.04ZM244.37,633.62l-4.11,4.09,4.09,4.11,4.11-4.09-4.09-4.11Z"/>
      <path d="M244.85,429.72l-9.82,8.67c-4.84,7.12-6.06,21.3-5.06,29.72.63,5.3,3.61,9.62,4.66,14.35.22.98,1.1,4.45-.75,4.25-5.67-11.31-7.25-22.55-5.73-35.21,1.29-10.77,5.35-19.37,16.71-21.78Z"/>
      <path d="M100.52,622.37c-4.01,4.02-16.08,7.1-18.65.82-1.4-3.41,5.01.94,5.95,1.13,5.17,1.05,11.36-2.98,13.56-7.6,4.61-9.72,1.31-19.68-4.51-28,8.5,3.05,10.36,16.49,8.77,24.26-.34,1.68-3.89,8.16-5.11,9.39Z"/>
      <path d="M118.86,633.7l37.99-39.99c.33,1.7-.46,2.91-1.16,4.33-1.97,4.04-28.32,30.93-32.78,34.22-1.36,1-2.09,1.86-4.05,1.44Z"/>
      <path d="M496.36,263.73l6.43,7.35-6.44,5.7c-1.83,0-4.69-4.84-5.52-6.56l5.54-6.48Z"/>
      <path d="M504.86,874.21c.06-.41.98-2.86,1.99-2.49-.34,12.92,1.63,24.57,0,37.5-.23,1.82.38,1.63-1.99,1.49,1.14-11.33-1.53-25.53,0-36.5Z"/>
      <path d="M933.56,586.82c2.47-.65,4.72,2.82,6.23,4.53-3.31,6.89-7.56,6.86-11.91.86l5.68-5.39Z"/>
      <path d="M126.5,681.78l5.21,4.57c.39,2.01-2.92,4.99-4.35,6.34l-5.43-5.62,4.57-5.29Z"/>
      <path d="M355.86,717.72l-13.94,6.55-9.05,10.44c.32-11.25,13.22-16.29,22.99-16.99Z"/>
      <path d="M788.85,550.72c.45,2.2-1.09,2.27-2.45,3.04-7.17,4.04-15.79,8.57-23.54,10.95,2.21-2.98,24.9-14.98,25.99-13.98Z"/>
      <path d="M396.87,765.69c-1-1.3,2.74-4.14,3.51-4.97l2.43,1.57c.5,1.63-.42,4.33-1.95,4.98-.29.12-3.86-1.41-3.99-1.58Z"/>
      <path d="M504.54,687.81c5.22-1.38,7.12,8.61.82,10.89l-5.32-5.47,4.5-5.42Z"/>
    </g>
  </g>
</svg>