<?xml version="1.0" encoding="UTF-8"?>
<svg id="Layer_2" data-name="Layer 2" xmlns="http://www.w3.org/2000/svg" viewBox="0 0 416.65 772.39">
  <g id="Layer_1-2" data-name="Layer 1">
    <g>
      <path d="M170.45,591c-.65.08-1.35-.05-2,0,.42-.5.94-1.33,1-2l.99.51c.16.43-.08,1,0,1.49Z"/>
      <path d="M171.45,580l-.99-2.99h1.99s.03,1.95.03,1.95l1.47.03c.49-.18.37-.86.5-.99,1.2,1.83.89,3.15-2,3-.08-.27-.7-.72-1-1Z"/>
      <path d="M234.45,22c-4.02-.02-8.43-.29-12.38.12-3.74.39-21.64,4.89-24.63,6.37-.87.43-13.44,12.49-13.95,13.31-3.68,5.86-4.42,16.49-.04,22.19-1.91,0-10.53.54-11.04-1.66v-11.69s4.03-.64,4.03-.64v-6s-1,3.99-1,3.99c-2.13.28-2.18.07-2-2l-3.49,3.99-2.49-1.98c-.89,3.48,2.2,2.55,2.76,5.69.49,2.75.18,5.55.22,8.31-8.32-4.08-8.28-17.64-2.68-23.69,1.99-2.16,6.19-2.1,6.55-2.44.76-.73,2.46-15.6,11.13-10.86-.03-1.1-.32-2.23.63-3.1,1.78-1.62,15.04-5.06,18.17-5.62,9.26-1.65,17.31-1.55,26.58-.17,3.55.53,22.44,4.38,20.62,8.88-1.08-.1-2.07-.2-2,1-4.7-1.73-10.78-2.15-15-4,2.77.02,4.8-.83,6.58-.91.31-.01,1.45,4.89,4.42-.08l-13.99-3,1.99,1.98-2.99.02-.99-3-1.01,3.99c1.74.2,3.75-.3,5.41-.03.84.13.53,1.01.58,1.04ZM213.46,17.99l-1.01-1.5c-3.38,5.77,5.87,1.06,7.43,1.02,2.77-.07,7.33,2.58,8.57-.51-4.24.44-8.32-1.56-12.57-1.1-2.41.26-.62,2.29-2.42,2.09ZM190.44,25.99v-1.99h-.98v1.99h.98ZM195.95,24v1c.65-.33.65-.67,0-1Z"/>
      <path d="M126.45,551c-.07.36.11.79,0,1-.69-.07-2.01.42-2.01-.5,0-.91,1.23-.42,2.01-.5Z"/>
      <path d="M121.45,407c-1.56.08-.73-1.45-1-2l1,2Z"/>
      <path d="M120.45,405c-.03-.06-1.17.13-1-1l1,1Z"/>
      <path d="M170.45,527c.14.01.65-.79,1-1l-1,1Z"/>
      <path d="M114.45,47c6.51-5.59,12.21-14.09,20.09-19.41C161.98,9.01,193.19-4.02,227.81,1.13c9.68,1.44,29.19,8.1,36.6,14.4,4.61,3.92,4.82,4.31,10.1,7.9,4.25,2.89,10.59,12.44,11.93,17.56l-2.98-2.99,1.96,6.41c-2.28,1.54-3.46,2.51-3.81,5.43,5.03,2.8,7.55,6.56,6.21,12.48,1.88.52-.14,5.68,2.11,4.66,1.9-.86.83-2.29.72-3.6-.4-4.57-1.68-9.45-2.08-14.02-.1-1.12-.93-3.59.87-3.36,5.82,20.19,2.84,40.77-13.52,54.96-6.91,6-8.66,5.34-16.59,7.45-1.82.49-1.6,2.13-2.64,2.51-30.41,11.17-66.71-26.56-43.75-53.94,4.87-5.81,6.1-4.69,11.74-7.07.94-.4.95-1.62,1.55-1.83,3.85-1.39,9.43-1.53,13.48-.84,5.11.87,15.01,8.91,16.27,13.73.9,3.45,1.01,11.09-1.1,13.96-.23.31-5.19,5.27-5.5,5.5-6.82,5-19.85-1.8-18.92-10.85.3-2.9,2.92-3.9,2.99-6.58-5.46.07-11.81,5.54-12.55,10.94-.52,3.8,1.87,8.35,2.56,12.05-3-1.65-9.4,2.8-13,3.01l7.5,10.97c2.06-1.01.33-2.99.95-3.96.94-1.46,4.43-1.74,5.54-3.54l-1.96-1.53c1.95-2.31,1.42-2.49.96-4.96,1.98,1.09,2.16,2.96,3.5,4,10.3,8.03,19.04,8.51,31.49,5.01l-2,1.48c1.12,2.06,1.35,2.99,4.01,2.52.96.9-5.15,6.56,0,5.99l-.6-2.99c2.47-3.17,4.37-.41,6.07-.41,2.51,0,4.84-2.9,7.44-1.66l-.02-7.83c-1.19-1.06-7.44,1.62-6.91-1.61.43-2.38,7.27-8.68,10.01-7.49l-.99-2.99,2.99.48-3.98,6.51,4.49-2.98c6.04,8.51,6.09-.83,7.8-3.73.37-.62,1.95-.72,2.81-2.66,1.29-2.9.85-6.55.88-9.63-2.73-1.03-3.52,3.57-5.99.99-2.03-2.11,2.52-1.57,1.99-2.98l-3.03-.5-2.96-5.5c-2.84-.42-1.84.49-2.01,2.47-.28,3.28.04,6.41,1.01,9.53l2.48-1.02.51,3.01c-3.72,1.02-2.81-2.17-4.98-2.99l-1,3.99c-.23-5.13.3-10.35-.02-15.49-.22-3.49-3.08-7.82-1.02-10.83.62-.9,2.39-.14,2.03-1.67l-2.99-.51,2.9-1.62c-2.72-5.39-.85-5.29,1.1-9.88-1.95-1.9-5.31,6.26-5.49,6.99-1.76-4.13-6.48-3.91-8.02-4.93-5.74-3.82-8.68-8.56-15.48-11.06,1.47.2,1.53.16,2-1,4.32.38,8.99,1.16,11.5,5,1.31-.55-.21-3.14-.79-3.72-1.71-1.72-13.53-7.97-16.36-9.14-12.32-5.08-26.59-5.97-39.84-5.13-5.14.33-12.93,4.79-15.02-1.01l-.5,1.99c-2.13-1.52-.23-3-3.98-1l.98-4c-2.18,1.87-6.49,2.65-8.99.49,3.55-1.88,6.92.97,8.99-3.49l-11,1.99,1.03,2.41c-4.45,2.61-1.88,5.45,1.97,1.58l1.01,4.99-2.49-1.99c-2.01.85.24,4.32-2.04,6.96-1.38,1.59-6.13,3.5-8.48,5.52-11.3,9.72-18.53,19.51-23.27,33.73-3.8,11.41-5.65,25.97-3.71,37.78l1.96-1.5c-3.14-4.05,1.12-12.22,1.07-17.45,9.28-1.15,8.93,9.62,7.94,15.95l-1-9.99-2.98,1.01,1.88,1.07-.9,8.92-3.05-.53-1.94,3.04,3.99-.5v7.99c-21.54-3.13-22.13-28.17-15.17-44.68,2.59-6.14,13.39-23.81,18.13-27.91,2.96-2.55,5.07,1.28,5.04-1.89-3.34-4.09-5.94,1.47-8.51,3.51-3.79,3-10.73,8-14.14,11.32-4.68,4.56-9.36,13.28-15.44,16.2-1.68.81-1.56-.41-1.9-.55l1.99-7-3.99,6c-.31-.01-.98.86-1.53.89-.35.02-2.16-6.12-2.47,2.11l4.99-.99c1.83,1.76-7.55,17.59-10,18.99.47-1.62,1.09-3.26.99-5-2.83,1.84-4.01-1.32-6.99-1l.45,7,2.51.95c-.27-2.73,1.49-1.07,3.03-1.95-4.49,15.52-16.26,32.56-21.5,49-15.57,48.88-21.52,108.51-14.36,159.35,4.77,33.83,20.05,66.5,40.42,93.55l-2.56,4.6,1.96,1.93-2.94,2.58,2,3.97,1.03-2.93,3.9-.14.54-2.91c5.43,3.17,12.54,7.62,11.96,14.83,8.17-.49,13.69,6.27,20.24,9.97,25.85,14.61,43.73,17.4,70.31,26.19-3.66,1.14-17.91-3.06-19.32-2.81-1.86.33-3.56,4.07-6.67,1.8v3c11.4.32,22.74-1.01,33.99.99-.96-2.03-5.42-1.3-7.31-2.01-.89-.33-.62-.96-.68-.98l26.99,5.99-32.51-2.98c-18.56-.1-38.03,1.2-55.18,8.8-8.9,3.94-16.07,8.69-19.32,18.18l-.45-4.05-4.54-1.96c-.53-2.42.67-1.57,2.03-2.49l-3.02-8.49-2.02,6.48,2,.99-2.99,1.02c-.21,2.99.08,5.93,1.08,8.74.24.67,3.65,1.49,1.43,3.75-8.5-9.12-2.16-21.04,6.01-27.99l.48,1.96c.8.79,6.84,1.52,8.34,2.23,1.64.78,3.47,7.05,4.66-1.2h-5c1.2-2.12-.19-2.95-.46-4.02-.68-2.66,5.74-3.35,7.47-2.99v6.01c3.16-1.94,4.14,1.5,5.48,1.68,1.27.17,4.55-2.2,6.52-1.69l-2-3.98,4-.02c-5.71-4.54-.92-1.58.5-4.99l2.5,2c-.1-5.2-1.87-4.57-5.98-6.01l2.5-1.99-5.33-1.14-1.17-3.85,3-1-4.01.69c.69,3.39-3.81,4.05-3.98,4.32-.35.53,1.2,1.28,1.44,2.06.59,1.94-1.12,3.69,2.57,3.95l-1.5,1.96c-2.24-2.76-6.7-2.23-10.04-2.01-9.87.64-29.1,10.74-38.13,15.86-2.94,1.67-15.82,10.99-16.82,11.19-2.78.55-.55-4.71,0-6,1.57-3.63,7.23-10.22,10.18-12.13,1.13-.73,2.72.03,2.84-.03.26-.12-.28-3.07,1-4.77,1.19-1.58,5.84-2.76,3.95-5.08l-10.5,6.99,1.91-2.65-1.91-3.33c5.41,1.2,7.26.14,11.99-2.02.22-1.91-1.95-.65-3.01-.51-2.24.29-4.56.99-6.78,1.24-1.1.12-3.41,1.16-3.2-.7l20.99-4-6.86,2.11-.11,5.88h2.98c.53-3.26-4.54-1.31-.5-4.98l2.39,1.62-.41,2.36,1.86.86,5.66-1.87c-.15-1.99-2.86.08-1.19-2.81l-2.8-2.17,2.78-.74c.6,3.9,4.01.66,3.22-2.26l-5.98.98c.13-3.93-3.24-5.82-7.01-4.98l1.15,3.84,4.84,1.14c-12.41-.27-24.38,3.19-35.99,7.01.58-.5.77-1.28,1.99-1.01l-1.97-1.45,1.98-4.53-10.99,4.5,5.99-.49c-3.42,1.84-2.1,3.59-2.25,3.81-.34.48-2.62-.48-1.74,2.18,2.25-1.4,4.49-2.18,6.99-3-5.74,4.94-13.66,8.28-20.01,13.49-28.33,23.24-37.35,67.97-20.87,100.89,5.74,11.46,13.92,23.17,26.82,26.18,2.12.49,4.23.63,6.4.49l1.67-8.05c2.85-.16,6.6-.04,8,3l-3.07-.54-1.43,2.55c-2.65-1.46,1.44-4.66-2.5-3.99-1.21,6.75,1.09,5.17,3.61,7.41,1.66,1.48,2.98,5.21,5.4,3.03l.98-6.44c2.55,18.75-17.45,15.55-27.97,8.5l2.98-3.92c4.12-1.01,4.41.72,3,4.42l-2.99-.51,5.99,2.51c1.21-2.84.65-4.76-1.58-6.92-6.28-6.07-7.45,9.15-11.9-2.08l-2.22,2.48.68,1.78c15.55,14.56,50.44,21.34,68.37,8.57,3.63-2.59,5.18-5.21,4.68-9.83,4.83,1.19,9.29,8.67,6.52,13.03s-4.18-4.77-6.52-4.05l3-.99-1.51-2.99c-3.23,2.31-3.18,5.63-1.5,8.99l-2.79.16c-.51,5.23-.71,2.9-3.49,4.85-.66.46-.68,1.6-1.49,1.94-4.05,1.74-9.85,2.23-14.23,2.05-.07-1.49,3.55-1.74,4.61-1.87,2.13-.26,4.26-.12,6.38-.13l-4-3.98c.89-1.01,4.74,1.06,4-1.5-.62-2.16-9.06,2.85-11.01,1.49-.79,5.02,6.8-2.03,6.01,2.99l-8,1.02.99,7.99-1-3.01-2.98,1.02,2.99,2.49v2.5s-2.99.99-2.99.99l4.02-.71,1.97-2.28v4.01c1.33-.69,2.55-.01,3.5-.01h14.5l-.07-4.87-2.92-1.13c.93,6.27-3.69,4.75-8.01,4l1.01-3.98-9-3c16.03-.79,31.45-3.97,45.32-12.19,4.56-2.7,7.69-8.62,13.67-5.83l-1-4.51,7,.53v-7s-1,4.99-1,4.99l-1-2-2.98,2,4.49-7c.48,2.64,3.02,2.57,3.5,3l1,1c.5,1.72.57,5.8-1.99,5.01v.98s2.99,1.01,2.99,1.01c-1.76-.65-2.96.72-4,1-.89.24-1.89.12-2.53.98,1.14-4.58-3.97-.45-4.45,1.53,2.66-.46,1.92.54,3.48,2.47.92-.93,1.67-1.99,2.5-2.98l.1,2.9c2.48,1.21,2.88.5,4.89-.9,1.35,1.41-9.35,10.02-10.72,10.77-3.16,1.74-9.86,2.58-12.29,3.87-2.69,1.43-2.97,4.58-5.94,5.89-20.5,9-54.84,4.81-74.56-5.52l2.52-4c-2.33-.14-3.63.91-2.25-1.8l-4.26-5.2c-.3,3.12-.66,6.55,1.5,8.99-.48-.01-1.02.13-1.48,0-2.8-.8-13.73-10.03-16.49-12.55-1.23-1.12-7.94-7.65-7.03-8.44,3.71.57,8.75-3.35,6-7l3.99.99-1.54-3.99c-4.76,1.2-11.43,3.95-9.46,8.99-5.81-3.59-9.49-13.48-.54-14.06-.47,6.4,11.09,3.71,8.54,1.06l-2.98,1.01-1-3-3.01,2.98c2.2-5.14-.27-4.56-3-7.98l4.99,1.99.03-2.49c-4.18-2.72-4.92-8.88-7.04-13.5v4.99s-4.97-1.5-4.97-1.5l2-2.98-2.02-.53,2-1c.93-1.09-6.55-4.72-5.01,1l-1.98-1.99c-.05,2.18-1.83,4.22.98,5l1-1.99,1.02,7c4.18-2.65,5.52,3.82,2.51,3-.95-.26.17-4.6-4.57.56,0,.84,4.12,7.2.57,4.41-1.89-4.44-5.86-10.85-6.52-15.5-.46-3.21,2.31.19,3-.5-1.03-2.35-1.13-4.78,1-6.5l-2.99.51c.9-1.55-4.69-9.97-.01-7l1-6c-6.84,1.61-3.75,6.2-3.1,10.61.15,1.04.84,3.64-.89,3.38-4.07-18.52-2.41-37.91,3-55.99,2.65.32-.5,5.13,0,5.99l6.49,1.98,2.49-2.98,1,3.99c-.14-4.88,3.87-8.31,2.02-13l1.98,1.01v-6.24c-1.36-2.91-7.85-.04-4.98-3.76l-3.99,1.51c2.14-3.92,3.8-7.82,8.05-9.95,1.55-.78,3.53-.36,4.93-1.07,1.55-.78,1.82-3.18,3.05-4.01,1.09-.74,3.07.88,3.95-.99l-2.95-.98c2.38-4.57-.87-4.29-1.03-4.53-1.05-1.55,12.05-11.41,13.85-12.62,18.4-12.26,44.57-18.58,66.62-16.36,5.21.52,10.67,3.04,16.13,3.87,4.62.71,9.72.17,14.38,1.11l-34.01-17.48c-2.09-2.34-.88-5.04.01-7.52.2-.57,1.69-1.61,1.98-2.51l-3.49-2.49c-.98-.04-.31,1.4-.49,1.99-.75,2.44.42,8.63-2.47,7.99-5.97-5.15-12.67-9.36-19.03-13.99-3.06-2.23-4.2-3.41-8.05-5.95-6.53-4.31-7.2-6.21-11.71-10.79-.6-.61-6.64-2.13-8.41-3.09-9.39-5.08-18.1-12.16-29.43-12.64l-.9-3.52h6s-2.99,1.98-2.99,1.98l6.99,2.02c-.77-4.57,4.4-6.1,2.96-10.97l-10.95-1.03c5.38-4.89,25.92,6.06,26.69,10.46,1.15,6.57-9.75-1.57-11.21-1.44l-1.42,5.89c3.63,3.25,9.89-3.99,9.94,1.07h.98c-.18-2.07-.12-2.27,2-1.99l1.5,6c3.23-2.26-2.77-6.26-1-8.99,2.52,2.78,5.53,5.18,8.05,7.95,2.41,2.64,4.45,5.25,7.03,7.99,3.04,3.24-.22,5.08,7.9,5.1,1.12,0,2.79.56,2.51-1.03-1.47-.08-2.52-1.03-3.54-1.97-2.75-2.54-17.07-16.5-17.47-18.53-.11-.56-.25-1.65.51-1.51l2.52,3.99,2.96-1.99c-.08,3.27,3.91,3.68,6.36,3.05.46-.12,4.87-6.81,3.62-8.01l-7.37-.23-1.68-3.73c-2.08-.72-4.46,1.12-6.28.96-.54-.05-3.06-6.34-7.14-.06-2-.67-2.2-4.37-2.71-4.77-.73-.57-2.67.11-4.29-1.2-4.67-3.79-11.21-15.94-18.48-21.53-2.57-1.98-7.77-3.61-9.02-5.48,1.34.38,7.48,2.29,7.94,1.95-.7-3.04,4.14-5.1,4.06-5.45-.72-3.09-3.74.85-3.99.49l.99-3.99h-2.99s-.47,4.04-.47,4.04c-3.76.12-3.45,2.45-6.54.96-.18.16.69,1.53,1,1.99-4.72-1.34-9.04-3.87-13.99-4.01,0-1.74,4.36-1.09,5.54-1.04,2.62.12,4.91.75,7.46,1.04l-1.01-1.99,2.51-.95.47-2.03c-2.09-.03-2.6-2.1-4.23-3.26-.65-.46-3.52-1.79-2.26.24l3,3c-1.65-.23-8.72-3.94-9.48-3.01-1.65,2.02,1.43,1.95,2.19,2.25,2.49.99,6.52,1.15,7.8,3.75-3.78,0-6.69-2.92-10.53-3.04-4.12-.14-5.97,2.08-9.47,3.03.73-2.12,2.93-3.13,5.01-3l-1.02-3.98-1.48,2.99-3.42-2.14.91-3.85c-4.48,1.77-8.26,6.72-9.02,11.48-.14.89-.68,4.75,1.01,4.52l.12-4.54,2.88-.47c.4-1.73-1.5-.63-1.88-1.1-.3-.38,1.19-1.85.89-2.89l3.89,3.63c.85,2.49-2.47,5.74-2.85,8.97-.32,2.8.86,4.82.44,7.38-9.55-8.88-7.28-22.84,4.46-28.53,18.31-8.88,36.52-1.18,47.87,14.21,1.94,2.63,11.75,18.44,10.13,20.28-1.56-.95-7.53,3.38-6.95,4.02,2.77.64,1.45,2.83,4.99,1.03l-1.02,1.99,7.89.2c-.52,3.45,2.92,3.07,5.11,4.81-3.84-8.25-8.5-16.19-11.76-24.73-10.82-28.41-13.79-60.37-21.23-89.79-.15-2.32.37-2.6,1.23-.23,1.08,2.98,1.25,6.05,2.07,8.96.29,1.03.25,3.02,1.68,2.79l-1-4.99,3.07-.55-1.08-14.46c-1.57.14-1.29,4.55-1.38,5.89-.07,1.08.33,2.05.38,3.1l-2.9-1.08c2.39-4.43-2.54-4.63-3.13-7.43-.76-3.6,6.9-10.16,5.02-15.48-2.09-.19-.47,3.11-1,4.01-.18.3-4.36-1.87-4,3.99l-3.98-6v6.99c-2.4-8.46-9.29-23.6-18.72-25.78-2.02-.47-4.54-.49-6.55.03-1.34.35-6.18,5.11-5.73,1.28.77-6.45,3.99-4.79,5.72-6.81.65-.75.36-2.59,1.69-3.79,3.53-3.18,10.92-3.35,15.39-2.25,21.4,5.24,18.86,47.78,23.18,64.81.35,1.39-.01,3.12,1.99,3.5-1.17-27.13-4.03-53.08.32-80.19,5.05-31.44,16.95-64.01,32.19-91.81l-.5,3.99,2.98-1-1.99,3.99c6.58-.53,1.18-6.83,2-8l2,.49c-.61-4.81,2.08-13.82,7.95-8.5l3.02-4.95c-2.68.08-2.76-1.99-1.99-4.02l-2.98-.49c1.55-3.74,7.46-6.12,9.04-8.96,2.39-4.29-.15-4.17,4.95-8.55v3s2.99-2.01,2.99-2.01v-.97s-2.99-.01-2.99-.01ZM207.44,2c-3.64.05-8.1-.11-11.6.86-1.69.47-2.88-.78-2.39,2.13l9.41-2.06,2.58,3.06-.47-3.02,2.48-.98ZM233.45,3l-15-.99c.87,5.05,4.04,1.53,7.45,1.5,2.16-.02,5.12.44,7.07,1.47l.48-1.98ZM234.43,6h-1.98s.99,2.99.99,2.99c-1.92-1.06-3.01.8-4.54.92-2.31.18-6.24-2.06-7.45,1.08l13.99,1-2.99-1,3-.99-1.02-3.99ZM252.06,10.43c-4.12-2.89-6.69-3.13-9.61,1.56l5,2-4.99,1,7.99,2.02.99-3,1.5,4.99c2.83-2.92,2.11-6.47-.87-8.56ZM174.44,11.01c-1.13,1.55-8.05-2.7-7.98.49.04,1.69,2.94,1.31,3.97.5l-.85,2.87,3.35,3.13,1.5-6.99ZM271.65,28.72c-.12-.05-.62-3.69-1.72-.73-.57,1.52-.31,2.22.4,3.58l-1.87.44c3.44,2.54,4.29,4.45-.99,2.97l.49-4.96-3.52,3.5c2.41,3.05,6.13,3.41,10.83,2.31l1.18-6.82c-1.62-.09-3.23.42-4.8-.29ZM238.45,65.99c-1.24-3.81-4.05-5.62-7.99-5.99l4,2-3.01,8.99c1.84,1.97,4.09-6.23,4.01-6.98l2.99,1.98ZM210.45,66.99l1.99-5.99c-3.09,1.83-3.96,6.66-3.98,9.99l6.99-5.5-4.99,1.5ZM140.44,70.99l-1.49-6.99.5,2.99c-3.52-1.03-4.85-.54-7.99,1.03l.5,1.99,3.48-2.01,1.02,6,2.99-1.01-1.98-3.5,1.48-1.49,1.48,2.99ZM138.45,92v-14.5c0-.55,2.47-3.49.01-3.49-1.61,2.24-.75,5.92-1.08,7.35-.09.39-4.11,2.66-2.94,5.65l-3.99-.5.02,3.49,2.99-2,.99,3,1.51-2.97,2.5,3.98ZM219.44,76l-5.98,1.01,1.99,1.48-3.99,5.51,6.86-1.11.64-2.88,1.49,1.99-1-5.99ZM253.45,98h-14.5c-.55,0-3.49-2.47-3.49-.01,3.72,1.78,5.97,1.79,9.99,1.02l-2,2,1.5,1.97,5.49-3.98.06,4.88c1.4.38,3.03,1.26,4.47,1.17,3.75-.24,2.28-7.92,0-2.06-1.99-1.57-2.88-2.59-1.5-5ZM84.44,99c-2.67-.51-1.74.59-2.44,2-.59,1.18-3.15,7.21-2.55,7.99l6.99-3.02-1.01-2.99-2.98,1.01,1.99-4.99ZM76.42,142.99l.53-4.04c-.96-2.19-4.38-1.54-5.53-2.42-1.46-1.11-.07-3.71-1.95-3.52-1.65,3.54-1.37,7.3,2.98,7.98l-1-2.98c2.54-.65,1.62,1.62,4.01,2.5l-2,2.48h2.96ZM71.79,145.65c-.41-.29-.43-1.11-.36-1.64l-3.96,3.48c3.06,2.64,4.41,6.8,8.98,4.5.36-4.7-2.44-4.79-4.65-6.34ZM70.44,167l-3.97-2.99-.67,2.04-4.76-.14-.58,4.09,1-3.01c3.94.96,7.6,0,10.99,3.02l-1.5-5.99-.5,2.99ZM64.44,171l-2.57,2.04-2.42-1.05c.05,3.49-2.9,8.96-.49,12l5.48-12.99ZM67.44,199.99c-.39-6.13,3.67-14.63.51-19.99l.5,4.99-6.01-.43.03,4.42,2.98-2.99c-.46,1.92,1.57,3.53,1.81,4.78.49,2.48-3.78,6.93.19,9.21ZM23.95,189v1c.65-.33.65-.67,0-1ZM60.44,193l-2.98-2.99-1,16,6.98-1.51c-5.09-1.07-7.71-1.16-5.79-7.8.91-3.14,3.51-1.68,3.65-1.86.88-1.08,2.46-6.09-1.35-4.85-1.24.4.85,1.98.49,3ZM40.44,197l-.43-4.08-5.55-.91c-1.84,5.33.75,2.74,2.39,3.26,1.43.45,1.54,3.81,4.6,2.74l-1.01,2.99,3.03-3.5-3.05-.5ZM62.44,209h-5.99c.3,3.06-.43,6.61-.09,9.56.12,1.05,2.74,2.65,2.3,5.28l2.79.17-.78,1.49,1.76.52c-.07,2.41-4.34,1.23-4.91,2.06l-.07,6.92c2.12-.2,1.74-3.67,1.05-4.93l3.94-1.06c-.08,1.89-1.2,3.59-1.12,5.53.07,1.86,1.88,1.27,1.95,1.94.14,1.31-.93,4.47.17,6.54l-1.98.99,1.98.99-2.08.61,2.07,5.94-1.98,1.45,2.99.02c.24-9.16-.29-18.38-.04-27.55.07-2.66,1.4-5.42,1.16-7.97-.17-1.74-5.21-3.64-3.12-8.49ZM65.45,261.99l-2.5-7.97c-.99-.01-.56,4.11-4.02,4.99l-.52-1.95-1.94-.04-2.04,2.54c-.75,5.39,6.47,3.53,8.53.43l2.49,1.99ZM64.17,269.71c.16-.39,1.56-6.4-.23-6.7l-.49,2.98-6.99.02,5.99,2.49c-1.57.3-3.04,2.27-1.99,3.49.78.9,3.63-2.09,3.71-2.29ZM63.45,281.01h-3.01c.97,1.37-.21,3.16.03,4.27.46,2.06,6.7,3.46,5.96,5.21-1.04,2.46-3.88.34-3.99.51-1.05,4.49-.52,10.4,4.5,6.01l1.49,1.99c-.18-2.72-.14-7.85-1.02-10.23-.15-.4-4.07-4.28-4.66-5.96l.69-1.8ZM52.78,317.65c-1.08-.96-.97-3.23-3.33-2.64-.64,3.05,2.37,1.17,2.51,4.45.05,1.09-.65,2.36-.52,3.55l-1.99.99,5.89-.1c1.7-4.8.06-3.92-2.56-6.25ZM51.17,332.71c.2-.2,2.3-4.85,2.24-5.13l-4.97-2.57,2.99,3.99c-8.63-2.99-4.91,8.26-.27,3.71ZM81.44,338l-8.99-1c-.14,4.56,5.12,5.71,4,9.99,4.3-.11,4.59-5.74,4.99-9ZM166.07,428.44c-1.9-1.08-3.3-2.65-4.63.55l4.01.52c-.82,1.84-1.5,3.14.49,4.48,1.14-5.03,3.85.3,3.38.9-.37.46-2.28-.63-1.88,1.1l2.06.58-1.06,4.43h2.99s-.99-8.99-.99-8.99l4.99.5c-1.49-2.91-7.85-2.29-8.74-2.73-.3-.15-.34-1.17-.63-1.33ZM91.43,431.01l-6.98,2.5c1.87.81,2.36,1.24,2,3.49l5.57-1.95-.6-4.05ZM178.44,436c-2.43.97-3.04.4-4.98-1,2.45,6.96.62,7.61-4.01,11.99l9-1-2.03-3.49,2.04-.98-2.02-3.04c1.5-.93,2.52.11,2-2.48ZM186.44,435.01c-1.78-.27-3.51.06-3.99,1.98,1.3.41,5.03-1.5,3.99-1.98ZM112.43,448.99c-4.79-4.48-5.77.78-5.98,5,4.46.78,3.77-3.74,4.01-3.98.29-.29,6.22.98,7.99-1.03l-5.55-1.83-.46,1.83ZM134.45,460.01c5.02.34,5.63-4.72,1-5,1.34,3.21.49,4.78-2.99,2.99-1.39,1.57,4.02,7.92,4.49,7.98,1.37.19,1.25-2.57.55-3.42-1.12-1.37-3.8.68-3.05-2.55ZM23.36,506.07c-4.32-2.72-2.18,3.01-2.4,4.43-.46,2.97-3.92,6.64.49,10.01l-1.99,3.48,1.98-1.99c-1.09,3.92,2.95,5.68,6.36,6.04l1.65-3.03c-2.04-.24-3.95-.59-4.13-2.88l-2.87.85c6.04-5.75,2.37-5.89,1.33-10.67-.23-1.04,1.03-5.33-.42-6.25ZM99.44,601.01l-24.99-3v3.99c1.63.26.62-1.73,2.23-2.34,1.6-.6,3.99.61,5.76.35.2,3.63-3.87,4.6-4.57,5.99-.52,1.05.61,2.59.37,2.88-.38.47-2.2-.61-1.8,1.1l3.41,1.09,1.57-2.07c-.86,3.98,2.4,3.29,5.5,4.01,1.71-1.76-2.17-.22-1.49-2.01l2-.02-1.75-1.15-.07-2.68,5.34-2.03c.73.2-.06,2.89,2.47,1.85v-5c.23-.23,5.85,1.57,6-.98ZM130.46,606.99l-.43-1.91-8.58,1.93,5.99,1-4.06,4.6,1.23,3.22,6.91-.26.93-3.57,2.1,2.89,4.9-.9-.02-2.99-2.99,1.99,2.51-5.01c-.3-3.86-5.06.54-7.5-2.98l-1,1.99Z"/>
      <path d="M174.45,519c-2.64-1.04-5.37-1.89-7.98-3l-3.02,6,3.99,1.02,1-3.01c-.11,1.18.39,2.05,1.01,2.99-.24.7-1.09,1.37-.8,2.37.16.67,1.2,1.59,1.8,1.63-.01.67.02,1.33,0,2-2.14-1.2-4.13-2.01-6-3h1.49s1.51-1.99,1.51-1.99h-2.99s0,1.99,0,1.99c-5.81-3.08-11.71-7.41-18.54-7.62-11.6-.36-25.73,8.19-21.78,21.46.9,3.02,4.22,6.95,5.31,9.68.87,2.18-1.82,1.36-2.99,1.48.17-.88-.09-2.04-.01-2.99l-2.99,1.98,1.99-4.99-2.98,2c1.23-2.07-2.53-7.62-4-5.99-2.01,2.22,3.05,2.91,1.99,4.99h-3.52c.41,1.88-.85,4.89-.38,6.33.45,1.41,2.48,1.62,3.32,2.67.46.57-.1,2.47.59,3-5.82-3.99-8.05-5.78-10.3-13.2-9.62-31.73,25.72-47.48,51.98-36.98,4.73,1.89,12.99,5.45,12.32,11.18ZM133.44,512.01l-8.99-2.01c.58,4.08,1.29,8.11,1,11.98,1.88,1.65,3.84-7.61,6.99-4.99l-.91-2.57c-.04-.61,3.04.04,1.91-2.42ZM117.77,532.28c-.66,1.31-.44,2.95-1.18,4.26,3.86,5.34,7.4-8.87,6.84-9.54-3.61.53-2.88,2.83-3.67,4-.41.61-1.73.77-1.99,1.28Z"/>
      <path d="M125.45,555c2.09,1.01,4.03,1.26,6.34,1.05l3.65-5.05c-.03,6.75,7.23,3.16,11,7.02-5.39,6.96-16.51,5.91-23.74,2.19-1.31-.67-1.71-1.84-2.25-2.21.23.18,5.17,1.98,5.46,1.97l.54-.97.98-.5-.98-.5h-2.99s.01-1.97.01-1.97c.88.02,1.39-.7,1.98-1.03Z"/>
      <path d="M115.45,62c-.71-.27-1.54-.2-2-1,.88.03,2.06-.21,2,1Z"/>
      <path d="M126.45,552c2.23.23,3.49-.94,3.01,1.99-1.79-.36-2.6.23-4.01,1.01-.85-.41-1.95-.92-2-1.99,1.09-.02,2.4.1,3-1.01Z"/>
      <path d="M126.45,559c-.93.42-.93-1.42,0-1,.05.02.05.98,0,1Z"/>
      <path d="M184.45,530c-.48-.33-1.17-.41-1.52-.99-1.59-.23-1.68-.07-1.5,1.49.45,3.87,3.14,2.47,3,5.49l-3.5-.84-1.06,1.87-4.42-1.03,1.99,1.49-1.99,6.49,3.49-4.99,2.52,4.99c.65.5,2.52-3.69,4.52-1l1.46,5.99c-.09-5.96-1.27-13.27-2.99-19,5.47,3.72,4.95,27.59,3.74,34.24-2.1,11.64-5.96,20.32-15.74,26.76l-.72-1.55,1.57.33c.5-.37-.03-1.5.15-1.78,1.5-2.32,3.78-3.85,1.98-6.99h3.03s-.82-1.88-.82-1.88l1.8-1.12c-1.89.15-3.34.14-3.01-2-.68-.53-1.56,1.56-1.98,1.99-1.02-1.55-2.56-2.46-1.99-4.99l1.42,1.91,3.56-1.9-2.49-2.03-1,2.01c-3.85-3.94.1-9.14.5-13.49,1.18-12.62-4.29-20.92-4.01-30.51.27.15,1.44-.42,1.84.16l.17,2.84,2.5-1.98,1.48,2.98c1.87-4.67-2.19-3.63-4.99-7-.46-.56-1.46-2.18-2-3,.16-.49-.14-1.38,0-2.01l3.41.89c1.43-.51,1.44-1.63,1.59-2.88.68.27,2-.02,3.02.44,3.82,1.72,5.86,6.86,6.98,10.56ZM178.94,530.02c-.99.7.54,1.37,1.02,1.96.99-.66-.47-1.32-1.02-1.96ZM176.46,548l-1-2c1.73,2.98-.5,12.55.09,14.38.47,1.46,2.89,1.3,2.95,2.19-2.72,5.27,1.03,1.69,2.45,5.42,3.22-5.11,8.17-7.29,6.49-13.99l-.99,3-3.48-2-.54,3.5-1.97.49-.17-2.83-2.84-.17v-1.99s2.01-.51,2.01-.51c.53-2.87-1.81-.22-2.01-.49-1.65-2.26,2.15-1.83,2-2.51l-2.01-1c3.17-4.08,2.81,2.74,6.99,0-3.09-2.41-4.64-4.9-7.99-1.5ZM176.95,571v1c.65-.33.65-.67,0-1Z"/>
      <path d="M172.45,591c-.37.24-1.32,2.6-1.99,2-.09-.65.1-1.39,0-2,.65-.08,1.35.05,2,0Z"/>
      <path d="M333.45,469c-.48.74-1.2,1.54-.99,2.49l.99.51-1.43.97c-.88-.05-1.44-.96-1.57-.97,2.01-2.1-.07-1.92,3-3Z"/>
      <path d="M330.45,472c-.65-.02-1.35-.05-2,0,.04-.33-.03-.67,0-1l1-1c.39.59,1.26.93,1,2Z"/>
      <path d="M334.45,469c-.07.14-.91-.14-1,0,.05-.02-.14-.94.5-.98l.5.98Z"/>
      <path d="M260.45,471c-2.83,1.31-3.18-1.99-3.62-2.05-6.8-.94-17.75,8.72-13.38,16.04-8.59-1.75-10.65-12.75-7.99-19.98,2.18.85,1.73,5.32,4.98,1.49l-2.99-.99c2.25-.82,2.54-4.57,3.3-5.26.49-.44,1.91-.05,2.38-.49.63-.6.4-2.31,1.29-3.24,4.73-4.98,18.42-1.12,24.53-1.5,2.01-.13,2.9.76,2.48-2.01-4.62,1.73-10.35-2.68-15.21-4.29-14.05-4.64-38.1-8.77-50.08-14.92-.62-.32-2.14-1.2-1.71-1.78,2.9.19,5.71-3.33,7.76-3.83,2.68-.65,15.91,3.71,20.02,4.54,3.49.71,9.5.35,12.58,1.43,1.86.66.93,3.01,2.62,2.83l2.01-2.01c-2.72-1.7-.75-4.8-.97-4.97-.59-.45-3.33.97-3.01-.99l4.99-2-6.06.42-.93,4.58c-2.54,1.01-14.37-4.01-12.56-7.02,7.13-5.92,19.26-4.54,27.78-2.71,3.81.82,18.24,5.97,20.73,8.27,3.32,3.06,1.39,8.46,2.19,9.32.61.66,4.77-.25,3.87,4.13,3.36.43,2.66-3.85,3.32-6.02.18-.58-.79-2.01,1.15-.98.77.41,7.29,5.96,7.51,6.5l-2.8,4.21c-.36,2.34,7.01,5.01,7.8,4.28,2.49-2.29-6.59-5.32-1.51-5.99l10.51,8.99c-.34-6.86-6.64-11.16-11.51-14.98-24.66-19.4-63.31-36.3-94.93-27.95-4.7,1.24-9.65,5.34-14.41,2.79-.66-1.04-.14-5.5.28-6.95.62-2.14,2.28-1.87,2.99-2.93.88-1.3.28-3.31,1.58-4.47,2.06-1.84,12.35-3.5,15.47-3.56,6.01-.1,32.71,4.79,36.89,7.97.57.44,3.11,7.23,5.88,8.84,1.87,1.08,6.14-.37,8.2.19.45.12,2.43,7.12,6.56,4.57l-1.99-2.49,3.41-1.09,1.58,2.07-.51-4.01-2.48,1.02v-5s2.99,0,2.99,0c-2.13,3.72,1.55,2.31,1.02,5.99l2-5.99,1.88,1.48-1.89,7.51,2.48-2c1.37,1.14,2.4,2.09,4.22,1.29,7.64-3.35-7.1-10.02-10.18-11.34l-1.11,2.08-2.41-1.04c.17,1.41-.47,4.45-2.49,4.01l-6.51-6.5,3-.51-1.5-1.97c-1.8,4.4-7.9,6.22-7.45.45.22-2.85,4.03-2.79-.12-4.03l1.06-2.43-4.46.99-1.05-1.01c1.26-3.07-2.91-2.89-5.49-2.99l4,2-.13,3.37-2.31,1.61c-10.09-4.02-21.16-4.84-31.25-8.8-22.22-8.71-46.81-25.12-63.89-41.11-3.39-3.17-7.03-9.3-6.43-14.07l15.51,10.98.48-6-1.99-.99,6.98,2-1.02-3.99-1.91.93-1.06-2.94,3.99.5-5.99-1.5,2,3.98-4.5-1.97-1.39,2.34,1.88,3.64c-11.13-10.18-16.22-33.43-3.93-44.44,4.21-3.77,13.63-7.35,17.94-2.58-3.68.66-6.05,4.99-7.28,8.23-5.98,15.78,3.14,32.5,13.26,44.31,30.73,35.86,79.98,40.6,116.4,68.65,4.69,3.61,7.46,7.69,11.58,11.38,1.37,1.23,3.99,1.54,4.59,2.44.76,1.15.14,3.45.57,3.9.32.34,2.85-.1,4.49,1.05,2.5,1.75,9.6,10.3,11.84,13.11,7.76,9.72,14.88,21.09,19.58,32.45l-2-.5,1,3.01-3,1,.84-3.87c-3.64-.87-.7-4.18-5.85-4.14l1.99-4.99-1.5.63.14-1.39c-.42-.38-1.08-.27-1.63-.23.2-.29-.2-1.72,0-2,.07-.1,2.73.57,1.99-1.48-1.47-1.08-2.21-3.65-3.45-4.61-1.25-.97-3.43.58-4.53-1.41l2.99-.99-4.98-6.5,1.05,4.43-1.97.62-.07,1.92,3.96,3.52-3.97,2.49c3.7-.64,2.81,1.19,3.99,3.01l-1,1-3-1.51c-2.13,1.27.44,2.24,1,3.51.21.48-.22,1.6,0,2-4.36-3.29-9.06-5.71-7.48-11.97-3.36,2.84-5.11-1.36-5.84-1.68-12.85-5.6-22.89-14.41-36-20.52-3.06-1.43-8.95-2.62-11.03-3.78-1.66-.92,1.85-4.01-6.13-3.05-.87-.02-.67,2.14-.5,2.5.48,1.04,17.7,7.23,21.02,8.98,2.47,1.31,6.14,3.22,8.36,4.68,2.44,1.6,5.95,7.2,9.61,6.85l-4,2c1.19,2.41,3.47,5.28,2.02,7.98,4.38,2.34,4.02-2.18,5.14-2.85,2.99-1.77,17.8,11.06,20.37,13.84,2.12,2.3,9.84,12.42,8.47,15.02l-3.93.05c-.26,2.21-.47,5.25,1.93,5.94l3.01-3.99-.02,4.98,1.83-2.22c-2.33-9.74,4.54,4.61,5.39,6.54,6.83,15.56,11.57,30.45,12.85,48.16l-.54,4.55-.51-5.01-4.99,1.01,3.99.99-1.99,5.99h5.99c-.19-5.99-1.63-11.94-.99-17.99,2.07.25.59,4.16,1.04,6.29.1.46,5.12,6.96,6.96,5.71-.17-2.32-.59-4.35-2.98-3.56l-1.01-3.43,3.96.52-.97-7.51c-3.85-.59-.73,1.73-1.21,2.87-.07.17-1.26.04-1.49.64-.41,1.06-.44,3.17-1.3,4.48-2.93-.9.48-8.42,0-8.99-2.52,1.06-2.73.54-2.99,3l-1.03-.59c-1.02-16.28-6.69-32.87-14.28-46.65-1.4-2.54-2.91-5.02-4.52-7.44l4.35-5.3,3.17,4,6.3-2.02c1.52,3.68,2.8,7.19,4.02,11-.57-.8-1.09-2.16-1.99-1.99-.11,2.72,1.33,5.15,1.77,7.75.94,5.48,1.1,5.2,2.82,10.51,3.64,11.21-1.73,4.69-2.6,5.74v5s6.98.99,6.98.99v-3s-2.98,1-2.98,1c-.97-2.92,2.46-1.22,2.02-3.48-1.35-6.9-3.88-15.77-6.03-22.52,11.94,16.72,11.57,65.91,8.86,86.36-1.05,7.9-7.24,40.54-12.86,44.64.28-1.34.17-2.73,1.01-3.99l-2.52-1.02c-1.17,2.71-3.11,3.53-5.97,4.03l-.52-5.01c-.84-.36-1.95,1.76-1.99,2,7.16-20.61,8.93-44.79,5.88-66.38-1.18-8.4-4.65-16.24-5.88-24.61l3.08.59c.28,4.76,5.33,9.37,3.91,13.4,1.03,1.12,8.53-5.42,3.54-10.08-.7-.65-2.35.05-3.01-.87-1.55-2.17-4.6-12.91-6.35-16.71-5.86-12.73-11.3-19.38-22.26-27.79-.5-.39-1.99-5.75-2.91-1.05,2.84,1.61,3.38,4.99,5.06,6.95,1.06,1.24,3.47,2.21,4.96,4.04,3.12,3.8,15.68,20.38,15.96,24.09.12,1.57-.85,2.94-1,4.44-1.71.04-3.28-.84-4.43-2.06-3.27-3.47-7.63-12.58-11.59-17.41-7.69-9.38-15.11-14.77-27.17-17.82-7.25-1.84-15.28-.94-22.01,2.33-2.02.98-2.29,6.48-6.75,2.41-4.21-3.85-1.99-11.57,2.46-14.44.49-.22,2.66,9.2,6.49,7.99-.21-2-3.54-2.43-3.95-3.65-.11-.31.67-6.09.93-6.58,2.09-3.98,18.1-1.02,22.02,1.26.43,1.64-1.41.69-1.74,1.15-1.73,2.44,1.36,3.9,3.75,3.82l1.49-4,.52,4.01,2.53-.97-1.55-8.02c-2.43-.97-3.45,3.94-4.48,3.98-3.68-3.23-8.32-4.58-12.5-6.98,2.03.21,4.07.27,5.99,1.01l1.02-7c10.46,5.22,3.1-3.23.85-7.93-4,1.93-4.42-1.19-7.86-2.09.34-2.3,2.21-.74,3.03-1.62.73-.78,2.62-4.63,1.96-5.36h-8.98s1.5,3.99,1.5,3.99l2.49-1.99-1,5-3.01-1.49,1.03,4.48c2.54,1.02,1.72-2.04,2.48-2.02,3.43.07,2.04,4.18,2.71,6.31.61,1.92,3.19,2.38,2.78,4.71l-5.86-2.15.86-1.84c-.21-.15-4.11.77-5,.99-2.91-1.86-2.24-1.94-6-3,.14-1.56-1.66-4.51,0-7h-7.99c-.96,4.21,4.27.4,4.99,1l-1.99,2.49c.73,1.73,2.78.41,2.9.64,1.05,1.95-1.59,1.83,2.1,2.87-.15,1.61-3.39,5.44-4.5,7v-5.98s-1.51,4.98-1.51,4.98c-2.57.02-.77-4.74-1-4.99l-3.99,1.01c-.25.22,3.5,4.83,1,5.99ZM159.36,321.08l-5.91.93,2.99,2.99,2-3v4.99c-3.82-2.29-6.85-2.05-11-.99l2.01,6.98c2.51-.79-.92-4.65,3.47-1.97l-.49-2.01,6.01,1.98-.54-2.04,3.54-.96-2.09-6.91ZM223.46,386l-1-1.99-1.54,6.02c-1.54,1.86-4.1-1.99-3.47,1.97l11-1-2.98-3.01v-1.98s1.97-.99,1.97-.99l-2.89-.89-1.1,1.88ZM241.44,391.01l-3.39-1.07c-1.13,3.79-2.58-.14-4.58,2.56l5.98,2.52-.98,1.95,4.98,1.02-3.95-4.57,1.94-2.41ZM215.5,400.94l-.06-2.95-1.97,1.5,2.48,4.52c.82-3.43,6.03-.85,9.49-3.01l-.99,5.99,3.48-2.01-.5,2h2.01s.5-1.99.5-1.99l2.63,3.93,3.32-.99,1.06,2.1,4.49-2.05-3.98.02-.64-3.06c-1.95-.54-6.14.2-7.68-.83s-.88-3.65-2.41-4.12c-4.63-1.42-6.88,1.37-11.22.95ZM210.45,409h15c-1.83-2.89-7.11.16-6.51-5.01-2.87,1.07-8.44,1.03-8.49,5.01ZM235.95,425v1c.65-.33.65-.67,0-1ZM270.95,433v1c.65-.33.65-.67,0-1ZM266.95,434v1c.65-.33.65-.67,0-1ZM322.95,452v1c.65-.33.65-.67,0-1ZM325.44,454c-2.42,1.6-2.9-.24-4.97-.51l2.99,4.5,1.98-3.99ZM258.45,454.99c-4.1.05-10.14-.51-9.99,5,2.9-2.51,5.8-4.81,4,1l5.98-.99v-5.01ZM322.45,461.01h-1.99s0,1.99,0,1.99l1.99-1.99ZM244.75,463.63c-.34-.25-.35-1.13-.32-1.62-4.87,2.93.38,1.98,0,4.99l-2.99-.5c2.14,3.64,4.29-1.45,5.99-.49v3.99c1.46-.62,4.31-.5,5.35-.97,1.31-.6-.51-4.17,3.65-3.04-2.92-4.68-7.11.97-11.7-2.36ZM316.95,462v1c.65-.33.65-.67,0-1ZM240.95,464v1c.65-.33.65-.67,0-1ZM357.44,523.99l-1.97.48c1.24,1.49.97,2.83.6,4.55-.86,4.04-3.56,2.81-3.62,5.96,3.98-.68,3.22,4.01,7,3.01l-1.99-.99c1.75-4.66.55-8.34-.01-13.01ZM343.86,549.64c-.4-.91-1.18-5.54-2.43-4.13l2.01,12.98,1.98.48,2.02-2.97-3.01-.52,1.02-4.9c-.02-.6-1.44-.62-1.59-.95ZM353.63,577.66c-.47-.26.45-2.09-1.16-1.65.65,3.88-4.97.65-6.58,2.93l-.43,7.06.98-1.99c3.42.71,4.05-2.34,5.13-4.93l3.87.97-.69,1.74c3.9.97.59,5.89-2.28,6.23l-.07-2.97c-5.08-.86-3.71,3.9-7.94,1.96v4s1.46-1.98,1.46-1.98c2.63,1.92,6.43.67,5.55,4.98l2.5-2,2.01,1.01c.16-4.5,2.89-10.5.38-14.5-1.02-1.63-2.14-.53-2.72-.85ZM344.45,598.99c1.39-1.87,3.26-5.6,0-6.99.54,5.99-4.15,11.28,0,16.47l-2,1.53-1-1.99-1,5.99c4.49-1.26,5.1-3.29,5.76-7.84l-1.76-.17,1.98-1.97-2.01-.65.02-3.36,3.99.99-4-2Z"/>
      <path d="M276.45,466c2.98,1.91,5.07,5.1,8.99,4,.75,4.22-4.78.19-6.99,1.01-.15,1.32,1.77,1.29,3,1.99-5.54-.56-10.8-1.55-16.49-.99-5.88.58-9.95,4.02-15.5,3.99-.06-7.24,6.02-3.81,9.43-4.03.84-.05,1.39-.95,1.57-.97,4.59-.33,6.59-.42,10.27-1.43,1.78-.49,2.48-2.01,4.72-.57l-.99-2.99c.64-.1,1.44.13,2,0Z"/>
      <path d="M303.45,665c-.06.65.02,1.34,0,2,2.88-1.69,4.41-.46,6.97,1,2.72-7.64,3.15,2.41,4.53,3,.72-1.91,2.49-2.47,3.49-4,.63-.13,1.2-1.11,2-1-5.01,6.34-10.64,13.12-16.96,18.57-2.02,1.74-4.97,1.98-6.56,5.42l-.5-3.97c-2.46.29-4.58-2.15-5.98-4.01l7.89.87c.94-3.15,2.64-4.35,3.1-7.88,1.22.17,2.12,2.6,4,1.99l-3.51-3.98c-3.03-.35-.39,1.28-.49,1.99-1.46-.2-2.59,1.03-3.5,2-1.68-1.17,1.13-2.83,1.72-4.28,1.1-2.68.76-6.33,3.79-7.71Z"/>
      <path d="M333.45,472c.29-.66.21-.95,1-1-.14.2.13,1.16-1,1Z"/>
      <path d="M236.45,540c7.21-14.79,19.8-15.7,35.04-12.54,15.42,3.2,24.65,11.09,33.15,23.86.83,1.25-.38,4.03,3.81,4.68.12-5.76-6.8-23.61,3.44-22.98,11.98.73,13.89,25.57,11.26,34.19-1.52,4.98-3.42,2.95-6.23,4.72-3.28,2.07-2.69,5.81-2.01,9.13.31,1.48,3.05,9.87,3.64,11.15.65,1.42,4.74,3.39,3.94,6.78l4.42-1.05,2.04,2.05c2.17-1.32.49-2.99.51-4.99h4.01c1.09-3.29-1.72-4.37-2.47-6.08s-.15-3.79-3.03-5.92l-1.46,8.46-3.04.53.98-4-4.98,2c.08-2.92-3.34-6.88-3.08-9.38.04-.39,4.42-2.78,3.24-6.49l2.69-.22c-.91-2.78,2.72-6.95,5.48-6.69,5,.47,7.86,12.29,8.38,16.56,2.54,21.14-5.38,41.88-12.73,61.21-2.17-.76-1.46-4.51-3.4-6.08-1.18-.95-2.11-1.1-3.57-.92l-2,8,2.97-2.99,2.9,3.57-1.98,6.98,2.08,2.43-2.99,3,4-1.98v2.5c3.97-4.26,2.17-9.21,4.23-14.79,2.61-7.09,8.17-15.24,10.78-22.72-.99,5.19,3.16,3.44,3.01,7.99l1-3.01,1.99,1.04.02-3.02c1.8.82,1.97,2.47,3.99,1-2.5,12.04-18,29.87-26,40l-2-.99c-.16.58.19,1.71,0,1.99-2.41.48-6.73-2.22-1.51-4.01l1.02,1.01-.52-3-4.31,2.86-4.67-3.36,1.99-3.49-6.99,7.99c.31-3.13,10.05-20.49,12.02-26.48,6.3-19.21,5.61-37.72-1.53-56.5-1.45-3.81-6.52-10.57-5.54-14.32.3-1.13,2.63-1.02,2.8-2.13.13-.83-1.21-2.25-.6-3.36.42-.77,5.41-5.2,6.86-3.18v-3.03s1.51.79,1.51.79l.5-2.78c4.07-1.03.33,4.54,2.99,5v-10.99s-5.99-1.02-5.99-1.02l2.99-2c-.26-3.19-7.21-.49-7.79.25-.72.92.66,3.08-1.19,2.76l-2.01-3.99,1.01,10c4.02.78.03-2.83.99-4,1.69-2.03,1.97,1.86,2.5,2.01,2.06.6,1.16-3.33,4.5-2.01-1.08,5.36.13,6.49-5.5,8.97l-1.49-2.99,1.98-1.99c-4.74.94-3.22,8.24-5.48,11.99l-9.01-7.99-2,2.98c-.59,0-1.06-2.07-1.84-2.63-7.39-5.29-20.17-17.1-29.25-18.26-7.37-.94-17.33,2.13-17.4,10.91,8.96-8.22,18.04,2.76,12.48,12l.5-7.99c-3.95-.79,1.09,4.27-3.98,3.99l-2.01-7.99,2.26-.83-6.01.04c-.38,2.65-3.27,2.35-3.99,3.04-.27.27-2.02,5.44-3.29,6.74-1.79-1.08-4.27-3.05-5.96-.49l2.99,3.49,1.98-1.99.02,2.99,1.1-1.82,2.38-.17,1.51,1.98-2.99.5,10.99,1.52c-.41,1.77-5.06,2.04-6.38,1.95-8.89-.6-15.78-9.8-15.64-18.42.06-3.86,1.57-6.56,3.03-9.55-1.16,2.22-1.58,9.25-.99,11.99,2.77-.17.6-5.63.99-5.99h2.99s.5,2.99.5,2.99l3.5-2.51-1.99-3.49,3.98.99-2-2.48,3-.52-2.53-1.69-3.45,2.7v-3.99c-.81-.46-3.76,1.52-4.01,1.99ZM273.44,529.01l-12.57-1.77-2.41,2.75c.49-3.17-2.99-1.86-5.35-2.03l-1.64,2.54,1.97,1.49.5-1.99,6.51,3.99c-1.62-3.72,3.77-5.27,7-4.98-1.76,2.8-4.9,4.01-3.99,7.99l8.32.05,2.66-6.05c-1.88,1.13-6.02,1.63-6.99-.99l5.99-1ZM330.45,576c-.53-.85,2.24-5.49-.53-6-1.98-.37-7.32,3.72-2.47,4.49-1.75,2.26-3.52,4.46-3,7.51l1.62-2.05,5.28.94,1.07-1.88c1.2,3.75-1.19,8.63,3,10.99l-2.19-13.34-2.79-.65ZM332.44,612h-4.99s1.99,4,1.99,4l-7.76.24c-.96,2.46-2.58,9.44.28,10.75l5.5-6.98,1.98,4.99,3.01-13ZM323.95,633v1c.65-.33.65-.67,0-1Z"/>
      <path d="M328.45,472c-.08.65.09,1.35,0,2-.78-.21-1.24-1.02-2-1l.52-.99c.49-.08,1,.03,1.48,0Z"/>
      <path d="M328.45,474c.8.22,2.06-.15,3,0-.17,1.73-1.85,1.59-3,1.99.05-.65-.09-1.35,0-2Z"/>
      <path d="M327.45,476h1c-.17.06-.23.86-.5.87l-.5-.87Z"/>
      <path d="M327.45,476c-.39-.26-.64-.73-1-1,.15.27,1.24.17,1,1Z"/>
      <path d="M309.45,579c-.5-.69-2.15-2.8-2.99-3-.5,3.16,4.56,5.97,0,7.99l-3-6,3,12,1-4h3.99c-2.07-2.28-1.43-4.86-2-7,12.64,17.35,4.61,64.24-7.78,81.72-2.07,2.91-4.84,3.55-6.86,5.64-1.6,1.65-3.82,6.83-4.32,7.17-4.17,2.8-11.45-3.02-9.04-7.53l-2.55.98-.44,6,3.42-.86c2.19,2.47,2.56,4.59,6.58,3.87,1.12.99-6.46,8.88-9,9,2.91-6.07-4.18-6.22-7.51-7.98.05,2.38,1.1,4.89.52,7.33-.25,1.04-3.06.04-2.01,2.65h5.99s.01-3.01.01-3.01c.21-.26,1.98,1.05,2.99,1.01-3.11,6.49-28.2,17.6-36,18.01-.03,1.72-.56,2.15,1.43,1.94,11.01-1.2,23.93-8.77,33.57-13.94l1.01,4.99-4.49-1.99c-2.03,2.48-4.62,4.78-2.51,7.98l-4,1.01.99-4.99-8.99,3c-.28,1.24,4.01,2.05,4.44,2.05.18,0,1.18-4.31,2.55-.54.96,2.66-4.85.62-4.99,3.47l16.99-6c-.85-3.32-5.78,1.27-5.98,1.01l1-4.99,2.47,2.09,4.5-2.09,2.02,2.48c-.95,2.21-16.81,8.09-20,9-16.05,4.58-51.45,9.43-66,2.5,3.01.47,6.83.33,10,.99.27-1.65-1.41-.7-2.66-1.35-.38-.2-.37-1.33-.59-1.44-.26-.13-2.8.11-4.71-.89-2.93-1.53-1.76-3.22-6.03.19.11.23,3.4,2.22,4,2.5-5.16-.81-9.14-2.03-13.99-4.01.3-2.39,4.08.33,5.35.1.44-.08,2.45-4.78,6.64-2.09l-.58-3.05,3.58-.96-5.54-2.99-1,2.06c-5.4-3.48-4.84,2.99-9.45,3.93l2.06-4.48-2.07-.99c3.55-7.4,13.49-.24,19.95,1.04,21.34,4.22,44.17-3.63,61.59-15.52,4.88-3.33,13.88-17.38,16.63-23.37,6-13.06,9.73-29.75-1.17-41.18l3.99.5-2.94-5.92c3.4-.12.28-4.22,4.94-3.06l-1.99,1.48,2.5,2.5c.62-3.17,4.84-1.04,7.49-1.01-1.38-2.5-6.21-4.3-8.87-4.47-3.98-.26-2.5,1.49-3.16,2.72-1.34,2.48-5.01-.45-3.96-3.23,25.49-5.66,26.89,25.88,20.99,42.98-1.76.26-.99-2.26-.76-3.26.72-3.2,2.58-6.04,1.78-9.74h-5.01c1.93,5.39-.68,6.85-1.09,10.93l-2.92.08c-.29,6.03,7.51,8.47,1.5,13.99l-.65-1.76-1.83.76v-3.99s-3.02.49-3.02.49l3-1.99-4.99-3.5c1.27,6.14,3.47,8.09-2.99,11.5l2.48,2.48,1.5-1.97-1.99-1c2.35-.7,3.36-2.3,5.99-1l-2.92,1.04-.07,4.94c1.78.97,4.69-2.27,4.99-2,.35.32-.78,2.42,1,2,.44-7.42,6.31-14.27,9.19-21.31,9.12-22.32,10.14-53.71-2.15-74.43-.52-.88-2.57-4.58-2.02-5.25l2.98,2,1-2,2.01,1.99-.5-3.99c3.46,3.85,5.19,8.08,6.5,13ZM310.47,596.99l-1.52-2.99c-2.68,3.98,2.8,4.88,3.4,6.69.51,1.54-.84,6.13.1,8.31-4.22,1.05-.21-5.32-2.98-5.99v10.99s3.99-.99,3.99-.99c-1.8,2.33-1.46,5.33-1.92,8.58-.28,1.98.22,1.43,1.91,1.41,1.57-9.32.89-18.64,0-28-1.47-.51-.75,3.91-2.97,1.99ZM296.42,614.99h-5.97c1.15,4.24,3.02,6.65-2,9.02-.04,2.18,3.57.54,4.57.07.77,1.6-.02,2.35,2.42,1.91l1.99-3c2.77,7.05-2.41,2.48-3.54,6.04l-3.44-1.04.03,4.95,2.79.21.18,2.84c2.66-1.15,4.73-.42,4-4.02l1.99,1.02-3.02-18.01ZM309.46,630.99l-1-2.99c-.57,3.73-.53,6.19.28,9.78.33,1.46-.97,1.81,1.7,1.22-.35-3.65,4.24-9.06.02-11l-1,2.99ZM262.42,689.07c-1.69.21-3.91-1.03-5.33-.8-.36.06-6.54,2.86-5.63,4.72,4.32.72,4.5-.2,6.99-2.99l.99,3.99c-.33-2.12,1.18-2.06,2.88-2.12l.11-2.8ZM245.45,701.99c-.44-1.88-6.9-6.13-8-5v4.02s-2-1.02-2-1.02l.5,2.99-2.49-1.49c1.82,2.33.95,4.32-2.02,4.53l1.7,1.18-.21,1.79,4.5-4.98-1.99,6.99,15.99-2c.19-1.71-3.47-1.11-4.54-1.04-1.67.1-2.96.22-4.45,1.05l.89-2.56-1.98-.99,1-2.83,3.08-.63ZM212.45,701.01l-12-1.01.02,2.96,6.98,2.04v-3.01c1.9.91,4.09,1.81,5-.98ZM214.45,706l-.02-4c-2.36,2.04-1.98,3.91-5.99,3.01l6.99,3-1.98,3.98c2.1.12-.34-2.21,2.48-2,1.27.09-2,2.53,1,2.02l1.01-2.03.49,2.01h8c-.33-3-5.61-.75-6-1l1.01-1.98h-5s.98-4.01.98-4.01l-2.98,1Z"/>
      <path d="M106.44,147.99c-4.33,1.52-5.89-1.93-7.31-2.66-2.24-1.15-3.17-.02-5.7-2.83-7.94-8.82,1.4-26.3,5.43-35.62,3.92-9.06,10.39-22.62,16.57-30.4,2.05-2.58,5.41-5.37,8-7.48l-.94,13.55-22.03,48.04c-1.01,6.76,6.45,10.92,5.97,17.4Z"/>
      <path d="M297.45,764c-1.59-1.09-2.5-.49-4.44-3.06-.8-1.06-4.56-8.73-4.56-9.44v-17.5c2.36.56,1.28,1.59,1.33,2.79.16,4.39-.34,8.82-.32,13.21,2.22-.44.14-4.27,1.45-6.06.77-1.05,4.07-.36,3.55-2.93,1.73-.3.6,1.53,1.3,2.69.29.48,1.48.08,1.7.8.63,2.03-2.59,1.83-3.96,3.05-.78.7-2.68,3.31-2.89,4.22-.92,3.93,3.89,8.18,3.84,5.72l-2.01-3.48c3.64,1.85,2.17-.48,4.99-1.03l-1.99-2.97,2.99.99v-6.99s5,2.99,5,2.99l.02-6c-8.86.65-1.73-4.2-1.08-5.77,1.76-4.29,2.49-9.74,4.06-14.22l-4,1.01.97,4.37c-5.17,2.18-3.72,3.67-6.46,7.6l.44-4.36-2.94-3.14,2.8-2.66c-2.95-8.94,1.81-9.54,6.26-14.29,1.33-1.42,5.95-7.39,6.91-7.97.63-.38,2.08.4,2.95-.11,1.67-.98,3.38-2.84,5.08-3.96l-3,.5c1.55-2.95,3.19-5.55,2-8.95l6-1.03-2,3.98,2.99,1.01.12-5.89,4.88-2.1c-1.99-.4-6.9,2.69-7.99,0,15.77-3.82,33.14-5.79,49.24-2.76,5.83,1.1,8.34,3.99,13.76,4.76l-1.01,1.98c4.88.58,18,6.08,20,10.52.2.44.25,1.64-.49,1.48l-5.5-1.99,2.99,2c-.26,5.55-5.81,1.69-4-.99l-6.41.08-.65-3.03c-4.05-.72-4.45.54-5.47,3.95-8.12-4.27-15.62-6-24.88-4.91-3.57.42-16.15,4.81-19.56,6.44s-4.96,8.5-9.98,5.38c-.25-3.13,1.96-6.18-.56-8.92l-4.5,3.02.06,1.94,1.93.53c-3.17,2.57.25,7.83-6,7.52l3.01,2.5-3.01,3.47,3.76,3.69-2.77,6.34c-6.04-1.95-5.67-8.92-4.75-14.26,1.24-7.17,7.66-11.42,11.76-16.73-2.15-.55-2.63,1.86-4.03,2.46-1.61.69-3.59.27-4.95,1.05-1.72.98-3.24,6.62-8.03,5.49l1,2.99h-5.99s1.01,9,1.01,9c2.55-1.84,3.27-5.62,5.47-8.02,1.18-1.29,1.75-1.65,1.51.51-10.13,10.84-19.1,47.67,5.03,43.96,3.29,6.51-4.47,12.84-10.63,13.49-5.96.63-7.22-1.07-11.39-3.94l4.33,1.04,3.5-4.55c-1.48-3.26-5.43-1.18-6.32-4.48l-1.51,8ZM354.38,682.03l-8.93.46,3.49,5.49,1.51-3.99,4.98,2.01-1.06-3.97ZM375.44,685.01l-9.99-2.02c1.2,4.16-2.56,3.94-3.05,7.41,2.89,3.74,4.55,4.64,10.05,4.59l-3.99-8.99c.3-.22,6.59,1.84,6.99-1ZM347.45,694.01l-10.99-5,1.99,1.98-6.55,4,1.56,3-1.99,1,3,.52v-2.5c5.35-1.55,1.05,4.09,4.52,4.03,2.84-.05,5.32-2.67,8.48-2.05l-1.78-2.49,1.78-2.49Z"/>
      <path d="M112.45,178c.42,5.4-4.42,23.51-7.57,27.93-4.02,5.64-11.79,8.88-18.4,6.03.24-7.88,8.88-9,11.76-15.67,1.82-4.2,11.4-46.01,11.15-49.64-.38-5.46-4.44-9.4-4.93-14.64,13.68-1.97,16.09,8.99,14.74,20.24-.98,8.22-4.42,18.32-6.75,25.75-.05-.66.04-1.34,0-2-1.31,1.32-5.16-.13-5.78-1.21-.8-1.39.77-3.96-1.2-3.77-1.71,4.38-.87,9.29.99,13.5l2-1.5v-2.01s.01,7.99.01,7.99c2.87-1.89,1.72-7.21,3-10.32.31-.75.98-.62.99-.68ZM111.44,140.99c-3.9-.84-1.07,5.21,1,5.5l-1.99,2.49c2.74-.37,2.07,1.92,2,4.03,3.38-1.88,2.77,2.23,4.98,2.98l.53-14.01-2.07,4.51c1.26,2.24,2.48,5.57-1.44,5.5l-.02-10.99-2.49,4.01-.5-4.02Z"/>
      <path d="M307.45,692.01l-1,2.37,3.99,5.6c-5.16,1.15-7.27,6.34-10.95,9.56-1.69,1.48-4.17,1.51-5.51,3.49-3.69,5.43-7.39,21.95-10.33,28.67-1.3,2.97-3.45,6.8-7.19,6.29v-7.98s1.97,1.99,1.97,1.99v-2.99s-6.9.88-6.9.88l-.58-1.9-.38,4.57-5.12,1.45,3,2.49c-7.41,5.82-21.76,8.44-28,.01-1.34-1.82-4.33-7.48-2-9.04,18.19,2.73,30.04-13.26,41.51-24.46l-3.5,6.99h4.99s-1.01-2.98-1.01-2.98c2.06-.26,4.17-.57,4.02-3l1.98,1.99.02-3.99,1.98,1.99,5.01-3-6.98-3.49c.86-3.65,19.29-17.11,20.98-15.49ZM281.45,734l-2.5-8.98-3.5,8.97h6ZM273.45,731.99l-1.5-4.99c-2.51,2.16-2.82,5.85-6.92,5.04l-1.08-2.04-1.53,2.49,5.02,3.5-1-2.98,7.01-1.01ZM258.45,735.01l-10.99,3.49c2.42,2.67,6.87,1.4,9.7,2.28,1.13.35,3.19,3.14,4.29,2.22,2.09-1.76-2.01-1.97-2.01-2.49,4.76-.99.33-4.06-1.02-3.01l-.41,2.27-4.53-1.26,4.98-3.49ZM265.45,741.01c1.27,3.36,4.16,2,3.99-1.01l-3.99,1.01ZM252.44,742.99v-1.99h-.98v1.99h.98ZM250.26,745.15l-5.82.86v2.98s9,1.01,9,1.01l-3.18-4.85Z"/>
      <path d="M166.45,681c.04.46,1.42,1.7,1,1.99h-2s1-1.99,1-1.99Z"/>
      <path d="M165.45,683c.79.76,1.64,1.35,2.52,2.01.87-3.03,2.41-2.31,5.07-1.08l.91-1.92c1.64,1.56,9.46,8.59,7.5,10.99-1.84,2.26-1.74-2.58-2.98-1.99l-.78,2.81,1.77.68c-2.2,2.86-5.32.59-6.49,4.5-2.34-6.81-3.31-4.87-7.43-7.56-8.52-5.56-12.16-29.72-6-37.86,1.71-2.26,3.8-1.04,4.72-1.78.48-.39.37-2.44,1.15-3.31,6.17-6.9,11.88-8.99,21.05-5.97,6.63,2.19,5.56,4.15,8.95,7.79,2.12,2.27,4.26.35,5.61,6.65,2.38,11.12-3.3,20.8-15.58,17.58-5.8-1.52-10.15-9.82-5.74-14.3,1.08-1.1,3.84-.42,3.77-2.22-4.95.24-13.58-.83-15.14,4.86l-1.85-.87v3s2.98-1,2.98-1c-.74,6.38.68,11.25,3,17l-1.79-.74-.78,1.78-3.43-1.05c-.03-.28,1.05-1.22.53-2l-2.02,1-1.5-3.99,5.99-.02-4.99-.99c-.96-4.03,3.77-.71,3.99-1v-5.99c-4.07-.91-.2,3.13-1,3.99-3.71-2.1-5.62,2.07-9.99.01l1.01,4,3.99-1.01c.34,3.71.16,5.27,3.01,8ZM185.45,646.01c-6.25-1.3-4.92,3.03-6.14,3.86-1.33.9-4.6-1.42-3.86,2.12l9,2c.47-1.51-3.83-.67-1.99-2.99.39-.49,3.73,2.97,2.99-1l-2.99-2.01,1.94.96,1.05-2.95ZM192.95,666v1c.65-.33.65-.67,0-1ZM171.95,691v1c.65-.33.65-.67,0-1Z"/>
      <path d="M86.8,203.35c-3.35,4.26-4.66,7.79-5.23,13.27-.91,8.86-.32,39.53,2.44,47.31,2.42,6.81,5.36,5.18,10.14,7.86,10.73,6.01-1.35,10.5-8.94,7.14-.79-.35-.9-1.59-1.49-1.91-5.6-3.08-7.43-2.75-9.8-10.01-3.7-11.37-3.57-42.76-2.52-55.55.76-9.3,9.44-22.82,18.89-13.76,1.16,4.21-2.2,3.97-3.51,5.64ZM72.45,216v26c3.45-2.32-.17-6.51,1.66-10.77.81-1.89,5.7-2.35,1.35-5.22l-2.01,2.99c.13-3.79,1.31-10.64,5.77-6.53-2.02,4.09,2.07,9.16-1.78,12.04,3.14.74,1.04,2.88.99,5.49l-1.96-.99-1.02,3.99,3.99-1.99c1,1.12-3.1,7.89,1,6.99v-33.99s-3.99,1.01-3.99,1.01l3,1.49-2.95.55-.06,3.96c-3.13.93-.92-4.66-4-5.01ZM80.39,251.03c-2.4,1.15-3.61-.95-4.52,2.01l-2.42-1.04c-.54,2.77,3.19,2.48,3.99,5.51l-1.99,1.48,2.98,1.01.1-3.95,2.91-.05-1.06-4.96Z"/>
      <path d="M112.45,310c.04.11,1.27.49,1.57,1.87l1.42,8.12c-.3-2.29,1.29-7.5.98-9.37-.18-1.08-2.04-.92-2.49-1.58-1.79-2.59,2.14-3.39.53-5.55-1.08-1.45-2.49-1.81-3.01,0-.31,1.09,1.8-.46,1.61,1.49-.16,1.68-.75,2.88-.61,5.01-3.77-10.39-7.78-36.05-16.04-41.46-3.58-2.34-10.29-2.48-9.95-8.54,4.95-.77,7.94,1.41,11.95,2.56,2.77.8,5.07-2.19,6.01,3.98,1.6.73,3.83-2.35,6.49,1.52,3.68,13.77,8.45,27.59,11.48,41.51.7,3.23,2.16,7.8,2.15,10.93-.03,8.33-7.22,17.16-16.1,16.04-3.31-2.25,4.37-10.41,4.95-14.11.69-4.39-.66-8.22-.93-12.44ZM114.44,288l-3.98-16-2,8.99,3.51-1.02.48,5.01-.99-1.99-3,.49c1.09,2.9,3.41,3.24,5.98,4.51ZM121.43,328l1-10.99c-2.04.12-.38,3.36-1.44,5.08-.88,1.43-3.76-.64-4.53,1.43-.85,2.25-.37,2.13,1.48,2.5.2.04-1.5-3.66,3.51-1.99.37.33-4.78,4.53-.01,3.99Z"/>
      <path d="M204.45,426c.46-.45,3.18-3.81,3-3.99l-3-2.01,3.98-.49c-.82-1-6.31-1.6-6.99-1.52,12.95-11.96,10.09,7.22,3,8Z"/>
      <path d="M200.45,420l2.92.06,1.01,3.5-1.91.44c-.3,2.14-.11,2.22,1.98,1.99-2.86,2.82-2.27,2.12-6,3,.23-.04,1.02-1.37,2-1.01l-2.01-3.98h3.02s-1.01-4.01-1.01-4.01Z"/>
      <path d="M198.45,429c-13.77,3.26-26.62-6.9-38.99-12.01-.06-2.2,2.54.08,4-.46,3.35-1.24-3.06-1.71-1.01-3.52l4-.99c-2.57-.55-7.29,1.48-9.51.76-.57-.19-.67-2.86-3.48-1.76l1.99,2.49c-3.19,1.81-6.19-3.59-7.71-4.54-2.58-1.6-6.02-2.31-9.02-4.67-.81-.63-1.85.03-1.26-2.28,7.27.66,10.52-4.2,17.36.18,1.34.86,3.28,4.27,4.42,4.74,2.5,1.03,5.5.78,7.94,1.86,7.47,3.31,20.89,12.24,28.71,11.17,1.92-.26,3.55-1.69,5.56-1.94-.35.32-.57,1.45-1,2-.12.15-1.47-.24-1.74.15-.17.25-.77,4.93-1.28,5.84l-1.98-1.99c.1,3.64-1.32,5.81,2.99,5ZM184.19,418.32c-3.81-1.44-2.94,1.07-5.74,1.7l1.99,1.51,1.99-1.53-1,5.97,7,.02c.47-.62-3.27-7.3-4.25-7.67Z"/>
      <path d="M246.45,610c-.81-.48-7.55-2.33-8-1.99l1.99,3.98-8.43,1.04-1.55-2.02-.02,2.99,13,.99-3.01-1,1.02-2.99c1.64,1.46,8.32,4.73,5.98.5-.19-.34-.91-1.45-.99-1.5,8.25,4.71,13.49,12.13,15.7,21.8,2.8,12.22,1.31,22.83-3.71,34.19l-6.49-4.97c-4.57,2.7,4.59,5.07-.28,6.12l.66,2.69c-2.3.32-2.61,2.08-2.89,4.17l-2.05-.58-1.93-3.41c-1.58,7.01-8.49,8.66-11.99,13.5,1.28,1.64,3.72.74,2.98,3.48-3.1-.44-3.72,2.57-5.25,3.3-12.79,6.08-31.52,6.91-42.74-2.79,5.15.18,10.26,2.27,15.45,2.54,24.27,1.26,51.21-20.9,48.43-46.43-1.01-9.28-6.7-19.14-16.89-19.61.55-5.91,8.99-2.04,11.46,1.04.91,1.13,4.81,6.65,5.49,7.77,2.28,3.8,1.72,9.08,3.06,13.18l.99-9.99,1.99,3.99.02-5.99,2.98,3.99c.54-4.1-.45-7.11-5-7l1.02-2.99-3-1,1.99,9c-.13-.78-3.14-7.34-3.82-8.68-.76-1.51-4.91-8.62-5.71-9.29-3.3-2.72-17.72-4.45-20.47-.04,3.45-.6,7.47,4.83,7.73,7.66,1.05,11.51-23.47,9.33-20.5-7.91,1-5.79,9.49-14.79,10.78-5.74l10-4.01c-1.39-3.52-6.18-.9-8.96-.44-1.05.17-3.27,1.33-3.03-.54,7.09-3.14,14.61-2.11,21.59.93,1.61.7,1.99,1.82,2.4,2.05ZM227.03,623.45c-1.33-1.05-2.71-2.64-4.58-2.45v5s-3.39-.02-3.39-.02c-2.56,2.9,2.83,5.21,5.33,5.57,4.97.72,9.32-2.35,8.05-7.55-1.47-.11-2.97,1.17-4.35,1.06-.69-.06-.67-1.3-1.07-1.61ZM262.44,639c-.66-.85-4.59,2.98-4.73,3.23-.75,1.27-.13,3.28-.25,4.76l3-1.99-.96,1.94,2.95,1.05v-8.99Z"/>
      <path d="M109.44,208l-.99,48.51c.08,3.6-2.86-.1-4.3-.71s-6.59-1.79-6.76-2.41c.8-12.58-1.43-25.89,1.32-38.13l10.74-7.25ZM107.44,227h-2.99s1.99,1.49,1.99,1.49c-2.65,1.67-.88,3.89-1,6.5-3.55.98-1.35-3.38-2-4h-3.99s0,3,0,3l2.99-1.99-1,3.99,4.99,1.01,1-9.99Z"/>
      <path d="M362.45,736c-5.36,1.21-6.73,12.69-6,17-1.11-5.78-1.65-13.46,3.48-18.02,2.12-1.88,1.7.71,2.52,1.02Z"/>
      <path d="M362.45,736c1.97.75,5.67-1.13,7.99,0,.64-2.46-1.05-1.56-1.94-2.8-.38-.53.13-1.98-.06-2.19-.65-.71-7.01,2.83-4-.51,5.65-3.47,17.52-1.04,19.56,5.46.76,2.43,1.67,11.74-1.8,11.85-1.56.05-7.13-.62-6.97-2.54l-1.77.74-.49-2.99c-9.93,5.65-1.83,14.16,6.98,14.99,17.2,1.62,24.11-14.6,22.39-29.4-.92-7.9-5.54-11.35,1.12-19.59-2.34.09-5.23-1.14-5-4.01l3.44,2.96,4.09-1.73c6.37,5.59,9.44,12.88,10.33,21.4.82,7.89.27,15.8-3.88,22.38.2-1.22,1.47-4.66-.51-4.99-2.74-.46-1.72,4.77-4.01,2l.52-5-1.48,1.99c-2.82-1.08,1.41-6.1-1.49-6.99-2.95,4.01-4.69,8.9-3.57,14.05l1.2.85c2.62-.36,6.18-1.69,6.37,2.09h.98c-.7-2.59,1.57-3.3,2.01-3.99-1.13,6.87-7.32,13.29-14,13.99l-.09-4.93-5.9.95c1.42,3.94,4.29,4.17,7,6.48-15.76,10.69-39.02,7.21-43-13.5.05.32,1.29,1.08,1.01,1.99l1.09-1.85c3.88,1.72,1.88-1.39-1.09-2.63,3.1-4.48.47-9.91,4.98-14.51ZM414.44,742.99l-.49-10.98c-2.75,1.79-2.01,3.18-1.5,5.97l-4.99.5,6.98,4.5Z"/>
      <path d="M70.45,452c2.9-3.4,17.3-11.28,21.5-12.01,2.82-.49.37,1.46.68,1.84,4.32.21,1.96,5.98.14,6.18-1.54.18-3.8-1.18-5.86-1.14-1.94.04-.88,2.11-2.92,2.17-1.47.04-5.37-.01-3.54-2.04-3.52-.13-3.51,2.66-.49,3.55.57.17,2.17-.87,2.48-.56,1.72,1.69-1.14,3.66-2.99,3.5,1.07,2.37,3.8.41,3.95.54,2.43,1.99-1.55,7.17-.95,7.97l2-.5c-5.41,12.31-13.95,33.31,1.99,40.99-3.67,4.99-9.5,5.95-14.91,2.92-2.41-1.35-6.66-5.69-3.94-8.27l3.85-.16-2.99-1,2-2.49-1.99-.99,2.02-3.5c1.13-.3,2.61.56,2.98,1.5.4,1.01-2.5-.27-1.99,1.48h4s-1.06-2.42-1.06-2.42l2.1-1.08c-3.51-4.2,1.72-8.26.95-13.49l-2.98,1.01,1.98,1.45-2,5.54c-3.46.61-.78-1.45-1.94-3.29l-3.54-2.71.41,4.59-1.91.91,1.98,2-3.98,1.49-.99-2.99c.12,2.78-.3,5.65.07,8.42.26,1.99,3.28,6.62.93,7.57-3.3-9.26-3.13-21.68,2.49-29.98l2.48,1.97,1.94-2.05c.85-2.43-1.54-2.26-3.3-2.97-2.25,2.07-3.51,4.62-5.19,6.97-4.9,6.87-9.46,15.58-11.57,24.43-3.01,12.65-3.28,29.03,10.13,35.65-2.11,3.31-5.84-2.83-7.49-3.99l-.5,6.98,3.57-.79,2.42,2.78.51-2.99c2.33,2.65,5.83,1.19,7,4.99l5.5-4.01-1.99-3.98c7.72,5.03,3.81,12.46-3.01,16,.11-.04,1.08-1.87,1-1.99l-1.99-2.01,1.99-.5-2.97-2.51-2.51,2.99c-3.54-2.29,1.68-2.72,1.49-3.48-1.13-4.59-6.17-2.84-3.99,1.48h-3.02s0,6,0,6l2.95-.76.55-1.25c.12,2.6,4.65,2.64,6.5,2.01-5.41,2.81-11.16,2.17-16.39-1.12-20.33-12.8-15.18-50.24-5.78-68.55,3.3-6.43,17.13-25.32,24.17-26.33-.29.34-.23,2.11-2,2.6l1,7.41,1.84-.77.65,1.76,1.53-4,1.49.79,1.49-2.77-4.99,2.98c-1.31-3.03-.43-5.19.99-7.98-.65.02-1.36-.1-2,0ZM43.45,522c1.05-.83,1.29-1.38,3-1.01l-1.99-5.98,3.48-1.02-1.47,3.51,2.91,1.59c-.61,2.05-2.15,3.34,1.07,2.91-.85-8.66-2.56-17.31.77-25.57l-2.76-2.41,3.96-.05,3.03-10.96-3.99,2.01-.99-3c-.47,6.55-12.5,12.79-1.95,15.6-.02,2.35.52,5.6-2.05,6.39l.5-5.99-6.4,6.62c.95,6.19-3.13,11.7-.09,18.37.27.2,1.83-1.08,2.99-1-3.66,2.89-3.61,3.21-1.99,7.99,1.69.44.6-1.5,1.11-1.89.56-.43,4.13,1.96,5.39-1.1l-.5,2.99h3.01s1.99-2,1.99-2l-5.99-2,1.99-1.48c-1.35-1.47-2.98-2.36-5-2.5Z"/>
      <path d="M139.31,106.15l-.04,2.09c-4.76,9.05-7.33,19.54-11.34,28.74-1.28,2.94-2.12,6.29-5.47,7.02.16-7.49-8.12-9.79-2.52-16.99,3.25,2.24,2.1,3.46,6.5,1.99l.99,5.99c3.28-6.43-5.48-7.99-1.99-14.99-2.58-.85-1.75,1.2-1.99,1.41-1.42,1.24-1.25.1-.98-.87.66-2.42,8.34-20.51,9.48-20.52l7.36,6.14Z"/>
      <path d="M167.07,375.38c1.81,1.34,3.89,3.56,3.42,6.04-.08.44-3.97.94-2.04,2.57,1.27,1.08,3.43-2.79,5.51-3,2.33-.23,21.77,8.06,22.43,9.08,1.7,2.63-3.2,2.75-.96,4.89l-3.99.56.99-3.53-3.54,1.98c-.92,1.26,2.23,3.37,2.91,4.06.95.95-.64,1.94-.89,1.97-3.31.33-29.76-15.93-35.2-17.78-7.11-2.12-12.56,3.86-19.28,1.76-1.22-1.3,7.75-17.95,11.99-9.48-1.83,5.05-2.37-5.01-5.99.99l2.9-.43c.42,2.21,2,4.12,4.1,2.42v-4.49s1.49,2.01,1.49,2.01l.62-1.8,4.87-.23-9.99-1.98c6.52-2.05,15.19.38,20.62,4.37Z"/>
      <path d="M126.1,390.35c-6.32-5.33-12.98-11.25-15.65-19.34l3.9.13.61,2.88c2.88-.55,4.81-1.25,5.98-4.01,8.66,8.22,7.53,17.73,22.02,17.07,3.8-.18,15.33-5.73,11.73,2.66-2.72,6.33-14.17,8.37-20.27,6.8-4.62-1.19-5.68-3.96-8.32-6.18Z"/>
      <polygon points="90.44 173 80.45 171.99 87.46 143 95.34 149.65 90.44 173"/>
      <path d="M94.45,313c6.08,8.58-2.44,7.41-3.01,16-3.95-2.89-3.83-9.23-4.99-13h8.01c0-1,0-2,0-3Z"/>
      <path d="M86.45,316c-3.6-11.69-7.38-23.66-8.99-36,3.56,2.09,6.64,3.53,10.94,3.05-.38,9.36,6,21.38,6.05,29.95-.44-.62-1.15-1.08-1.01-1.99l-1.48,1.99-3.99-2.99-1.52,5.99ZM89.44,297.99l-1-8.99-5.49,5.99-1.49-1.99,4,16.99c2.09.23.46-3.43.99-4,.65-.7,3.83,2.14,4.97-.5-1.12-2.74-5.68-1.44-6.49-2.48-2.83-3.63,2.04.26,1.52-2.52-5.01-1.87-.67-2.29-.32-2.83.69-1.03-.12-2.3.81-2.69,2.65-1.09.43,3.41,2.48,3Z"/>
      <path d="M90.44,192l-14-.99,2.14-14.87c4.62-.68,9.53.06,13.4,2.81l-1.54,13.05Z"/>
      <path d="M126.46,348c1.96.32,2.24,4.42,4.48,3.99,3.95-.75-2.51-4.01-2.48-4.99,2-.17,4.44,1.83,5.99-.52-.82-4.27-6.94,2.45-7.5-2.49l-1.49.02-.5,1.98c-5.01-5.73-2.64-12.04,1.99-16.99l21.49,35.5c-9.39,6.21-8.31,2.93-13.6-3.38-3.19-3.8-7.46-7.51-8.37-13.11Z"/>
      <path d="M109.77,352.7c.36.52,1.9.83,2.52,1.91,1.24,2.16,6.22,10.14,6.66,11.43.62,1.83-.78,3.99-.51,5.95l-2.49-6.98-3.5,1.97.75-1.8-1.56-.38.81-2.8-3.01,2.99c-1.59.33-2.07-.49-3-1.5-1.94-2.1-7.33-11.66-8.48-14.52-1.6-3.99-4.49-12.49-4.35-16.52.05-1.34,1.18-5.96,2.82-6.46-1.29,5.47-1.4,10.52.02,15.99l1.04-2.99c1.18.82,3.03-.15,3.95.47,1.17.79.21,3.34,2.99,2.52l-1-7-3.99,1v-3c5.01,2.83-.92-5.79-.93-7.49-.02-4.47,9.1-8.97,9.95-3.97.94,5.53-4.46,7.64-4.07,13.94.09,1.54,4.71,16.27,5.36,17.23Z"/>
      <path d="M146.45,543c-3.75-.2-.49,1.52-.99,1.99-2.01,1.89-1.95-2.18-2.51-2l-.62,1.79-3.87.23c.4-3.8.43-4.86-3-6.51l.06-1.44c2.69.23,2.03-1.91,1.95-4.06.16-.26,5.92,3.27,4.99-.99-1.94.04-7.23-.67-7.99,1.5l1.99.99c-4.74,2.96-.08,7.35-3.5,10.49-13.33-11.85,14.64-20.17,15.54-8.39.15,1.9-1.67,1.19-1.9,1.9-.07.21-.12,3.8-.14,4.51,2.61.14,1.78,1.98,3.99,2.02l-2.98,2.97,3.98,1.01-.98-10.99c1.68,0,1.92,3.35,1.99,4.49.36,5.33-.3,10.88-4.51,14.5.47-3.78-.7-3.42-3.49-5.5,4.19-1.36,1.88-4.38,2-8.5Z"/>
      <path d="M49.44,358.98l-11,2.01-.98,5c-.87-10.2,1.65-9.68,10.32-9.89l1.67,2.89Z"/>
      <path d="M316.95,465c.65.33.65.67,0,1v-1Z"/>
      <path d="M121.95,556c.65.33.65.67,0,1v-1Z"/>
      <path d="M333.95,474c.65.33.65.67,0,1v-1Z"/>
      <path d="M332.95,466c.65.33.65.67,0,1v-1Z"/>
    </g>
  </g>
</svg>