<svg width="417" height="773" viewBox="0 0 417 773" fill="none" xmlns="http://www.w3.org/2000/svg">
<path d="M170.452 591.003C169.802 591.083 169.102 590.953 168.452 591.003C168.872 590.503 169.392 589.673 169.452 589.003L170.442 589.513C170.602 589.943 170.362 590.513 170.442 591.003H170.452Z" fill="#E39A01"/>
<path d="M171.452 580.003L170.462 577.013H172.452L172.482 578.963L173.952 578.993C174.442 578.813 174.322 578.133 174.452 578.003C175.652 579.833 175.342 581.153 172.452 581.003C172.372 580.733 171.752 580.283 171.452 580.003Z" fill="#E39A01"/>
<path d="M234.452 22.003C230.432 21.983 226.022 21.713 222.072 22.123C218.332 22.513 200.432 27.013 197.442 28.493C196.572 28.923 184.002 40.983 183.492 41.803C179.812 47.663 179.072 58.293 183.452 63.993C181.542 63.993 172.922 64.533 172.412 62.333V50.643L176.442 50.003V44.003L175.442 47.993C173.312 48.273 173.262 48.063 173.442 45.993L169.952 49.983L167.462 48.003C166.572 51.483 169.662 50.553 170.222 53.693C170.712 56.443 170.402 59.243 170.442 62.003C162.122 57.923 162.162 44.363 167.762 38.313C169.752 36.153 173.952 36.213 174.312 35.873C175.072 35.143 176.772 20.273 185.442 25.013C185.412 23.913 185.122 22.783 186.072 21.913C187.852 20.293 201.112 16.853 204.242 16.293C213.502 14.643 221.552 14.743 230.822 16.123C234.372 16.653 253.262 20.503 251.442 25.003C250.362 24.903 249.372 24.803 249.442 26.003C244.742 24.273 238.662 23.853 234.442 22.003C237.212 22.023 239.242 21.173 241.022 21.093C241.332 21.083 242.472 25.983 245.442 21.013L231.452 18.013L233.442 19.993L230.452 20.013L229.462 17.013L228.452 21.003C230.192 21.203 232.202 20.703 233.862 20.973C234.702 21.103 234.392 21.983 234.442 22.013L234.452 22.003ZM213.462 17.993L212.452 16.493C209.072 22.263 218.322 17.553 219.882 17.513C222.652 17.443 227.212 20.093 228.452 17.003C224.212 17.443 220.132 15.443 215.882 15.903C213.472 16.163 215.262 18.193 213.462 17.993ZM190.442 25.993V24.003H189.462V25.993H190.442ZM195.952 24.003V25.003C196.602 24.673 196.602 24.333 195.952 24.003Z" fill="#E39A01"/>
<path d="M126.452 551.003C126.382 551.363 126.562 551.793 126.452 552.003C125.762 551.933 124.442 552.423 124.442 551.503C124.442 550.593 125.672 551.083 126.452 551.003Z" fill="#E39A01"/>
<path d="M121.452 407.003C119.892 407.083 120.722 405.553 120.452 405.003L121.452 407.003Z" fill="#E39A01"/>
<path d="M120.452 405.003C120.422 404.943 119.282 405.133 119.452 404.003L120.452 405.003Z" fill="#E39A01"/>
<path d="M170.452 527.003C170.592 527.013 171.102 526.213 171.452 526.003L170.452 527.003Z" fill="#E39A01"/>
<path d="M114.452 47.003C120.962 41.413 126.662 32.913 134.542 27.593C161.982 9.01299 193.192 -4.01701 227.812 1.13299C237.492 2.57299 257.002 9.23299 264.412 15.533C269.022 19.453 269.232 19.843 274.512 23.433C278.762 26.323 285.102 35.873 286.442 40.993L283.462 38.003L285.422 44.413C283.142 45.953 281.962 46.923 281.612 49.843C286.642 52.643 289.162 56.403 287.822 62.323C289.702 62.843 287.682 68.003 289.932 66.983C291.832 66.123 290.762 64.693 290.652 63.383C290.252 58.813 288.972 53.933 288.572 49.363C288.472 48.243 287.642 45.773 289.442 46.003C295.262 66.193 292.282 86.773 275.922 100.963C269.012 106.963 267.262 106.303 259.332 108.413C257.512 108.903 257.732 110.543 256.692 110.923C226.282 122.093 189.982 84.363 212.942 56.983C217.812 51.173 219.042 52.293 224.682 49.913C225.622 49.513 225.632 48.293 226.232 48.083C230.082 46.693 235.662 46.553 239.712 47.243C244.822 48.113 254.722 56.153 255.982 60.973C256.882 64.423 256.992 72.063 254.882 74.933C254.652 75.243 249.692 80.203 249.382 80.433C242.562 85.433 229.532 78.633 230.462 69.583C230.762 66.683 233.382 65.683 233.452 63.003C227.992 63.073 221.642 68.543 220.902 73.943C220.382 77.743 222.772 82.293 223.462 85.993C220.462 84.343 214.062 88.793 210.462 89.003L217.962 99.973C220.022 98.963 218.292 96.983 218.912 96.013C219.852 94.553 223.342 94.273 224.452 92.473L222.492 90.943C224.442 88.633 223.912 88.453 223.452 85.983C225.432 87.073 225.612 88.943 226.952 89.983C237.252 98.013 245.992 98.493 258.442 94.993L256.442 96.473C257.562 98.533 257.792 99.463 260.452 98.993C261.412 99.893 255.302 105.553 260.452 104.983L259.852 101.993C262.322 98.823 264.222 101.583 265.922 101.583C268.432 101.583 270.762 98.683 273.362 99.923L273.342 92.093C272.152 91.033 265.902 93.713 266.432 90.483C266.862 88.103 273.702 81.803 276.442 82.993L275.452 80.003L278.442 80.483L274.462 86.993L278.952 84.013C284.992 92.523 285.042 83.183 286.752 80.283C287.122 79.663 288.702 79.563 289.562 77.623C290.852 74.723 290.412 71.073 290.442 67.993C287.712 66.963 286.922 71.563 284.452 68.983C282.422 66.873 286.972 67.413 286.442 66.003L283.412 65.503L280.452 60.003C277.612 59.583 278.612 60.493 278.442 62.473C278.162 65.753 278.482 68.883 279.452 72.003L281.932 70.983L282.442 73.993C278.722 75.013 279.632 71.823 277.462 71.003L276.462 74.993C276.232 69.863 276.762 64.643 276.442 59.503C276.222 56.013 273.362 51.683 275.422 48.673C276.042 47.773 277.812 48.533 277.452 47.003L274.462 46.493L277.362 44.873C274.642 39.483 276.512 39.583 278.462 34.993C276.512 33.093 273.152 41.253 272.972 41.983C271.212 37.853 266.492 38.073 264.952 37.053C259.212 33.233 256.272 28.493 249.472 25.993C250.942 26.193 251.002 26.153 251.472 24.993C255.792 25.373 260.462 26.153 262.972 29.993C264.282 29.443 262.762 26.853 262.182 26.273C260.472 24.553 248.652 18.303 245.822 17.133C233.502 12.053 219.232 11.163 205.982 12.003C200.842 12.333 193.052 16.793 190.962 10.993L190.462 12.983C188.332 11.463 190.232 9.98299 186.482 11.983L187.462 7.98299C185.282 9.85299 180.972 10.633 178.472 8.47299C182.022 6.59299 185.392 9.443 187.462 4.98299L176.462 6.97299L177.492 9.38299C173.042 11.993 175.612 14.833 179.462 10.963L180.472 15.953L177.982 13.963C175.972 14.813 178.222 18.283 175.942 20.923C174.562 22.513 169.812 24.423 167.462 26.443C156.162 36.163 148.932 45.953 144.192 60.173C140.392 71.583 138.542 86.143 140.482 97.953L142.442 96.453C139.302 92.403 143.562 84.233 143.512 79.003C152.792 77.853 152.442 88.623 151.452 94.953L150.452 84.963L147.472 85.973L149.352 87.043L148.452 95.963L145.402 95.433L143.462 98.473L147.452 97.973V105.963C125.912 102.833 125.322 77.793 132.282 61.283C134.872 55.143 145.672 37.473 150.412 33.373C153.372 30.823 155.482 34.653 155.452 31.483C152.112 27.393 149.512 32.953 146.942 34.993C143.152 37.993 136.212 42.993 132.802 46.313C128.122 50.873 123.442 59.593 117.362 62.513C115.682 63.323 115.802 62.103 115.462 61.963L117.452 54.963L113.462 60.963C113.152 60.953 112.482 61.823 111.932 61.853C111.582 61.873 109.772 55.733 109.462 63.963L114.452 62.973C116.282 64.733 106.902 80.563 104.452 81.963C104.922 80.343 105.542 78.703 105.442 76.963C102.612 78.803 101.432 75.643 98.452 75.963L98.9021 82.963L101.412 83.913C101.142 81.183 102.902 82.843 104.442 81.963C99.9521 97.483 88.1821 114.523 82.9421 130.963C67.3721 179.843 61.4221 239.473 68.5821 290.313C73.3521 324.143 88.632 356.813 109.002 383.863L106.442 388.463L108.402 390.393L105.462 392.973L107.462 396.943L108.492 394.013L112.392 393.873L112.932 390.963C118.362 394.133 125.472 398.583 124.892 405.793C133.062 405.303 138.582 412.063 145.132 415.763C170.982 430.373 188.862 433.163 215.442 441.953C211.782 443.093 197.532 438.893 196.122 439.143C194.262 439.473 192.562 443.213 189.452 440.943V443.943C200.852 444.263 212.192 442.933 223.442 444.933C222.482 442.903 218.022 443.633 216.132 442.923C215.242 442.593 215.512 441.963 215.452 441.943L242.442 447.933L209.932 444.953C191.372 444.853 171.902 446.153 154.752 453.753C145.852 457.693 138.682 462.443 135.432 471.933L134.982 467.883L130.442 465.923C129.912 463.503 131.112 464.353 132.472 463.433L129.452 454.943L127.432 461.423L129.432 462.413L126.442 463.433C126.232 466.423 126.522 469.363 127.522 472.173C127.762 472.843 131.172 473.663 128.952 475.923C120.452 466.803 126.792 454.883 134.962 447.933L135.442 449.893C136.242 450.683 142.282 451.413 143.782 452.123C145.422 452.903 147.252 459.173 148.442 450.923H143.442C144.642 448.803 143.252 447.973 142.982 446.903C142.302 444.243 148.722 443.553 150.452 443.913V449.923C153.612 447.983 154.592 451.423 155.932 451.603C157.202 451.773 160.482 449.403 162.452 449.913L160.452 445.933L164.452 445.913C158.742 441.373 163.532 444.333 164.952 440.923L167.452 442.923C167.352 437.723 165.582 438.353 161.472 436.913L163.972 434.923L158.642 433.783L157.472 429.933L160.472 428.933L156.462 429.623C157.152 433.013 152.652 433.673 152.482 433.943C152.132 434.473 153.682 435.223 153.922 436.003C154.512 437.943 152.802 439.693 156.492 439.953L154.992 441.913C152.752 439.153 148.292 439.683 144.952 439.903C135.082 440.543 115.852 450.643 106.822 455.763C103.882 457.433 91.0021 466.753 90.0021 466.953C87.2221 467.503 89.452 462.243 90.0021 460.953C91.5721 457.323 97.2321 450.733 100.182 448.823C101.312 448.093 102.902 448.853 103.022 448.793C103.282 448.673 102.742 445.723 104.022 444.023C105.212 442.443 109.862 441.263 107.972 438.943L97.4721 445.933L99.382 443.283L97.4721 439.953C102.882 441.153 104.732 440.093 109.462 437.933C109.682 436.023 107.512 437.283 106.452 437.423C104.212 437.713 101.892 438.413 99.6721 438.663C98.5721 438.783 96.2621 439.823 96.4721 437.963L117.462 433.963L110.602 436.073L110.492 441.953H113.472C114.002 438.693 108.932 440.643 112.972 436.973L115.362 438.593L114.952 440.953L116.812 441.813L122.472 439.943C122.322 437.953 119.612 440.023 121.282 437.133L118.482 434.963L121.262 434.223C121.862 438.123 125.272 434.883 124.482 431.963L118.502 432.943C118.632 429.013 115.262 427.123 111.492 427.963L112.642 431.803L117.482 432.943C105.072 432.673 93.1021 436.133 81.4921 439.953C82.0721 439.453 82.2621 438.673 83.4821 438.943L81.5121 437.493L83.4921 432.963L72.5021 437.463L78.4921 436.973C75.0721 438.813 76.3921 440.563 76.2421 440.783C75.9021 441.263 73.6221 440.303 74.5021 442.963C76.7521 441.563 78.9921 440.783 81.4921 439.963C75.7521 444.903 67.8321 448.243 61.4821 453.453C33.1521 476.693 24.1321 521.423 40.6121 554.343C46.3521 565.803 54.5321 577.513 67.4321 580.523C69.5521 581.013 71.6621 581.153 73.8321 581.013L75.5021 572.963C78.3521 572.803 82.1021 572.923 83.5021 575.963L80.4321 575.423L79.0021 577.973C76.3521 576.513 80.4421 573.313 76.5021 573.983C75.2921 580.733 77.5921 579.153 80.1121 581.393C81.7721 582.873 83.0921 586.603 85.5121 584.423L86.4921 577.983C89.0421 596.733 69.0421 593.533 58.5221 586.483L61.5021 582.563C65.6221 581.553 65.9121 583.283 64.5021 586.983L61.5121 586.473L67.5021 588.983C68.7121 586.143 68.1521 584.223 65.9221 582.063C59.6421 575.993 58.4721 591.213 54.0221 579.983L51.8021 582.463L52.4821 584.243C68.0321 598.803 102.922 605.583 120.852 592.813C124.482 590.223 126.032 587.603 125.532 582.983C130.362 584.173 134.822 591.653 132.052 596.013C129.282 600.373 127.872 591.243 125.532 591.963L128.532 590.973L127.022 587.983C123.792 590.293 123.842 593.613 125.522 596.973L122.732 597.133C122.222 602.363 122.022 600.033 119.242 601.983C118.582 602.443 118.562 603.583 117.752 603.923C113.702 605.663 107.902 606.153 103.522 605.973C103.452 604.483 107.072 604.233 108.132 604.103C110.262 603.843 112.392 603.983 114.512 603.973L110.512 599.993C111.402 598.983 115.252 601.053 114.512 598.493C113.892 596.333 105.452 601.343 103.502 599.983C102.712 605.003 110.302 597.953 109.512 602.973L101.512 603.993L102.502 611.983L101.502 608.973L98.522 609.993L101.512 612.483V614.983L98.522 615.973L102.542 615.263L104.512 612.983V616.993C105.842 616.303 107.062 616.983 108.012 616.983H122.512L122.442 612.113L119.522 610.983C120.452 617.253 115.832 615.733 111.512 614.983L112.522 611.003L103.522 608.003C119.552 607.213 134.972 604.033 148.842 595.813C153.402 593.113 156.532 587.193 162.512 589.983L161.512 585.473L168.512 586.003V579.003L167.512 583.993L166.512 581.993L163.532 583.993L168.022 576.993C168.502 579.633 171.042 579.563 171.522 579.993L172.522 580.993C173.022 582.713 173.092 586.793 170.532 586.003V586.983L173.522 587.993C171.762 587.343 170.562 588.713 169.522 588.993C168.632 589.233 167.632 589.113 166.992 589.973C168.132 585.393 163.022 589.523 162.542 591.503C165.202 591.043 164.462 592.043 166.022 593.973C166.942 593.043 167.692 591.983 168.522 590.993L168.622 593.893C171.102 595.103 171.502 594.393 173.512 592.993C174.862 594.403 164.162 603.013 162.792 603.763C159.632 605.503 152.932 606.343 150.502 607.633C147.812 609.063 147.532 612.213 144.562 613.523C124.062 622.523 89.7221 618.333 70.0021 608.003L72.522 604.003C70.192 603.863 68.8921 604.913 70.272 602.203L66.0121 597.003C65.7121 600.123 65.3521 603.553 67.5121 605.993C67.0321 605.983 66.4921 606.123 66.0321 605.993C63.2321 605.193 52.3021 595.963 49.5421 593.443C48.3121 592.323 41.6021 585.793 42.5121 585.003C46.222 585.573 51.2621 581.653 48.5121 578.003L52.5021 578.993L50.9621 575.003C46.202 576.203 39.5321 578.953 41.5021 583.993C35.6921 580.403 32.0121 570.513 40.9621 569.933C40.4921 576.333 52.0521 573.643 49.5021 570.993L46.5221 572.003L45.5221 569.003L42.5121 571.983C44.7121 566.843 42.2421 567.423 39.5121 564.003L44.5021 565.993L44.5321 563.503C40.3521 560.783 39.6121 554.623 37.4921 550.003V554.993L32.5221 553.493L34.5221 550.513L32.5021 549.983L34.5021 548.983C35.4321 547.893 27.9521 544.263 29.4921 549.983L27.5121 547.993C27.4621 550.173 25.6821 552.213 28.4921 552.993L29.4921 551.003L30.5121 558.003C34.6921 555.353 36.0321 561.823 33.0221 561.003C32.0721 560.743 33.1921 556.403 28.4521 561.563C28.4521 562.403 32.5721 568.763 29.0221 565.973C27.1321 561.533 23.1621 555.123 22.5021 550.473C22.0421 547.263 24.8121 550.663 25.5021 549.973C24.4721 547.623 24.3721 545.193 26.5021 543.473L23.5121 543.983C24.4121 542.433 18.8221 534.013 23.5021 536.983L24.5021 530.983C17.6621 532.593 20.7521 537.183 21.4021 541.593C21.5521 542.633 22.2421 545.233 20.5121 544.973C16.4421 526.453 18.1021 507.063 23.5121 488.983C26.1621 489.303 23.0121 494.113 23.5121 494.973L30.0021 496.953L32.4921 493.973L33.4921 497.963C33.3521 493.083 37.362 489.653 35.5121 484.963L37.4921 485.973V479.733C36.1321 476.823 29.6421 479.693 32.5121 475.973L28.5221 477.483C30.6621 473.563 32.3221 469.663 36.5721 467.533C38.1221 466.753 40.1021 467.173 41.5021 466.463C43.0521 465.683 43.3221 463.283 44.5521 462.453C45.6421 461.713 47.6221 463.333 48.5021 461.463L45.5521 460.483C47.9321 455.913 44.6821 456.193 44.5221 455.953C43.4721 454.403 56.5721 444.543 58.3721 443.333C76.772 431.073 102.942 424.753 124.992 426.973C130.202 427.493 135.662 430.013 141.122 430.843C145.742 431.553 150.842 431.013 155.502 431.953L121.492 414.473C119.402 412.133 120.612 409.433 121.502 406.953C121.702 406.383 123.192 405.343 123.482 404.443L119.992 401.953C119.012 401.913 119.682 403.353 119.502 403.943C118.752 406.383 119.922 412.573 117.032 411.933C111.062 406.783 104.362 402.573 98.0021 397.943C94.9421 395.713 93.802 394.533 89.952 391.993C83.4221 387.683 82.7521 385.783 78.2421 381.203C77.6421 380.593 71.6021 379.073 69.8321 378.113C60.4421 373.033 51.7321 365.953 40.4021 365.473L39.5021 361.953H45.5021L42.5121 363.933L49.5021 365.953C48.7321 361.383 53.9021 359.853 52.4621 354.983L41.5121 353.953C46.8921 349.063 67.4321 360.013 68.202 364.413C69.3521 370.983 58.4521 362.843 56.9921 362.973L55.5721 368.863C59.2021 372.113 65.4621 364.873 65.5121 369.933H66.4921C66.312 367.863 66.372 367.663 68.4921 367.943L69.9921 373.943C73.2221 371.683 67.2221 367.683 68.9921 364.953C71.512 367.733 74.5221 370.133 77.0421 372.903C79.4521 375.543 81.4921 378.153 84.0721 380.893C87.1121 384.133 83.8521 385.973 91.9721 385.993C93.0921 385.993 94.7621 386.553 94.4821 384.963C93.0121 384.883 91.9621 383.933 90.9421 382.993C88.1921 380.453 73.8721 366.493 73.4721 364.463C73.3621 363.903 73.2221 362.813 73.9821 362.953L76.5021 366.943L79.4621 364.953C79.382 368.223 83.3721 368.633 85.8221 368.003C86.2821 367.883 90.6921 361.193 89.4421 359.993L82.0721 359.763L80.3921 356.033C78.312 355.313 75.9321 357.153 74.1121 356.993C73.5721 356.943 71.0521 350.653 66.9721 356.933C64.9721 356.263 64.7721 352.563 64.2621 352.163C63.5321 351.593 61.5921 352.273 59.9721 350.963C55.3021 347.173 48.7621 335.023 41.4921 329.433C38.9221 327.453 33.7221 325.823 32.4721 323.953C33.8121 324.333 39.9521 326.243 40.4121 325.903C39.7121 322.863 44.5521 320.803 44.4721 320.453C43.7521 317.363 40.7321 321.303 40.4821 320.943L41.4721 316.953H38.4821L38.0121 320.993C34.2521 321.113 34.562 323.443 31.4721 321.953C31.2921 322.113 32.1621 323.483 32.4721 323.943C27.7521 322.603 23.4321 320.073 18.4821 319.933C18.4821 318.193 22.8421 318.843 24.0221 318.893C26.6421 319.013 28.9321 319.643 31.4821 319.933L30.4721 317.943L32.9821 316.993L33.4521 314.963C31.3621 314.933 30.8521 312.863 29.2221 311.703C28.5721 311.243 25.7021 309.913 26.9621 311.943L29.9621 314.943C28.3121 314.713 21.2421 311.003 20.4821 311.933C18.8321 313.953 21.9121 313.883 22.6721 314.183C25.1621 315.173 29.1921 315.333 30.4721 317.933C26.6921 317.933 23.7821 315.013 19.9421 314.893C15.8221 314.753 13.9721 316.973 10.4721 317.923C11.2021 315.803 13.4021 314.793 15.4821 314.923L14.4621 310.943L12.9821 313.933L9.56205 311.793L10.4721 307.943C5.99205 309.713 2.21205 314.663 1.45205 319.423C1.31205 320.313 0.772051 324.173 2.46205 323.943L2.58205 319.403L5.46205 318.933C5.86205 317.203 3.96205 318.303 3.58205 317.833C3.28205 317.453 4.77205 315.983 4.47205 314.943L8.36205 318.573C9.21205 321.063 5.89205 324.313 5.51205 327.543C5.19205 330.343 6.37205 332.363 5.95205 334.923C-3.59795 326.043 -1.32795 312.083 10.4121 306.393C28.722 297.513 46.9321 305.213 58.2821 320.603C60.222 323.233 70.0321 339.043 68.4121 340.883C66.8521 339.933 60.882 344.263 61.4621 344.903C64.232 345.543 62.912 347.733 66.452 345.933L65.4321 347.923L73.3221 348.123C72.8021 351.573 76.2421 351.193 78.4321 352.933C74.5921 344.683 69.9321 336.743 66.6721 328.203C55.8521 299.793 52.882 267.833 45.4421 238.413C45.292 236.093 45.812 235.813 46.6721 238.183C47.7521 241.163 47.9221 244.233 48.7421 247.143C49.0321 248.173 48.9921 250.163 50.4221 249.933L49.4221 244.943L52.4921 244.393L51.4121 229.933C49.8421 230.073 50.1221 234.483 50.0321 235.823C49.9621 236.903 50.3621 237.873 50.4121 238.923L47.5121 237.843C49.9021 233.413 44.9721 233.213 44.3821 230.413C43.6221 226.813 51.2821 220.253 49.4021 214.933C47.3121 214.743 48.9321 218.043 48.4021 218.943C48.2221 219.243 44.0421 217.073 44.4021 222.933L40.4221 216.933V223.923C38.022 215.463 31.1321 200.323 21.7021 198.143C19.6821 197.673 17.1621 197.653 15.1521 198.173C13.8121 198.523 8.97205 203.283 9.42205 199.453C10.1921 193.003 13.4121 194.663 15.1421 192.643C15.7921 191.893 15.5021 190.053 16.8321 188.853C20.3621 185.673 27.7521 185.503 32.2221 186.603C53.6221 191.843 51.0821 234.383 55.4021 251.413C55.7521 252.803 55.3921 254.533 57.3921 254.913C56.2221 227.783 53.3621 201.833 57.7121 174.723C62.7621 143.283 74.6621 110.713 89.9021 82.913L89.4021 86.903L92.382 85.903L90.3921 89.893C96.9721 89.363 91.5721 83.063 92.3921 81.893L94.3921 82.383C93.7821 77.573 96.472 68.563 102.342 73.883L105.362 68.933C102.682 69.013 102.602 66.943 103.372 64.913L100.392 64.423C101.942 60.683 107.852 58.303 109.432 55.463C111.822 51.173 109.282 51.293 114.382 46.913V49.913L117.372 47.903V46.933L114.382 46.923L114.452 47.003ZM207.442 2.00299C203.802 2.05299 199.342 1.89299 195.842 2.86299C194.152 3.33299 192.962 2.08299 193.452 4.99299L202.862 2.93299L205.442 5.99299L204.972 2.97299L207.452 1.99299L207.442 2.00299ZM233.452 3.00299L218.452 2.01299C219.322 7.06299 222.492 3.54299 225.902 3.51299C228.062 3.49299 231.022 3.95299 232.972 4.98299L233.452 3.00299ZM234.432 6.00299H232.452L233.442 8.99299C231.522 7.93299 230.432 9.79299 228.902 9.91299C226.592 10.093 222.662 7.85299 221.452 10.993L235.442 11.993L232.452 10.993L235.452 10.003L234.432 6.01299V6.00299ZM252.062 10.433C247.942 7.54299 245.372 7.30299 242.452 11.993L247.452 13.993L242.462 14.993L250.452 17.013L251.442 14.013L252.942 19.003C255.772 16.083 255.052 12.533 252.072 10.443L252.062 10.433ZM174.442 11.013C173.312 12.563 166.392 8.31299 166.462 11.503C166.502 13.193 169.402 12.813 170.432 12.003L169.582 14.873L172.932 18.003L174.432 11.013H174.442ZM271.652 28.723C271.532 28.673 271.032 25.033 269.932 27.993C269.362 29.513 269.622 30.213 270.332 31.573L268.462 32.013C271.902 34.553 272.752 36.463 267.472 34.983L267.962 30.023L264.442 33.523C266.852 36.573 270.572 36.933 275.272 35.833L276.452 29.013C274.832 28.923 273.222 29.433 271.652 28.723ZM238.452 65.993C237.212 62.183 234.402 60.373 230.462 60.003L234.462 62.003L231.452 70.993C233.292 72.963 235.542 64.763 235.462 64.013L238.452 65.993ZM210.452 66.993L212.442 61.003C209.352 62.833 208.482 67.663 208.462 70.993L215.452 65.493L210.462 66.993H210.452ZM140.442 70.993L138.952 64.003L139.452 66.993C135.932 65.963 134.602 66.453 131.462 68.023L131.962 70.013L135.442 68.003L136.462 74.003L139.452 72.993L137.472 69.493L138.952 68.003L140.432 70.993H140.442ZM138.452 92.003V77.503C138.452 76.953 140.922 74.013 138.462 74.013C136.852 76.253 137.712 79.933 137.382 81.363C137.292 81.753 133.272 84.023 134.442 87.013L130.452 86.513L130.472 90.003L133.462 88.003L134.452 91.003L135.962 88.033L138.462 92.013L138.452 92.003ZM219.442 76.003L213.462 77.013L215.452 78.493L211.462 84.003L218.322 82.893L218.962 80.013L220.452 82.003L219.452 76.013L219.442 76.003ZM253.452 98.003H238.952C238.402 98.003 235.462 95.533 235.462 97.993C239.182 99.773 241.432 99.783 245.452 99.013L243.452 101.013L244.952 102.983L250.442 99.003L250.502 103.883C251.902 104.263 253.532 105.143 254.972 105.053C258.722 104.813 257.252 97.133 254.972 102.993C252.982 101.423 252.092 100.403 253.472 97.993L253.452 98.003ZM84.4421 99.003C81.7721 98.493 82.702 99.593 82.0021 101.003C81.4121 102.183 78.8521 108.213 79.452 108.993L86.4421 105.973L85.4321 102.983L82.452 103.993L84.4421 99.003ZM76.4221 142.993L76.952 138.953C75.9921 136.763 72.5721 137.413 71.4221 136.533C69.9621 135.423 71.3521 132.823 69.4721 133.013C67.8221 136.553 68.1021 140.313 72.452 140.993L71.452 138.013C73.9921 137.363 73.0721 139.633 75.4621 140.513L73.4621 142.993H76.4221ZM71.7921 145.653C71.382 145.363 71.3621 144.543 71.4321 144.013L67.4721 147.493C70.5321 150.133 71.882 154.293 76.452 151.993C76.812 147.293 74.0121 147.203 71.8021 145.653H71.7921ZM70.4421 167.003L66.4721 164.013L65.8021 166.053L61.0421 165.913L60.4621 170.003L61.4621 166.993C65.4021 167.953 69.062 166.993 72.452 170.013L70.952 164.023L70.452 167.013L70.4421 167.003ZM64.4421 171.003L61.8721 173.043L59.4521 171.993C59.5021 175.483 56.5521 180.953 58.9621 183.993L64.4421 171.003ZM67.4421 199.993C67.0521 193.863 71.1121 185.363 67.952 180.003L68.452 184.993L62.4421 184.563L62.4721 188.983L65.452 185.993C64.9921 187.913 67.0221 189.523 67.2621 190.773C67.7521 193.253 63.482 197.703 67.452 199.983L67.4421 199.993ZM23.9521 189.003V190.003C24.6021 189.673 24.6021 189.333 23.9521 189.003ZM60.4421 193.003L57.4621 190.013L56.4621 206.013L63.4421 204.503C58.3521 203.433 55.7321 203.343 57.6521 196.703C58.5621 193.563 61.1621 195.023 61.3021 194.843C62.1821 193.763 63.7621 188.753 59.9521 189.993C58.7121 190.393 60.8021 191.973 60.4421 192.993V193.003ZM40.4421 197.003L40.0121 192.923L34.4621 192.013C32.6221 197.343 35.2121 194.753 36.8521 195.273C38.2821 195.723 38.3921 199.083 41.4521 198.013L40.4421 201.003L43.4721 197.503L40.4221 197.003H40.4421ZM62.4421 209.003H56.4521C56.7521 212.063 56.0221 215.613 56.3621 218.563C56.4821 219.613 59.1021 221.213 58.6621 223.843L61.4521 224.013L60.6721 225.503L62.4321 226.023C62.3621 228.433 58.0921 227.253 57.5221 228.083L57.4521 235.003C59.5721 234.803 59.1921 231.333 58.5021 230.073L62.4421 229.013C62.362 230.903 61.2421 232.603 61.3221 234.543C61.3921 236.403 63.2021 235.813 63.2721 236.483C63.4121 237.793 62.3421 240.953 63.4421 243.023L61.4621 244.013L63.4421 245.003L61.3621 245.613L63.4321 251.553L61.4521 253.003L64.4421 253.023C64.6821 243.863 64.1521 234.643 64.4021 225.473C64.4721 222.813 65.802 220.053 65.562 217.503C65.3921 215.763 60.3521 213.863 62.4421 209.013V209.003ZM65.452 261.993L62.9521 254.023C61.9621 254.013 62.3921 258.133 58.9321 259.013L58.4121 257.063L56.4721 257.023L54.4321 259.563C53.6821 264.953 60.9021 263.093 62.9621 259.993L65.452 261.983V261.993ZM64.1721 269.713C64.3321 269.323 65.732 263.313 63.9421 263.013L63.4521 265.993L56.4621 266.013L62.4521 268.503C60.8821 268.803 59.4121 270.773 60.4621 271.993C61.2421 272.893 64.092 269.903 64.1721 269.703V269.713ZM63.4521 281.013H60.4421C61.4121 282.383 60.2321 284.173 60.4721 285.283C60.9321 287.343 67.1721 288.743 66.4321 290.493C65.3921 292.953 62.5521 290.833 62.4421 291.003C61.3921 295.493 61.9221 301.403 66.9421 297.013L68.4321 299.003C68.2521 296.283 68.2921 291.153 67.4121 288.773C67.2621 288.373 63.3421 284.493 62.7521 282.813L63.4421 281.013H63.4521ZM52.7821 317.653C51.702 316.693 51.8121 314.423 49.4521 315.013C48.8121 318.063 51.8221 316.183 51.9621 319.463C52.0121 320.553 51.312 321.823 51.4421 323.013L49.4521 324.003L55.3421 323.903C57.0421 319.103 55.4021 319.983 52.7821 317.653ZM51.1721 332.713C51.3721 332.513 53.4721 327.863 53.4121 327.583L48.4421 325.013L51.4321 329.003C42.8021 326.013 46.5221 337.263 51.1621 332.713H51.1721ZM81.4421 338.003L72.452 337.003C72.312 341.563 77.5721 342.713 76.452 346.993C80.7521 346.883 81.0421 341.253 81.4421 337.993V338.003ZM166.072 428.443C164.172 427.363 162.772 425.793 161.442 428.993L165.452 429.513C164.632 431.353 163.952 432.653 165.942 433.993C167.082 428.963 169.792 434.293 169.322 434.893C168.952 435.353 167.042 434.263 167.442 435.993L169.502 436.573L168.442 441.003H171.432L170.442 432.013L175.432 432.513C173.942 429.603 167.582 430.223 166.692 429.783C166.392 429.633 166.352 428.613 166.062 428.453L166.072 428.443ZM91.4321 431.013L84.452 433.513C86.3221 434.323 86.812 434.753 86.452 437.003L92.022 435.053L91.4221 431.003L91.4321 431.013ZM178.442 436.003C176.012 436.973 175.402 436.403 173.462 435.003C175.912 441.963 174.082 442.613 169.452 446.993L178.452 445.993L176.422 442.503L178.462 441.523L176.442 438.483C177.942 437.553 178.962 438.593 178.442 436.003ZM186.442 435.013C184.662 434.743 182.932 435.073 182.452 436.993C183.752 437.403 187.482 435.493 186.442 435.013ZM112.432 448.993C107.642 444.513 106.662 449.773 106.452 453.993C110.912 454.773 110.222 450.253 110.462 450.013C110.752 449.723 116.682 450.993 118.452 448.983L112.902 447.153L112.442 448.983L112.432 448.993ZM134.452 460.013C139.472 460.353 140.082 455.293 135.452 455.013C136.792 458.223 135.942 459.793 132.462 458.003C131.072 459.573 136.482 465.923 136.952 465.983C138.322 466.173 138.202 463.413 137.502 462.563C136.382 461.193 133.702 463.243 134.452 460.013ZM23.3621 506.073C19.0421 503.353 21.1821 509.083 20.9621 510.503C20.5021 513.473 17.0421 517.143 21.4521 520.513L19.4621 523.993L21.4421 522.003C20.3521 525.923 24.3921 527.683 27.8021 528.043L29.4521 525.013C27.4121 524.773 25.5021 524.423 25.3221 522.133L22.4521 522.983C28.4921 517.233 24.8221 517.093 23.7821 512.313C23.5521 511.273 24.8121 506.983 23.3621 506.063V506.073ZM99.4421 601.013L74.452 598.013V602.003C76.082 602.263 75.0721 600.273 76.6821 599.663C78.2821 599.063 80.6721 600.273 82.4421 600.013C82.6421 603.643 78.5721 604.613 77.8721 606.003C77.3521 607.053 78.482 608.593 78.2421 608.883C77.8621 609.353 76.0421 608.273 76.4421 609.983L79.8521 611.073L81.4221 609.003C80.562 612.983 83.8221 612.293 86.9221 613.013C88.632 611.253 84.7521 612.793 85.4321 611.003L87.4321 610.983L85.6821 609.833L85.6121 607.153L90.952 605.123C91.6821 605.323 90.8921 608.013 93.4221 606.973V601.973C93.6521 601.743 99.272 603.543 99.4221 600.993L99.4421 601.013ZM130.462 606.993L130.032 605.083L121.452 607.013L127.442 608.013L123.382 612.613L124.612 615.833L131.522 615.573L132.452 612.003L134.552 614.893L139.452 613.993L139.432 611.003L136.442 612.993L138.952 607.983C138.652 604.123 133.892 608.523 131.452 605.003L130.452 606.993H130.462Z" fill="#E39A01"/>
<path d="M174.452 519.003C171.812 517.963 169.082 517.113 166.472 516.003L163.452 522.003L167.442 523.023L168.442 520.013C168.332 521.193 168.832 522.063 169.452 523.003C169.212 523.703 168.362 524.373 168.652 525.373C168.812 526.043 169.852 526.963 170.452 527.003C170.442 527.673 170.472 528.333 170.452 529.003C168.312 527.803 166.322 526.993 164.452 526.003H165.942L167.452 524.013H164.462V526.003C158.652 522.923 152.752 518.593 145.922 518.383C134.322 518.023 120.192 526.573 124.142 539.843C125.042 542.863 128.362 546.793 129.452 549.523C130.322 551.703 127.632 550.883 126.462 551.003C126.632 550.123 126.372 548.963 126.452 548.013L123.462 549.993L125.452 545.003L122.472 547.003C123.702 544.933 119.942 539.383 118.472 541.013C116.462 543.233 121.522 543.923 120.462 546.003H116.942C117.352 547.883 116.092 550.893 116.562 552.333C117.012 553.743 119.042 553.953 119.882 555.003C120.342 555.573 119.782 557.473 120.472 558.003C114.652 554.013 112.422 552.223 110.172 544.803C100.552 513.073 135.892 497.323 162.152 507.823C166.882 509.713 175.142 513.273 174.472 519.003H174.452ZM133.442 512.013L124.452 510.003C125.032 514.083 125.742 518.113 125.452 521.983C127.332 523.633 129.292 514.373 132.442 516.993L131.532 514.423C131.492 513.813 134.572 514.463 133.442 512.003V512.013ZM117.772 532.283C117.112 533.593 117.332 535.233 116.592 536.543C120.452 541.883 123.992 527.673 123.432 527.003C119.822 527.533 120.552 529.833 119.762 531.003C119.352 531.613 118.032 531.773 117.772 532.283Z" fill="#E39A01"/>
<path d="M125.452 555.003C127.542 556.013 129.482 556.263 131.792 556.053L135.442 551.003C135.412 557.753 142.672 554.163 146.442 558.023C141.052 564.983 129.932 563.933 122.702 560.213C121.392 559.543 120.992 558.373 120.452 558.003C120.682 558.183 125.622 559.983 125.912 559.973L126.452 559.003L127.432 558.503L126.452 558.003H123.462L123.472 556.033C124.352 556.053 124.862 555.333 125.452 555.003Z" fill="#E39A01"/>
<path d="M115.452 62.003C114.742 61.733 113.912 61.803 113.452 61.003C114.332 61.033 115.512 60.793 115.452 62.003Z" fill="#E39A01"/>
<path d="M126.452 552.003C128.682 552.233 129.942 551.063 129.462 553.993C127.672 553.633 126.862 554.223 125.452 555.003C124.602 554.593 123.502 554.083 123.452 553.013C124.542 552.993 125.852 553.113 126.452 552.003Z" fill="#E39A01"/>
<path d="M126.452 559.003C125.522 559.423 125.522 557.583 126.452 558.003C126.502 558.023 126.502 558.983 126.452 559.003Z" fill="#E39A01"/>
<path d="M184.452 530.003C183.972 529.673 183.282 529.593 182.932 529.013C181.342 528.783 181.252 528.943 181.432 530.503C181.882 534.373 184.572 532.973 184.432 535.993L180.932 535.153L179.872 537.023L175.452 535.993L177.442 537.483L175.452 543.973L178.942 538.983L181.462 543.973C182.112 544.473 183.982 540.283 185.982 542.973L187.442 548.963C187.352 543.003 186.172 535.693 184.452 529.963C189.922 533.683 189.402 557.553 188.192 564.203C186.092 575.843 182.232 584.523 172.452 590.963L171.732 589.413L173.302 589.743C173.802 589.373 173.272 588.243 173.452 587.963C174.952 585.643 177.232 584.113 175.432 580.973H178.462L177.642 579.093L179.442 577.973C177.552 578.123 176.102 578.113 176.432 575.973C175.752 575.443 174.872 577.533 174.452 577.963C173.432 576.413 171.892 575.503 172.462 572.973L173.882 574.883L177.442 572.983L174.952 570.953L173.952 572.963C170.102 569.023 174.052 563.823 174.452 559.473C175.632 546.853 170.162 538.553 170.442 528.963C170.712 529.113 171.882 528.543 172.282 529.123L172.452 531.963L174.952 529.983L176.432 532.963C178.302 528.293 174.242 529.333 171.442 525.963C170.982 525.403 169.982 523.783 169.442 522.963C169.602 522.473 169.302 521.583 169.442 520.953L172.852 521.843C174.282 521.333 174.292 520.213 174.442 518.963C175.122 519.233 176.442 518.943 177.462 519.403C181.282 521.123 183.322 526.263 184.442 529.963L184.452 530.003ZM178.942 530.023C177.952 530.723 179.482 531.393 179.962 531.983C180.952 531.323 179.492 530.663 178.942 530.023ZM176.462 548.003L175.462 546.003C177.192 548.983 174.962 558.553 175.552 560.383C176.022 561.843 178.442 561.683 178.502 562.573C175.782 567.843 179.532 564.263 180.952 567.993C184.172 562.883 189.122 560.703 187.442 554.003L186.452 557.003L182.972 555.003L182.432 558.503L180.462 558.993L180.292 556.163L177.452 555.993V554.003L179.462 553.493C179.992 550.623 177.652 553.273 177.452 553.003C175.802 550.743 179.602 551.173 179.452 550.493L177.442 549.493C180.612 545.413 180.252 552.233 184.432 549.493C181.342 547.083 179.792 544.593 176.442 547.993L176.462 548.003ZM176.952 571.003V572.003C177.602 571.673 177.602 571.333 176.952 571.003Z" fill="#E39A01"/>
<path d="M172.452 591.003C172.082 591.243 171.132 593.603 170.462 593.003C170.372 592.353 170.562 591.613 170.462 591.003C171.112 590.923 171.812 591.053 172.462 591.003H172.452Z" fill="#E39A01"/>
<path d="M333.452 469.003C332.972 469.743 332.252 470.543 332.462 471.493L333.452 472.003L332.022 472.973C331.142 472.923 330.582 472.013 330.452 472.003C332.462 469.903 330.382 470.083 333.452 469.003Z" fill="#E39A01"/>
<path d="M330.452 472.003C329.802 471.983 329.102 471.953 328.452 472.003C328.492 471.673 328.422 471.333 328.452 471.003L329.452 470.003C329.842 470.593 330.712 470.933 330.452 472.003Z" fill="#E39A01"/>
<path d="M334.452 469.003C334.382 469.143 333.542 468.863 333.452 469.003C333.502 468.983 333.312 468.063 333.952 468.023L334.452 469.003Z" fill="#E39A01"/>
<path d="M260.452 471.003C257.622 472.313 257.272 469.013 256.832 468.953C250.032 468.013 239.082 477.673 243.452 484.993C234.862 483.243 232.802 472.243 235.462 465.013C237.642 465.863 237.192 470.333 240.442 466.503L237.452 465.513C239.702 464.693 239.992 460.943 240.752 460.253C241.242 459.813 242.662 460.203 243.132 459.763C243.762 459.163 243.532 457.453 244.422 456.523C249.152 451.543 262.842 455.403 268.952 455.023C270.962 454.893 271.852 455.783 271.432 453.013C266.812 454.743 261.082 450.333 256.222 448.723C242.172 444.083 218.122 439.953 206.142 433.803C205.522 433.483 204.002 432.603 204.432 432.023C207.332 432.213 210.142 428.693 212.192 428.193C214.872 427.543 228.102 431.903 232.212 432.733C235.702 433.443 241.712 433.083 244.792 434.163C246.652 434.823 245.722 437.173 247.412 436.993L249.422 434.983C246.702 433.283 248.672 430.183 248.452 430.013C247.862 429.563 245.122 430.983 245.442 429.023L250.432 427.023L244.372 427.443L243.442 432.023C240.902 433.033 229.072 428.013 230.882 425.003C238.012 419.083 250.142 420.463 258.662 422.293C262.472 423.113 276.902 428.263 279.392 430.563C282.712 433.623 280.782 439.023 281.582 439.883C282.192 440.543 286.352 439.633 285.452 444.013C288.812 444.443 288.112 440.163 288.772 437.993C288.952 437.413 287.982 435.983 289.922 437.013C290.692 437.423 297.212 442.973 297.432 443.513L294.632 447.723C294.272 450.063 301.642 452.733 302.432 452.003C304.922 449.713 295.842 446.683 300.922 446.013L311.432 455.003C311.092 448.143 304.792 443.843 299.922 440.023C275.262 420.623 236.612 403.723 204.992 412.073C200.292 413.313 195.342 417.413 190.582 414.863C189.922 413.823 190.442 409.363 190.862 407.913C191.482 405.773 193.142 406.043 193.852 404.983C194.732 403.683 194.132 401.673 195.432 400.513C197.492 398.673 207.782 397.013 210.902 396.953C216.912 396.853 243.612 401.743 247.792 404.923C248.362 405.363 250.902 412.153 253.672 413.763C255.542 414.843 259.812 413.393 261.872 413.953C262.322 414.073 264.302 421.073 268.432 418.523L266.442 416.033L269.852 414.943L271.432 417.013L270.922 413.003L268.442 414.023V409.023H271.432C269.302 412.743 272.982 411.333 272.452 415.013L274.452 409.023L276.332 410.503L274.442 418.013L276.922 416.013C278.292 417.153 279.322 418.103 281.142 417.303C288.782 413.953 274.042 407.283 270.962 405.963L269.852 408.043L267.442 407.003C267.612 408.413 266.972 411.453 264.952 411.013L258.442 404.513L261.442 404.003L259.942 402.033C258.142 406.433 252.042 408.253 252.492 402.483C252.712 399.633 256.522 399.693 252.372 398.453L253.432 396.023L248.972 397.013L247.922 396.003C249.182 392.933 245.012 393.113 242.432 393.013L246.432 395.013L246.302 398.383L243.992 399.993C233.902 395.973 222.832 395.153 212.742 391.193C190.522 382.483 165.932 366.073 148.852 350.083C145.462 346.913 141.822 340.783 142.422 336.013L157.932 346.993L158.412 340.993L156.422 340.003L163.402 342.003L162.382 338.013L160.472 338.943L159.412 336.003L163.402 336.503L157.412 335.003L159.412 338.983L154.912 337.013L153.522 339.353L155.402 342.993C144.272 332.813 139.182 309.563 151.472 298.553C155.682 294.783 165.102 291.203 169.412 295.973C165.732 296.633 163.362 300.963 162.132 304.203C156.152 319.983 165.272 336.703 175.392 348.513C206.122 384.373 255.372 389.113 291.792 417.163C296.482 420.773 299.252 424.853 303.372 428.543C304.742 429.773 307.362 430.083 307.962 430.983C308.722 432.133 308.102 434.433 308.532 434.883C308.852 435.223 311.382 434.783 313.022 435.933C315.522 437.683 322.622 446.233 324.862 449.043C332.622 458.763 339.742 470.133 344.442 481.493L342.442 480.993L343.442 484.003L340.442 485.003L341.282 481.133C337.642 480.263 340.582 476.953 335.432 476.993L337.422 472.003L335.922 472.633L336.062 471.243C335.642 470.863 334.982 470.973 334.432 471.013C334.632 470.723 334.232 469.293 334.432 469.013C334.502 468.913 337.162 469.583 336.422 467.533C334.952 466.453 334.212 463.883 332.972 462.923C331.722 461.953 329.542 463.503 328.442 461.513L331.432 460.523L326.452 454.023L327.502 458.453L325.532 459.073L325.462 460.993L329.422 464.513L325.452 467.003C329.152 466.363 328.262 468.193 329.442 470.013L328.442 471.013L325.442 469.503C323.312 470.773 325.882 471.743 326.442 473.013C326.652 473.493 326.222 474.613 326.442 475.013C322.082 471.723 317.382 469.303 318.962 463.043C315.602 465.883 313.852 461.683 313.122 461.363C300.272 455.763 290.232 446.953 277.122 440.843C274.062 439.413 268.172 438.223 266.092 437.063C264.432 436.143 267.942 433.053 259.962 434.013C259.092 433.993 259.292 436.153 259.462 436.513C259.942 437.553 277.162 443.743 280.482 445.493C282.952 446.803 286.622 448.713 288.842 450.173C291.282 451.773 294.792 457.373 298.452 457.023L294.452 459.023C295.642 461.433 297.922 464.303 296.472 467.003C300.852 469.343 300.492 464.823 301.612 464.153C304.602 462.383 319.412 475.213 321.982 477.993C324.102 480.293 331.822 490.413 330.452 493.013L326.522 493.063C326.262 495.273 326.052 498.313 328.452 499.003L331.462 495.013L331.442 499.993L333.272 497.773C330.942 488.033 337.812 502.383 338.662 504.313C345.492 519.873 350.232 534.763 351.512 552.473L350.972 557.023L350.462 552.013L345.472 553.023L349.462 554.013L347.472 560.003H353.462C353.272 554.013 351.832 548.063 352.472 542.013C354.542 542.263 353.062 546.173 353.512 548.303C353.612 548.763 358.632 555.263 360.472 554.013C360.302 551.693 359.882 549.663 357.492 550.453L356.482 547.023L360.442 547.543L359.472 540.033C355.622 539.443 358.742 541.763 358.262 542.903C358.192 543.073 357.002 542.943 356.772 543.543C356.362 544.603 356.332 546.713 355.472 548.023C352.542 547.123 355.952 539.603 355.472 539.033C352.952 540.093 352.742 539.573 352.482 542.033L351.452 541.443C350.432 525.163 344.762 508.573 337.172 494.793C335.772 492.253 334.262 489.773 332.652 487.353L337.002 482.053L340.172 486.053L346.472 484.033C347.992 487.713 349.272 491.223 350.492 495.033C349.922 494.233 349.402 492.873 348.502 493.043C348.392 495.763 349.832 498.193 350.272 500.793C351.212 506.273 351.372 505.993 353.092 511.303C356.732 522.513 351.362 515.993 350.492 517.043V522.043L357.472 523.033V520.033L354.492 521.033C353.522 518.113 356.952 519.813 356.512 517.553C355.162 510.653 352.632 501.783 350.482 495.033C362.422 511.753 362.052 560.943 359.342 581.393C358.292 589.293 352.102 621.933 346.482 626.033C346.762 624.693 346.652 623.303 347.492 622.043L344.972 621.023C343.802 623.733 341.862 624.553 339.002 625.053L338.482 620.043C337.642 619.683 336.532 621.803 336.492 622.043C343.652 601.433 345.422 577.253 342.372 555.663C341.192 547.263 337.722 539.423 336.492 531.053L339.572 531.643C339.852 536.403 344.902 541.013 343.482 545.043C344.512 546.163 352.012 539.623 347.022 534.963C346.322 534.313 344.672 535.013 344.012 534.093C342.462 531.923 339.412 521.183 337.662 517.383C331.802 504.653 326.362 498.003 315.402 489.593C314.902 489.203 313.412 483.843 312.492 488.543C315.332 490.153 315.872 493.533 317.552 495.493C318.612 496.733 321.022 497.703 322.512 499.533C325.632 503.333 338.192 519.913 338.472 523.623C338.592 525.193 337.622 526.563 337.472 528.063C335.762 528.103 334.192 527.223 333.042 526.003C329.772 522.533 325.412 513.423 321.452 508.593C313.762 499.213 306.342 493.823 294.282 490.773C287.032 488.933 279.002 489.833 272.272 493.103C270.252 494.083 269.982 499.583 265.522 495.513C261.312 491.663 263.532 483.943 267.982 481.073C268.472 480.853 270.642 490.273 274.472 489.063C274.262 487.063 270.932 486.633 270.522 485.413C270.412 485.103 271.192 479.323 271.452 478.833C273.542 474.853 289.552 477.813 293.472 480.093C293.902 481.733 292.062 480.783 291.732 481.243C290.002 483.683 293.092 485.143 295.482 485.063L296.972 481.063L297.492 485.073L300.022 484.103L298.472 476.083C296.042 475.113 295.022 480.023 293.992 480.063C290.312 476.833 285.672 475.483 281.492 473.083C283.522 473.293 285.562 473.353 287.482 474.093L288.502 467.093C298.962 472.313 291.602 463.863 289.352 459.163C285.352 461.093 284.932 457.973 281.492 457.073C281.832 454.773 283.702 456.333 284.522 455.453C285.252 454.673 287.142 450.823 286.482 450.093H277.502L279.002 454.083L281.492 452.093L280.492 457.093L277.482 455.603L278.512 460.083C281.052 461.103 280.232 458.043 280.992 458.063C284.422 458.133 283.032 462.243 283.702 464.373C284.312 466.293 286.892 466.753 286.482 469.083L280.622 466.933L281.482 465.093C281.272 464.943 277.372 465.863 276.482 466.083C273.572 464.223 274.242 464.143 270.482 463.083C270.622 461.523 268.822 458.573 270.482 456.083H262.492C261.532 460.293 266.762 456.483 267.482 457.083L265.492 459.573C266.222 461.303 268.272 459.983 268.392 460.213C269.442 462.163 266.802 462.043 270.492 463.083C270.342 464.693 267.102 468.523 265.992 470.083V464.103L264.482 469.083C261.912 469.103 263.712 464.343 263.482 464.093L259.492 465.103C259.242 465.323 262.992 469.933 260.492 471.093L260.452 471.003ZM159.362 321.083L153.452 322.013L156.442 325.003L158.442 322.003V326.993C154.622 324.703 151.592 324.943 147.442 326.003L149.452 332.983C151.962 332.193 148.532 328.333 152.922 331.013L152.432 329.003L158.442 330.983L157.902 328.943L161.442 327.983L159.352 321.073L159.362 321.083ZM223.462 386.003L222.462 384.013L220.922 390.033C219.382 391.893 216.822 388.043 217.452 392.003L228.452 391.003L225.472 387.993V386.013L227.442 385.023L224.552 384.133L223.452 386.013L223.462 386.003ZM241.442 391.013L238.052 389.943C236.922 393.733 235.472 389.803 233.472 392.503L239.452 395.023L238.472 396.973L243.452 397.993L239.502 393.423L241.442 391.013ZM215.502 400.943L215.442 397.993L213.472 399.493L215.952 404.013C216.772 400.583 221.982 403.163 225.442 401.003L224.452 406.993L227.932 404.983L227.432 406.983H229.442L229.942 404.993L232.572 408.923L235.892 407.933L236.952 410.033L241.442 407.983L237.462 408.003L236.822 404.943C234.872 404.403 230.682 405.143 229.142 404.113C227.602 403.083 228.262 400.463 226.732 399.993C222.102 398.573 219.852 401.363 215.512 400.943H215.502ZM210.452 409.003H225.452C223.622 406.113 218.342 409.163 218.942 403.993C216.072 405.063 210.502 405.023 210.452 409.003ZM235.952 425.003V426.003C236.602 425.673 236.602 425.333 235.952 425.003ZM270.952 433.003V434.003C271.602 433.673 271.602 433.333 270.952 433.003ZM266.952 434.003V435.003C267.602 434.673 267.602 434.333 266.952 434.003ZM322.952 452.003V453.003C323.602 452.673 323.602 452.333 322.952 452.003ZM325.442 454.003C323.022 455.603 322.542 453.763 320.472 453.493L323.462 457.993L325.442 454.003ZM258.452 454.993C254.352 455.043 248.312 454.483 248.462 459.993C251.362 457.483 254.262 455.183 252.462 460.993L258.442 460.003V454.993H258.452ZM322.452 461.013H320.462V463.003L322.452 461.013ZM244.752 463.633C244.412 463.383 244.402 462.503 244.432 462.013C239.562 464.943 244.812 463.993 244.432 467.003L241.442 466.503C243.582 470.143 245.732 465.053 247.432 466.013V470.003C248.892 469.383 251.742 469.503 252.782 469.033C254.092 468.433 252.272 464.863 256.432 465.993C253.512 461.313 249.322 466.963 244.732 463.633H244.752ZM316.952 462.003V463.003C317.602 462.673 317.602 462.333 316.952 462.003ZM240.952 464.003V465.003C241.602 464.673 241.602 464.333 240.952 464.003ZM357.442 523.993L355.472 524.473C356.712 525.963 356.442 527.303 356.072 529.023C355.212 533.063 352.512 531.833 352.452 534.983C356.432 534.303 355.672 538.993 359.452 537.993L357.462 537.003C359.212 532.343 358.012 528.663 357.452 523.993H357.442ZM343.862 549.643C343.462 548.733 342.682 544.103 341.432 545.513L343.442 558.493L345.422 558.973L347.442 556.003L344.432 555.483L345.452 550.583C345.432 549.983 344.012 549.963 343.862 549.633V549.643ZM353.632 577.663C353.162 577.403 354.082 575.573 352.472 576.013C353.122 579.893 347.502 576.663 345.892 578.943L345.462 586.003L346.442 584.013C349.862 584.723 350.492 581.673 351.572 579.083L355.442 580.053L354.752 581.793C358.652 582.763 355.342 587.683 352.472 588.023L352.402 585.053C347.322 584.193 348.692 588.953 344.462 587.013V591.013L345.922 589.033C348.552 590.953 352.352 589.703 351.472 594.013L353.972 592.013L355.982 593.023C356.142 588.523 358.872 582.523 356.362 578.523C355.342 576.893 354.222 577.993 353.642 577.673L353.632 577.663ZM344.452 598.993C345.842 597.123 347.712 593.393 344.452 592.003C344.992 597.993 340.302 603.283 344.452 608.473L342.452 610.003L341.452 608.013L340.452 614.003C344.942 612.743 345.552 610.713 346.212 606.163L344.452 605.993L346.432 604.023L344.422 603.373L344.442 600.013L348.432 601.003L344.432 599.003L344.452 598.993Z" fill="#E39A01"/>
<path d="M276.452 466.003C279.432 467.913 281.522 471.103 285.442 470.003C286.192 474.223 280.662 470.193 278.452 471.013C278.302 472.333 280.222 472.303 281.452 473.003C275.912 472.443 270.652 471.453 264.962 472.013C259.082 472.593 255.012 476.033 249.462 476.003C249.402 468.763 255.482 472.193 258.892 471.973C259.732 471.923 260.282 471.023 260.462 471.003C265.052 470.673 267.052 470.583 270.732 469.573C272.512 469.083 273.212 467.563 275.452 469.003L274.462 466.013C275.102 465.913 275.902 466.143 276.462 466.013L276.452 466.003Z" fill="#E39A01"/>
<path d="M303.452 665.003C303.392 665.653 303.472 666.343 303.452 667.003C306.332 665.313 307.862 666.543 310.422 668.003C313.142 660.363 313.572 670.413 314.952 671.003C315.672 669.093 317.442 668.533 318.442 667.003C319.072 666.873 319.642 665.893 320.442 666.003C315.432 672.343 309.802 679.123 303.482 684.573C301.462 686.313 298.512 686.553 296.922 689.993L296.422 686.023C293.962 686.313 291.842 683.873 290.442 682.013L298.332 682.883C299.272 679.733 300.972 678.533 301.432 675.003C302.652 675.173 303.552 677.603 305.432 676.993L301.922 673.013C298.892 672.663 301.532 674.293 301.432 675.003C299.972 674.803 298.842 676.033 297.932 677.003C296.252 675.833 299.062 674.173 299.652 672.723C300.752 670.043 300.412 666.393 303.442 665.013L303.452 665.003Z" fill="#E39A01"/>
<path d="M333.452 472.003C333.742 471.343 333.662 471.053 334.452 471.003C334.312 471.203 334.582 472.163 333.452 472.003Z" fill="#E39A01"/>
<path d="M236.452 540.003C243.662 525.213 256.252 524.303 271.492 527.463C286.912 530.663 296.142 538.553 304.642 551.323C305.472 552.573 304.262 555.353 308.452 556.003C308.572 550.243 301.652 532.393 311.892 533.023C323.872 533.753 325.782 558.593 323.152 567.213C321.632 572.193 319.732 570.163 316.922 571.933C313.642 574.003 314.232 577.743 314.912 581.063C315.222 582.543 317.962 590.933 318.552 592.213C319.202 593.633 323.292 595.603 322.492 598.993L326.912 597.943L328.952 599.993C331.122 598.673 329.442 597.003 329.462 595.003H333.472C334.562 591.713 331.752 590.633 331.002 588.923C330.252 587.213 330.852 585.133 327.972 583.003L326.512 591.463L323.472 591.993L324.452 587.993L319.472 589.993C319.552 587.073 316.132 583.113 316.392 580.613C316.432 580.223 320.812 577.833 319.632 574.123L322.322 573.903C321.412 571.123 325.042 566.953 327.802 567.213C332.802 567.683 335.662 579.503 336.182 583.773C338.722 604.913 330.802 625.653 323.452 644.983C321.282 644.223 321.992 640.473 320.052 638.903C318.872 637.953 317.942 637.803 316.482 637.983L314.482 645.983L317.452 642.993L320.352 646.563L318.372 653.543L320.452 655.973L317.462 658.973L321.462 656.993V659.493C325.432 655.233 323.632 650.283 325.692 644.703C328.302 637.613 333.862 629.463 336.472 621.983C335.482 627.173 339.632 625.423 339.482 629.973L340.482 626.963L342.472 628.003L342.492 624.983C344.292 625.803 344.462 627.453 346.482 625.983C343.982 638.023 328.482 655.853 320.482 665.983L318.482 664.993C318.322 665.573 318.672 666.703 318.482 666.983C316.072 667.463 311.752 664.763 316.972 662.973L317.992 663.983L317.472 660.983L313.162 663.843L308.492 660.483L310.482 656.993L303.492 664.983C303.802 661.853 313.542 644.493 315.512 638.503C321.812 619.293 321.122 600.783 313.982 582.003C312.532 578.193 307.462 571.433 308.442 567.683C308.742 566.553 311.072 566.663 311.242 565.553C311.372 564.723 310.032 563.303 310.642 562.193C311.062 561.423 316.052 556.993 317.502 559.013V555.983L319.012 556.773L319.512 553.993C323.582 552.963 319.842 558.533 322.502 558.993V548.003L316.512 546.983L319.502 544.983C319.242 541.793 312.292 544.493 311.712 545.233C310.992 546.153 312.372 548.313 310.522 547.993L308.512 544.003L309.522 554.003C313.542 554.783 309.552 551.173 310.512 550.003C312.202 547.973 312.482 551.863 313.012 552.013C315.072 552.613 314.172 548.683 317.512 550.003C316.432 555.363 317.642 556.493 312.012 558.973L310.522 555.983L312.502 553.993C307.762 554.933 309.282 562.233 307.022 565.983L298.012 557.993L296.012 560.973C295.422 560.973 294.952 558.903 294.172 558.343C286.782 553.053 274.002 541.243 264.922 540.083C257.552 539.143 247.592 542.213 247.522 550.993C256.482 542.773 265.562 553.753 260.002 562.993L260.502 555.003C256.552 554.213 261.592 559.273 256.522 558.993L254.512 551.003L256.772 550.173L250.762 550.213C250.382 552.863 247.492 552.563 246.772 553.253C246.502 553.523 244.752 558.693 243.482 559.993C241.692 558.913 239.212 556.943 237.522 559.503L240.512 562.993L242.492 561.003L242.512 563.993L243.612 562.173L245.992 562.003L247.502 563.983L244.512 564.483L255.502 566.003C255.092 567.773 250.442 568.043 249.122 567.953C240.232 567.353 233.342 558.153 233.482 549.533C233.542 545.673 235.052 542.973 236.512 539.983C235.352 542.203 234.932 549.233 235.522 551.973C238.292 551.803 236.122 546.343 236.512 545.983H239.502L240.002 548.973L243.502 546.463L241.512 542.973L245.492 543.963L243.492 541.483L246.492 540.963L243.962 539.273L240.512 541.973V537.983C239.702 537.523 236.752 539.503 236.502 539.973L236.452 540.003ZM273.442 529.013L260.872 527.243L258.462 529.993C258.952 526.823 255.472 528.133 253.112 527.963L251.472 530.503L253.442 531.993L253.942 530.003L260.452 533.993C258.832 530.273 264.222 528.723 267.452 529.013C265.692 531.813 262.552 533.023 263.462 537.003L271.782 537.053L274.442 531.003C272.562 532.133 268.422 532.633 267.452 530.013L273.442 529.013ZM330.452 576.003C329.922 575.153 332.692 570.513 329.922 570.003C327.942 569.633 322.602 573.723 327.452 574.493C325.702 576.753 323.932 578.953 324.452 582.003L326.072 579.953L331.352 580.893L332.422 579.013C333.622 582.763 331.232 587.643 335.422 590.003L333.232 576.663L330.442 576.013L330.452 576.003ZM327.452 612.003L329.442 616.003L321.682 616.243C320.722 618.703 319.102 625.683 321.962 626.993L327.462 620.013L329.442 625.003L332.452 612.003H327.452ZM323.952 633.003V634.003C324.602 633.673 324.602 633.333 323.952 633.003Z" fill="#E39A01"/>
<path d="M328.452 472.003C328.372 472.653 328.542 473.353 328.452 474.003C327.672 473.793 327.212 472.983 326.452 473.003L326.972 472.013C327.462 471.933 327.972 472.043 328.452 472.013V472.003Z" fill="#E39A01"/>
<path d="M328.452 474.003C329.252 474.223 330.512 473.853 331.452 474.003C331.282 475.733 329.602 475.593 328.452 475.993C328.502 475.343 328.362 474.643 328.452 473.993V474.003Z" fill="#E39A01"/>
<path d="M327.452 476.003H328.452C328.282 476.063 328.222 476.863 327.952 476.873L327.452 476.003Z" fill="#E39A01"/>
<path d="M327.452 476.003C327.062 475.743 326.812 475.273 326.452 475.003C326.602 475.273 327.692 475.173 327.452 476.003Z" fill="#E39A01"/>
<path d="M309.452 579.003C308.952 578.313 307.302 576.203 306.462 576.003C305.962 579.163 311.022 581.973 306.462 583.993L303.462 577.993L306.462 589.993L307.462 585.993H311.452C309.382 583.713 310.022 581.133 309.452 578.993C322.092 596.343 314.062 643.233 301.672 660.713C299.602 663.623 296.832 664.263 294.812 666.353C293.212 668.003 290.992 673.183 290.492 673.523C286.322 676.323 279.042 670.503 281.452 665.993L278.902 666.973L278.462 672.973L281.882 672.113C284.072 674.583 284.442 676.703 288.462 675.983C289.582 676.973 282.002 684.863 279.462 684.983C282.372 678.913 275.282 678.763 271.952 677.003C272.002 679.383 273.052 681.893 272.472 684.333C272.222 685.373 269.412 684.373 270.462 686.983H276.452L276.462 683.973C276.672 683.713 278.442 685.023 279.452 684.983C276.342 691.473 251.252 702.583 243.452 702.993C243.422 704.713 242.892 705.143 244.882 704.933C255.892 703.733 268.812 696.163 278.452 690.993L279.462 695.983L274.972 693.993C272.942 696.473 270.352 698.773 272.462 701.973L268.462 702.983L269.452 697.993L260.462 700.993C260.182 702.233 264.472 703.043 264.902 703.043C265.082 703.043 266.082 698.733 267.452 702.503C268.412 705.163 262.602 703.123 262.462 705.973L279.452 699.973C278.602 696.653 273.672 701.243 273.472 700.983L274.472 695.993L276.942 698.083L281.442 695.993L283.462 698.473C282.512 700.683 266.652 706.563 263.462 707.473C247.412 712.053 212.012 716.903 197.462 709.973C200.472 710.443 204.292 710.303 207.462 710.963C207.732 709.313 206.052 710.263 204.802 709.613C204.422 709.413 204.432 708.283 204.212 708.173C203.952 708.043 201.412 708.283 199.502 707.283C196.572 705.753 197.742 704.063 193.472 707.473C193.582 707.703 196.872 709.693 197.472 709.973C192.312 709.163 188.332 707.943 183.482 705.963C183.782 703.573 187.562 706.293 188.832 706.063C189.272 705.983 191.282 701.283 195.472 703.973L194.892 700.923L198.472 699.963L192.932 696.973L191.932 699.033C186.532 695.553 187.092 702.023 182.482 702.963L184.542 698.483L182.472 697.493C186.022 690.093 195.962 697.253 202.422 698.533C223.762 702.753 246.592 694.903 264.012 683.013C268.892 679.683 277.892 665.633 280.642 659.643C286.642 646.583 290.372 629.893 279.472 618.463L283.462 618.963L280.522 613.043C283.922 612.923 280.802 608.823 285.462 609.983L283.472 611.463L285.972 613.963C286.592 610.793 290.812 612.923 293.462 612.953C292.082 610.453 287.252 608.653 284.592 608.483C280.612 608.223 282.092 609.973 281.432 611.203C280.092 613.683 276.422 610.753 277.472 607.973C302.962 602.313 304.362 633.853 298.462 650.953C296.702 651.213 297.472 648.693 297.702 647.693C298.422 644.493 300.282 641.653 299.482 637.953H294.472C296.402 643.343 293.792 644.803 293.382 648.883L290.462 648.963C290.172 654.993 297.972 657.433 291.962 662.953L291.312 661.193L289.482 661.953V657.963L286.462 658.453L289.462 656.463L284.472 652.963C285.742 659.103 287.942 661.053 281.482 664.463L283.962 666.943L285.462 664.973L283.472 663.973C285.822 663.273 286.832 661.673 289.462 662.973L286.542 664.013L286.472 668.953C288.252 669.923 291.162 666.683 291.462 666.953C291.812 667.273 290.682 669.373 292.462 668.953C292.902 661.533 298.772 654.683 301.652 647.643C310.772 625.323 311.792 593.933 299.502 573.213C298.982 572.333 296.932 568.633 297.482 567.963L300.462 569.963L301.462 567.963L303.472 569.953L302.972 565.963C306.432 569.813 308.162 574.043 309.472 578.963L309.452 579.003ZM310.472 596.993L308.952 594.003C306.272 597.983 311.752 598.883 312.352 600.693C312.862 602.233 311.512 606.823 312.452 609.003C308.232 610.053 312.242 603.683 309.472 603.013V614.003L313.462 613.013C311.662 615.343 312.002 618.343 311.542 621.593C311.262 623.573 311.762 623.023 313.452 623.003C315.022 613.683 314.342 604.363 313.452 595.003C311.982 594.493 312.702 598.913 310.482 596.993H310.472ZM296.422 614.993H290.452C291.602 619.233 293.472 621.643 288.452 624.013C288.412 626.193 292.022 624.553 293.022 624.083C293.792 625.683 293.002 626.433 295.442 625.993L297.432 622.993C300.202 630.043 295.022 625.473 293.892 629.033L290.452 627.993L290.482 632.943L293.272 633.153L293.452 635.993C296.112 634.843 298.182 635.573 297.452 631.973L299.442 632.993L296.422 614.983V614.993ZM309.462 630.993L308.462 628.003C307.892 631.733 307.932 634.193 308.742 637.783C309.072 639.243 307.772 639.593 310.442 639.003C310.092 635.353 314.682 629.943 310.462 628.003L309.462 630.993ZM262.422 689.073C260.732 689.283 258.512 688.043 257.092 688.273C256.732 688.333 250.552 691.133 251.462 692.993C255.782 693.713 255.962 692.793 258.452 690.003L259.442 693.993C259.112 691.873 260.622 691.933 262.322 691.873L262.432 689.073H262.422ZM245.452 701.993C245.012 700.113 238.552 695.863 237.452 696.993V701.013L235.452 699.993L235.952 702.983L233.462 701.493C235.282 703.823 234.412 705.813 231.442 706.023L233.142 707.203L232.932 708.993L237.432 704.013L235.442 711.003L251.432 709.003C251.622 707.293 247.962 707.893 246.892 707.963C245.222 708.063 243.932 708.183 242.442 709.013L243.332 706.453L241.352 705.463L242.352 702.633L245.432 702.003L245.452 701.993ZM212.452 701.013L200.452 700.003L200.472 702.963L207.452 705.003V701.993C209.352 702.903 211.542 703.803 212.452 701.013ZM214.452 706.003L214.432 702.003C212.072 704.043 212.452 705.913 208.442 705.013L215.432 708.013L213.452 711.993C215.552 712.113 213.112 709.783 215.932 709.993C217.202 710.083 213.932 712.523 216.932 712.013L217.942 709.983L218.432 711.993H226.432C226.102 708.993 220.822 711.243 220.432 710.993L221.442 709.013H216.442L217.422 705.003L214.442 706.003H214.452Z" fill="#E39A01"/>
<path d="M106.442 147.993C102.112 149.513 100.552 146.063 99.132 145.333C96.892 144.183 95.9621 145.313 93.4321 142.503C85.4921 133.683 94.8321 116.203 98.8621 106.883C102.782 97.823 109.252 84.263 115.432 76.483C117.482 73.903 120.842 71.113 123.432 69.003L122.492 82.553L100.462 130.593C99.4521 137.353 106.912 141.513 106.432 147.993H106.442Z" fill="#E39A01"/>
<path d="M297.452 764.003C295.862 762.913 294.952 763.513 293.012 760.943C292.212 759.883 288.452 752.213 288.452 751.503V734.003C290.812 734.563 289.732 735.593 289.782 736.793C289.942 741.183 289.442 745.613 289.462 750.003C291.682 749.563 289.602 745.733 290.912 743.943C291.682 742.893 294.982 743.583 294.462 741.013C296.192 740.713 295.062 742.543 295.762 743.703C296.052 744.183 297.242 743.783 297.462 744.503C298.092 746.533 294.872 746.333 293.502 747.553C292.722 748.253 290.822 750.863 290.612 751.773C289.692 755.703 294.502 759.953 294.452 757.493L292.442 754.013C296.082 755.863 294.612 753.533 297.432 752.983L295.442 750.013L298.432 751.003V744.013L303.432 747.003L303.452 741.003C294.592 741.653 301.722 736.803 302.372 735.233C304.132 730.943 304.862 725.493 306.432 721.013L302.432 722.023L303.402 726.393C298.232 728.573 299.682 730.063 296.942 733.993L297.382 729.633L294.442 726.493L297.242 723.833C294.292 714.893 299.052 714.293 303.502 709.543C304.832 708.123 309.452 702.153 310.412 701.573C311.042 701.193 312.492 701.973 313.362 701.463C315.032 700.483 316.742 698.623 318.442 697.503L315.442 698.003C316.992 695.053 318.632 692.453 317.442 689.053L323.442 688.023L321.442 692.003L324.432 693.013L324.552 687.123L329.432 685.023C327.442 684.623 322.532 687.713 321.442 685.023C337.212 681.203 354.582 679.233 370.682 682.263C376.512 683.363 379.022 686.253 384.442 687.023L383.432 689.003C388.312 689.583 401.432 695.083 403.432 699.523C403.632 699.963 403.682 701.163 402.942 701.003L397.442 699.013L400.432 701.013C400.172 706.563 394.622 702.703 396.432 700.023L390.022 700.103L389.372 697.073C385.322 696.353 384.922 697.613 383.902 701.023C375.782 696.753 368.282 695.023 359.022 696.113C355.452 696.533 342.872 700.923 339.462 702.553C336.052 704.183 334.502 711.053 329.482 707.933C329.232 704.803 331.442 701.753 328.922 699.013L324.422 702.033L324.482 703.973L326.412 704.503C323.242 707.073 326.662 712.333 320.412 712.023L323.422 714.523L320.412 717.993L324.172 721.683L321.402 728.023C315.362 726.073 315.732 719.103 316.652 713.763C317.892 706.593 324.312 702.343 328.412 697.033C326.262 696.483 325.782 698.893 324.382 699.493C322.772 700.183 320.792 699.763 319.432 700.543C317.712 701.523 316.192 707.163 311.402 706.033L312.402 709.023H306.412L307.422 718.023C309.972 716.183 310.692 712.403 312.892 710.003C314.072 708.713 314.642 708.353 314.402 710.513C304.272 721.353 295.302 758.183 319.432 754.473C322.722 760.983 314.962 767.313 308.802 767.963C302.842 768.593 301.582 766.893 297.412 764.023L301.742 765.063L305.242 760.513C303.762 757.253 299.812 759.333 298.922 756.033L297.412 764.033L297.452 764.003ZM354.382 682.033L345.452 682.493L348.942 687.983L350.452 683.993L355.432 686.003L354.372 682.033H354.382ZM375.442 685.013L365.452 682.993C366.652 687.153 362.892 686.933 362.402 690.403C365.292 694.143 366.952 695.043 372.452 694.993L368.462 686.003C368.762 685.783 375.052 687.843 375.452 685.003L375.442 685.013ZM347.452 694.013L336.462 689.013L338.452 690.993L331.902 694.993L333.462 697.993L331.472 698.993L334.472 699.513V697.013C339.822 695.463 335.522 701.103 338.992 701.043C341.832 700.993 344.312 698.373 347.472 698.993L345.692 696.503L347.472 694.013H347.452Z" fill="#E39A01"/>
<path d="M112.452 178.003C112.872 183.403 108.032 201.513 104.882 205.933C100.862 211.573 93.0921 214.813 86.4821 211.963C86.7221 204.083 95.3621 202.963 98.2421 196.293C100.062 192.093 109.642 150.283 109.392 146.653C109.012 141.193 104.952 137.253 104.462 132.013C118.142 130.043 120.552 141.003 119.202 152.253C118.222 160.473 114.782 170.573 112.452 178.003C112.402 177.343 112.492 176.663 112.452 176.003C111.142 177.323 107.292 175.873 106.672 174.793C105.872 173.403 107.442 170.833 105.472 171.023C103.762 175.403 104.602 180.313 106.462 184.523L108.462 183.023V181.013L108.472 189.003C111.342 187.113 110.192 181.793 111.472 178.683C111.782 177.933 112.452 178.063 112.462 178.003H112.452ZM111.442 140.993C107.542 140.153 110.372 146.203 112.442 146.493L110.452 148.983C113.192 148.613 112.522 150.903 112.452 153.013C115.832 151.133 115.222 155.243 117.432 155.993L117.962 141.983L115.892 146.493C117.152 148.733 118.372 152.063 114.452 151.993L114.432 141.003L111.942 145.013L111.442 140.993Z" fill="#E39A01"/>
<path d="M307.452 692.013L306.452 694.383L310.442 699.983C305.282 701.133 303.172 706.323 299.492 709.543C297.802 711.023 295.322 711.053 293.982 713.033C290.292 718.463 286.592 734.983 283.652 741.703C282.352 744.673 280.202 748.503 276.462 747.993V740.013L278.432 742.003V739.013L271.532 739.893L270.952 737.993L270.572 742.563L265.452 744.013L268.452 746.503C261.042 752.323 246.692 754.943 240.452 746.513C239.112 744.693 236.122 739.033 238.452 737.473C256.642 740.203 268.492 724.213 279.962 713.013L276.462 720.003H281.452L280.442 717.023C282.502 716.763 284.612 716.453 284.462 714.023L286.442 716.013L286.462 712.023L288.442 714.013L293.452 711.013L286.472 707.523C287.332 703.873 305.762 690.413 307.452 692.033V692.013ZM281.452 734.003L278.952 725.023L275.452 733.993H281.452V734.003ZM273.452 731.993L271.952 727.003C269.442 729.163 269.132 732.853 265.032 732.043L263.952 730.003L262.422 732.493L267.442 735.993L266.442 733.013L273.452 732.003V731.993ZM258.452 735.013L247.462 738.503C249.882 741.173 254.332 739.903 257.162 740.783C258.292 741.133 260.352 743.923 261.452 743.003C263.542 741.243 259.442 741.033 259.442 740.513C264.202 739.523 259.772 736.453 258.422 737.503L258.012 739.773L253.482 738.513L258.462 735.023L258.452 735.013ZM265.452 741.013C266.722 744.373 269.612 743.013 269.442 740.003L265.452 741.013ZM252.442 742.993V741.003H251.462V742.993H252.442ZM250.262 745.153L244.442 746.013V748.993L253.442 750.003L250.262 745.153Z" fill="#E39A01"/>
<path d="M166.452 681.003C166.492 681.463 167.872 682.703 167.452 682.993H165.452L166.452 681.003Z" fill="#E39A01"/>
<path d="M165.452 683.003C166.242 683.763 167.092 684.353 167.972 685.013C168.842 681.983 170.382 682.703 173.042 683.933L173.952 682.013C175.592 683.573 183.412 690.603 181.452 693.003C179.612 695.263 179.712 690.423 178.472 691.013L177.692 693.823L179.462 694.503C177.262 697.363 174.142 695.093 172.972 699.003C170.632 692.193 169.662 694.133 165.542 691.443C157.022 685.883 153.382 661.723 159.542 653.583C161.252 651.323 163.342 652.543 164.262 651.803C164.742 651.413 164.632 649.363 165.412 648.493C171.582 641.593 177.292 639.503 186.462 642.523C193.092 644.713 192.022 646.673 195.412 650.313C197.532 652.583 199.672 650.663 201.022 656.963C203.402 668.083 197.722 677.763 185.442 674.543C179.642 673.023 175.292 664.723 179.702 660.243C180.782 659.143 183.542 659.823 183.472 658.023C178.522 658.263 169.892 657.193 168.332 662.883L166.482 662.013V665.013L169.462 664.013C168.722 670.393 170.142 675.263 172.462 681.013L170.672 680.273L169.892 682.053L166.462 681.003C166.432 680.723 167.512 679.783 166.992 679.003L164.972 680.003L163.472 676.013L169.462 675.993L164.472 675.003C163.512 670.973 168.242 674.293 168.462 674.003V668.013C164.392 667.103 168.262 671.143 167.462 672.003C163.752 669.903 161.842 674.073 157.472 672.013L158.482 676.013L162.472 675.003C162.812 678.713 162.632 680.273 165.482 683.003H165.452ZM185.452 646.013C179.202 644.713 180.532 649.043 179.312 649.873C177.982 650.773 174.712 648.453 175.452 651.993L184.452 653.993C184.922 652.483 180.622 653.323 182.462 651.003C182.852 650.513 186.192 653.973 185.452 650.003L182.462 647.993L184.402 648.953L185.452 646.003V646.013ZM192.952 666.003V667.003C193.602 666.673 193.602 666.333 192.952 666.003ZM171.952 691.003V692.003C172.602 691.673 172.602 691.333 171.952 691.003Z" fill="#E39A01"/>
<path d="M86.8021 203.353C83.4521 207.613 82.1421 211.143 81.5721 216.623C80.6621 225.483 81.2521 256.153 84.0121 263.933C86.4321 270.743 89.3721 269.113 94.1521 271.793C104.882 277.803 92.8021 282.293 85.2121 278.933C84.4221 278.583 84.3121 277.343 83.7221 277.023C78.1221 273.943 76.2921 274.273 73.9221 267.013C70.2221 255.643 70.3521 224.253 71.4021 211.463C72.1621 202.163 80.8421 188.643 90.2921 197.703C91.4521 201.913 88.0921 201.673 86.7821 203.343L86.8021 203.353ZM72.452 216.003V242.003C75.902 239.683 72.2821 235.493 74.1121 231.233C74.9221 229.343 79.8121 228.883 75.4621 226.013L73.452 229.003C73.582 225.213 74.7621 218.363 79.2221 222.473C77.2021 226.563 81.2921 231.633 77.4421 234.513C80.5821 235.253 78.4821 237.393 78.4321 240.003L76.4721 239.013L75.452 243.003L79.4421 241.013C80.4421 242.133 76.3421 248.903 80.4421 248.003V214.013L76.452 215.023L79.452 216.513L76.5021 217.063L76.4421 221.023C73.3121 221.953 75.5221 216.363 72.4421 216.013L72.452 216.003ZM80.3921 251.033C77.9921 252.183 76.7821 250.083 75.8721 253.043L73.452 252.003C72.912 254.773 76.6421 254.483 77.4421 257.513L75.452 258.993L78.4321 260.003L78.5321 256.053L81.4421 256.003L80.382 251.043L80.3921 251.033Z" fill="#E39A01"/>
<path d="M112.452 310.003C112.492 310.113 113.722 310.493 114.022 311.873L115.442 319.993C115.142 317.703 116.732 312.493 116.422 310.623C116.242 309.543 114.382 309.703 113.932 309.043C112.142 306.453 116.072 305.653 114.462 303.493C113.382 302.043 111.972 301.683 111.452 303.493C111.142 304.583 113.252 303.033 113.062 304.983C112.902 306.663 112.312 307.863 112.452 309.993C108.682 299.603 104.672 273.943 96.4121 268.533C92.8321 266.193 86.1221 266.053 86.4621 259.993C91.4121 259.223 94.4021 261.403 98.4121 262.553C101.182 263.353 103.482 260.363 104.422 266.533C106.022 267.263 108.252 264.183 110.912 268.053C114.592 281.823 119.362 295.643 122.392 309.563C123.092 312.793 124.552 317.363 124.542 320.493C124.512 328.823 117.322 337.653 108.442 336.533C105.132 334.283 112.812 326.123 113.392 322.423C114.082 318.033 112.732 314.203 112.462 309.983L112.452 310.003ZM114.442 288.003L110.462 272.003L108.462 280.993L111.972 279.973L112.452 284.983L111.462 282.993L108.462 283.483C109.552 286.383 111.872 286.723 114.442 287.993V288.003ZM121.432 328.003L122.432 317.013C120.392 317.133 122.052 320.373 120.992 322.093C120.112 323.523 117.232 321.453 116.462 323.523C115.612 325.773 116.092 325.653 117.942 326.023C118.142 326.063 116.442 322.363 121.452 324.033C121.822 324.363 116.672 328.563 121.442 328.023L121.432 328.003Z" fill="#E39A01"/>
<path d="M204.452 426.003C204.912 425.553 207.632 422.193 207.452 422.013L204.452 420.003L208.432 419.513C207.612 418.513 202.122 417.913 201.442 417.993C214.392 406.033 211.532 425.213 204.442 425.993L204.452 426.003Z" fill="#E39A01"/>
<path d="M200.452 420.003L203.372 420.063L204.382 423.563L202.472 424.003C202.172 426.143 202.362 426.223 204.452 425.993C201.592 428.813 202.182 428.113 198.452 428.993C198.682 428.953 199.472 427.623 200.452 427.983L198.442 424.003H201.462L200.452 419.993V420.003Z" fill="#E39A01"/>
<path d="M198.452 429.003C184.682 432.263 171.832 422.103 159.462 416.993C159.402 414.793 162.002 417.073 163.462 416.533C166.812 415.293 160.402 414.823 162.452 413.013L166.452 412.023C163.882 411.473 159.162 413.503 156.942 412.783C156.372 412.593 156.272 409.923 153.462 411.023L155.452 413.513C152.262 415.323 149.262 409.923 147.742 408.973C145.162 407.373 141.722 406.663 138.722 404.303C137.912 403.673 136.872 404.333 137.462 402.023C144.732 402.683 147.982 397.823 154.822 402.203C156.162 403.063 158.102 406.473 159.242 406.943C161.742 407.973 164.742 407.723 167.182 408.803C174.652 412.113 188.072 421.043 195.892 419.973C197.812 419.713 199.442 418.283 201.452 418.033C201.102 418.353 200.882 419.483 200.452 420.033C200.332 420.183 198.982 419.793 198.712 420.183C198.542 420.433 197.942 425.113 197.432 426.023L195.452 424.033C195.552 427.673 194.132 429.843 198.442 429.033L198.452 429.003ZM184.192 418.323C180.382 416.883 181.252 419.393 178.452 420.023L180.442 421.533L182.432 420.003L181.432 425.973L188.432 425.993C188.902 425.373 185.162 418.693 184.182 418.323H184.192Z" fill="#E39A01"/>
<path d="M246.452 610.003C245.642 609.523 238.902 607.673 238.452 608.013L240.442 611.993L232.012 613.033L230.462 611.013L230.442 614.003L243.442 614.993L240.432 613.993L241.452 611.003C243.092 612.463 249.772 615.733 247.432 611.503C247.242 611.163 246.522 610.053 246.442 610.003C254.692 614.713 259.932 622.133 262.142 631.803C264.942 644.023 263.452 654.633 258.432 665.993L251.942 661.023C247.372 663.723 256.532 666.093 251.662 667.143L252.322 669.833C250.022 670.153 249.712 671.913 249.432 674.003L247.382 673.423L245.452 670.013C243.872 677.023 236.962 678.673 233.462 683.513C234.742 685.153 237.182 684.253 236.442 686.993C233.342 686.553 232.722 689.563 231.192 690.293C218.402 696.373 199.672 697.203 188.452 687.503C193.602 687.683 198.712 689.773 203.902 690.043C228.172 691.303 255.112 669.143 252.332 643.613C251.322 634.333 245.632 624.473 235.442 624.003C235.992 618.093 244.432 621.963 246.902 625.043C247.812 626.173 251.712 631.693 252.392 632.813C254.672 636.613 254.112 641.893 255.452 645.993L256.442 636.003L258.432 639.993L258.452 634.003L261.432 637.993C261.972 633.893 260.982 630.883 256.432 630.993L257.452 628.003L254.452 627.003L256.442 636.003C256.312 635.223 253.302 628.663 252.622 627.323C251.862 625.813 247.712 618.703 246.912 618.033C243.612 615.313 229.192 613.583 226.442 617.993C229.892 617.393 233.912 622.823 234.172 625.653C235.222 637.163 210.702 634.983 213.672 617.743C214.672 611.953 223.162 602.953 224.452 612.003L234.452 607.993C233.062 604.473 228.272 607.093 225.492 607.553C224.442 607.723 222.222 608.883 222.462 607.013C229.552 603.873 237.072 604.903 244.052 607.943C245.662 608.643 246.042 609.763 246.452 609.993V610.003ZM227.032 623.453C225.702 622.403 224.322 620.813 222.452 621.003V626.003L219.062 625.983C216.502 628.883 221.892 631.193 224.392 631.553C229.362 632.273 233.712 629.203 232.442 624.003C230.972 623.893 229.472 625.173 228.092 625.063C227.402 625.003 227.422 623.763 227.022 623.453H227.032ZM262.442 639.003C261.782 638.153 257.852 641.983 257.712 642.233C256.962 643.503 257.582 645.513 257.462 646.993L260.462 645.003L259.502 646.943L262.452 647.993V639.003H262.442Z" fill="#E39A01"/>
<path d="M109.442 208.003L108.452 256.513C108.532 260.113 105.592 256.413 104.152 255.803C102.712 255.193 97.5621 254.013 97.3921 253.393C98.1921 240.813 95.9621 227.503 98.7121 215.263L109.452 208.013L109.442 208.003ZM107.442 227.003H104.452L106.442 228.493C103.792 230.163 105.562 232.383 105.442 234.993C101.892 235.973 104.092 231.613 103.442 230.993H99.452V233.993L102.442 232.003L101.442 235.993L106.432 237.003L107.432 227.013L107.442 227.003Z" fill="#E39A01"/>
<path d="M362.452 736.003C357.092 737.213 355.722 748.693 356.452 753.003C355.342 747.223 354.802 739.543 359.932 734.983C362.052 733.103 361.632 735.693 362.452 736.003Z" fill="#E39A01"/>
<path d="M362.452 736.003C364.422 736.753 368.122 734.873 370.442 736.003C371.082 733.543 369.392 734.443 368.502 733.203C368.122 732.673 368.632 731.223 368.442 731.013C367.792 730.303 361.432 733.843 364.442 730.503C370.092 727.033 381.962 729.463 384.002 735.963C384.762 738.393 385.672 747.703 382.202 747.813C380.642 747.863 375.072 747.193 375.232 745.273L373.462 746.013L372.972 743.023C363.042 748.673 371.142 757.183 379.952 758.013C397.152 759.633 404.062 743.413 402.342 728.613C401.422 720.713 396.802 717.263 403.462 709.023C401.122 709.113 398.232 707.883 398.462 705.013L401.902 707.973L405.992 706.243C412.362 711.833 415.432 719.123 416.322 727.643C417.142 735.533 416.592 743.443 412.442 750.023C412.642 748.803 413.912 745.363 411.932 745.033C409.192 744.573 410.212 749.803 407.922 747.033L408.442 742.033L406.962 744.023C404.142 742.943 408.372 737.923 405.472 737.033C402.522 741.043 400.782 745.933 401.902 751.083L403.102 751.933C405.722 751.573 409.282 750.243 409.472 754.023H410.452C409.752 751.433 412.022 750.723 412.462 750.033C411.332 756.903 405.142 763.323 398.462 764.023L398.372 759.093L392.472 760.043C393.892 763.983 396.762 764.213 399.472 766.523C383.712 777.213 360.452 773.733 356.472 753.023C356.522 753.343 357.762 754.103 357.482 755.013L358.572 753.163C362.452 754.883 360.452 751.773 357.482 750.533C360.582 746.053 357.952 740.623 362.462 736.023L362.452 736.003ZM414.442 742.993L413.952 732.013C411.202 733.803 411.942 735.193 412.452 737.983L407.462 738.483L414.442 742.983V742.993Z" fill="#E39A01"/>
<path d="M70.452 452.003C73.3521 448.603 87.752 440.723 91.952 439.993C94.772 439.503 92.322 441.453 92.632 441.833C96.952 442.043 94.592 447.813 92.772 448.013C91.232 448.193 88.9721 446.833 86.9121 446.873C84.9721 446.913 86.0321 448.983 83.9921 449.043C82.522 449.083 78.622 449.033 80.452 447.003C76.932 446.873 76.9421 449.663 79.9621 450.553C80.5321 450.723 82.1321 449.683 82.4421 449.993C84.1621 451.683 81.302 453.653 79.452 453.493C80.522 455.863 83.2521 453.903 83.4021 454.033C85.8321 456.023 81.8521 461.203 82.452 462.003L84.452 461.503C79.042 473.813 70.5021 494.813 86.4421 502.493C82.7721 507.483 76.9421 508.443 71.5321 505.413C69.1221 504.063 64.872 499.723 67.592 497.143L71.4421 496.983L68.452 495.983L70.452 493.493L68.4621 492.503L70.4821 489.003C71.6121 488.703 73.0921 489.563 73.4621 490.503C73.8621 491.513 70.9621 490.233 71.4721 491.983H75.4721L74.4121 489.563L76.5121 488.483C73.0021 484.283 78.2321 480.223 77.4621 474.993L74.4821 476.003L76.4621 477.453L74.4621 482.993C71.0021 483.603 73.682 481.543 72.522 479.703L68.9821 476.993L69.3921 481.583L67.4821 482.493L69.4621 484.493L65.4821 485.983L64.4921 482.993C64.6121 485.773 64.192 488.643 64.562 491.413C64.8221 493.403 67.8421 498.033 65.4921 498.983C62.1921 489.723 62.3621 477.303 67.9821 469.003L70.4621 470.973L72.4021 468.923C73.2521 466.493 70.862 466.663 69.1021 465.953C66.8521 468.023 65.5921 470.573 63.9121 472.923C59.0121 479.793 54.4521 488.503 52.3421 497.353C49.3321 510.003 49.0621 526.383 62.4721 533.003C60.3621 536.313 56.6321 530.173 54.9821 529.013L54.4821 535.993L58.0521 535.203L60.4721 537.983L60.9821 534.993C63.3121 537.643 66.8121 536.183 67.9821 539.983L73.4821 535.973L71.4921 531.993C79.2121 537.023 75.3021 544.453 68.4821 547.993C68.5921 547.953 69.5621 546.123 69.4821 546.003L67.4921 543.993L69.4821 543.493L66.5121 540.983L64.0021 543.973C60.4621 541.683 65.6821 541.253 65.4921 540.493C64.3621 535.903 59.3221 537.653 61.5021 541.973H58.4821V547.973L61.4321 547.213L61.9821 545.963C62.1021 548.563 66.6321 548.603 68.4821 547.973C63.0721 550.783 57.3221 550.143 52.0921 546.853C31.7621 534.053 36.9121 496.613 46.3121 478.303C49.6121 471.873 63.4421 452.983 70.4821 451.973C70.1921 452.313 70.2521 454.083 68.4821 454.573L69.4821 461.983L71.3221 461.213L71.9721 462.973L73.5021 458.973L74.9921 459.763L76.4821 456.993L71.4921 459.973C70.182 456.943 71.0621 454.783 72.4821 451.993C71.8321 452.013 71.1221 451.893 70.4821 451.993L70.452 452.003ZM43.4521 522.003C44.5021 521.173 44.7421 520.623 46.4521 520.993L44.4621 515.013L47.9421 513.993L46.4721 517.503L49.3821 519.093C48.7721 521.143 47.2321 522.433 50.4521 522.003C49.6021 513.343 47.8921 504.693 51.2221 496.433L48.4621 494.023L52.4221 493.973L55.4521 483.013L51.4621 485.023L50.4721 482.023C50.0021 488.573 37.9721 494.813 48.5221 497.623C48.5021 499.973 49.0421 503.223 46.4721 504.013L46.9721 498.023L40.5721 504.643C41.5221 510.833 37.4421 516.343 40.4821 523.013C40.7521 523.213 42.3121 521.933 43.4721 522.013C39.8121 524.903 39.8621 525.223 41.4821 530.003C43.1721 530.443 42.0821 528.503 42.5921 528.113C43.1521 527.683 46.7221 530.073 47.9821 527.013L47.4821 530.003H50.4921L52.4821 528.003L46.4921 526.003L48.4821 524.523C47.1321 523.053 45.5021 522.163 43.4821 522.023L43.4521 522.003Z" fill="#E39A01"/>
<path d="M139.312 106.153L139.272 108.243C134.512 117.293 131.942 127.783 127.932 136.983C126.652 139.923 125.812 143.273 122.462 144.003C122.622 136.513 114.342 134.213 119.942 127.013C123.192 129.253 122.042 130.473 126.442 129.003L127.432 134.993C130.712 128.563 121.952 127.003 125.442 120.003C122.862 119.153 123.692 121.203 123.452 121.413C122.032 122.653 122.202 121.513 122.472 120.543C123.132 118.123 130.812 100.033 131.952 100.023L139.312 106.163V106.153Z" fill="#E39A01"/>
<path d="M167.072 375.383C168.882 376.723 170.962 378.943 170.492 381.423C170.412 381.863 166.522 382.363 168.452 383.993C169.722 385.073 171.882 381.203 173.962 380.993C176.292 380.763 195.732 389.053 196.392 390.073C198.092 392.703 193.192 392.823 195.432 394.963L191.442 395.523L192.432 391.993L188.892 393.973C187.972 395.233 191.122 397.343 191.802 398.033C192.752 398.983 191.162 399.973 190.912 400.003C187.602 400.333 161.152 384.073 155.712 382.223C148.602 380.103 143.152 386.083 136.432 383.983C135.212 382.683 144.182 366.033 148.422 374.503C146.592 379.553 146.052 369.493 142.432 375.493L145.332 375.063C145.752 377.273 147.332 379.183 149.432 377.483V372.993L150.922 375.003L151.542 373.203L156.412 372.973L146.422 370.993C152.942 368.943 161.612 371.373 167.042 375.363L167.072 375.383Z" fill="#E39A01"/>
<path d="M126.102 390.353C119.782 385.023 113.122 379.103 110.452 371.013L114.352 371.143L114.962 374.023C117.842 373.473 119.772 372.773 120.942 370.013C129.602 378.233 128.472 387.743 142.962 387.083C146.762 386.903 158.292 381.353 154.692 389.743C151.972 396.073 140.522 398.113 134.422 396.543C129.802 395.353 128.742 392.583 126.102 390.363V390.353Z" fill="#E39A01"/>
<path d="M90.4421 173.003L80.452 171.993L87.4621 143.003L95.342 149.653L90.4421 173.003Z" fill="#E39A01"/>
<path d="M94.452 313.003C100.532 321.583 92.0121 320.413 91.4421 329.003C87.4921 326.113 87.612 319.773 86.452 316.003H94.4621C94.4621 315.003 94.4621 314.003 94.4621 313.003H94.452Z" fill="#E39A01"/>
<path d="M86.452 316.003C82.852 304.313 79.0721 292.343 77.4621 280.003C81.0221 282.093 84.1021 283.533 88.4021 283.053C88.0221 292.413 94.4021 304.433 94.452 313.003C94.012 312.383 93.3021 311.923 93.4421 311.013L91.9621 313.003L87.9721 310.013L86.452 316.003ZM89.4421 297.993L88.4421 289.003L82.952 294.993L81.4621 293.003L85.4621 309.993C87.5521 310.223 85.922 306.563 86.452 305.993C87.102 305.293 90.2821 308.133 91.4221 305.493C90.3021 302.753 85.7421 304.053 84.9321 303.013C82.1021 299.383 86.972 303.273 86.452 300.493C81.442 298.623 85.782 298.203 86.132 297.663C86.822 296.633 86.0121 295.363 86.9421 294.973C89.5921 293.883 87.3721 298.383 89.4221 297.973L89.4421 297.993Z" fill="#E39A01"/>
<path d="M90.4421 192.003L76.4421 191.013L78.5821 176.143C83.2021 175.463 88.1121 176.203 91.9821 178.953L90.4421 192.003Z" fill="#E39A01"/>
<path d="M126.462 348.003C128.422 348.323 128.702 352.423 130.942 351.993C134.892 351.243 128.432 347.983 128.462 347.003C130.462 346.833 132.902 348.833 134.452 346.483C133.632 342.213 127.512 348.933 126.952 343.993L125.462 344.013L124.962 345.993C119.952 340.263 122.322 333.953 126.952 329.003L148.442 364.503C139.052 370.713 140.132 367.433 134.842 361.123C131.652 357.323 127.382 353.613 126.472 348.013L126.462 348.003Z" fill="#E39A01"/>
<path d="M109.772 352.703C110.132 353.223 111.672 353.533 112.292 354.613C113.532 356.773 118.512 364.753 118.952 366.043C119.572 367.873 118.172 370.033 118.442 371.993L115.952 365.013L112.452 366.983L113.202 365.183L111.642 364.803L112.452 362.003L109.442 364.993C107.852 365.323 107.372 364.503 106.442 363.493C104.502 361.393 99.1121 351.833 97.9621 348.973C96.3621 344.983 93.4721 336.483 93.6121 332.453C93.6621 331.113 94.7921 326.493 96.4321 325.993C95.1421 331.463 95.032 336.513 96.452 341.983L97.4921 338.993C98.672 339.813 100.522 338.843 101.442 339.463C102.612 340.253 101.652 342.803 104.432 341.983L103.432 334.983L99.4421 335.983V332.983C104.452 335.813 98.5221 327.193 98.5121 325.493C98.4921 321.023 107.612 316.523 108.462 321.523C109.402 327.053 104.002 329.163 104.392 335.463C104.482 337.003 109.102 351.733 109.752 352.693L109.772 352.703Z" fill="#E39A01"/>
<path d="M146.452 543.003C142.702 542.803 145.962 544.523 145.462 544.993C143.452 546.883 143.512 542.813 142.952 542.993L142.332 544.783L138.462 545.013C138.862 541.213 138.892 540.153 135.462 538.503L135.522 537.063C138.212 537.293 137.552 535.153 137.472 533.003C137.632 532.743 143.392 536.273 142.462 532.013C140.522 532.053 135.232 531.343 134.472 533.513L136.462 534.503C131.722 537.463 136.382 541.853 132.962 544.993C119.632 533.143 147.602 524.823 148.502 536.603C148.652 538.503 146.832 537.793 146.602 538.503C146.532 538.713 146.482 542.303 146.462 543.013C149.072 543.153 148.242 544.993 150.452 545.033L147.472 548.003L151.452 549.013L150.472 538.023C152.152 538.023 152.392 541.373 152.462 542.513C152.822 547.843 152.162 553.393 147.952 557.013C148.422 553.233 147.252 553.593 144.462 551.513C148.652 550.153 146.342 547.133 146.462 543.013L146.452 543.003Z" fill="#E39A01"/>
<path d="M49.4421 358.983L38.4421 360.993L37.4621 365.993C36.5921 355.793 39.1121 356.313 47.7821 356.103L49.4521 358.993L49.4421 358.983Z" fill="#E39A01"/>
<path d="M316.952 465.003C317.602 465.333 317.602 465.673 316.952 466.003V465.003Z" fill="#E39A01"/>
<path d="M121.952 556.003C122.602 556.333 122.602 556.673 121.952 557.003V556.003Z" fill="#E39A01"/>
<path d="M333.952 474.003C334.602 474.333 334.602 474.673 333.952 475.003V474.003Z" fill="#E39A01"/>
<path d="M332.952 466.003C333.602 466.333 333.602 466.673 332.952 467.003V466.003Z" fill="#E39A01"/>
</svg>
