<svg width="166" height="300" viewBox="0 0 166 300" fill="none" xmlns="http://www.w3.org/2000/svg">
<path d="M97.0905 246.932C94.5005 246.542 88.0005 245.922 87.2505 243.252C86.7905 241.622 88.9405 239.112 85.1005 237.942C85.8005 242.252 83.2005 249.452 87.0805 251.942L86.0905 246.952L89.5805 246.902L90.2505 249.772L93.0905 249.952L91.0005 257.342L93.0805 258.932L89.1005 257.932C87.3505 262.812 87.4605 264.952 88.1605 269.872L93.0905 269.932L90.1005 265.952L95.0905 265.932L94.0705 263.462L97.0905 263.932L93.0905 261.932L93.5705 259.962L97.1005 260.442L95.2305 259.782L95.6805 256.902L92.0805 255.942L93.1005 251.962L96.1005 254.952L95.6005 252.962C99.0005 253.842 98.3005 252.242 100.081 250.972C102.191 258.072 105.521 265.812 102.851 273.222C100.861 278.762 97.4105 274.792 95.1005 271.962L90.0805 290.952L88.0805 285.952L86.1005 286.962L87.0805 282.962L84.5505 286.002L77.1005 281.442C76.6005 278.442 79.0205 281.172 80.1405 280.482C81.0605 279.902 81.7605 277.232 83.0705 276.462L78.0905 274.952L80.0805 270.972H71.0905L76.0905 289.962L77.5805 283.962L78.5805 286.972L80.5905 284.982L83.0605 287.002L82.5605 289.002L79.0805 287.992L80.0905 290.982L84.9805 290.062C86.7705 293.752 86.1605 296.822 83.1005 299.542C77.7105 302.162 68.6805 275.872 70.0605 270.982C68.5405 270.702 69.0805 272.662 68.0205 273.432C65.7305 275.102 62.3505 275.152 61.5105 272.062C58.6405 261.512 69.5005 238.522 72.7805 227.192C77.0405 212.492 80.9905 197.382 81.0705 181.982L84.1205 182.422L84.9105 183.632C84.2205 205.652 94.2505 225.742 97.0605 246.972L97.0905 246.932ZM84.1005 185.942C79.8305 185.392 84.1705 193.202 83.1005 194.942L81.1205 193.932L80.1205 204.932L81.1005 201.442L83.1005 201.942L82.1105 198.942L85.1005 200.932L84.1105 185.942H84.1005ZM83.1005 225.932C85.4005 227.262 84.4905 229.272 85.1105 229.932C87.7105 232.692 85.3005 225.862 88.0905 227.942L87.0805 230.932L91.0805 231.932C92.4705 226.102 89.1405 220.662 87.9605 215.062L83.0905 214.942C82.8905 216.382 90.1705 217.742 88.0805 219.932C86.3605 221.732 86.0305 218.072 85.4405 217.932C84.3105 217.672 81.5005 217.232 82.1005 219.422L88.1005 221.452L85.1005 221.952L86.0905 224.932L83.1005 222.952C83.1005 223.942 83.0505 224.952 83.0905 225.942C82.7205 225.732 81.5005 226.202 81.1105 225.922C80.9805 225.832 82.6005 223.222 80.1005 222.942L75.1105 232.442L77.0705 233.922L77.7405 231.892L82.0805 231.922C83.1105 243.762 80.1805 255.672 81.0505 267.462C81.1705 269.142 81.1905 274.732 84.0905 273.922V237.422C84.0905 237.042 82.8205 235.972 83.1205 234.512L87.0805 232.422C83.4505 230.082 83.2505 230.122 83.1005 225.922V225.932ZM73.1005 248.932C78.1805 249.532 79.3305 252.882 79.0905 257.932L74.1005 254.942C74.5505 256.052 75.0605 258.952 73.1105 258.922C73.8005 255.682 67.4305 253.892 74.1005 253.922V250.932L72.1105 252.922C71.5705 251.372 72.9505 249.902 73.1005 248.932C71.7405 248.772 70.0205 249.282 68.7705 248.952C67.5205 248.622 68.7605 246.512 67.1105 246.932L66.1105 252.922L68.0905 250.932V254.922L65.1105 255.412C66.8105 258.032 69.1705 258.202 72.1005 257.932L71.0105 261.822L66.1105 260.922L67.1105 266.922C70.6405 267.822 68.2805 264.142 69.2105 263.042L73.5305 262.032L74.8105 263.912L74.1005 267.912H80.1005V244.922L78.6105 246.922L72.1105 243.932C73.9605 246.502 73.4505 246.642 73.1105 248.922L73.1005 248.932Z" fill="#E39A01" fill-opacity="0.75"/>
<path d="M73.1005 11.9318C73.1005 7.31179 84.7105 -6.78821 87.0905 3.93179L82.1105 0.941789L82.2105 6.83179C85.8105 6.06179 86.9505 9.65179 87.2505 9.76179C87.9405 10.0218 90.0205 8.07179 92.1305 9.38179C95.0705 11.2018 99.2105 27.5118 99.1505 31.3918C99.0605 36.9718 91.9205 67.5118 93.2605 68.8518C93.5005 69.0918 94.9905 68.7018 95.8005 69.2518C96.5105 69.7318 95.5305 71.3418 97.1105 70.9318V65.9318L95.1105 66.4318C95.5105 63.7218 96.2405 61.0018 97.0905 58.4118C98.9505 52.7018 104.181 40.9618 110.701 39.9918C122.471 38.2318 121.791 54.0918 116.621 60.9418L119.111 47.9518L116.451 50.9318L111.131 48.9518L112.151 55.3818C108.161 56.6718 110.231 62.5018 114.121 62.4418C112.311 68.4518 108.301 71.1918 105.151 75.4718C102.491 79.1018 98.0905 86.4818 95.1205 88.9418C95.1005 87.0018 91.4605 85.2418 93.1105 80.9418L85.1305 79.9418L86.0305 83.5018C82.0905 84.6418 84.8205 87.7218 85.1205 89.9418L84.1805 90.4918L83.1205 95.4418C83.3705 70.1818 85.5805 44.5418 83.2605 19.3818C86.5505 17.6918 87.0505 15.4118 86.1205 11.9318C85.3205 12.2018 84.4805 12.7818 83.6205 12.7518C78.2005 12.5418 82.1105 7.04179 75.2005 9.07179L74.9605 11.7518C74.5205 12.3418 73.2905 11.7918 73.1205 11.9418L73.1005 11.9318ZM93.1005 21.9418C89.9505 21.1918 87.7005 22.5318 85.1105 19.9318V27.9318L90.0905 26.9218L87.1005 23.9418L93.0905 21.9518L93.1005 21.9418ZM91.1005 27.9418L89.1105 29.9218L85.1005 28.9418C86.1305 32.8818 86.5905 38.2018 85.1005 41.9218C87.6805 42.9718 86.7305 40.1418 87.7405 39.9118C89.0705 39.6118 90.6905 40.0418 92.0905 39.9218C92.6705 37.2918 91.3805 38.4518 90.0205 37.3218L91.1105 31.9318C92.7705 31.5118 91.5005 33.6418 92.7705 33.9518C93.8005 34.2018 95.0205 33.8618 96.0905 33.9318L94.0905 37.9218L97.0805 38.9318V27.9318C94.7505 30.6818 92.2905 27.8518 91.6005 30.9318L91.0905 27.9418H91.1005ZM96.1005 39.9418C92.4005 39.0718 94.9905 43.1818 93.9705 44.8018L90.1105 45.9518L93.1105 46.9418C93.4305 47.2218 91.3205 52.0918 93.6005 51.9218C95.3305 51.7918 96.3605 41.8618 96.0905 39.9518L96.1005 39.9418ZM85.1005 59.4318V78.9318L88.5005 72.9618L90.1105 60.9418L93.0905 62.9418L94.1205 53.4518C90.1305 54.2318 91.5905 49.6518 88.1105 49.9418L89.1005 53.9218L86.1105 51.9418L85.1005 59.4318ZM103.101 72.9318L106.611 66.9618C105.721 68.7518 101.931 69.6118 101.311 70.0818C101.151 70.2018 101.671 72.9118 100.101 73.9318L103.641 74.7018L105.101 73.4318L103.111 72.9318H103.101ZM97.1005 72.9418C96.3005 72.2718 93.7705 73.3518 92.9705 74.3918C91.6805 76.0718 94.1105 77.8018 90.0905 79.9218L96.1005 78.9218L95.2405 77.0818L98.0805 75.4418C97.0005 74.9618 97.2005 73.0218 97.0905 72.9418H97.1005Z" fill="#E39A01" fill-opacity="0.75"/>
<path d="M63.1005 72.9319C63.2805 72.6619 62.7605 71.3219 63.1705 70.7319C63.7505 69.8819 65.0705 69.8319 65.1405 69.2819C65.3405 67.7719 63.8605 65.6719 64.0905 63.9319L62.1105 64.9519L61.1105 61.9419L60.1905 66.5219L62.0905 67.9219L58.5005 67.0319L56.9305 62.0519L54.0905 61.9319L54.7005 58.9019L51.0905 57.9219L52.1005 54.9319L54.5205 55.9719L55.1105 53.9519L57.0905 53.9319C56.3605 57.3219 59.1605 56.9119 60.1005 58.9219L56.1105 60.9319C58.8905 59.5919 61.3105 61.5119 63.1005 58.4319C58.6605 57.3719 64.0105 55.2919 62.1005 51.9419L65.9805 52.0719C67.9105 57.4719 69.4705 64.5519 73.1105 68.9319C73.0705 69.2619 73.1305 69.6019 73.1105 69.9319C69.3805 70.5519 71.7905 71.8219 69.1105 73.9319L64.7105 70.8819C64.3805 70.8619 63.1405 72.8019 63.1105 72.9319H63.1005Z" fill="#E39A01" fill-opacity="0.75"/>
<path d="M73.1005 11.9319C73.1005 12.8719 74.5305 15.5319 74.1005 15.9219C73.8105 16.1819 71.7405 15.2719 71.0505 16.5619C70.2305 18.1019 68.3705 28.8619 69.1105 29.9319L71.1005 28.9119L71.2305 31.7519L76.1005 32.9219C77.4405 28.7619 74.0805 29.9319 74.1205 26.9219L77.1105 27.9119L75.1105 24.9319L78.1005 25.9319L79.1005 22.9419L75.0905 21.9119L76.1505 16.9819L80.9505 17.0619C83.4905 21.2719 81.1505 25.2619 81.0505 29.3719C80.4905 52.5219 81.5505 75.7619 81.1005 98.9119C84.1105 98.2119 84.6605 96.2919 88.0905 97.9119C84.6405 95.5619 85.6605 94.2319 85.0905 89.9219L89.5305 90.9819L91.0805 88.9219L91.6005 90.9319L92.5805 90.9019C93.2505 90.0319 94.2905 89.5819 95.0905 88.9119C95.1105 91.8119 90.5705 102.312 89.5605 106.882C87.8505 114.602 87.8105 126.262 85.6505 132.972C85.2505 134.222 81.7405 138.412 81.1105 137.912C77.3805 123.232 78.1505 107.612 72.0805 93.4319C74.4205 91.4719 73.5805 94.7819 75.9905 95.4819C77.3405 95.8819 78.6905 96.0219 80.0905 95.9219L80.1405 88.5919L75.5805 85.9619L73.4105 88.9619C66.5405 90.7219 64.9405 80.0819 63.1005 75.9219H67.1005L65.5905 72.9419C66.9405 75.3119 68.4305 73.8419 69.1005 73.9219C69.2905 73.9419 69.8905 74.7319 70.7605 74.8719C73.4805 75.3119 80.0405 73.3219 77.1005 78.9119L79.6405 77.9119C79.9605 75.6119 80.6305 73.1219 78.1905 72.4619L79.0905 69.9219C76.4905 68.7019 76.8105 72.8219 75.6005 72.9019C74.1905 72.9919 72.9905 71.5119 73.0905 69.9219C74.0105 69.7719 75.1205 70.0319 76.0905 69.9119V62.9319L79.0805 66.9219C80.6905 62.1919 78.4505 58.7419 77.0905 54.3419C77.2005 51.8819 82.2805 51.9719 79.4005 48.9419L72.1005 47.9319C72.7605 50.1619 72.8005 52.7619 73.5805 54.9419C74.2405 56.8119 77.1305 58.5919 75.6005 59.9219L72.1005 55.9319C72.1605 59.3619 73.8505 63.3519 74.0505 66.6219C74.1405 68.1519 73.1205 68.7219 73.0905 68.9219C70.1805 53.0019 64.5205 37.1319 68.5805 20.9119C69.4705 17.3719 70.2905 14.2719 73.0905 11.9219L73.1005 11.9319ZM73.1005 44.9419H71.1105V45.9219H73.1005V44.9419ZM82.9405 100.122L80.1105 99.9419L82.1005 101.422C80.5305 102.942 79.4305 105.292 77.1105 103.932V107.922L83.1005 104.932V108.922L81.1205 106.932L80.1005 109.912C83.6605 110.312 83.3905 112.612 88.0105 110.832L89.0305 104.482C88.1605 102.262 85.8005 104.032 84.5405 103.032C83.6605 102.332 83.3505 100.352 82.9505 100.112L82.9405 100.122Z" fill="#E39A01" fill-opacity="0.75"/>
<path d="M63.1005 72.932C62.9105 73.772 63.2305 74.992 63.1005 75.932C63.0005 75.712 61.0505 75.472 61.0705 73.432C61.0705 72.612 63.0205 73.042 63.1005 72.932Z" fill="#E39A01" fill-opacity="0.75"/>
<path d="M137.101 157.932C136.761 157.912 136.381 158.002 136.101 157.932C136.121 157.602 136.101 157.262 136.101 156.932C136.591 157.092 136.841 157.792 137.101 157.932Z" fill="#E39A01" fill-opacity="0.75"/>
<path d="M138.101 158.932C137.761 158.622 137.391 158.092 137.101 157.932C137.331 157.942 137.801 158.672 138.101 158.932Z" fill="#E39A01" fill-opacity="0.75"/>
<path d="M55.1005 144.932C56.7405 142.852 56.3405 142.292 59.5505 141.882C68.8805 140.692 96.1005 140.852 105.621 141.902C116.791 143.142 116.111 155.352 105.511 156.842C96.1605 158.152 79.4605 156.652 69.4705 156.272C67.4405 156.192 65.2205 157.152 62.6405 156.952C55.1605 156.392 49.5105 152.002 55.1005 144.932C55.8305 148.112 53.9405 153.452 58.6405 153.972C63.0405 154.462 62.0105 147.032 67.0905 146.912C66.9905 142.732 62.5005 142.432 59.1605 143.042L59.0905 145.932L55.1005 144.932ZM91.9205 143.202C90.8205 142.552 89.3405 143.032 88.1005 142.952V146.422L90.1005 145.922L90.2305 148.782L93.1005 148.952L90.1105 149.952L92.1005 151.932H85.1105C84.6705 150.302 86.8505 151.432 87.1305 150.322C87.3305 149.542 87.7105 146.602 86.1205 146.952C85.7905 151.612 80.0905 148.952 77.5405 151.932L78.1305 154.922C81.1805 156.322 83.2105 152.572 84.5505 152.352C86.2905 152.072 93.3205 154.012 94.1105 153.462C95.3605 151.182 93.7805 149.242 96.1205 146.452L94.1205 145.462L98.1105 142.962C95.3105 142.982 93.3805 141.912 92.6105 144.962C91.6905 145.112 92.4005 143.492 91.9305 143.212L91.9205 143.202Z" fill="#E39A01" fill-opacity="0.75"/>
<path d="M55.1006 113.932C55.1006 113.932 55.0706 113.252 55.1006 112.932C55.7406 113.472 55.1806 113.652 55.1006 113.932Z" fill="#E39A01" fill-opacity="0.75"/>
<path d="M52.1005 109.932C51.8905 109.772 51.2705 110.102 51.1005 109.932C50.9305 109.762 51.2705 109.072 51.1005 108.932H52.1005V109.932Z" fill="#E39A01" fill-opacity="0.75"/>
<path d="M48.1005 105.932C38.1905 103.502 32.2105 95.5719 22.1105 99.4419C14.2905 102.442 14.2105 108.982 17.1005 115.922C2.37054 117.502 -4.25946 103.882 2.89054 91.2219C9.14054 80.1419 23.7305 80.2119 34.3705 84.1619C37.2805 85.2419 39.2405 87.2919 42.0905 87.9319C43.7105 86.3419 33.4005 78.7319 38.5705 77.9319C43.8605 77.1119 47.0505 79.4619 51.0105 82.5219C52.8905 83.9719 63.3505 92.7619 56.2905 92.1419L55.8905 94.7419L53.0805 94.9519L54.1005 97.9419C48.5605 99.1719 43.3505 97.2019 38.0905 95.9619C40.0805 100.512 46.6205 98.9419 46.1305 103.942C48.3405 101.472 54.9205 108.562 55.6605 110.032C56.3605 111.402 55.2005 111.552 55.0805 111.952L54.0805 110.952C53.7305 110.662 53.4505 110.192 53.0805 109.952C52.7505 109.612 52.4305 109.272 52.0805 108.952C51.7305 108.632 51.4405 108.252 51.0805 107.952C50.7205 107.652 50.4505 107.192 50.0805 106.952C49.8805 106.592 49.4105 106.232 49.0805 105.952C47.5005 104.622 48.2605 105.992 48.0805 105.952L48.1005 105.932ZM49.2205 86.1119C49.3605 85.8819 51.4605 87.1119 52.0805 85.4419L47.5905 81.9519L47.0805 86.9419C45.4705 87.3819 46.3705 85.4919 45.9105 85.2619C45.4905 85.0519 44.0905 85.7419 43.1005 84.9519L43.6805 88.0119L40.2605 89.1019L40.1105 92.9619L48.1005 93.9519L45.1105 90.4719C49.7505 89.0319 48.2005 87.7619 49.2205 86.1319V86.1119ZM30.7805 84.2919C25.9805 83.0619 21.0605 82.6619 16.1005 82.9419C16.2705 87.2119 17.9705 89.0819 20.6805 91.9919C24.6405 92.7519 24.6405 86.9319 25.6005 86.9319C26.8205 90.0519 29.2105 90.4119 32.0905 88.9319L33.0905 91.9419C33.1505 90.8519 33.1205 89.0019 34.0205 88.3719C35.3605 87.4319 38.2405 88.9319 38.0905 86.9619C36.2105 86.0319 33.4805 86.4519 31.8605 85.8719C31.0605 85.5919 31.0305 84.3719 30.7905 84.3019L30.7805 84.2919ZM8.42054 92.6619C7.82054 91.0419 8.07054 89.5919 8.09054 87.9419C3.90054 89.7419 4.81054 92.3119 4.10054 95.9319L7.09054 93.9519C9.86054 100.592 -1.18946 94.5419 1.11054 103.942L2.56054 102.112L9.09054 103.532L12.1105 97.9519L14.0905 100.942L15.0905 95.9519L11.7005 96.9219C11.4105 95.7019 8.51054 92.9219 8.42054 92.6719V92.6619ZM27.1005 89.9419H25.1105L26.6105 91.9319L27.1005 89.9419Z" fill="#E39A01" fill-opacity="0.75"/>
<path d="M51.1005 108.932C50.9605 108.762 50.2705 109.102 50.1005 108.932C49.9305 108.762 50.2605 108.142 50.1005 107.932H51.1005V108.932Z" fill="#E39A01" fill-opacity="0.75"/>
<path d="M50.1005 106.932C50.2505 107.192 49.9405 107.722 50.1005 107.932V108.932L51.1005 109.932H52.1005C52.3105 110.092 52.8605 109.782 53.1005 109.932C53.4305 110.262 53.6705 110.692 54.1005 110.932L55.1005 111.932C55.0105 112.252 55.2105 112.662 55.1005 112.932C55.0105 113.172 54.1105 113.232 54.1105 113.432C54.4805 113.532 54.8205 113.952 55.1005 113.932C54.9205 114.532 55.5905 115.962 54.6005 115.932C53.1205 113.792 45.2705 108.912 48.1005 105.932H49.1005C49.1905 106.622 49.7205 106.682 50.1005 106.932Z" fill="#E39A01" fill-opacity="0.75"/>
<path d="M67.1005 208.932C68.4405 198.892 73.1405 187.962 70.1005 177.942C72.2805 178.522 76.1305 179.762 76.7005 181.872C77.1305 183.452 76.2405 195.792 75.9705 198.302C74.7005 210.112 71.0305 224.302 63.1005 233.472C61.6505 235.142 59.3405 234.222 60.1105 236.932L63.5905 234.922L70.0905 226.932L66.0905 240.922L64.6105 235.952L56.1205 240.912C58.9905 240.352 57.4105 243.822 58.1105 245.932L62.0905 244.932C62.9205 249.342 59.1505 251.102 56.5905 253.922L56.1105 250.452L54.1205 249.942C54.2905 252.592 50.5605 252.522 48.3405 253.612C47.2005 254.172 47.1005 255.622 46.8905 255.722C46.0705 256.122 39.2905 254.522 37.1105 256.922L35.1005 254.422C37.7905 253.692 37.2705 252.552 37.1205 249.922L41.1205 251.912L38.6105 247.922C37.8305 247.732 30.8405 254.052 32.1205 255.922C30.5505 254.702 29.0705 255.282 28.3605 251.192C26.5905 241.002 31.3205 244.122 37.3705 242.672C41.3605 241.712 44.9605 239.622 49.1105 239.912C47.7905 234.732 51.9005 235.882 53.8005 233.602C55.8305 231.182 55.2005 226.432 61.6305 229.912L60.1305 227.432L63.1105 225.912C63.5105 225.292 61.3005 224.582 61.5505 222.912C61.9105 220.472 65.4805 210.072 67.1105 208.932C66.8405 210.962 68.7405 212.662 66.1105 214.912C69.6305 214.592 68.0405 218.302 70.1005 218.922C70.8905 214.222 75.2105 204.942 74.1505 200.572C73.8605 199.402 71.6905 200.572 72.1205 198.942L75.1805 198.382L75.1005 191.932L74.1005 194.922L71.1205 191.932C71.8905 197.462 68.0105 202.662 70.1205 207.922L72.1005 205.932V209.922C67.9705 210.812 70.1705 206.782 67.1105 208.922L67.1005 208.932ZM52.1005 243.942H49.1105L48.6005 246.932L47.6205 244.922L44.1105 247.442C46.0805 248.222 46.3805 248.632 46.1205 250.932C47.9805 250.812 47.8005 246.252 50.1105 248.432L48.1205 251.932C52.0205 251.102 51.9805 247.452 52.1005 243.932V243.942Z" fill="#E39A01" fill-opacity="0.75"/>
<path d="M122.101 88.922C125.431 89.092 126.771 85.632 130.091 87.942C128.941 83.902 136.591 82.422 139.711 82.042C144.761 81.432 151.511 81.782 155.831 84.692C158.271 86.332 164.301 92.842 164.871 95.662C167.551 108.962 160.781 120.922 146.101 115.922C154.851 109.392 148.851 98.242 138.611 98.132C134.081 98.082 130.261 100.822 126.101 101.922C130.381 96.012 139.651 97.132 146.101 97.922C145.291 94.732 135.541 96.342 135.141 95.932L134.081 90.932C130.861 90.212 131.351 94.882 131.071 96.942C126.601 94.452 126.361 102.722 124.091 97.932L126.091 95.932C121.831 94.662 122.331 97.652 120.491 98.782C118.221 100.192 115.391 100.692 113.571 102.912L110.951 98.012L107.511 98.852C106.671 95.142 104.371 96.572 105.391 99.392C105.591 99.952 106.561 99.852 106.741 100.142C106.991 100.562 106.151 101.502 106.321 101.712C106.901 102.432 111.321 103.882 111.091 104.412C101.031 113.032 95.8705 125.052 92.9805 137.802L89.1005 137.922C89.5305 124.932 94.3705 112.572 99.0705 100.662C103.561 98.292 104.521 89.132 110.651 91.802C112.301 92.522 112.441 91.652 112.091 94.412L107.091 95.912L114.471 95.982L116.101 90.912L119.081 91.922C120.981 89.412 116.041 85.412 114.101 86.932C111.641 80.852 127.851 75.392 128.071 79.422L122.091 88.922H122.101ZM153.101 85.922C150.541 82.442 144.551 82.992 140.781 82.902L139.101 86.932L142.081 86.162L142.591 83.912L146.101 83.952L145.251 85.782L148.601 87.932L148.101 84.942L150.291 86.712L153.101 85.922ZM155.101 94.912C149.841 87.642 151.181 95.032 150.561 95.992C149.891 97.032 147.121 96.352 148.111 99.422L154.101 100.922L152.391 96.392L155.101 94.912ZM163.081 93.942L157.221 99.602C156.401 102.832 159.341 102.222 159.941 103.142C160.281 103.662 158.711 106.452 161.091 107.442L157.101 108.452C156.731 109.662 157.501 111.632 158.601 111.932C163.101 113.162 164.631 102.702 164.081 99.942L162.101 101.932L160.101 98.922C160.021 97.022 162.921 97.472 164.081 97.942L163.071 93.952L163.081 93.942ZM98.1005 117.942L94.1105 116.922L94.0905 125.932L92.1105 124.922L90.1005 134.922C94.6905 135.462 93.1505 127.532 93.3105 127.092C93.3705 126.942 95.3705 126.852 95.7305 124.992C96.1805 122.682 94.2805 121.942 94.2805 121.422C94.3105 118.662 99.1205 121.042 98.1005 117.942Z" fill="#E39A01" fill-opacity="0.75"/>
<path d="M71.4705 173.562C66.7805 171.122 66.8905 164.492 72.0805 162.412C78.6805 159.772 103.181 159.262 97.3605 171.692C95.0605 176.592 75.6505 175.742 71.4605 173.552L71.4705 173.562ZM76.1005 173.932H93.1005C92.8205 170.982 86.3705 173.192 86.1105 172.932L88.0905 167.932C86.3305 167.832 85.3605 170.282 84.8505 170.612C84.6805 170.722 82.0605 172.192 81.8705 172.262C80.1405 172.882 76.9605 170.772 76.1005 173.932Z" fill="#E39A01" fill-opacity="0.75"/>
<path d="M138.111 243.932C140.581 259.412 121.631 264.612 111.151 256.392C109.511 255.102 107.001 251.632 111.101 251.942C110.081 256.722 116.921 256.192 120.041 254.872C119.501 250.952 121.511 249.512 119.091 244.932L114.591 247.942C113.761 246.072 113.341 245.572 111.091 245.932C112.071 242.802 112.711 242.462 116.091 242.932C116.621 241.522 112.061 242.062 114.101 239.942C114.681 239.342 117.631 242.612 117.081 239.462C114.701 236.382 111.321 229.912 107.101 231.952L110.101 233.452L107.081 240.432L111.101 242.472L108.111 246.942C108.311 245.462 105.891 240.662 104.111 241.952L102.111 245.942L96.1105 228.952L106.091 237.952L102.111 232.442L104.091 231.962C105.311 229.432 103.931 227.812 103.051 225.462L105.111 224.472L102.441 221.022L98.1805 221.842L97.1105 219.952L98.6005 226.942C90.6205 213.762 88.7505 197.152 88.1005 181.952L94.0805 180.932C96.6405 207.062 106.211 243.092 138.101 243.932H138.111ZM92.9605 183.082L89.1005 182.942L92.1105 205.922L94.0805 203.942L97.0805 206.932L95.9805 197.052C92.5805 198.132 88.2005 189.982 93.0805 189.922L95.0705 195.922L92.9405 183.072L92.9605 183.082ZM133.091 244.952L126.101 243.942L127.101 247.932L123.111 248.432C125.271 252.822 128.021 252.002 131.091 248.942C131.461 263.472 139.211 246.992 137.101 244.942H134.111L135.601 248.952C134.831 247.002 134.351 246.592 132.091 246.932L133.091 244.962V244.952Z" fill="#E39A01" fill-opacity="0.75"/>
<path d="M63.0806 48.902C61.0606 50.352 58.7406 49.002 57.5606 49.102C56.8906 49.162 57.1906 50.632 56.6206 50.802C55.9006 51.022 47.2706 49.332 47.0406 48.282C46.2806 35.302 62.4506 38.502 63.0806 48.902Z" fill="#E39A01" fill-opacity="0.75"/>
<path d="M72.1105 137.932L67.1105 119.932L69.5905 123.932L72.1405 122.232L73.0905 118.942L76.1305 135.452L75.1405 137.482L72.1105 137.932Z" fill="#E39A01" fill-opacity="0.75"/>
<path d="M113.101 109.942C111.811 112.592 111.411 115.582 109.761 118.092C108.361 120.212 106.271 120.962 105.331 122.662C103.361 126.242 101.731 134.122 100.101 138.282C92.6506 141.512 100.001 126.052 101.551 122.882C102.711 120.522 109.971 107.492 113.091 109.932L113.101 109.942Z" fill="#E39A01" fill-opacity="0.75"/>
<path d="M67.1105 138.932C66.0105 133.972 62.2405 129.582 60.6105 124.932C59.3205 121.272 60.6305 114.712 56.1005 115.932L57.1205 112.942C60.8905 116.072 64.0005 122.082 65.8705 126.682C67.0705 129.642 70.8505 137.562 67.1205 138.942L67.1105 138.932Z" fill="#E39A01" fill-opacity="0.75"/>
<path d="M62.5406 97.5019C65.1006 100.642 63.4405 99.8919 64.0705 103.292C64.2605 104.332 67.0705 103.252 66.0905 105.932L62.1106 107.932C68.6306 103.072 67.6405 111.732 67.0905 115.942C65.1605 117.832 56.5306 105.862 56.2706 104.222C55.9906 102.412 56.9506 100.492 57.6106 98.8419L60.0905 98.9419L59.1005 94.9519C61.1005 94.5419 61.5206 96.2619 62.5406 97.5119V97.5019ZM60.6005 106.932V107.932C61.2505 107.602 61.2505 107.262 60.6005 106.932Z" fill="#E39A01" fill-opacity="0.75"/>
<path d="M117.111 108.932L117.601 105.942L119.081 107.432L117.111 108.932Z" fill="#E39A01" fill-opacity="0.75"/>
<path d="M119.601 103.932C120.251 104.262 120.251 104.602 119.601 104.932V103.932Z" fill="#E39A01" fill-opacity="0.75"/>
<path d="M88.0905 224.942H87.1105V226.932H88.0905V224.942Z" fill="#E39A01" fill-opacity="0.75"/>
<path d="M85.6005 225.932C86.2505 226.262 86.2505 226.602 85.6005 226.932V225.932Z" fill="#E39A01" fill-opacity="0.75"/>
</svg>
