<svg width="1400" height="909" viewBox="0 0 1400 909" fill="none" xmlns="http://www.w3.org/2000/svg">
<g clip-path="url(#clip0_117_33847)">
<path d="M-45.1843 735.642L73.2759 854.102H89.3709M95.3705 852.602C95.3705 851.774 94.6985 851.102 93.8713 851.102H90.8702C90.043 851.102 89.3709 851.774 89.3709 852.602V855.601C89.3709 856.429 90.043 857.101 90.8702 857.101H93.8713C94.6985 857.101 95.3705 856.429 95.3705 855.601V852.602ZM-46.2447 730.339C-46.8305 729.753 -47.7804 729.753 -48.3661 730.339L-50.4869 732.46C-51.0721 733.045 -51.0721 733.995 -50.4869 734.58L-48.3661 736.702C-47.7804 737.287 -46.8305 737.287 -46.2447 736.702L-44.1239 734.58C-43.5388 733.995 -43.5388 733.045 -44.1239 732.46L-46.2447 730.339Z" stroke="white" stroke-opacity="0.1" stroke-width="2" stroke-miterlimit="10" stroke-linecap="round" stroke-linejoin="round"/>
<g filter="url(#filter0_i_117_33847)">
<rect x="103" y="875" width="113" height="38" rx="19" fill="black" fill-opacity="0.1"/>
<rect x="103.5" y="875.5" width="112" height="37" rx="18.5" stroke="white" stroke-opacity="0.25"/>
<path d="M123.98 899V888.92H127.942C128.581 888.92 129.118 889.051 129.552 889.312C129.986 889.573 130.313 889.912 130.532 890.327C130.751 890.738 130.861 891.172 130.861 891.629C130.861 892.184 130.723 892.66 130.448 893.057C130.177 893.454 129.811 893.724 129.349 893.869L129.335 893.526C129.979 893.685 130.474 893.995 130.819 894.457C131.164 894.914 131.337 895.449 131.337 896.06C131.337 896.653 131.218 897.168 130.98 897.607C130.747 898.046 130.404 898.389 129.951 898.636C129.503 898.879 128.959 899 128.32 899H123.98ZM125.464 897.607H128.096C128.427 897.607 128.724 897.544 128.985 897.418C129.251 897.292 129.459 897.112 129.608 896.879C129.762 896.641 129.839 896.359 129.839 896.032C129.839 895.729 129.771 895.456 129.636 895.213C129.505 894.966 129.314 894.772 129.062 894.632C128.815 894.487 128.523 894.415 128.187 894.415H125.464V897.607ZM125.464 893.036H127.921C128.192 893.036 128.434 892.982 128.649 892.875C128.868 892.763 129.041 892.604 129.167 892.399C129.298 892.189 129.363 891.937 129.363 891.643C129.363 891.251 129.232 890.929 128.971 890.677C128.71 890.425 128.36 890.299 127.921 890.299H125.464V893.036ZM132.87 899V888.71H134.333V899H132.87ZM139.718 899.21C138.962 899.21 138.306 899.04 137.751 898.699C137.196 898.358 136.766 897.889 136.463 897.292C136.164 896.69 136.015 895.997 136.015 895.213C136.015 894.424 136.169 893.731 136.477 893.134C136.785 892.532 137.217 892.065 137.772 891.734C138.327 891.398 138.976 891.23 139.718 891.23C140.474 891.23 141.13 891.4 141.685 891.741C142.24 892.082 142.67 892.551 142.973 893.148C143.276 893.745 143.428 894.434 143.428 895.213C143.428 896.002 143.274 896.697 142.966 897.299C142.663 897.896 142.233 898.365 141.678 898.706C141.123 899.042 140.469 899.21 139.718 899.21ZM139.718 897.831C140.441 897.831 140.98 897.588 141.335 897.103C141.694 896.613 141.874 895.983 141.874 895.213C141.874 894.424 141.692 893.794 141.328 893.323C140.969 892.847 140.432 892.609 139.718 892.609C139.228 892.609 138.824 892.721 138.507 892.945C138.19 893.164 137.954 893.47 137.8 893.862C137.646 894.249 137.569 894.7 137.569 895.213C137.569 896.006 137.751 896.641 138.115 897.117C138.479 897.593 139.013 897.831 139.718 897.831ZM148.2 899.21C147.426 899.21 146.768 899.037 146.226 898.692C145.685 898.347 145.27 897.873 144.98 897.271C144.696 896.669 144.551 895.985 144.546 895.22C144.551 894.441 144.7 893.752 144.994 893.155C145.288 892.553 145.708 892.082 146.254 891.741C146.8 891.4 147.456 891.23 148.221 891.23C149.047 891.23 149.752 891.435 150.335 891.846C150.923 892.257 151.311 892.819 151.497 893.533L150.041 893.953C149.897 893.528 149.659 893.199 149.327 892.966C149.001 892.728 148.625 892.609 148.2 892.609C147.72 892.609 147.325 892.723 147.017 892.952C146.709 893.176 146.481 893.484 146.331 893.876C146.182 894.268 146.105 894.716 146.1 895.22C146.105 895.999 146.282 896.629 146.632 897.11C146.987 897.591 147.51 897.831 148.2 897.831C148.672 897.831 149.052 897.724 149.341 897.509C149.635 897.29 149.859 896.977 150.013 896.571L151.497 896.921C151.25 897.658 150.842 898.225 150.272 898.622C149.703 899.014 149.012 899.21 148.2 899.21ZM152.916 899L152.923 888.92H154.407V895.08L157.375 891.44H159.237L156.101 895.22L159.559 899H157.571L154.407 895.36V899H152.916ZM163.362 899.21C162.588 899.21 161.93 899.037 161.388 898.692C160.847 898.347 160.432 897.873 160.142 897.271C159.858 896.669 159.713 895.985 159.708 895.22C159.713 894.441 159.862 893.752 160.156 893.155C160.45 892.553 160.87 892.082 161.416 891.741C161.962 891.4 162.618 891.23 163.383 891.23C164.209 891.23 164.914 891.435 165.497 891.846C166.085 892.257 166.473 892.819 166.659 893.533L165.203 893.953C165.059 893.528 164.821 893.199 164.489 892.966C164.163 892.728 163.787 892.609 163.362 892.609C162.882 892.609 162.487 892.723 162.179 892.952C161.871 893.176 161.643 893.484 161.493 893.876C161.344 894.268 161.267 894.716 161.262 895.22C161.267 895.999 161.444 896.629 161.794 897.11C162.149 897.591 162.672 897.831 163.362 897.831C163.834 897.831 164.214 897.724 164.503 897.509C164.797 897.29 165.021 896.977 165.175 896.571L166.659 896.921C166.412 897.658 166.004 898.225 165.434 898.622C164.865 899.014 164.174 899.21 163.362 899.21ZM173.391 899V895.283C173.391 894.989 173.366 894.688 173.314 894.38C173.268 894.067 173.174 893.778 173.034 893.512C172.899 893.246 172.705 893.031 172.453 892.868C172.206 892.705 171.882 892.623 171.48 892.623C171.219 892.623 170.972 892.667 170.738 892.756C170.505 892.84 170.3 892.978 170.122 893.169C169.95 893.36 169.812 893.612 169.709 893.925C169.611 894.238 169.562 894.618 169.562 895.066L168.652 894.723C168.652 894.037 168.781 893.433 169.037 892.91C169.294 892.383 169.663 891.972 170.143 891.678C170.624 891.384 171.205 891.237 171.886 891.237C172.409 891.237 172.848 891.321 173.202 891.489C173.557 891.657 173.844 891.879 174.063 892.154C174.287 892.425 174.458 892.721 174.574 893.043C174.691 893.365 174.77 893.68 174.812 893.988C174.854 894.296 174.875 894.567 174.875 894.8V899H173.391ZM168.078 899V888.92H169.387V894.359H169.562V899H168.078ZM178.834 899.21C178.274 899.21 177.805 899.107 177.427 898.902C177.049 898.692 176.762 898.417 176.566 898.076C176.374 897.731 176.279 897.353 176.279 896.942C176.279 896.559 176.346 896.223 176.482 895.934C176.617 895.645 176.818 895.4 177.084 895.199C177.35 894.994 177.676 894.828 178.064 894.702C178.4 894.604 178.78 894.518 179.205 894.443C179.629 894.368 180.075 894.298 180.542 894.233C181.013 894.168 181.48 894.102 181.942 894.037L181.41 894.331C181.419 893.738 181.293 893.3 181.032 893.015C180.775 892.726 180.332 892.581 179.702 892.581C179.305 892.581 178.941 892.674 178.61 892.861C178.278 893.043 178.047 893.346 177.917 893.771L176.552 893.351C176.738 892.702 177.093 892.187 177.616 891.804C178.143 891.421 178.843 891.23 179.716 891.23C180.392 891.23 180.98 891.347 181.48 891.58C181.984 891.809 182.352 892.173 182.586 892.672C182.707 892.919 182.782 893.181 182.81 893.456C182.838 893.731 182.852 894.028 182.852 894.345V899H181.557V897.271L181.809 897.495C181.496 898.074 181.097 898.505 180.612 898.79C180.131 899.07 179.538 899.21 178.834 899.21ZM179.093 898.013C179.508 898.013 179.865 897.941 180.164 897.796C180.462 897.647 180.703 897.458 180.885 897.229C181.067 897 181.186 896.762 181.242 896.515C181.321 896.291 181.365 896.039 181.375 895.759C181.389 895.479 181.396 895.255 181.396 895.087L181.872 895.262C181.41 895.332 180.99 895.395 180.612 895.451C180.234 895.507 179.891 895.563 179.583 895.619C179.279 895.67 179.009 895.733 178.771 895.808C178.57 895.878 178.39 895.962 178.232 896.06C178.078 896.158 177.954 896.277 177.861 896.417C177.772 896.557 177.728 896.727 177.728 896.928C177.728 897.124 177.777 897.306 177.875 897.474C177.973 897.637 178.122 897.768 178.323 897.866C178.523 897.964 178.78 898.013 179.093 898.013ZM184.809 890.201V888.78H186.272V890.201H184.809ZM184.809 899V891.44H186.272V899H184.809ZM193.681 899V895.283C193.681 894.989 193.655 894.688 193.604 894.38C193.557 894.067 193.464 893.778 193.324 893.512C193.188 893.246 192.995 893.031 192.743 892.868C192.495 892.705 192.171 892.623 191.77 892.623C191.508 892.623 191.261 892.667 191.028 892.756C190.794 892.84 190.589 892.978 190.412 893.169C190.239 893.36 190.101 893.612 189.999 893.925C189.901 894.238 189.852 894.618 189.852 895.066L188.942 894.723C188.942 894.037 189.07 893.433 189.327 892.91C189.583 892.383 189.952 891.972 190.433 891.678C190.913 891.384 191.494 891.237 192.176 891.237C192.698 891.237 193.137 891.321 193.492 891.489C193.846 891.657 194.133 891.879 194.353 892.154C194.577 892.425 194.747 892.721 194.864 893.043C194.98 893.365 195.06 893.68 195.102 893.988C195.144 894.296 195.165 894.567 195.165 894.8V899H193.681ZM188.368 899V891.44H189.677V893.624H189.852V899H188.368Z" fill="white" fill-opacity="0.25"/>
</g>
<path d="M1276.68 788.074C1276.98 788.585 1277.16 789.17 1277.16 789.79C1277.16 790.082 1277.12 790.374 1277.05 790.63H1373.84L1405.46 759.012H1456.5C1456.39 758.61 1456.32 758.172 1456.32 757.734C1456.32 757.296 1456.39 756.858 1456.5 756.456H1404.43L1372.82 788.074H1276.68Z" fill="white" fill-opacity="0.1"/>
<path d="M1253.43 782.963H1369.75L1402.57 750.14H1478.66L1505.31 723.487H1546.46C1546.28 723.085 1546.21 722.647 1546.21 722.209C1546.21 721.771 1546.28 721.333 1546.46 720.931H1504.25L1477.6 747.584H1401.48L1368.65 780.407H1253.43C1253.54 780.809 1253.61 781.247 1253.61 781.685C1253.61 782.123 1253.54 782.561 1253.43 782.963Z" fill="white" fill-opacity="0.1"/>
<path d="M1251.05 781.685C1251.05 782.817 1250.14 783.693 1249.04 783.693C1247.91 783.693 1247.04 782.78 1247.04 781.685C1247.04 780.553 1247.95 779.677 1249.04 779.677C1250.14 779.64 1251.05 780.553 1251.05 781.685ZM1244.44 781.685C1244.44 784.204 1246.49 786.249 1249.01 786.249C1251.09 786.249 1252.84 784.861 1253.39 782.963C1253.5 782.561 1253.57 782.123 1253.57 781.685C1253.57 781.247 1253.5 780.809 1253.39 780.407C1252.84 778.508 1251.09 777.121 1249.01 777.121C1246.49 777.085 1244.44 779.166 1244.44 781.685Z" fill="white" fill-opacity="0.1"/>
<path d="M1462.92 757.734C1462.92 758.866 1462.01 759.742 1460.92 759.742C1459.78 759.742 1458.91 758.829 1458.91 757.734C1458.91 756.602 1459.82 755.726 1460.92 755.726C1462.05 755.689 1462.92 756.602 1462.92 757.734ZM1456.32 757.734C1456.32 758.172 1456.39 758.61 1456.5 759.012C1457.05 760.91 1458.8 762.298 1460.88 762.298C1463.4 762.298 1465.44 760.253 1465.44 757.734C1465.44 755.215 1463.4 753.17 1460.88 753.17C1458.8 753.17 1457.05 754.557 1456.5 756.456C1456.39 756.858 1456.32 757.296 1456.32 757.734Z" fill="white" fill-opacity="0.1"/>
<path d="M1546.21 722.209C1546.21 722.648 1546.28 723.086 1546.46 723.487C1546.97 724.692 1548.14 725.495 1549.49 725.495C1551.32 725.495 1552.78 723.998 1552.78 722.209C1552.78 720.384 1551.28 718.923 1549.49 718.923C1548.1 718.923 1546.94 719.763 1546.46 720.932C1546.28 721.333 1546.21 721.771 1546.21 722.209Z" fill="white" fill-opacity="0.1"/>
<path d="M1270.59 789.791C1270.59 791.616 1272.08 793.077 1273.87 793.077C1275.41 793.077 1276.68 792.054 1277.05 790.63C1277.12 790.375 1277.16 790.083 1277.16 789.791C1277.16 789.17 1276.98 788.586 1276.68 788.075C1276.1 787.125 1275.04 786.468 1273.87 786.468C1272.05 786.505 1270.59 787.965 1270.59 789.791Z" fill="white" fill-opacity="0.1"/>
<path d="M1259.64 656.928L1313.1 656.932L1328.44 672.265L1347.33 672.267L1369.96 694.895L1477.62 694.902M1256.35 659.122C1255.75 659.122 1255.25 658.63 1255.26 658.025L1255.26 655.831C1255.25 655.226 1255.75 654.735 1256.35 654.735L1258.55 654.735C1259.15 654.734 1259.64 655.226 1259.64 655.832L1259.64 658.025C1259.64 658.631 1259.15 659.122 1258.55 659.122L1256.35 659.122Z" stroke="white" stroke-opacity="0.1" stroke-width="3" stroke-miterlimit="10" stroke-linecap="round" stroke-linejoin="round"/>
<g filter="url(#filter1_i_117_33847)">
<rect x="1241" y="674" width="113" height="38" rx="19" fill="black" fill-opacity="0.1"/>
<rect x="1241.5" y="674.5" width="112" height="37" rx="18.5" stroke="white" stroke-opacity="0.25"/>
<path d="M1274.88 698.203L1272.07 695.403L1273.01 694.465L1275.81 697.265L1274.88 698.203ZM1271.19 698.21C1270.18 698.21 1269.32 697.991 1268.61 697.552C1267.9 697.109 1267.36 696.493 1266.98 695.704C1266.61 694.915 1266.42 694.001 1266.42 692.96C1266.42 691.919 1266.61 691.005 1266.98 690.216C1267.36 689.427 1267.9 688.814 1268.61 688.375C1269.32 687.932 1270.18 687.71 1271.19 687.71C1272.19 687.71 1273.05 687.932 1273.76 688.375C1274.47 688.814 1275.01 689.427 1275.39 690.216C1275.76 691.005 1275.95 691.919 1275.95 692.96C1275.95 694.001 1275.76 694.915 1275.39 695.704C1275.01 696.493 1274.47 697.109 1273.76 697.552C1273.05 697.991 1272.19 698.21 1271.19 698.21ZM1271.19 696.817C1271.9 696.826 1272.49 696.67 1272.97 696.348C1273.44 696.021 1273.8 695.569 1274.04 694.99C1274.27 694.407 1274.39 693.73 1274.39 692.96C1274.39 692.19 1274.27 691.518 1274.04 690.944C1273.8 690.365 1273.44 689.915 1272.97 689.593C1272.49 689.271 1271.9 689.108 1271.19 689.103C1270.47 689.094 1269.88 689.25 1269.4 689.572C1268.93 689.894 1268.58 690.347 1268.34 690.93C1268.1 691.513 1267.98 692.19 1267.97 692.96C1267.97 693.73 1268.09 694.404 1268.32 694.983C1268.56 695.557 1268.92 696.005 1269.4 696.327C1269.88 696.649 1270.47 696.812 1271.19 696.817ZM1280.19 698.203C1279.67 698.203 1279.23 698.119 1278.88 697.951C1278.52 697.783 1278.23 697.564 1278.01 697.293C1277.79 697.018 1277.62 696.719 1277.5 696.397C1277.39 696.075 1277.31 695.76 1277.27 695.452C1277.22 695.144 1277.2 694.873 1277.2 694.64V690.44H1278.69V694.157C1278.69 694.451 1278.71 694.754 1278.76 695.067C1278.81 695.375 1278.9 695.662 1279.04 695.928C1279.18 696.194 1279.37 696.409 1279.62 696.572C1279.87 696.735 1280.2 696.817 1280.6 696.817C1280.86 696.817 1281.11 696.775 1281.34 696.691C1281.57 696.602 1281.78 696.462 1281.95 696.271C1282.13 696.08 1282.26 695.828 1282.36 695.515C1282.46 695.202 1282.52 694.822 1282.52 694.374L1283.43 694.717C1283.43 695.403 1283.3 696.01 1283.04 696.537C1282.78 697.06 1282.42 697.468 1281.94 697.762C1281.45 698.056 1280.87 698.203 1280.19 698.203ZM1282.69 698V695.816H1282.52V690.44H1283.99V698H1282.69ZM1288.09 698.21C1287.53 698.21 1287.06 698.107 1286.68 697.902C1286.31 697.692 1286.02 697.417 1285.82 697.076C1285.63 696.731 1285.54 696.353 1285.54 695.942C1285.54 695.559 1285.6 695.223 1285.74 694.934C1285.87 694.645 1286.08 694.4 1286.34 694.199C1286.61 693.994 1286.93 693.828 1287.32 693.702C1287.66 693.604 1288.04 693.518 1288.46 693.443C1288.89 693.368 1289.33 693.298 1289.8 693.233C1290.27 693.168 1290.74 693.102 1291.2 693.037L1290.67 693.331C1290.68 692.738 1290.55 692.3 1290.29 692.015C1290.03 691.726 1289.59 691.581 1288.96 691.581C1288.56 691.581 1288.2 691.674 1287.87 691.861C1287.54 692.043 1287.31 692.346 1287.17 692.771L1285.81 692.351C1286 691.702 1286.35 691.187 1286.87 690.804C1287.4 690.421 1288.1 690.23 1288.97 690.23C1289.65 690.23 1290.24 690.347 1290.74 690.58C1291.24 690.809 1291.61 691.173 1291.84 691.672C1291.96 691.919 1292.04 692.181 1292.07 692.456C1292.1 692.731 1292.11 693.028 1292.11 693.345V698H1290.81V696.271L1291.07 696.495C1290.75 697.074 1290.35 697.505 1289.87 697.79C1289.39 698.07 1288.8 698.21 1288.09 698.21ZM1288.35 697.013C1288.77 697.013 1289.12 696.941 1289.42 696.796C1289.72 696.647 1289.96 696.458 1290.14 696.229C1290.32 696 1290.44 695.762 1290.5 695.515C1290.58 695.291 1290.62 695.039 1290.63 694.759C1290.65 694.479 1290.65 694.255 1290.65 694.087L1291.13 694.262C1290.67 694.332 1290.25 694.395 1289.87 694.451C1289.49 694.507 1289.15 694.563 1288.84 694.619C1288.54 694.67 1288.27 694.733 1288.03 694.808C1287.83 694.878 1287.65 694.962 1287.49 695.06C1287.34 695.158 1287.21 695.277 1287.12 695.417C1287.03 695.557 1286.99 695.727 1286.99 695.928C1286.99 696.124 1287.03 696.306 1287.13 696.474C1287.23 696.637 1287.38 696.768 1287.58 696.866C1287.78 696.964 1288.04 697.013 1288.35 697.013ZM1299.23 698V694.283C1299.23 693.989 1299.21 693.688 1299.16 693.38C1299.11 693.067 1299.02 692.778 1298.88 692.512C1298.74 692.246 1298.55 692.031 1298.3 691.868C1298.05 691.705 1297.72 691.623 1297.32 691.623C1297.06 691.623 1296.81 691.667 1296.58 691.756C1296.35 691.84 1296.14 691.978 1295.96 692.169C1295.79 692.36 1295.65 692.612 1295.55 692.925C1295.45 693.238 1295.4 693.618 1295.4 694.066L1294.49 693.723C1294.49 693.037 1294.62 692.433 1294.88 691.91C1295.14 691.383 1295.5 690.972 1295.99 690.678C1296.47 690.384 1297.05 690.237 1297.73 690.237C1298.25 690.237 1298.69 690.321 1299.04 690.489C1299.4 690.657 1299.69 690.879 1299.91 691.154C1300.13 691.425 1300.3 691.721 1300.42 692.043C1300.53 692.365 1300.61 692.68 1300.65 692.988C1300.7 693.296 1300.72 693.567 1300.72 693.8V698H1299.23ZM1293.92 698V690.44H1295.23V692.624H1295.4V698H1293.92ZM1306.87 698C1306.39 698.093 1305.92 698.133 1305.47 698.119C1305.01 698.105 1304.6 698.016 1304.24 697.853C1303.88 697.69 1303.61 697.433 1303.43 697.083C1303.27 696.77 1303.18 696.453 1303.16 696.131C1303.15 695.804 1303.15 695.436 1303.15 695.025V688.34H1304.62V694.955C1304.62 695.258 1304.62 695.522 1304.63 695.746C1304.64 695.97 1304.68 696.159 1304.77 696.313C1304.94 696.602 1305.21 696.768 1305.57 696.81C1305.94 696.847 1306.37 696.831 1306.87 696.761V698ZM1301.7 691.616V690.44H1306.87V691.616H1301.7ZM1311.31 698.203C1310.79 698.203 1310.35 698.119 1309.99 697.951C1309.64 697.783 1309.35 697.564 1309.13 697.293C1308.91 697.018 1308.74 696.719 1308.62 696.397C1308.5 696.075 1308.43 695.76 1308.38 695.452C1308.34 695.144 1308.32 694.873 1308.32 694.64V690.44H1309.8V694.157C1309.8 694.451 1309.83 694.754 1309.87 695.067C1309.93 695.375 1310.02 695.662 1310.15 695.928C1310.29 696.194 1310.49 696.409 1310.74 696.572C1310.99 696.735 1311.31 696.817 1311.72 696.817C1311.98 696.817 1312.22 696.775 1312.46 696.691C1312.69 696.602 1312.89 696.462 1313.07 696.271C1313.24 696.08 1313.38 695.828 1313.48 695.515C1313.58 695.202 1313.63 694.822 1313.63 694.374L1314.54 694.717C1314.54 695.403 1314.42 696.01 1314.16 696.537C1313.9 697.06 1313.53 697.468 1313.05 697.762C1312.57 698.056 1311.99 698.203 1311.31 698.203ZM1313.81 698V695.816H1313.63V690.44H1315.11V698H1313.81ZM1326.13 698L1326.14 693.289C1326.14 692.743 1326 692.318 1325.72 692.015C1325.44 691.707 1325.07 691.553 1324.61 691.553C1324.33 691.553 1324.08 691.618 1323.84 691.749C1323.61 691.875 1323.43 692.066 1323.28 692.323C1323.14 692.575 1323.07 692.892 1323.07 693.275L1322.37 692.918C1322.36 692.386 1322.47 691.919 1322.7 691.518C1322.94 691.117 1323.26 690.806 1323.67 690.587C1324.07 690.363 1324.53 690.251 1325.03 690.251C1325.85 690.251 1326.48 690.496 1326.93 690.986C1327.38 691.476 1327.6 692.127 1327.6 692.939L1327.59 698H1326.13ZM1317.07 698V690.44H1318.37V692.624H1318.54V698H1317.07ZM1321.6 698L1321.61 693.317C1321.61 692.766 1321.47 692.335 1321.19 692.022C1320.91 691.709 1320.54 691.553 1320.08 691.553C1319.61 691.553 1319.24 691.712 1318.96 692.029C1318.68 692.346 1318.54 692.762 1318.54 693.275L1317.84 692.827C1317.84 692.332 1317.96 691.891 1318.19 691.504C1318.43 691.117 1318.75 690.811 1319.16 690.587C1319.57 690.363 1320.03 690.251 1320.54 690.251C1321.08 690.251 1321.53 690.365 1321.91 690.594C1322.29 690.818 1322.58 691.133 1322.77 691.539C1322.97 691.945 1323.07 692.416 1323.07 692.953L1323.07 698H1321.6Z" fill="white" fill-opacity="0.25"/>
</g>
<path d="M-222.035 693.477L202.086 693.476L230.898 664.664M238.953 651.239C237.471 649.757 235.065 649.757 233.584 651.238L228.212 656.61C226.731 658.091 226.731 660.497 228.213 661.979L233.583 667.349C235.064 668.83 237.47 668.83 238.951 667.349L244.323 661.976C245.804 660.496 245.804 658.09 244.323 656.609L238.953 651.239ZM-233.426 685.882C-235.524 685.882 -237.224 687.583 -237.224 689.68L-237.224 697.273C-237.224 699.368 -235.523 701.069 -233.428 701.069L-225.833 701.071C-223.737 701.069 -222.037 699.369 -222.036 697.273L-222.037 689.679C-222.037 687.584 -223.738 685.882 -225.833 685.882L-233.426 685.882Z" stroke="white" stroke-opacity="0.1" stroke-width="3" stroke-miterlimit="10" stroke-linecap="round" stroke-linejoin="round"/>
<path d="M501.227 554.467L501.227 749.582L487.972 762.837M481.796 766.543C481.114 765.861 481.114 764.754 481.795 764.073L484.267 761.602C484.948 760.92 486.055 760.92 486.737 761.602L489.207 764.073C489.888 764.754 489.888 765.861 489.207 766.542L486.736 769.014C486.054 769.695 484.947 769.695 484.266 769.014L481.796 766.543ZM497.733 549.226C497.733 548.262 498.516 547.479 499.48 547.479L502.974 547.479C503.937 547.479 504.72 548.262 504.72 549.226L504.721 552.72C504.72 553.684 503.938 554.466 502.974 554.467L499.48 554.466C498.516 554.466 497.733 553.683 497.733 552.72L497.733 549.226Z" stroke="white" stroke-opacity="0.1" stroke-width="3" stroke-miterlimit="10" stroke-linecap="round" stroke-linejoin="round"/>
<path d="M856.595 983.791L856.594 788.675L843.339 775.42M837.163 771.715C836.481 772.396 836.481 773.503 837.162 774.185L839.634 776.656C840.315 777.337 841.422 777.337 842.104 776.656L844.574 774.185C845.256 773.504 845.256 772.397 844.574 771.716L842.103 769.244C841.421 768.563 840.315 768.563 839.633 769.244L837.163 771.715ZM853.1 989.031C853.1 989.996 853.883 990.778 854.848 990.778L858.341 990.778C859.305 990.778 860.087 989.996 860.087 989.032L860.088 985.538C860.087 984.574 859.305 983.792 858.341 983.791L854.847 983.792C853.883 983.792 853.1 984.574 853.1 985.538L853.1 989.031Z" stroke="white" stroke-opacity="0.1" stroke-width="3" stroke-miterlimit="10" stroke-linecap="round" stroke-linejoin="round"/>
<path d="M968.976 870.397L968.976 919.575L984.518 935.116M984.518 823.96L984.518 1053.13M971.389 866.777C971.389 866.111 970.848 865.57 970.183 865.57L967.769 865.57C967.103 865.57 966.563 866.111 966.563 866.777L966.563 869.19C966.563 869.856 967.104 870.396 967.77 870.396L970.183 870.397C970.848 870.397 971.389 869.856 971.389 869.19L971.389 866.777ZM986.93 820.341C986.931 819.675 986.39 819.134 985.724 819.134L983.311 819.134C982.645 819.134 982.105 819.674 982.105 820.34L982.105 822.753C982.105 823.419 982.646 823.96 983.311 823.96L985.724 823.96C986.39 823.959 986.93 823.419 986.93 822.753L986.93 820.341Z" stroke="white" stroke-opacity="0.1" stroke-width="2" stroke-miterlimit="10" stroke-linecap="round" stroke-linejoin="round"/>
<g filter="url(#filter2_i_117_33847)">
<rect x="1006" y="806" width="113" height="38" rx="19" fill="black" fill-opacity="0.1"/>
<rect x="1006.5" y="806.5" width="112" height="37" rx="18.5" stroke="white" stroke-opacity="0.25"/>
<path d="M1026.98 830V819.92H1030.14C1030.23 819.92 1030.4 819.922 1030.65 819.927C1030.91 819.932 1031.16 819.95 1031.39 819.983C1032.18 820.081 1032.84 820.363 1033.38 820.83C1033.92 821.297 1034.33 821.889 1034.6 822.608C1034.88 823.322 1035.02 824.106 1035.02 824.96C1035.02 825.819 1034.88 826.607 1034.6 827.326C1034.33 828.04 1033.92 828.63 1033.38 829.097C1032.84 829.559 1032.18 829.839 1031.39 829.937C1031.16 829.97 1030.91 829.988 1030.65 829.993C1030.4 829.998 1030.23 830 1030.14 830H1026.98ZM1028.48 828.607H1030.14C1030.29 828.607 1030.48 828.602 1030.7 828.593C1030.92 828.584 1031.12 828.565 1031.28 828.537C1031.8 828.439 1032.21 828.217 1032.53 827.872C1032.85 827.522 1033.09 827.093 1033.24 826.584C1033.39 826.075 1033.46 825.534 1033.46 824.96C1033.46 824.367 1033.38 823.819 1033.23 823.315C1033.08 822.806 1032.84 822.382 1032.52 822.041C1032.2 821.696 1031.79 821.476 1031.28 821.383C1031.12 821.35 1030.92 821.332 1030.7 821.327C1030.48 821.318 1030.29 821.313 1030.14 821.313H1028.48V828.607ZM1040 830.21C1039.25 830.21 1038.59 830.047 1038.02 829.72C1037.45 829.389 1037.01 828.929 1036.69 828.341C1036.38 827.748 1036.23 827.062 1036.23 826.283C1036.23 825.457 1036.38 824.741 1036.69 824.134C1037 823.527 1037.43 823.058 1037.99 822.727C1038.54 822.396 1039.19 822.23 1039.93 822.23C1040.7 822.23 1041.35 822.41 1041.9 822.769C1042.44 823.124 1042.84 823.63 1043.11 824.288C1043.38 824.946 1043.48 825.728 1043.43 826.633H1041.97V826.101C1041.96 825.224 1041.79 824.575 1041.46 824.155C1041.14 823.735 1040.65 823.525 1039.98 823.525C1039.25 823.525 1038.7 823.756 1038.33 824.218C1037.96 824.68 1037.78 825.347 1037.78 826.22C1037.78 827.051 1037.96 827.695 1038.33 828.152C1038.7 828.605 1039.23 828.831 1039.93 828.831C1040.39 828.831 1040.78 828.728 1041.11 828.523C1041.45 828.313 1041.71 828.014 1041.9 827.627L1043.33 828.082C1043.04 828.759 1042.59 829.284 1041.99 829.657C1041.4 830.026 1040.73 830.21 1040 830.21ZM1037.3 826.633V825.492H1042.7V826.633H1037.3ZM1045.69 830V822.174C1045.69 821.983 1045.7 821.78 1045.71 821.565C1045.73 821.346 1045.77 821.131 1045.83 820.921C1045.9 820.706 1046.02 820.51 1046.17 820.333C1046.37 820.123 1046.58 819.974 1046.8 819.885C1047.03 819.796 1047.26 819.745 1047.48 819.731C1047.71 819.717 1047.92 819.71 1048.11 819.71H1049.07V820.914H1048.18C1047.84 820.914 1047.58 821 1047.41 821.173C1047.24 821.341 1047.15 821.581 1047.15 821.894V830H1045.69ZM1044.44 823.616V822.44H1049.07V823.616H1044.44ZM1050.54 821.201V819.78H1052V821.201H1050.54ZM1050.54 830V822.44H1052V830H1050.54ZM1060.22 830.21C1059.65 830.21 1059.13 830.128 1058.64 829.965C1058.15 829.797 1057.74 829.536 1057.4 829.181C1057.15 828.896 1056.96 828.584 1056.83 828.243C1056.71 827.898 1056.64 827.531 1056.63 827.144C1056.63 826.766 1056.68 826.4 1056.79 826.045C1056.9 825.686 1057.07 825.366 1057.31 825.086C1057.42 824.955 1057.54 824.843 1057.67 824.75C1057.8 824.652 1057.93 824.566 1058.06 824.491C1057.76 824.164 1057.54 823.854 1057.38 823.56C1057.23 823.261 1057.15 822.909 1057.15 822.503C1057.15 821.934 1057.3 821.423 1057.6 820.97C1057.9 820.513 1058.31 820.184 1058.82 819.983C1059.06 819.885 1059.31 819.82 1059.55 819.787C1059.8 819.75 1060.04 819.731 1060.27 819.731C1060.69 819.731 1061.1 819.792 1061.49 819.913C1061.88 820.034 1062.22 820.233 1062.5 820.508C1062.68 820.671 1062.83 820.856 1062.95 821.061C1063.07 821.266 1063.17 821.476 1063.23 821.691L1061.79 822.027C1061.71 821.803 1061.58 821.614 1061.4 821.46C1061.25 821.325 1061.07 821.234 1060.86 821.187C1060.66 821.136 1060.46 821.11 1060.26 821.11C1059.93 821.11 1059.63 821.173 1059.36 821.299C1059.12 821.416 1058.94 821.577 1058.82 821.782C1058.7 821.983 1058.64 822.225 1058.64 822.51C1058.64 822.762 1058.68 822.965 1058.77 823.119C1058.86 823.273 1058.98 823.434 1059.13 823.602C1059.21 823.7 1059.32 823.805 1059.44 823.917C1059.57 824.029 1059.7 824.146 1059.83 824.267L1062.57 826.822C1062.58 826.719 1062.59 826.61 1062.59 826.493C1062.6 826.376 1062.6 826.264 1062.6 826.157L1062.59 824.848H1063.9V826.577C1063.9 826.871 1063.89 827.137 1063.87 827.375C1063.86 827.608 1063.83 827.8 1063.79 827.949L1065.05 829.118L1064.1 830.133L1063.09 829.167C1062.87 829.382 1062.63 829.564 1062.37 829.713C1062.1 829.858 1061.83 829.965 1061.56 830.035C1061.33 830.105 1061.11 830.152 1060.88 830.175C1060.66 830.198 1060.44 830.21 1060.22 830.21ZM1060.26 828.81C1060.45 828.81 1060.62 828.801 1060.78 828.782C1060.94 828.759 1061.09 828.717 1061.23 828.656C1061.43 828.577 1061.59 828.495 1061.71 828.411C1061.83 828.327 1061.94 828.245 1062.02 828.166L1059.15 825.534C1059.01 825.585 1058.87 825.653 1058.75 825.737C1058.63 825.816 1058.52 825.91 1058.43 826.017C1058.33 826.152 1058.24 826.311 1058.19 826.493C1058.14 826.67 1058.11 826.862 1058.12 827.067C1058.12 827.291 1058.15 827.496 1058.22 827.683C1058.3 827.865 1058.39 828.028 1058.51 828.173C1058.7 828.397 1058.96 828.56 1059.29 828.663C1059.62 828.761 1059.95 828.81 1060.26 828.81ZM1068.98 830V819.92H1073.05C1073.15 819.92 1073.27 819.925 1073.42 819.934C1073.56 819.939 1073.7 819.953 1073.83 819.976C1074.39 820.065 1074.86 820.256 1075.23 820.55C1075.61 820.844 1075.89 821.215 1076.08 821.663C1076.26 822.111 1076.36 822.606 1076.36 823.147C1076.36 823.95 1076.15 824.643 1075.74 825.226C1075.33 825.805 1074.71 826.166 1073.89 826.311L1073.3 826.381H1070.44V830H1068.98ZM1074.87 830L1072.89 825.898L1074.36 825.52L1076.55 830H1074.87ZM1070.44 824.995H1073C1073.09 824.995 1073.19 824.99 1073.31 824.981C1073.42 824.972 1073.53 824.955 1073.63 824.932C1073.93 824.862 1074.17 824.734 1074.36 824.547C1074.54 824.356 1074.67 824.136 1074.75 823.889C1074.83 823.642 1074.87 823.394 1074.87 823.147C1074.87 822.9 1074.83 822.655 1074.75 822.412C1074.67 822.165 1074.54 821.948 1074.36 821.761C1074.17 821.57 1073.93 821.439 1073.63 821.369C1073.53 821.341 1073.42 821.322 1073.31 821.313C1073.19 821.304 1073.09 821.299 1073 821.299H1070.44V824.995ZM1080.22 830L1077.29 819.92H1078.83L1080.95 827.543L1083.07 819.927L1084.61 819.92L1086.73 827.543L1088.85 819.92H1090.39L1087.46 830H1086L1083.84 822.461L1081.68 830H1080.22ZM1089.88 830L1093.16 819.92H1095.26L1098.54 830H1097.02L1094 820.802H1094.38L1091.4 830H1089.88ZM1091.58 827.725V826.353H1096.85V827.725H1091.58Z" fill="white" fill-opacity="0.25"/>
</g>
<path d="M-27.7775 651.179V647.814H2.45569L17.4521 662.811H185.825C201.11 648.055 225.287 624.407 227.21 621.619C227.306 621.378 227.45 621.138 227.642 620.946C228.411 620.225 229.036 619.552 263.403 619.936C280.034 620.129 296.761 620.513 296.905 620.513H297.578L313.776 636.711C312.814 637.336 312.093 638.249 311.613 639.307L296.184 623.878C272.487 623.349 234.948 622.868 229.901 623.589C228.508 625.464 223.941 630.271 208.849 645.123C198.371 655.409 187.796 665.599 187.7 665.695L187.219 666.175H16.1063L1.06178 651.179H-27.7775Z" fill="white" fill-opacity="0.1"/>
<path d="M319.784 641.709C319.784 640.219 318.582 639.066 317.14 639.066C315.65 639.066 314.497 640.267 314.497 641.709C314.497 643.199 315.698 644.353 317.14 644.353C318.582 644.401 319.784 643.199 319.784 641.709ZM311.084 641.709C311.084 640.844 311.276 640.027 311.613 639.306C312.093 638.249 312.814 637.335 313.776 636.711C314.737 636.086 315.891 635.701 317.14 635.701C320.457 635.701 323.148 638.393 323.148 641.709C323.148 645.026 320.457 647.718 317.14 647.718C313.824 647.718 311.084 645.026 311.084 641.709Z" fill="white" fill-opacity="0.1"/>
<g filter="url(#filter3_i_117_33847)">
<rect x="349" y="658" width="113" height="38" rx="19" fill="black" fill-opacity="0.1"/>
<rect x="349.5" y="658.5" width="112" height="37" rx="18.5" stroke="white" stroke-opacity="0.25"/>
<path d="M382.98 682V671.92H386.942C387.581 671.92 388.118 672.051 388.552 672.312C388.986 672.573 389.313 672.912 389.532 673.327C389.751 673.738 389.861 674.172 389.861 674.629C389.861 675.184 389.723 675.66 389.448 676.057C389.177 676.454 388.811 676.724 388.349 676.869L388.335 676.526C388.979 676.685 389.474 676.995 389.819 677.457C390.164 677.914 390.337 678.449 390.337 679.06C390.337 679.653 390.218 680.168 389.98 680.607C389.747 681.046 389.404 681.389 388.951 681.636C388.503 681.879 387.959 682 387.32 682H382.98ZM384.464 680.607H387.096C387.427 680.607 387.724 680.544 387.985 680.418C388.251 680.292 388.459 680.112 388.608 679.879C388.762 679.641 388.839 679.359 388.839 679.032C388.839 678.729 388.771 678.456 388.636 678.213C388.505 677.966 388.314 677.772 388.062 677.632C387.815 677.487 387.523 677.415 387.187 677.415H384.464V680.607ZM384.464 676.036H386.921C387.192 676.036 387.434 675.982 387.649 675.875C387.868 675.763 388.041 675.604 388.167 675.399C388.298 675.189 388.363 674.937 388.363 674.643C388.363 674.251 388.232 673.929 387.971 673.677C387.71 673.425 387.36 673.299 386.921 673.299H384.464V676.036ZM391.87 673.201V671.78H393.333V673.201H391.87ZM391.87 682V674.44H393.333V682H391.87ZM399.761 682C399.285 682.093 398.818 682.133 398.361 682.119C397.904 682.105 397.495 682.016 397.136 681.853C396.777 681.69 396.506 681.433 396.324 681.083C396.161 680.77 396.072 680.453 396.058 680.131C396.049 679.804 396.044 679.436 396.044 679.025V672.34H397.514V678.955C397.514 679.258 397.516 679.522 397.521 679.746C397.53 679.97 397.579 680.159 397.668 680.313C397.836 680.602 398.102 680.768 398.466 680.81C398.835 680.847 399.266 680.831 399.761 680.761V682ZM394.595 675.616V674.44H399.761V675.616H394.595ZM404.247 682.21C403.473 682.21 402.815 682.037 402.273 681.692C401.732 681.347 401.317 680.873 401.027 680.271C400.743 679.669 400.598 678.985 400.593 678.22C400.598 677.441 400.747 676.752 401.041 676.155C401.335 675.553 401.755 675.082 402.301 674.741C402.847 674.4 403.503 674.23 404.268 674.23C405.094 674.23 405.799 674.435 406.382 674.846C406.97 675.257 407.358 675.819 407.544 676.533L406.088 676.953C405.944 676.528 405.706 676.199 405.374 675.966C405.048 675.728 404.672 675.609 404.247 675.609C403.767 675.609 403.372 675.723 403.064 675.952C402.756 676.176 402.528 676.484 402.378 676.876C402.229 677.268 402.152 677.716 402.147 678.22C402.152 678.999 402.329 679.629 402.679 680.11C403.034 680.591 403.557 680.831 404.247 680.831C404.719 680.831 405.099 680.724 405.388 680.509C405.682 680.29 405.906 679.977 406.06 679.571L407.544 679.921C407.297 680.658 406.889 681.225 406.319 681.622C405.75 682.014 405.059 682.21 404.247 682.21ZM412.048 682.21C411.292 682.21 410.636 682.04 410.081 681.699C409.526 681.358 409.096 680.889 408.793 680.292C408.494 679.69 408.345 678.997 408.345 678.213C408.345 677.424 408.499 676.731 408.807 676.134C409.115 675.532 409.547 675.065 410.102 674.734C410.657 674.398 411.306 674.23 412.048 674.23C412.804 674.23 413.46 674.4 414.015 674.741C414.57 675.082 415 675.551 415.303 676.148C415.606 676.745 415.758 677.434 415.758 678.213C415.758 679.002 415.604 679.697 415.296 680.299C414.993 680.896 414.563 681.365 414.008 681.706C413.453 682.042 412.799 682.21 412.048 682.21ZM412.048 680.831C412.771 680.831 413.31 680.588 413.665 680.103C414.024 679.613 414.204 678.983 414.204 678.213C414.204 677.424 414.022 676.794 413.658 676.323C413.299 675.847 412.762 675.609 412.048 675.609C411.558 675.609 411.154 675.721 410.837 675.945C410.52 676.164 410.284 676.47 410.13 676.862C409.976 677.249 409.899 677.7 409.899 678.213C409.899 679.006 410.081 679.641 410.445 680.117C410.809 680.593 411.343 680.831 412.048 680.831ZM417.436 673.201V671.78H418.899V673.201H417.436ZM417.436 682V674.44H418.899V682H417.436ZM426.307 682V678.283C426.307 677.989 426.282 677.688 426.23 677.38C426.184 677.067 426.09 676.778 425.95 676.512C425.815 676.246 425.621 676.031 425.369 675.868C425.122 675.705 424.798 675.623 424.396 675.623C424.135 675.623 423.888 675.667 423.654 675.756C423.421 675.84 423.216 675.978 423.038 676.169C422.866 676.36 422.728 676.612 422.625 676.925C422.527 677.238 422.478 677.618 422.478 678.066L421.568 677.723C421.568 677.037 421.697 676.433 421.953 675.91C422.21 675.383 422.579 674.972 423.059 674.678C423.54 674.384 424.121 674.237 424.802 674.237C425.325 674.237 425.764 674.321 426.118 674.489C426.473 674.657 426.76 674.879 426.979 675.154C427.203 675.425 427.374 675.721 427.49 676.043C427.607 676.365 427.686 676.68 427.728 676.988C427.77 677.296 427.791 677.567 427.791 677.8V682H426.307ZM420.994 682V674.44H422.303V676.624H422.478V682H420.994Z" fill="white" fill-opacity="0.25"/>
</g>
<path d="M608.554 798.057H593.696C593.888 798.476 593.965 798.934 593.965 799.391C593.965 799.848 593.85 800.306 593.696 800.725H607.437L633.919 826.948V881.718L623.604 891.933V993.851H626.298V893.038L636.614 882.824V825.842L608.554 798.057Z" fill="white" fill-opacity="0.1"/>
<path d="M620.486 723.543L607.515 736.388V736.922C607.515 737.036 607.207 750.3 607.053 763.487C606.745 790.739 607.245 791.235 607.861 791.844C608.015 791.997 608.207 792.111 608.4 792.187C610.632 793.712 629.57 812.884 641.387 825.004V958.519L629.378 970.41V993.851H632.072V971.516L644.081 959.624V823.937L643.696 823.556C643.619 823.479 635.421 815.056 627.222 806.785C615.328 794.817 611.518 791.197 609.978 790.091C609.362 786.089 609.786 756.322 610.209 737.531L622.565 725.297C621.718 724.916 621.025 724.306 620.486 723.543Z" fill="white" fill-opacity="0.1"/>
<path d="M621.564 763.716C621.14 763.83 620.678 763.907 620.217 763.907C619.755 763.907 619.293 763.83 618.869 763.716V785.517L651.009 817.343V959.014L636.113 973.764V993.889H638.808V974.87L653.704 960.119V816.238L621.564 784.412V763.716Z" fill="white" fill-opacity="0.1"/>
<path d="M620.217 761.238C619.023 761.238 618.1 760.286 618.1 759.142C618.1 757.961 619.062 757.046 620.217 757.046C621.41 757.046 622.334 757.999 622.334 759.142C622.334 760.286 621.371 761.238 620.217 761.238ZM620.217 754.34C617.561 754.34 615.405 756.474 615.405 759.104C615.405 761.277 616.868 763.106 618.869 763.678C619.293 763.792 619.755 763.868 620.217 763.868C620.678 763.868 621.14 763.792 621.564 763.678C623.565 763.106 625.028 761.277 625.028 759.104C625.028 756.474 622.872 754.34 620.217 754.34Z" fill="white" fill-opacity="0.1"/>
<path d="M624.489 723.01C623.296 723.01 622.372 722.057 622.372 720.914C622.372 719.732 623.334 718.817 624.489 718.817C625.682 718.817 626.606 719.77 626.606 720.914C626.644 722.057 625.682 723.01 624.489 723.01ZM624.489 716.111C621.833 716.111 619.677 718.245 619.677 720.875C619.677 721.866 619.986 722.781 620.486 723.543C620.987 724.306 621.718 724.877 622.564 725.259C623.142 725.525 623.796 725.678 624.489 725.678C627.145 725.678 629.3 723.543 629.3 720.914C629.339 718.246 627.183 716.111 624.489 716.111Z" fill="white" fill-opacity="0.1"/>
<path d="M590.501 795.961C588.577 795.961 587.037 797.485 587.037 799.391C587.037 801.297 588.615 802.821 590.501 802.821C591.964 802.821 593.196 801.945 593.696 800.725C593.888 800.306 593.965 799.848 593.965 799.391C593.965 798.934 593.85 798.476 593.696 798.057C593.196 796.837 591.925 795.961 590.501 795.961Z" fill="white" fill-opacity="0.1"/>
<g filter="url(#filter4_i_117_33847)">
<rect x="679" y="726" width="113" height="38" rx="19" fill="black" fill-opacity="0.1"/>
<rect x="679.5" y="726.5" width="112" height="37" rx="18.5" stroke="white" stroke-opacity="0.25"/>
<path d="M703.7 750V749.769L708.845 741.299H703.98V739.92H711.358V740.158L706.241 748.614H711.267V750H703.7ZM713.044 750V739.92H714.507V744.624L718.728 739.92H720.548L716.089 744.841L720.877 750H719.001L714.507 745.184V750H713.044ZM724.392 750V739.92H728.466C728.564 739.92 728.685 739.925 728.83 739.934C728.975 739.939 729.112 739.953 729.243 739.976C729.803 740.065 730.27 740.256 730.643 740.55C731.021 740.844 731.303 741.215 731.49 741.663C731.677 742.111 731.77 742.606 731.77 743.147C731.77 743.693 731.677 744.19 731.49 744.638C731.303 745.086 731.021 745.457 730.643 745.751C730.27 746.045 729.803 746.236 729.243 746.325C729.112 746.344 728.972 746.358 728.823 746.367C728.678 746.376 728.559 746.381 728.466 746.381H725.855V750H724.392ZM725.855 744.995H728.41C728.503 744.995 728.606 744.99 728.718 744.981C728.835 744.972 728.944 744.955 729.047 744.932C729.346 744.862 729.586 744.734 729.768 744.547C729.95 744.356 730.081 744.136 730.16 743.889C730.239 743.642 730.279 743.394 730.279 743.147C730.279 742.9 730.239 742.655 730.16 742.412C730.081 742.165 729.95 741.948 729.768 741.761C729.586 741.57 729.346 741.439 729.047 741.369C728.944 741.341 728.835 741.322 728.718 741.313C728.606 741.304 728.503 741.299 728.41 741.299H725.855V744.995ZM733.169 750V742.44H734.471V744.274L734.289 744.036C734.383 743.793 734.504 743.572 734.653 743.371C734.803 743.166 734.975 742.998 735.171 742.867C735.363 742.727 735.575 742.62 735.808 742.545C736.046 742.466 736.289 742.419 736.536 742.405C736.784 742.386 737.022 742.398 737.25 742.44V743.812C737.003 743.747 736.728 743.728 736.424 743.756C736.126 743.784 735.85 743.88 735.598 744.043C735.36 744.197 735.171 744.384 735.031 744.603C734.896 744.822 734.798 745.067 734.737 745.338C734.677 745.604 734.646 745.886 734.646 746.185V750H733.169ZM741.73 750.21C740.974 750.21 740.318 750.04 739.763 749.699C739.207 749.358 738.778 748.889 738.475 748.292C738.176 747.69 738.027 746.997 738.027 746.213C738.027 745.424 738.181 744.731 738.489 744.134C738.797 743.532 739.228 743.065 739.784 742.734C740.339 742.398 740.988 742.23 741.73 742.23C742.486 742.23 743.141 742.4 743.697 742.741C744.252 743.082 744.681 743.551 744.985 744.148C745.288 744.745 745.44 745.434 745.44 746.213C745.44 747.002 745.286 747.697 744.978 748.299C744.674 748.896 744.245 749.365 743.69 749.706C743.134 750.042 742.481 750.21 741.73 750.21ZM741.73 748.831C742.453 748.831 742.992 748.588 743.347 748.103C743.706 747.613 743.886 746.983 743.886 746.213C743.886 745.424 743.704 744.794 743.34 744.323C742.98 743.847 742.444 743.609 741.73 743.609C741.24 743.609 740.836 743.721 740.519 743.945C740.201 744.164 739.966 744.47 739.812 744.862C739.658 745.249 739.581 745.7 739.581 746.213C739.581 747.006 739.763 747.641 740.127 748.117C740.491 748.593 741.025 748.831 741.73 748.831ZM750.261 750.21C749.505 750.21 748.849 750.04 748.294 749.699C747.739 749.358 747.309 748.889 747.006 748.292C746.707 747.69 746.558 746.997 746.558 746.213C746.558 745.424 746.712 744.731 747.02 744.134C747.328 743.532 747.76 743.065 748.315 742.734C748.87 742.398 749.519 742.23 750.261 742.23C751.017 742.23 751.673 742.4 752.228 742.741C752.783 743.082 753.213 743.551 753.516 744.148C753.819 744.745 753.971 745.434 753.971 746.213C753.971 747.002 753.817 747.697 753.509 748.299C753.206 748.896 752.776 749.365 752.221 749.706C751.666 750.042 751.012 750.21 750.261 750.21ZM750.261 748.831C750.984 748.831 751.523 748.588 751.878 748.103C752.237 747.613 752.417 746.983 752.417 746.213C752.417 745.424 752.235 744.794 751.871 744.323C751.512 743.847 750.975 743.609 750.261 743.609C749.771 743.609 749.367 743.721 749.05 743.945C748.733 744.164 748.497 744.47 748.343 744.862C748.189 745.249 748.112 745.7 748.112 746.213C748.112 747.006 748.294 747.641 748.658 748.117C749.022 748.593 749.556 748.831 750.261 748.831ZM756.202 750V742.174C756.202 741.983 756.209 741.78 756.223 741.565C756.237 741.346 756.277 741.131 756.342 740.921C756.412 740.706 756.527 740.51 756.685 740.333C756.877 740.123 757.087 739.974 757.315 739.885C757.544 739.796 757.77 739.745 757.994 739.731C758.223 739.717 758.433 739.71 758.624 739.71H759.576V740.914H758.694C758.349 740.914 758.09 741 757.917 741.173C757.749 741.341 757.665 741.581 757.665 741.894V750H756.202ZM754.949 743.616V742.44H759.576V743.616H754.949ZM763.582 750.203C762.663 750.203 761.914 750 761.335 749.594C760.756 749.188 760.402 748.616 760.271 747.879L761.769 747.648C761.862 748.04 762.077 748.35 762.413 748.579C762.754 748.803 763.176 748.915 763.68 748.915C764.137 748.915 764.494 748.822 764.751 748.635C765.012 748.448 765.143 748.192 765.143 747.865C765.143 747.674 765.096 747.52 765.003 747.403C764.914 747.282 764.725 747.167 764.436 747.06C764.147 746.953 763.706 746.82 763.113 746.661C762.464 746.493 761.949 746.313 761.566 746.122C761.188 745.926 760.917 745.7 760.754 745.443C760.595 745.182 760.516 744.867 760.516 744.498C760.516 744.041 760.637 743.642 760.88 743.301C761.123 742.96 761.463 742.697 761.902 742.51C762.345 742.323 762.863 742.23 763.456 742.23C764.035 742.23 764.55 742.321 765.003 742.503C765.456 742.685 765.822 742.944 766.102 743.28C766.382 743.611 766.55 744.001 766.606 744.449L765.108 744.722C765.057 744.358 764.886 744.071 764.597 743.861C764.308 743.651 763.932 743.537 763.47 743.518C763.027 743.499 762.667 743.574 762.392 743.742C762.117 743.905 761.979 744.132 761.979 744.421C761.979 744.589 762.03 744.731 762.133 744.848C762.24 744.965 762.446 745.077 762.749 745.184C763.052 745.291 763.5 745.42 764.093 745.569C764.728 745.732 765.232 745.914 765.605 746.115C765.978 746.311 766.244 746.547 766.403 746.822C766.566 747.093 766.648 747.422 766.648 747.809C766.648 748.556 766.375 749.141 765.829 749.566C765.288 749.991 764.539 750.203 763.582 750.203Z" fill="white" fill-opacity="0.25"/>
</g>
<path d="M821.358 718.71L821.358 543.421M817.455 724.565C817.454 725.642 818.329 726.516 819.407 726.516L823.309 726.516C824.386 726.516 825.26 725.642 825.261 724.565L825.261 720.662C825.26 719.585 824.385 718.711 823.309 718.711L819.407 718.711C818.329 718.711 817.455 719.585 817.455 720.662L817.455 724.565ZM817.454 541.47C817.454 542.547 818.329 543.422 819.406 543.421L823.31 543.419C824.386 543.421 825.262 542.546 825.261 541.468L825.261 537.566C825.26 536.491 824.385 535.616 823.309 535.614L819.407 535.614C818.331 535.614 817.455 536.49 817.456 537.566L817.454 541.47Z" stroke="white" stroke-opacity="0.1" stroke-width="3" stroke-miterlimit="10" stroke-linecap="round" stroke-linejoin="round"/>
<path d="M275 753.733C272.934 753.733 271.334 752.067 271.334 750.067C271.334 748 273 746.4 275 746.4C277.067 746.4 278.667 748.067 278.667 750.067C278.667 752.067 277 753.733 275 753.733ZM275 741.667C270.4 741.667 266.667 745.4 266.667 750C266.667 753.8 269.2 757 272.667 758C273.4 758.2 274.2 758.333 275 758.333C275.8 758.333 276.6 758.2 277.334 758C280.8 757 283.334 753.8 283.334 750C283.334 745.4 279.6 741.667 275 741.667Z" fill="white" fill-opacity="0.2"/>
<path d="M125 610.733C122.934 610.733 121.334 609.067 121.334 607.067C121.334 605 123 603.4 125 603.4C127.067 603.4 128.667 605.067 128.667 607.067C128.667 609.067 127 610.733 125 610.733ZM125 598.667C120.4 598.667 116.667 602.4 116.667 607C116.667 610.8 119.2 614 122.667 615C123.4 615.2 124.2 615.333 125 615.333C125.8 615.333 126.6 615.2 127.334 615C130.8 614 133.334 610.8 133.334 607C133.334 602.4 129.6 598.667 125 598.667Z" fill="white" fill-opacity="0.25"/>
<path d="M491.666 881.733C489.6 881.733 488 880.067 488 878.067C488 876 489.666 874.4 491.666 874.4C493.733 874.4 495.333 876.067 495.333 878.067C495.333 880.067 493.666 881.733 491.666 881.733ZM491.666 869.667C487.066 869.667 483.333 873.4 483.333 878C483.333 881.8 485.866 885 489.333 886C490.066 886.2 490.866 886.333 491.666 886.333C492.466 886.333 493.266 886.2 494 886C497.466 885 500 881.8 500 878C500 873.4 496.266 869.667 491.666 869.667Z" fill="white" fill-opacity="0.2"/>
<path d="M766.666 826.733C764.6 826.733 763 825.067 763 823.067C763 821 764.666 819.4 766.666 819.4C768.733 819.4 770.333 821.067 770.333 823.067C770.333 825.067 768.666 826.733 766.666 826.733ZM766.666 814.667C762.066 814.667 758.333 818.4 758.333 823C758.333 826.8 760.866 830 764.333 831C765.066 831.2 765.866 831.333 766.666 831.333C767.466 831.333 768.266 831.2 769 831C772.466 830 775 826.8 775 823C775 818.4 771.266 814.667 766.666 814.667Z" fill="white" fill-opacity="0.2"/>
<path d="M1258.33 899.733C1256.27 899.733 1254.67 898.067 1254.67 896.067C1254.67 894 1256.33 892.4 1258.33 892.4C1260.4 892.4 1262 894.067 1262 896.067C1262 898.067 1260.33 899.733 1258.33 899.733ZM1258.33 887.667C1253.73 887.667 1250 891.4 1250 896C1250 899.8 1252.53 903 1256 904C1256.73 904.2 1257.53 904.333 1258.33 904.333C1259.13 904.333 1259.93 904.2 1260.67 904C1264.13 903 1266.67 899.8 1266.67 896C1266.67 891.4 1262.93 887.667 1258.33 887.667Z" fill="white" fill-opacity="0.2"/>
<path d="M1027.78 616.733C1025.71 616.733 1024.11 615.067 1024.11 613.067C1024.11 611 1025.78 609.4 1027.78 609.4C1029.84 609.4 1031.44 611.067 1031.44 613.067C1031.44 615.067 1029.78 616.733 1027.78 616.733ZM1027.78 604.667C1023.18 604.667 1019.44 608.4 1019.44 613C1019.44 616.8 1021.98 620 1025.44 621C1026.18 621.2 1026.98 621.333 1027.78 621.333C1028.58 621.333 1029.38 621.2 1030.11 621C1033.58 620 1036.11 616.8 1036.11 613C1036.11 608.4 1032.38 604.667 1027.78 604.667Z" fill="white" fill-opacity="0.2"/>
<path d="M286.111 877.444C283.025 877.444 280.556 879.975 280.556 883C280.556 885.346 281.975 887.321 283.951 888.124C284.63 888.432 285.37 888.556 286.111 888.556C286.852 888.556 287.593 888.37 288.272 888.124C290.309 887.259 291.667 885.284 291.667 883C291.667 879.975 289.198 877.444 286.111 877.444Z" fill="white" fill-opacity="0.6"/>
<path d="M61.1112 741.444C58.0248 741.444 55.5557 743.975 55.5557 747C55.5557 749.346 56.9754 751.321 58.9507 752.124C59.6297 752.432 60.3705 752.556 61.1112 752.556C61.852 752.556 62.5927 752.37 63.2717 752.124C65.3088 751.259 66.6668 749.284 66.6668 747C66.6668 743.975 64.1976 741.444 61.1112 741.444Z" fill="white" fill-opacity="0.6"/>
<path d="M561.111 648.444C558.025 648.444 555.556 650.975 555.556 654C555.556 656.346 556.975 658.321 558.951 659.124C559.63 659.432 560.37 659.556 561.111 659.556C561.852 659.556 562.593 659.37 563.272 659.124C565.309 658.259 566.667 656.284 566.667 654C566.667 650.975 564.198 648.444 561.111 648.444Z" fill="white" fill-opacity="0.6"/>
<path d="M913.889 713.444C910.802 713.444 908.333 715.975 908.333 719C908.333 721.346 909.753 723.321 911.728 724.124C912.407 724.432 913.148 724.556 913.889 724.556C914.629 724.556 915.37 724.37 916.049 724.124C918.086 723.259 919.444 721.284 919.444 719C919.444 715.975 916.975 713.444 913.889 713.444Z" fill="white" fill-opacity="0.6"/>
<path d="M1097.22 839.444C1094.14 839.444 1091.67 841.975 1091.67 845C1091.67 847.346 1093.09 849.321 1095.06 850.124C1095.74 850.432 1096.48 850.556 1097.22 850.556C1097.96 850.556 1098.7 850.37 1099.38 850.124C1101.42 849.259 1102.78 847.284 1102.78 845C1102.78 841.975 1100.31 839.444 1097.22 839.444Z" fill="white" fill-opacity="0.6"/>
<path d="M1365.74 598.444C1362.65 598.444 1360.19 600.975 1360.19 604C1360.19 606.346 1361.61 608.321 1363.58 609.124C1364.26 609.432 1365 609.556 1365.74 609.556C1366.48 609.556 1367.22 609.37 1367.9 609.124C1369.94 608.259 1371.3 606.284 1371.3 604C1371.3 600.975 1368.83 598.444 1365.74 598.444Z" fill="white" fill-opacity="0.6"/>
<path d="M341.667 955.13H344.444V941.244L367.216 918.473V874.397L390.741 850.872V823.736L379.712 812.708V788.111L367.85 776.249C367.414 777.082 366.7 777.757 365.907 778.233L376.935 789.262V813.898L387.964 824.927V849.761L364.439 873.287V917.322L341.667 940.094V955.13Z" fill="white" fill-opacity="0.1"/>
<path d="M363.487 771.647C364.717 771.647 365.669 772.639 365.669 773.829C365.669 775.059 364.677 776.011 363.487 776.011C362.257 776.011 361.305 775.019 361.305 773.829C361.305 772.639 362.297 771.647 363.487 771.647ZM363.487 778.828C364.36 778.828 365.153 778.59 365.867 778.193C366.7 777.757 367.375 777.043 367.811 776.21C368.208 775.496 368.446 774.662 368.446 773.829C368.446 771.092 366.224 768.87 363.487 768.87C360.749 768.87 358.528 771.092 358.528 773.829C358.528 776.567 360.749 778.828 363.487 778.828Z" fill="white" fill-opacity="0.1"/>
</g>
<defs>
<filter id="filter0_i_117_33847" x="103" y="875" width="113" height="38" filterUnits="userSpaceOnUse" color-interpolation-filters="sRGB">
<feFlood flood-opacity="0" result="BackgroundImageFix"/>
<feBlend mode="normal" in="SourceGraphic" in2="BackgroundImageFix" result="shape"/>
<feColorMatrix in="SourceAlpha" type="matrix" values="0 0 0 0 0 0 0 0 0 0 0 0 0 0 0 0 0 0 127 0" result="hardAlpha"/>
<feOffset/>
<feGaussianBlur stdDeviation="7.5"/>
<feComposite in2="hardAlpha" operator="arithmetic" k2="-1" k3="1"/>
<feColorMatrix type="matrix" values="0 0 0 0 0 0 0 0 0 0 0 0 0 0 0 0 0 0 0.2 0"/>
<feBlend mode="normal" in2="shape" result="effect1_innerShadow_117_33847"/>
</filter>
<filter id="filter1_i_117_33847" x="1241" y="674" width="113" height="38" filterUnits="userSpaceOnUse" color-interpolation-filters="sRGB">
<feFlood flood-opacity="0" result="BackgroundImageFix"/>
<feBlend mode="normal" in="SourceGraphic" in2="BackgroundImageFix" result="shape"/>
<feColorMatrix in="SourceAlpha" type="matrix" values="0 0 0 0 0 0 0 0 0 0 0 0 0 0 0 0 0 0 127 0" result="hardAlpha"/>
<feOffset/>
<feGaussianBlur stdDeviation="7.5"/>
<feComposite in2="hardAlpha" operator="arithmetic" k2="-1" k3="1"/>
<feColorMatrix type="matrix" values="0 0 0 0 0 0 0 0 0 0 0 0 0 0 0 0 0 0 0.2 0"/>
<feBlend mode="normal" in2="shape" result="effect1_innerShadow_117_33847"/>
</filter>
<filter id="filter2_i_117_33847" x="1006" y="806" width="113" height="38" filterUnits="userSpaceOnUse" color-interpolation-filters="sRGB">
<feFlood flood-opacity="0" result="BackgroundImageFix"/>
<feBlend mode="normal" in="SourceGraphic" in2="BackgroundImageFix" result="shape"/>
<feColorMatrix in="SourceAlpha" type="matrix" values="0 0 0 0 0 0 0 0 0 0 0 0 0 0 0 0 0 0 127 0" result="hardAlpha"/>
<feOffset/>
<feGaussianBlur stdDeviation="7.5"/>
<feComposite in2="hardAlpha" operator="arithmetic" k2="-1" k3="1"/>
<feColorMatrix type="matrix" values="0 0 0 0 0 0 0 0 0 0 0 0 0 0 0 0 0 0 0.2 0"/>
<feBlend mode="normal" in2="shape" result="effect1_innerShadow_117_33847"/>
</filter>
<filter id="filter3_i_117_33847" x="349" y="658" width="113" height="38" filterUnits="userSpaceOnUse" color-interpolation-filters="sRGB">
<feFlood flood-opacity="0" result="BackgroundImageFix"/>
<feBlend mode="normal" in="SourceGraphic" in2="BackgroundImageFix" result="shape"/>
<feColorMatrix in="SourceAlpha" type="matrix" values="0 0 0 0 0 0 0 0 0 0 0 0 0 0 0 0 0 0 127 0" result="hardAlpha"/>
<feOffset/>
<feGaussianBlur stdDeviation="7.5"/>
<feComposite in2="hardAlpha" operator="arithmetic" k2="-1" k3="1"/>
<feColorMatrix type="matrix" values="0 0 0 0 0 0 0 0 0 0 0 0 0 0 0 0 0 0 0.2 0"/>
<feBlend mode="normal" in2="shape" result="effect1_innerShadow_117_33847"/>
</filter>
<filter id="filter4_i_117_33847" x="679" y="726" width="113" height="38" filterUnits="userSpaceOnUse" color-interpolation-filters="sRGB">
<feFlood flood-opacity="0" result="BackgroundImageFix"/>
<feBlend mode="normal" in="SourceGraphic" in2="BackgroundImageFix" result="shape"/>
<feColorMatrix in="SourceAlpha" type="matrix" values="0 0 0 0 0 0 0 0 0 0 0 0 0 0 0 0 0 0 127 0" result="hardAlpha"/>
<feOffset/>
<feGaussianBlur stdDeviation="7.5"/>
<feComposite in2="hardAlpha" operator="arithmetic" k2="-1" k3="1"/>
<feColorMatrix type="matrix" values="0 0 0 0 0 0 0 0 0 0 0 0 0 0 0 0 0 0 0.2 0"/>
<feBlend mode="normal" in2="shape" result="effect1_innerShadow_117_33847"/>
</filter>
<clipPath id="clip0_117_33847">
<rect width="1400" height="909" fill="white"/>
</clipPath>
</defs>
</svg>
